M48
; DRILL file {KiCad 7.0.2-6a45011f42~172~ubuntu22.04.1} date Sun 07 May 2023 19:32:11 BST
; FORMAT={-:-/ absolute / inch / decimal}
; #@! TF.CreationDate,2023-05-07T19:32:11+01:00
; #@! TF.GenerationSoftware,Kicad,Pcbnew,7.0.2-6a45011f42~172~ubuntu22.04.1
; #@! TF.FileFunction,Plated,1,4,PTH
FMAT,2
INCH
; #@! TA.AperFunction,Plated,PTH,ViaDrill
T1C0.0118
; #@! TA.AperFunction,Plated,PTH,ComponentDrill
T2C0.0394
%
G90
G05
T1
X5.0787Y-2.8543
X5.3423Y-3.0809
X5.3423Y-3.5533
X5.3423Y-3.5533
X5.3423Y-3.5533
X5.3423Y-3.5533
X5.3423Y-3.5533
X5.3423Y-4.0258
X5.3423Y-4.0258
X5.3423Y-4.0258
X5.3423Y-4.0258
X5.3423Y-4.0258
X5.3423Y-4.4982
X5.3423Y-4.4982
X5.3423Y-4.4982
X5.3423Y-4.4982
X5.3423Y-4.4982
X5.3858Y-4.5866
X5.4325Y-3.4134
X5.4329Y-3.563
X5.4329Y-3.8858
X5.4329Y-4.0354
X5.4329Y-4.3622
X5.4329Y-2.9943
X5.4329Y-3.4667
X5.4329Y-3.4667
X5.4329Y-3.4667
X5.4329Y-3.4667
X5.4329Y-3.4667
X5.4329Y-3.9392
X5.4329Y-3.9392
X5.4329Y-3.9392
X5.4329Y-3.9392
X5.4329Y-3.9392
X5.4329Y-4.4116
X5.4329Y-4.4116
X5.4329Y-4.4116
X5.4329Y-4.4116
X5.4329Y-4.4116
X5.4331Y-3.0945
X5.4331Y-4.5079
X5.4336Y-2.9421
X5.6628Y-3.1476
X5.6628Y-3.1476
X5.6628Y-3.1476
X5.6628Y-3.1476
X5.6628Y-3.1476
X5.6628Y-3.6201
X5.6628Y-3.6201
X5.6628Y-3.6201
X5.6628Y-3.6201
X5.6628Y-3.6201
X5.6628Y-4.0925
X5.6628Y-4.0925
X5.6628Y-4.0925
X5.6628Y-4.0925
X5.6628Y-4.0925
X5.6628Y-4.565
X5.6628Y-4.565
X5.6628Y-4.565
X5.6628Y-4.565
X5.6628Y-4.565
X5.6628Y-3.5236
X5.6628Y-3.6693
X5.6628Y-3.9921
X5.6628Y-4.1417
X5.6628Y-4.4646
X5.6628Y-4.6142
X5.6654Y-3.0512
X5.6654Y-3.1969
X5.7087Y-2.9528
X5.7533Y-3.061
X5.7533Y-3.061
X5.7533Y-3.061
X5.7533Y-3.061
X5.7533Y-3.061
X5.7533Y-3.5335
X5.7533Y-3.5335
X5.7533Y-3.5335
X5.7533Y-3.5335
X5.7533Y-3.5335
X5.7533Y-4.0059
X5.7533Y-4.0059
X5.7533Y-4.0059
X5.7533Y-4.0059
X5.7533Y-4.0059
X5.7533Y-4.4783
X5.7533Y-4.4783
X5.7533Y-4.4783
X5.7533Y-4.4783
X5.7533Y-4.4783
T2
X4.9959Y-2.9179
X4.9959Y-3.0179
X4.9959Y-3.1179
X4.9959Y-3.2179
X4.9959Y-3.3904
X4.9959Y-3.4904
X4.9959Y-3.5904
X4.9959Y-3.6904
X4.9959Y-3.8628
X4.9959Y-3.9628
X4.9959Y-4.0628
X4.9959Y-4.1628
X4.9959Y-4.3352
X4.9959Y-4.4352
X4.9959Y-4.5352
X4.9959Y-4.6352
X5.1969Y-2.6541
X5.1969Y-2.7559
X5.2969Y-2.6541
X5.2969Y-2.7559
X5.3969Y-2.6541
X5.3969Y-2.7559
X5.4512Y-4.8031
X5.4969Y-2.7559
X5.5512Y-4.8031
X5.5959Y-2.6541
X5.5969Y-2.7559
X5.6512Y-4.8031
X5.6959Y-2.6541
X5.6969Y-2.7559
X5.7969Y-2.7559
X5.8969Y-2.7559
X6.0998Y-2.924
X6.0998Y-3.024
X6.0998Y-3.124
X6.0998Y-3.224
X6.0998Y-3.3965
X6.0998Y-3.4965
X6.0998Y-3.5965
X6.0998Y-3.6965
X6.0998Y-3.8689
X6.0998Y-3.9689
X6.0998Y-4.0689
X6.0998Y-4.1689
X6.0998Y-4.3413
X6.0998Y-4.4413
X6.0998Y-4.5413
X6.0998Y-4.6413
T0
M30
