%TF.GenerationSoftware,KiCad,Pcbnew,7.0.2-6a45011f42~172~ubuntu22.04.1*%
%TF.CreationDate,2023-05-19T09:40:27+01:00*%
%TF.ProjectId,octoHX711,6f63746f-4858-4373-9131-2e6b69636164,rev?*%
%TF.SameCoordinates,Original*%
%TF.FileFunction,Legend,Top*%
%TF.FilePolarity,Positive*%
%FSLAX46Y46*%
G04 Gerber Fmt 4.6, Leading zero omitted, Abs format (unit mm)*
G04 Created by KiCad (PCBNEW 7.0.2-6a45011f42~172~ubuntu22.04.1) date 2023-05-19 09:40:27*
%MOMM*%
%LPD*%
G01*
G04 APERTURE LIST*
G04 Aperture macros list*
%AMRoundRect*
0 Rectangle with rounded corners*
0 $1 Rounding radius*
0 $2 $3 $4 $5 $6 $7 $8 $9 X,Y pos of 4 corners*
0 Add a 4 corners polygon primitive as box body*
4,1,4,$2,$3,$4,$5,$6,$7,$8,$9,$2,$3,0*
0 Add four circle primitives for the rounded corners*
1,1,$1+$1,$2,$3*
1,1,$1+$1,$4,$5*
1,1,$1+$1,$6,$7*
1,1,$1+$1,$8,$9*
0 Add four rect primitives between the rounded corners*
20,1,$1+$1,$2,$3,$4,$5,0*
20,1,$1+$1,$4,$5,$6,$7,0*
20,1,$1+$1,$6,$7,$8,$9,0*
20,1,$1+$1,$8,$9,$2,$3,0*%
%AMFreePoly0*
4,1,19,0.500000,-0.750000,0.000000,-0.750000,0.000000,-0.744911,-0.071157,-0.744911,-0.207708,-0.704816,-0.327430,-0.627875,-0.420627,-0.520320,-0.479746,-0.390866,-0.500000,-0.250000,-0.500000,0.250000,-0.479746,0.390866,-0.420627,0.520320,-0.327430,0.627875,-0.207708,0.704816,-0.071157,0.744911,0.000000,0.744911,0.000000,0.750000,0.500000,0.750000,0.500000,-0.750000,0.500000,-0.750000,
$1*%
%AMFreePoly1*
4,1,19,0.000000,0.744911,0.071157,0.744911,0.207708,0.704816,0.327430,0.627875,0.420627,0.520320,0.479746,0.390866,0.500000,0.250000,0.500000,-0.250000,0.479746,-0.390866,0.420627,-0.520320,0.327430,-0.627875,0.207708,-0.704816,0.071157,-0.744911,0.000000,-0.744911,0.000000,-0.750000,-0.500000,-0.750000,-0.500000,0.750000,0.000000,0.750000,0.000000,0.744911,0.000000,0.744911,
$1*%
G04 Aperture macros list end*
%ADD10C,1.000000*%
%ADD11C,0.200000*%
%ADD12C,0.125000*%
%ADD13C,0.120000*%
%ADD14C,0.100000*%
%ADD15RoundRect,0.135000X-0.135000X-0.185000X0.135000X-0.185000X0.135000X0.185000X-0.135000X0.185000X0*%
%ADD16R,1.700000X1.700000*%
%ADD17O,1.700000X1.700000*%
%ADD18RoundRect,0.135000X0.185000X-0.135000X0.185000X0.135000X-0.185000X0.135000X-0.185000X-0.135000X0*%
%ADD19RoundRect,0.070000X-0.650000X-0.300000X0.650000X-0.300000X0.650000X0.300000X-0.650000X0.300000X0*%
%ADD20RoundRect,0.218750X0.218750X0.256250X-0.218750X0.256250X-0.218750X-0.256250X0.218750X-0.256250X0*%
%ADD21RoundRect,0.150000X0.850000X0.150000X-0.850000X0.150000X-0.850000X-0.150000X0.850000X-0.150000X0*%
%ADD22RoundRect,0.140000X-0.170000X0.140000X-0.170000X-0.140000X0.170000X-0.140000X0.170000X0.140000X0*%
%ADD23RoundRect,0.070000X0.650000X0.300000X-0.650000X0.300000X-0.650000X-0.300000X0.650000X-0.300000X0*%
%ADD24RoundRect,0.135000X-0.185000X0.135000X-0.185000X-0.135000X0.185000X-0.135000X0.185000X0.135000X0*%
%ADD25RoundRect,0.218750X-0.218750X-0.256250X0.218750X-0.256250X0.218750X0.256250X-0.218750X0.256250X0*%
%ADD26RoundRect,0.140000X0.170000X-0.140000X0.170000X0.140000X-0.170000X0.140000X-0.170000X-0.140000X0*%
%ADD27RoundRect,0.150000X-0.850000X-0.150000X0.850000X-0.150000X0.850000X0.150000X-0.850000X0.150000X0*%
%ADD28RoundRect,0.135000X0.135000X0.185000X-0.135000X0.185000X-0.135000X-0.185000X0.135000X-0.185000X0*%
%ADD29RoundRect,0.140000X-0.140000X-0.170000X0.140000X-0.170000X0.140000X0.170000X-0.140000X0.170000X0*%
%ADD30FreePoly0,0.000000*%
%ADD31FreePoly1,0.000000*%
G04 APERTURE END LIST*
D10*
X128500000Y-66500000D02*
G75*
G03*
X128500000Y-66500000I-2000000J0D01*
G01*
X128500000Y-123500000D02*
G75*
G03*
X128500000Y-123500000I-2000000J0D01*
G01*
X157500000Y-66500000D02*
G75*
G03*
X157500000Y-66500000I-2000000J0D01*
G01*
X157500000Y-123500000D02*
G75*
G03*
X157500000Y-123500000I-2000000J0D01*
G01*
D11*
X151461905Y-70462619D02*
X151461905Y-69462619D01*
X151461905Y-69462619D02*
X151700000Y-69462619D01*
X151700000Y-69462619D02*
X151842857Y-69510238D01*
X151842857Y-69510238D02*
X151938095Y-69605476D01*
X151938095Y-69605476D02*
X151985714Y-69700714D01*
X151985714Y-69700714D02*
X152033333Y-69891190D01*
X152033333Y-69891190D02*
X152033333Y-70034047D01*
X152033333Y-70034047D02*
X151985714Y-70224523D01*
X151985714Y-70224523D02*
X151938095Y-70319761D01*
X151938095Y-70319761D02*
X151842857Y-70415000D01*
X151842857Y-70415000D02*
X151700000Y-70462619D01*
X151700000Y-70462619D02*
X151461905Y-70462619D01*
X152604762Y-69891190D02*
X152509524Y-69843571D01*
X152509524Y-69843571D02*
X152461905Y-69795952D01*
X152461905Y-69795952D02*
X152414286Y-69700714D01*
X152414286Y-69700714D02*
X152414286Y-69653095D01*
X152414286Y-69653095D02*
X152461905Y-69557857D01*
X152461905Y-69557857D02*
X152509524Y-69510238D01*
X152509524Y-69510238D02*
X152604762Y-69462619D01*
X152604762Y-69462619D02*
X152795238Y-69462619D01*
X152795238Y-69462619D02*
X152890476Y-69510238D01*
X152890476Y-69510238D02*
X152938095Y-69557857D01*
X152938095Y-69557857D02*
X152985714Y-69653095D01*
X152985714Y-69653095D02*
X152985714Y-69700714D01*
X152985714Y-69700714D02*
X152938095Y-69795952D01*
X152938095Y-69795952D02*
X152890476Y-69843571D01*
X152890476Y-69843571D02*
X152795238Y-69891190D01*
X152795238Y-69891190D02*
X152604762Y-69891190D01*
X152604762Y-69891190D02*
X152509524Y-69938809D01*
X152509524Y-69938809D02*
X152461905Y-69986428D01*
X152461905Y-69986428D02*
X152414286Y-70081666D01*
X152414286Y-70081666D02*
X152414286Y-70272142D01*
X152414286Y-70272142D02*
X152461905Y-70367380D01*
X152461905Y-70367380D02*
X152509524Y-70415000D01*
X152509524Y-70415000D02*
X152604762Y-70462619D01*
X152604762Y-70462619D02*
X152795238Y-70462619D01*
X152795238Y-70462619D02*
X152890476Y-70415000D01*
X152890476Y-70415000D02*
X152938095Y-70367380D01*
X152938095Y-70367380D02*
X152985714Y-70272142D01*
X152985714Y-70272142D02*
X152985714Y-70081666D01*
X152985714Y-70081666D02*
X152938095Y-69986428D01*
X152938095Y-69986428D02*
X152890476Y-69938809D01*
X152890476Y-69938809D02*
X152795238Y-69891190D01*
X128861905Y-70462619D02*
X128861905Y-69462619D01*
X128861905Y-69462619D02*
X129100000Y-69462619D01*
X129100000Y-69462619D02*
X129242857Y-69510238D01*
X129242857Y-69510238D02*
X129338095Y-69605476D01*
X129338095Y-69605476D02*
X129385714Y-69700714D01*
X129385714Y-69700714D02*
X129433333Y-69891190D01*
X129433333Y-69891190D02*
X129433333Y-70034047D01*
X129433333Y-70034047D02*
X129385714Y-70224523D01*
X129385714Y-70224523D02*
X129338095Y-70319761D01*
X129338095Y-70319761D02*
X129242857Y-70415000D01*
X129242857Y-70415000D02*
X129100000Y-70462619D01*
X129100000Y-70462619D02*
X128861905Y-70462619D01*
X130385714Y-70462619D02*
X129814286Y-70462619D01*
X130100000Y-70462619D02*
X130100000Y-69462619D01*
X130100000Y-69462619D02*
X130004762Y-69605476D01*
X130004762Y-69605476D02*
X129909524Y-69700714D01*
X129909524Y-69700714D02*
X129814286Y-69748333D01*
X133100000Y-121891190D02*
X133004762Y-121843571D01*
X133004762Y-121843571D02*
X132957143Y-121795952D01*
X132957143Y-121795952D02*
X132909524Y-121700714D01*
X132909524Y-121700714D02*
X132909524Y-121653095D01*
X132909524Y-121653095D02*
X132957143Y-121557857D01*
X132957143Y-121557857D02*
X133004762Y-121510238D01*
X133004762Y-121510238D02*
X133100000Y-121462619D01*
X133100000Y-121462619D02*
X133290476Y-121462619D01*
X133290476Y-121462619D02*
X133385714Y-121510238D01*
X133385714Y-121510238D02*
X133433333Y-121557857D01*
X133433333Y-121557857D02*
X133480952Y-121653095D01*
X133480952Y-121653095D02*
X133480952Y-121700714D01*
X133480952Y-121700714D02*
X133433333Y-121795952D01*
X133433333Y-121795952D02*
X133385714Y-121843571D01*
X133385714Y-121843571D02*
X133290476Y-121891190D01*
X133290476Y-121891190D02*
X133100000Y-121891190D01*
X133100000Y-121891190D02*
X133004762Y-121938809D01*
X133004762Y-121938809D02*
X132957143Y-121986428D01*
X132957143Y-121986428D02*
X132909524Y-122081666D01*
X132909524Y-122081666D02*
X132909524Y-122272142D01*
X132909524Y-122272142D02*
X132957143Y-122367380D01*
X132957143Y-122367380D02*
X133004762Y-122415000D01*
X133004762Y-122415000D02*
X133100000Y-122462619D01*
X133100000Y-122462619D02*
X133290476Y-122462619D01*
X133290476Y-122462619D02*
X133385714Y-122415000D01*
X133385714Y-122415000D02*
X133433333Y-122367380D01*
X133433333Y-122367380D02*
X133480952Y-122272142D01*
X133480952Y-122272142D02*
X133480952Y-122081666D01*
X133480952Y-122081666D02*
X133433333Y-121986428D01*
X133433333Y-121986428D02*
X133385714Y-121938809D01*
X133385714Y-121938809D02*
X133290476Y-121891190D01*
X134100000Y-121462619D02*
X134195238Y-121462619D01*
X134195238Y-121462619D02*
X134290476Y-121510238D01*
X134290476Y-121510238D02*
X134338095Y-121557857D01*
X134338095Y-121557857D02*
X134385714Y-121653095D01*
X134385714Y-121653095D02*
X134433333Y-121843571D01*
X134433333Y-121843571D02*
X134433333Y-122081666D01*
X134433333Y-122081666D02*
X134385714Y-122272142D01*
X134385714Y-122272142D02*
X134338095Y-122367380D01*
X134338095Y-122367380D02*
X134290476Y-122415000D01*
X134290476Y-122415000D02*
X134195238Y-122462619D01*
X134195238Y-122462619D02*
X134100000Y-122462619D01*
X134100000Y-122462619D02*
X134004762Y-122415000D01*
X134004762Y-122415000D02*
X133957143Y-122367380D01*
X133957143Y-122367380D02*
X133909524Y-122272142D01*
X133909524Y-122272142D02*
X133861905Y-122081666D01*
X133861905Y-122081666D02*
X133861905Y-121843571D01*
X133861905Y-121843571D02*
X133909524Y-121653095D01*
X133909524Y-121653095D02*
X133957143Y-121557857D01*
X133957143Y-121557857D02*
X134004762Y-121510238D01*
X134004762Y-121510238D02*
X134100000Y-121462619D01*
X134861905Y-122462619D02*
X134861905Y-121462619D01*
X134861905Y-121938809D02*
X135433333Y-121938809D01*
X135433333Y-122462619D02*
X135433333Y-121462619D01*
X135814286Y-121795952D02*
X136338095Y-121795952D01*
X136338095Y-121795952D02*
X135814286Y-122462619D01*
X135814286Y-122462619D02*
X136338095Y-122462619D01*
X146080952Y-122462619D02*
X145509524Y-122462619D01*
X145795238Y-122462619D02*
X145795238Y-121462619D01*
X145795238Y-121462619D02*
X145700000Y-121605476D01*
X145700000Y-121605476D02*
X145604762Y-121700714D01*
X145604762Y-121700714D02*
X145509524Y-121748333D01*
X146700000Y-121462619D02*
X146795238Y-121462619D01*
X146795238Y-121462619D02*
X146890476Y-121510238D01*
X146890476Y-121510238D02*
X146938095Y-121557857D01*
X146938095Y-121557857D02*
X146985714Y-121653095D01*
X146985714Y-121653095D02*
X147033333Y-121843571D01*
X147033333Y-121843571D02*
X147033333Y-122081666D01*
X147033333Y-122081666D02*
X146985714Y-122272142D01*
X146985714Y-122272142D02*
X146938095Y-122367380D01*
X146938095Y-122367380D02*
X146890476Y-122415000D01*
X146890476Y-122415000D02*
X146795238Y-122462619D01*
X146795238Y-122462619D02*
X146700000Y-122462619D01*
X146700000Y-122462619D02*
X146604762Y-122415000D01*
X146604762Y-122415000D02*
X146557143Y-122367380D01*
X146557143Y-122367380D02*
X146509524Y-122272142D01*
X146509524Y-122272142D02*
X146461905Y-122081666D01*
X146461905Y-122081666D02*
X146461905Y-121843571D01*
X146461905Y-121843571D02*
X146509524Y-121653095D01*
X146509524Y-121653095D02*
X146557143Y-121557857D01*
X146557143Y-121557857D02*
X146604762Y-121510238D01*
X146604762Y-121510238D02*
X146700000Y-121462619D01*
X147461905Y-122462619D02*
X147461905Y-121462619D01*
X147461905Y-121938809D02*
X148033333Y-121938809D01*
X148033333Y-122462619D02*
X148033333Y-121462619D01*
X148414286Y-121795952D02*
X148938095Y-121795952D01*
X148938095Y-121795952D02*
X148414286Y-122462619D01*
X148414286Y-122462619D02*
X148938095Y-122462619D01*
D12*
%TO.C,R7*%
X129116666Y-94431309D02*
X128950000Y-94193214D01*
X128830952Y-94431309D02*
X128830952Y-93931309D01*
X128830952Y-93931309D02*
X129021428Y-93931309D01*
X129021428Y-93931309D02*
X129069047Y-93955119D01*
X129069047Y-93955119D02*
X129092857Y-93978928D01*
X129092857Y-93978928D02*
X129116666Y-94026547D01*
X129116666Y-94026547D02*
X129116666Y-94097976D01*
X129116666Y-94097976D02*
X129092857Y-94145595D01*
X129092857Y-94145595D02*
X129069047Y-94169404D01*
X129069047Y-94169404D02*
X129021428Y-94193214D01*
X129021428Y-94193214D02*
X128830952Y-94193214D01*
X129283333Y-93931309D02*
X129616666Y-93931309D01*
X129616666Y-93931309D02*
X129402381Y-94431309D01*
D11*
%TO.C,J1*%
X128461666Y-71617619D02*
X128461666Y-72331904D01*
X128461666Y-72331904D02*
X128414047Y-72474761D01*
X128414047Y-72474761D02*
X128318809Y-72570000D01*
X128318809Y-72570000D02*
X128175952Y-72617619D01*
X128175952Y-72617619D02*
X128080714Y-72617619D01*
X129461666Y-72617619D02*
X128890238Y-72617619D01*
X129175952Y-72617619D02*
X129175952Y-71617619D01*
X129175952Y-71617619D02*
X129080714Y-71760476D01*
X129080714Y-71760476D02*
X128985476Y-71855714D01*
X128985476Y-71855714D02*
X128890238Y-71903333D01*
D12*
%TO.C,R17*%
X149278571Y-116631309D02*
X149111905Y-116393214D01*
X148992857Y-116631309D02*
X148992857Y-116131309D01*
X148992857Y-116131309D02*
X149183333Y-116131309D01*
X149183333Y-116131309D02*
X149230952Y-116155119D01*
X149230952Y-116155119D02*
X149254762Y-116178928D01*
X149254762Y-116178928D02*
X149278571Y-116226547D01*
X149278571Y-116226547D02*
X149278571Y-116297976D01*
X149278571Y-116297976D02*
X149254762Y-116345595D01*
X149254762Y-116345595D02*
X149230952Y-116369404D01*
X149230952Y-116369404D02*
X149183333Y-116393214D01*
X149183333Y-116393214D02*
X148992857Y-116393214D01*
X149754762Y-116631309D02*
X149469048Y-116631309D01*
X149611905Y-116631309D02*
X149611905Y-116131309D01*
X149611905Y-116131309D02*
X149564286Y-116202738D01*
X149564286Y-116202738D02*
X149516667Y-116250357D01*
X149516667Y-116250357D02*
X149469048Y-116274166D01*
X149921428Y-116131309D02*
X150254761Y-116131309D01*
X150254761Y-116131309D02*
X150040476Y-116631309D01*
%TO.C,R30*%
X149078571Y-76031309D02*
X148911905Y-75793214D01*
X148792857Y-76031309D02*
X148792857Y-75531309D01*
X148792857Y-75531309D02*
X148983333Y-75531309D01*
X148983333Y-75531309D02*
X149030952Y-75555119D01*
X149030952Y-75555119D02*
X149054762Y-75578928D01*
X149054762Y-75578928D02*
X149078571Y-75626547D01*
X149078571Y-75626547D02*
X149078571Y-75697976D01*
X149078571Y-75697976D02*
X149054762Y-75745595D01*
X149054762Y-75745595D02*
X149030952Y-75769404D01*
X149030952Y-75769404D02*
X148983333Y-75793214D01*
X148983333Y-75793214D02*
X148792857Y-75793214D01*
X149245238Y-75531309D02*
X149554762Y-75531309D01*
X149554762Y-75531309D02*
X149388095Y-75721785D01*
X149388095Y-75721785D02*
X149459524Y-75721785D01*
X149459524Y-75721785D02*
X149507143Y-75745595D01*
X149507143Y-75745595D02*
X149530952Y-75769404D01*
X149530952Y-75769404D02*
X149554762Y-75817023D01*
X149554762Y-75817023D02*
X149554762Y-75936071D01*
X149554762Y-75936071D02*
X149530952Y-75983690D01*
X149530952Y-75983690D02*
X149507143Y-76007500D01*
X149507143Y-76007500D02*
X149459524Y-76031309D01*
X149459524Y-76031309D02*
X149316667Y-76031309D01*
X149316667Y-76031309D02*
X149269048Y-76007500D01*
X149269048Y-76007500D02*
X149245238Y-75983690D01*
X149864285Y-75531309D02*
X149911904Y-75531309D01*
X149911904Y-75531309D02*
X149959523Y-75555119D01*
X149959523Y-75555119D02*
X149983333Y-75578928D01*
X149983333Y-75578928D02*
X150007142Y-75626547D01*
X150007142Y-75626547D02*
X150030952Y-75721785D01*
X150030952Y-75721785D02*
X150030952Y-75840833D01*
X150030952Y-75840833D02*
X150007142Y-75936071D01*
X150007142Y-75936071D02*
X149983333Y-75983690D01*
X149983333Y-75983690D02*
X149959523Y-76007500D01*
X149959523Y-76007500D02*
X149911904Y-76031309D01*
X149911904Y-76031309D02*
X149864285Y-76031309D01*
X149864285Y-76031309D02*
X149816666Y-76007500D01*
X149816666Y-76007500D02*
X149792857Y-75983690D01*
X149792857Y-75983690D02*
X149769047Y-75936071D01*
X149769047Y-75936071D02*
X149745238Y-75840833D01*
X149745238Y-75840833D02*
X149745238Y-75721785D01*
X149745238Y-75721785D02*
X149769047Y-75626547D01*
X149769047Y-75626547D02*
X149792857Y-75578928D01*
X149792857Y-75578928D02*
X149816666Y-75555119D01*
X149816666Y-75555119D02*
X149864285Y-75531309D01*
%TO.C,L5*%
X152603332Y-116203690D02*
X152841427Y-116203690D01*
X152841427Y-116203690D02*
X152841427Y-116703690D01*
X152198570Y-116703690D02*
X152436665Y-116703690D01*
X152436665Y-116703690D02*
X152460474Y-116465595D01*
X152460474Y-116465595D02*
X152436665Y-116489404D01*
X152436665Y-116489404D02*
X152389046Y-116513214D01*
X152389046Y-116513214D02*
X152269998Y-116513214D01*
X152269998Y-116513214D02*
X152222379Y-116489404D01*
X152222379Y-116489404D02*
X152198570Y-116465595D01*
X152198570Y-116465595D02*
X152174760Y-116417976D01*
X152174760Y-116417976D02*
X152174760Y-116298928D01*
X152174760Y-116298928D02*
X152198570Y-116251309D01*
X152198570Y-116251309D02*
X152222379Y-116227500D01*
X152222379Y-116227500D02*
X152269998Y-116203690D01*
X152269998Y-116203690D02*
X152389046Y-116203690D01*
X152389046Y-116203690D02*
X152436665Y-116227500D01*
X152436665Y-116227500D02*
X152460474Y-116251309D01*
%TO.C,C14*%
X128822604Y-116257172D02*
X128822604Y-116290844D01*
X128822604Y-116290844D02*
X128788933Y-116358188D01*
X128788933Y-116358188D02*
X128755261Y-116391859D01*
X128755261Y-116391859D02*
X128687917Y-116425531D01*
X128687917Y-116425531D02*
X128620574Y-116425531D01*
X128620574Y-116425531D02*
X128570066Y-116408695D01*
X128570066Y-116408695D02*
X128485887Y-116358188D01*
X128485887Y-116358188D02*
X128435379Y-116307680D01*
X128435379Y-116307680D02*
X128384872Y-116223501D01*
X128384872Y-116223501D02*
X128368036Y-116172993D01*
X128368036Y-116172993D02*
X128368036Y-116105649D01*
X128368036Y-116105649D02*
X128401707Y-116038306D01*
X128401707Y-116038306D02*
X128435379Y-116004634D01*
X128435379Y-116004634D02*
X128502723Y-115970962D01*
X128502723Y-115970962D02*
X128536394Y-115970962D01*
X129192994Y-115954127D02*
X128990963Y-116156157D01*
X129091978Y-116055142D02*
X128738425Y-115701588D01*
X128738425Y-115701588D02*
X128755261Y-115785768D01*
X128755261Y-115785768D02*
X128755261Y-115853111D01*
X128755261Y-115853111D02*
X128738425Y-115903619D01*
X129260337Y-115415379D02*
X129496039Y-115651081D01*
X129041470Y-115364871D02*
X129209829Y-115701589D01*
X129209829Y-115701589D02*
X129428695Y-115482722D01*
%TO.C,R22*%
X148978571Y-100131309D02*
X148811905Y-99893214D01*
X148692857Y-100131309D02*
X148692857Y-99631309D01*
X148692857Y-99631309D02*
X148883333Y-99631309D01*
X148883333Y-99631309D02*
X148930952Y-99655119D01*
X148930952Y-99655119D02*
X148954762Y-99678928D01*
X148954762Y-99678928D02*
X148978571Y-99726547D01*
X148978571Y-99726547D02*
X148978571Y-99797976D01*
X148978571Y-99797976D02*
X148954762Y-99845595D01*
X148954762Y-99845595D02*
X148930952Y-99869404D01*
X148930952Y-99869404D02*
X148883333Y-99893214D01*
X148883333Y-99893214D02*
X148692857Y-99893214D01*
X149169048Y-99678928D02*
X149192857Y-99655119D01*
X149192857Y-99655119D02*
X149240476Y-99631309D01*
X149240476Y-99631309D02*
X149359524Y-99631309D01*
X149359524Y-99631309D02*
X149407143Y-99655119D01*
X149407143Y-99655119D02*
X149430952Y-99678928D01*
X149430952Y-99678928D02*
X149454762Y-99726547D01*
X149454762Y-99726547D02*
X149454762Y-99774166D01*
X149454762Y-99774166D02*
X149430952Y-99845595D01*
X149430952Y-99845595D02*
X149145238Y-100131309D01*
X149145238Y-100131309D02*
X149454762Y-100131309D01*
X149645238Y-99678928D02*
X149669047Y-99655119D01*
X149669047Y-99655119D02*
X149716666Y-99631309D01*
X149716666Y-99631309D02*
X149835714Y-99631309D01*
X149835714Y-99631309D02*
X149883333Y-99655119D01*
X149883333Y-99655119D02*
X149907142Y-99678928D01*
X149907142Y-99678928D02*
X149930952Y-99726547D01*
X149930952Y-99726547D02*
X149930952Y-99774166D01*
X149930952Y-99774166D02*
X149907142Y-99845595D01*
X149907142Y-99845595D02*
X149621428Y-100131309D01*
X149621428Y-100131309D02*
X149930952Y-100131309D01*
%TO.C,R1*%
X132516666Y-75831309D02*
X132350000Y-75593214D01*
X132230952Y-75831309D02*
X132230952Y-75331309D01*
X132230952Y-75331309D02*
X132421428Y-75331309D01*
X132421428Y-75331309D02*
X132469047Y-75355119D01*
X132469047Y-75355119D02*
X132492857Y-75378928D01*
X132492857Y-75378928D02*
X132516666Y-75426547D01*
X132516666Y-75426547D02*
X132516666Y-75497976D01*
X132516666Y-75497976D02*
X132492857Y-75545595D01*
X132492857Y-75545595D02*
X132469047Y-75569404D01*
X132469047Y-75569404D02*
X132421428Y-75593214D01*
X132421428Y-75593214D02*
X132230952Y-75593214D01*
X132992857Y-75831309D02*
X132707143Y-75831309D01*
X132850000Y-75831309D02*
X132850000Y-75331309D01*
X132850000Y-75331309D02*
X132802381Y-75402738D01*
X132802381Y-75402738D02*
X132754762Y-75450357D01*
X132754762Y-75450357D02*
X132707143Y-75474166D01*
D11*
%TO.C,J4*%
X128461666Y-107617619D02*
X128461666Y-108331904D01*
X128461666Y-108331904D02*
X128414047Y-108474761D01*
X128414047Y-108474761D02*
X128318809Y-108570000D01*
X128318809Y-108570000D02*
X128175952Y-108617619D01*
X128175952Y-108617619D02*
X128080714Y-108617619D01*
X129366428Y-107950952D02*
X129366428Y-108617619D01*
X129128333Y-107570000D02*
X128890238Y-108284285D01*
X128890238Y-108284285D02*
X129509285Y-108284285D01*
%TO.C,J5*%
X153368333Y-120387379D02*
X153368333Y-119673094D01*
X153368333Y-119673094D02*
X153415952Y-119530237D01*
X153415952Y-119530237D02*
X153511190Y-119434999D01*
X153511190Y-119434999D02*
X153654047Y-119387379D01*
X153654047Y-119387379D02*
X153749285Y-119387379D01*
X152415952Y-120387379D02*
X152892142Y-120387379D01*
X152892142Y-120387379D02*
X152939761Y-119911189D01*
X152939761Y-119911189D02*
X152892142Y-119958808D01*
X152892142Y-119958808D02*
X152796904Y-120006427D01*
X152796904Y-120006427D02*
X152558809Y-120006427D01*
X152558809Y-120006427D02*
X152463571Y-119958808D01*
X152463571Y-119958808D02*
X152415952Y-119911189D01*
X152415952Y-119911189D02*
X152368333Y-119815951D01*
X152368333Y-119815951D02*
X152368333Y-119577856D01*
X152368333Y-119577856D02*
X152415952Y-119482618D01*
X152415952Y-119482618D02*
X152463571Y-119434999D01*
X152463571Y-119434999D02*
X152558809Y-119387379D01*
X152558809Y-119387379D02*
X152796904Y-119387379D01*
X152796904Y-119387379D02*
X152892142Y-119434999D01*
X152892142Y-119434999D02*
X152939761Y-119482618D01*
D12*
%TO.C,L2*%
X129226666Y-87801309D02*
X128988571Y-87801309D01*
X128988571Y-87801309D02*
X128988571Y-87301309D01*
X129369524Y-87348928D02*
X129393333Y-87325119D01*
X129393333Y-87325119D02*
X129440952Y-87301309D01*
X129440952Y-87301309D02*
X129560000Y-87301309D01*
X129560000Y-87301309D02*
X129607619Y-87325119D01*
X129607619Y-87325119D02*
X129631428Y-87348928D01*
X129631428Y-87348928D02*
X129655238Y-87396547D01*
X129655238Y-87396547D02*
X129655238Y-87444166D01*
X129655238Y-87444166D02*
X129631428Y-87515595D01*
X129631428Y-87515595D02*
X129345714Y-87801309D01*
X129345714Y-87801309D02*
X129655238Y-87801309D01*
%TO.C,C8*%
X131316666Y-90083690D02*
X131292857Y-90107500D01*
X131292857Y-90107500D02*
X131221428Y-90131309D01*
X131221428Y-90131309D02*
X131173809Y-90131309D01*
X131173809Y-90131309D02*
X131102381Y-90107500D01*
X131102381Y-90107500D02*
X131054762Y-90059880D01*
X131054762Y-90059880D02*
X131030952Y-90012261D01*
X131030952Y-90012261D02*
X131007143Y-89917023D01*
X131007143Y-89917023D02*
X131007143Y-89845595D01*
X131007143Y-89845595D02*
X131030952Y-89750357D01*
X131030952Y-89750357D02*
X131054762Y-89702738D01*
X131054762Y-89702738D02*
X131102381Y-89655119D01*
X131102381Y-89655119D02*
X131173809Y-89631309D01*
X131173809Y-89631309D02*
X131221428Y-89631309D01*
X131221428Y-89631309D02*
X131292857Y-89655119D01*
X131292857Y-89655119D02*
X131316666Y-89678928D01*
X131602381Y-89845595D02*
X131554762Y-89821785D01*
X131554762Y-89821785D02*
X131530952Y-89797976D01*
X131530952Y-89797976D02*
X131507143Y-89750357D01*
X131507143Y-89750357D02*
X131507143Y-89726547D01*
X131507143Y-89726547D02*
X131530952Y-89678928D01*
X131530952Y-89678928D02*
X131554762Y-89655119D01*
X131554762Y-89655119D02*
X131602381Y-89631309D01*
X131602381Y-89631309D02*
X131697619Y-89631309D01*
X131697619Y-89631309D02*
X131745238Y-89655119D01*
X131745238Y-89655119D02*
X131769047Y-89678928D01*
X131769047Y-89678928D02*
X131792857Y-89726547D01*
X131792857Y-89726547D02*
X131792857Y-89750357D01*
X131792857Y-89750357D02*
X131769047Y-89797976D01*
X131769047Y-89797976D02*
X131745238Y-89821785D01*
X131745238Y-89821785D02*
X131697619Y-89845595D01*
X131697619Y-89845595D02*
X131602381Y-89845595D01*
X131602381Y-89845595D02*
X131554762Y-89869404D01*
X131554762Y-89869404D02*
X131530952Y-89893214D01*
X131530952Y-89893214D02*
X131507143Y-89940833D01*
X131507143Y-89940833D02*
X131507143Y-90036071D01*
X131507143Y-90036071D02*
X131530952Y-90083690D01*
X131530952Y-90083690D02*
X131554762Y-90107500D01*
X131554762Y-90107500D02*
X131602381Y-90131309D01*
X131602381Y-90131309D02*
X131697619Y-90131309D01*
X131697619Y-90131309D02*
X131745238Y-90107500D01*
X131745238Y-90107500D02*
X131769047Y-90083690D01*
X131769047Y-90083690D02*
X131792857Y-90036071D01*
X131792857Y-90036071D02*
X131792857Y-89940833D01*
X131792857Y-89940833D02*
X131769047Y-89893214D01*
X131769047Y-89893214D02*
X131745238Y-89869404D01*
X131745238Y-89869404D02*
X131697619Y-89845595D01*
%TO.C,C2*%
X129216666Y-79983690D02*
X129192857Y-80007500D01*
X129192857Y-80007500D02*
X129121428Y-80031309D01*
X129121428Y-80031309D02*
X129073809Y-80031309D01*
X129073809Y-80031309D02*
X129002381Y-80007500D01*
X129002381Y-80007500D02*
X128954762Y-79959880D01*
X128954762Y-79959880D02*
X128930952Y-79912261D01*
X128930952Y-79912261D02*
X128907143Y-79817023D01*
X128907143Y-79817023D02*
X128907143Y-79745595D01*
X128907143Y-79745595D02*
X128930952Y-79650357D01*
X128930952Y-79650357D02*
X128954762Y-79602738D01*
X128954762Y-79602738D02*
X129002381Y-79555119D01*
X129002381Y-79555119D02*
X129073809Y-79531309D01*
X129073809Y-79531309D02*
X129121428Y-79531309D01*
X129121428Y-79531309D02*
X129192857Y-79555119D01*
X129192857Y-79555119D02*
X129216666Y-79578928D01*
X129407143Y-79578928D02*
X129430952Y-79555119D01*
X129430952Y-79555119D02*
X129478571Y-79531309D01*
X129478571Y-79531309D02*
X129597619Y-79531309D01*
X129597619Y-79531309D02*
X129645238Y-79555119D01*
X129645238Y-79555119D02*
X129669047Y-79578928D01*
X129669047Y-79578928D02*
X129692857Y-79626547D01*
X129692857Y-79626547D02*
X129692857Y-79674166D01*
X129692857Y-79674166D02*
X129669047Y-79745595D01*
X129669047Y-79745595D02*
X129383333Y-80031309D01*
X129383333Y-80031309D02*
X129692857Y-80031309D01*
%TO.C,R9*%
X132416666Y-99831309D02*
X132250000Y-99593214D01*
X132130952Y-99831309D02*
X132130952Y-99331309D01*
X132130952Y-99331309D02*
X132321428Y-99331309D01*
X132321428Y-99331309D02*
X132369047Y-99355119D01*
X132369047Y-99355119D02*
X132392857Y-99378928D01*
X132392857Y-99378928D02*
X132416666Y-99426547D01*
X132416666Y-99426547D02*
X132416666Y-99497976D01*
X132416666Y-99497976D02*
X132392857Y-99545595D01*
X132392857Y-99545595D02*
X132369047Y-99569404D01*
X132369047Y-99569404D02*
X132321428Y-99593214D01*
X132321428Y-99593214D02*
X132130952Y-99593214D01*
X132654762Y-99831309D02*
X132750000Y-99831309D01*
X132750000Y-99831309D02*
X132797619Y-99807500D01*
X132797619Y-99807500D02*
X132821428Y-99783690D01*
X132821428Y-99783690D02*
X132869047Y-99712261D01*
X132869047Y-99712261D02*
X132892857Y-99617023D01*
X132892857Y-99617023D02*
X132892857Y-99426547D01*
X132892857Y-99426547D02*
X132869047Y-99378928D01*
X132869047Y-99378928D02*
X132845238Y-99355119D01*
X132845238Y-99355119D02*
X132797619Y-99331309D01*
X132797619Y-99331309D02*
X132702381Y-99331309D01*
X132702381Y-99331309D02*
X132654762Y-99355119D01*
X132654762Y-99355119D02*
X132630952Y-99378928D01*
X132630952Y-99378928D02*
X132607143Y-99426547D01*
X132607143Y-99426547D02*
X132607143Y-99545595D01*
X132607143Y-99545595D02*
X132630952Y-99593214D01*
X132630952Y-99593214D02*
X132654762Y-99617023D01*
X132654762Y-99617023D02*
X132702381Y-99640833D01*
X132702381Y-99640833D02*
X132797619Y-99640833D01*
X132797619Y-99640833D02*
X132845238Y-99617023D01*
X132845238Y-99617023D02*
X132869047Y-99593214D01*
X132869047Y-99593214D02*
X132892857Y-99545595D01*
%TO.C,C12*%
X131178571Y-102083690D02*
X131154762Y-102107500D01*
X131154762Y-102107500D02*
X131083333Y-102131309D01*
X131083333Y-102131309D02*
X131035714Y-102131309D01*
X131035714Y-102131309D02*
X130964286Y-102107500D01*
X130964286Y-102107500D02*
X130916667Y-102059880D01*
X130916667Y-102059880D02*
X130892857Y-102012261D01*
X130892857Y-102012261D02*
X130869048Y-101917023D01*
X130869048Y-101917023D02*
X130869048Y-101845595D01*
X130869048Y-101845595D02*
X130892857Y-101750357D01*
X130892857Y-101750357D02*
X130916667Y-101702738D01*
X130916667Y-101702738D02*
X130964286Y-101655119D01*
X130964286Y-101655119D02*
X131035714Y-101631309D01*
X131035714Y-101631309D02*
X131083333Y-101631309D01*
X131083333Y-101631309D02*
X131154762Y-101655119D01*
X131154762Y-101655119D02*
X131178571Y-101678928D01*
X131654762Y-102131309D02*
X131369048Y-102131309D01*
X131511905Y-102131309D02*
X131511905Y-101631309D01*
X131511905Y-101631309D02*
X131464286Y-101702738D01*
X131464286Y-101702738D02*
X131416667Y-101750357D01*
X131416667Y-101750357D02*
X131369048Y-101774166D01*
X131845238Y-101678928D02*
X131869047Y-101655119D01*
X131869047Y-101655119D02*
X131916666Y-101631309D01*
X131916666Y-101631309D02*
X132035714Y-101631309D01*
X132035714Y-101631309D02*
X132083333Y-101655119D01*
X132083333Y-101655119D02*
X132107142Y-101678928D01*
X132107142Y-101678928D02*
X132130952Y-101726547D01*
X132130952Y-101726547D02*
X132130952Y-101774166D01*
X132130952Y-101774166D02*
X132107142Y-101845595D01*
X132107142Y-101845595D02*
X131821428Y-102131309D01*
X131821428Y-102131309D02*
X132130952Y-102131309D01*
%TO.C,C15*%
X132204761Y-119083690D02*
X132180952Y-119107500D01*
X132180952Y-119107500D02*
X132109523Y-119131309D01*
X132109523Y-119131309D02*
X132061904Y-119131309D01*
X132061904Y-119131309D02*
X131990476Y-119107500D01*
X131990476Y-119107500D02*
X131942857Y-119059880D01*
X131942857Y-119059880D02*
X131919047Y-119012261D01*
X131919047Y-119012261D02*
X131895238Y-118917023D01*
X131895238Y-118917023D02*
X131895238Y-118845595D01*
X131895238Y-118845595D02*
X131919047Y-118750357D01*
X131919047Y-118750357D02*
X131942857Y-118702738D01*
X131942857Y-118702738D02*
X131990476Y-118655119D01*
X131990476Y-118655119D02*
X132061904Y-118631309D01*
X132061904Y-118631309D02*
X132109523Y-118631309D01*
X132109523Y-118631309D02*
X132180952Y-118655119D01*
X132180952Y-118655119D02*
X132204761Y-118678928D01*
X132680952Y-119131309D02*
X132395238Y-119131309D01*
X132538095Y-119131309D02*
X132538095Y-118631309D01*
X132538095Y-118631309D02*
X132490476Y-118702738D01*
X132490476Y-118702738D02*
X132442857Y-118750357D01*
X132442857Y-118750357D02*
X132395238Y-118774166D01*
X133133332Y-118631309D02*
X132895237Y-118631309D01*
X132895237Y-118631309D02*
X132871428Y-118869404D01*
X132871428Y-118869404D02*
X132895237Y-118845595D01*
X132895237Y-118845595D02*
X132942856Y-118821785D01*
X132942856Y-118821785D02*
X133061904Y-118821785D01*
X133061904Y-118821785D02*
X133109523Y-118845595D01*
X133109523Y-118845595D02*
X133133332Y-118869404D01*
X133133332Y-118869404D02*
X133157142Y-118917023D01*
X133157142Y-118917023D02*
X133157142Y-119036071D01*
X133157142Y-119036071D02*
X133133332Y-119083690D01*
X133133332Y-119083690D02*
X133109523Y-119107500D01*
X133109523Y-119107500D02*
X133061904Y-119131309D01*
X133061904Y-119131309D02*
X132942856Y-119131309D01*
X132942856Y-119131309D02*
X132895237Y-119107500D01*
X132895237Y-119107500D02*
X132871428Y-119083690D01*
%TO.C,R13*%
X132178571Y-111831309D02*
X132011905Y-111593214D01*
X131892857Y-111831309D02*
X131892857Y-111331309D01*
X131892857Y-111331309D02*
X132083333Y-111331309D01*
X132083333Y-111331309D02*
X132130952Y-111355119D01*
X132130952Y-111355119D02*
X132154762Y-111378928D01*
X132154762Y-111378928D02*
X132178571Y-111426547D01*
X132178571Y-111426547D02*
X132178571Y-111497976D01*
X132178571Y-111497976D02*
X132154762Y-111545595D01*
X132154762Y-111545595D02*
X132130952Y-111569404D01*
X132130952Y-111569404D02*
X132083333Y-111593214D01*
X132083333Y-111593214D02*
X131892857Y-111593214D01*
X132654762Y-111831309D02*
X132369048Y-111831309D01*
X132511905Y-111831309D02*
X132511905Y-111331309D01*
X132511905Y-111331309D02*
X132464286Y-111402738D01*
X132464286Y-111402738D02*
X132416667Y-111450357D01*
X132416667Y-111450357D02*
X132369048Y-111474166D01*
X132821428Y-111331309D02*
X133130952Y-111331309D01*
X133130952Y-111331309D02*
X132964285Y-111521785D01*
X132964285Y-111521785D02*
X133035714Y-111521785D01*
X133035714Y-111521785D02*
X133083333Y-111545595D01*
X133083333Y-111545595D02*
X133107142Y-111569404D01*
X133107142Y-111569404D02*
X133130952Y-111617023D01*
X133130952Y-111617023D02*
X133130952Y-111736071D01*
X133130952Y-111736071D02*
X133107142Y-111783690D01*
X133107142Y-111783690D02*
X133083333Y-111807500D01*
X133083333Y-111807500D02*
X133035714Y-111831309D01*
X133035714Y-111831309D02*
X132892857Y-111831309D01*
X132892857Y-111831309D02*
X132845238Y-111807500D01*
X132845238Y-111807500D02*
X132821428Y-111783690D01*
%TO.C,R12*%
X128678571Y-105231309D02*
X128511905Y-104993214D01*
X128392857Y-105231309D02*
X128392857Y-104731309D01*
X128392857Y-104731309D02*
X128583333Y-104731309D01*
X128583333Y-104731309D02*
X128630952Y-104755119D01*
X128630952Y-104755119D02*
X128654762Y-104778928D01*
X128654762Y-104778928D02*
X128678571Y-104826547D01*
X128678571Y-104826547D02*
X128678571Y-104897976D01*
X128678571Y-104897976D02*
X128654762Y-104945595D01*
X128654762Y-104945595D02*
X128630952Y-104969404D01*
X128630952Y-104969404D02*
X128583333Y-104993214D01*
X128583333Y-104993214D02*
X128392857Y-104993214D01*
X129154762Y-105231309D02*
X128869048Y-105231309D01*
X129011905Y-105231309D02*
X129011905Y-104731309D01*
X129011905Y-104731309D02*
X128964286Y-104802738D01*
X128964286Y-104802738D02*
X128916667Y-104850357D01*
X128916667Y-104850357D02*
X128869048Y-104874166D01*
X129345238Y-104778928D02*
X129369047Y-104755119D01*
X129369047Y-104755119D02*
X129416666Y-104731309D01*
X129416666Y-104731309D02*
X129535714Y-104731309D01*
X129535714Y-104731309D02*
X129583333Y-104755119D01*
X129583333Y-104755119D02*
X129607142Y-104778928D01*
X129607142Y-104778928D02*
X129630952Y-104826547D01*
X129630952Y-104826547D02*
X129630952Y-104874166D01*
X129630952Y-104874166D02*
X129607142Y-104945595D01*
X129607142Y-104945595D02*
X129321428Y-105231309D01*
X129321428Y-105231309D02*
X129630952Y-105231309D01*
D11*
%TO.C,J2*%
X128461666Y-83617619D02*
X128461666Y-84331904D01*
X128461666Y-84331904D02*
X128414047Y-84474761D01*
X128414047Y-84474761D02*
X128318809Y-84570000D01*
X128318809Y-84570000D02*
X128175952Y-84617619D01*
X128175952Y-84617619D02*
X128080714Y-84617619D01*
X128890238Y-83712857D02*
X128937857Y-83665238D01*
X128937857Y-83665238D02*
X129033095Y-83617619D01*
X129033095Y-83617619D02*
X129271190Y-83617619D01*
X129271190Y-83617619D02*
X129366428Y-83665238D01*
X129366428Y-83665238D02*
X129414047Y-83712857D01*
X129414047Y-83712857D02*
X129461666Y-83808095D01*
X129461666Y-83808095D02*
X129461666Y-83903333D01*
X129461666Y-83903333D02*
X129414047Y-84046190D01*
X129414047Y-84046190D02*
X128842619Y-84617619D01*
X128842619Y-84617619D02*
X129461666Y-84617619D01*
D12*
%TO.C,C31*%
X149695238Y-72816309D02*
X149719047Y-72792500D01*
X149719047Y-72792500D02*
X149790476Y-72768690D01*
X149790476Y-72768690D02*
X149838095Y-72768690D01*
X149838095Y-72768690D02*
X149909523Y-72792500D01*
X149909523Y-72792500D02*
X149957142Y-72840119D01*
X149957142Y-72840119D02*
X149980952Y-72887738D01*
X149980952Y-72887738D02*
X150004761Y-72982976D01*
X150004761Y-72982976D02*
X150004761Y-73054404D01*
X150004761Y-73054404D02*
X149980952Y-73149642D01*
X149980952Y-73149642D02*
X149957142Y-73197261D01*
X149957142Y-73197261D02*
X149909523Y-73244880D01*
X149909523Y-73244880D02*
X149838095Y-73268690D01*
X149838095Y-73268690D02*
X149790476Y-73268690D01*
X149790476Y-73268690D02*
X149719047Y-73244880D01*
X149719047Y-73244880D02*
X149695238Y-73221071D01*
X149528571Y-73268690D02*
X149219047Y-73268690D01*
X149219047Y-73268690D02*
X149385714Y-73078214D01*
X149385714Y-73078214D02*
X149314285Y-73078214D01*
X149314285Y-73078214D02*
X149266666Y-73054404D01*
X149266666Y-73054404D02*
X149242857Y-73030595D01*
X149242857Y-73030595D02*
X149219047Y-72982976D01*
X149219047Y-72982976D02*
X149219047Y-72863928D01*
X149219047Y-72863928D02*
X149242857Y-72816309D01*
X149242857Y-72816309D02*
X149266666Y-72792500D01*
X149266666Y-72792500D02*
X149314285Y-72768690D01*
X149314285Y-72768690D02*
X149457142Y-72768690D01*
X149457142Y-72768690D02*
X149504761Y-72792500D01*
X149504761Y-72792500D02*
X149528571Y-72816309D01*
X148742857Y-72768690D02*
X149028571Y-72768690D01*
X148885714Y-72768690D02*
X148885714Y-73268690D01*
X148885714Y-73268690D02*
X148933333Y-73197261D01*
X148933333Y-73197261D02*
X148980952Y-73149642D01*
X148980952Y-73149642D02*
X149028571Y-73125833D01*
%TO.C,C5*%
X130296666Y-91893690D02*
X130272857Y-91917500D01*
X130272857Y-91917500D02*
X130201428Y-91941309D01*
X130201428Y-91941309D02*
X130153809Y-91941309D01*
X130153809Y-91941309D02*
X130082381Y-91917500D01*
X130082381Y-91917500D02*
X130034762Y-91869880D01*
X130034762Y-91869880D02*
X130010952Y-91822261D01*
X130010952Y-91822261D02*
X129987143Y-91727023D01*
X129987143Y-91727023D02*
X129987143Y-91655595D01*
X129987143Y-91655595D02*
X130010952Y-91560357D01*
X130010952Y-91560357D02*
X130034762Y-91512738D01*
X130034762Y-91512738D02*
X130082381Y-91465119D01*
X130082381Y-91465119D02*
X130153809Y-91441309D01*
X130153809Y-91441309D02*
X130201428Y-91441309D01*
X130201428Y-91441309D02*
X130272857Y-91465119D01*
X130272857Y-91465119D02*
X130296666Y-91488928D01*
X130749047Y-91441309D02*
X130510952Y-91441309D01*
X130510952Y-91441309D02*
X130487143Y-91679404D01*
X130487143Y-91679404D02*
X130510952Y-91655595D01*
X130510952Y-91655595D02*
X130558571Y-91631785D01*
X130558571Y-91631785D02*
X130677619Y-91631785D01*
X130677619Y-91631785D02*
X130725238Y-91655595D01*
X130725238Y-91655595D02*
X130749047Y-91679404D01*
X130749047Y-91679404D02*
X130772857Y-91727023D01*
X130772857Y-91727023D02*
X130772857Y-91846071D01*
X130772857Y-91846071D02*
X130749047Y-91893690D01*
X130749047Y-91893690D02*
X130725238Y-91917500D01*
X130725238Y-91917500D02*
X130677619Y-91941309D01*
X130677619Y-91941309D02*
X130558571Y-91941309D01*
X130558571Y-91941309D02*
X130510952Y-91917500D01*
X130510952Y-91917500D02*
X130487143Y-91893690D01*
%TO.C,R14*%
X132278571Y-116531309D02*
X132111905Y-116293214D01*
X131992857Y-116531309D02*
X131992857Y-116031309D01*
X131992857Y-116031309D02*
X132183333Y-116031309D01*
X132183333Y-116031309D02*
X132230952Y-116055119D01*
X132230952Y-116055119D02*
X132254762Y-116078928D01*
X132254762Y-116078928D02*
X132278571Y-116126547D01*
X132278571Y-116126547D02*
X132278571Y-116197976D01*
X132278571Y-116197976D02*
X132254762Y-116245595D01*
X132254762Y-116245595D02*
X132230952Y-116269404D01*
X132230952Y-116269404D02*
X132183333Y-116293214D01*
X132183333Y-116293214D02*
X131992857Y-116293214D01*
X132754762Y-116531309D02*
X132469048Y-116531309D01*
X132611905Y-116531309D02*
X132611905Y-116031309D01*
X132611905Y-116031309D02*
X132564286Y-116102738D01*
X132564286Y-116102738D02*
X132516667Y-116150357D01*
X132516667Y-116150357D02*
X132469048Y-116174166D01*
X133183333Y-116197976D02*
X133183333Y-116531309D01*
X133064285Y-116007500D02*
X132945238Y-116364642D01*
X132945238Y-116364642D02*
X133254761Y-116364642D01*
%TO.C,R25*%
X149178571Y-92631309D02*
X149011905Y-92393214D01*
X148892857Y-92631309D02*
X148892857Y-92131309D01*
X148892857Y-92131309D02*
X149083333Y-92131309D01*
X149083333Y-92131309D02*
X149130952Y-92155119D01*
X149130952Y-92155119D02*
X149154762Y-92178928D01*
X149154762Y-92178928D02*
X149178571Y-92226547D01*
X149178571Y-92226547D02*
X149178571Y-92297976D01*
X149178571Y-92297976D02*
X149154762Y-92345595D01*
X149154762Y-92345595D02*
X149130952Y-92369404D01*
X149130952Y-92369404D02*
X149083333Y-92393214D01*
X149083333Y-92393214D02*
X148892857Y-92393214D01*
X149369048Y-92178928D02*
X149392857Y-92155119D01*
X149392857Y-92155119D02*
X149440476Y-92131309D01*
X149440476Y-92131309D02*
X149559524Y-92131309D01*
X149559524Y-92131309D02*
X149607143Y-92155119D01*
X149607143Y-92155119D02*
X149630952Y-92178928D01*
X149630952Y-92178928D02*
X149654762Y-92226547D01*
X149654762Y-92226547D02*
X149654762Y-92274166D01*
X149654762Y-92274166D02*
X149630952Y-92345595D01*
X149630952Y-92345595D02*
X149345238Y-92631309D01*
X149345238Y-92631309D02*
X149654762Y-92631309D01*
X150107142Y-92131309D02*
X149869047Y-92131309D01*
X149869047Y-92131309D02*
X149845238Y-92369404D01*
X149845238Y-92369404D02*
X149869047Y-92345595D01*
X149869047Y-92345595D02*
X149916666Y-92321785D01*
X149916666Y-92321785D02*
X150035714Y-92321785D01*
X150035714Y-92321785D02*
X150083333Y-92345595D01*
X150083333Y-92345595D02*
X150107142Y-92369404D01*
X150107142Y-92369404D02*
X150130952Y-92417023D01*
X150130952Y-92417023D02*
X150130952Y-92536071D01*
X150130952Y-92536071D02*
X150107142Y-92583690D01*
X150107142Y-92583690D02*
X150083333Y-92607500D01*
X150083333Y-92607500D02*
X150035714Y-92631309D01*
X150035714Y-92631309D02*
X149916666Y-92631309D01*
X149916666Y-92631309D02*
X149869047Y-92607500D01*
X149869047Y-92607500D02*
X149845238Y-92583690D01*
%TO.C,C11*%
X132294761Y-107063690D02*
X132270952Y-107087500D01*
X132270952Y-107087500D02*
X132199523Y-107111309D01*
X132199523Y-107111309D02*
X132151904Y-107111309D01*
X132151904Y-107111309D02*
X132080476Y-107087500D01*
X132080476Y-107087500D02*
X132032857Y-107039880D01*
X132032857Y-107039880D02*
X132009047Y-106992261D01*
X132009047Y-106992261D02*
X131985238Y-106897023D01*
X131985238Y-106897023D02*
X131985238Y-106825595D01*
X131985238Y-106825595D02*
X132009047Y-106730357D01*
X132009047Y-106730357D02*
X132032857Y-106682738D01*
X132032857Y-106682738D02*
X132080476Y-106635119D01*
X132080476Y-106635119D02*
X132151904Y-106611309D01*
X132151904Y-106611309D02*
X132199523Y-106611309D01*
X132199523Y-106611309D02*
X132270952Y-106635119D01*
X132270952Y-106635119D02*
X132294761Y-106658928D01*
X132770952Y-107111309D02*
X132485238Y-107111309D01*
X132628095Y-107111309D02*
X132628095Y-106611309D01*
X132628095Y-106611309D02*
X132580476Y-106682738D01*
X132580476Y-106682738D02*
X132532857Y-106730357D01*
X132532857Y-106730357D02*
X132485238Y-106754166D01*
X133247142Y-107111309D02*
X132961428Y-107111309D01*
X133104285Y-107111309D02*
X133104285Y-106611309D01*
X133104285Y-106611309D02*
X133056666Y-106682738D01*
X133056666Y-106682738D02*
X133009047Y-106730357D01*
X133009047Y-106730357D02*
X132961428Y-106754166D01*
%TO.C,R11*%
X128678571Y-106431309D02*
X128511905Y-106193214D01*
X128392857Y-106431309D02*
X128392857Y-105931309D01*
X128392857Y-105931309D02*
X128583333Y-105931309D01*
X128583333Y-105931309D02*
X128630952Y-105955119D01*
X128630952Y-105955119D02*
X128654762Y-105978928D01*
X128654762Y-105978928D02*
X128678571Y-106026547D01*
X128678571Y-106026547D02*
X128678571Y-106097976D01*
X128678571Y-106097976D02*
X128654762Y-106145595D01*
X128654762Y-106145595D02*
X128630952Y-106169404D01*
X128630952Y-106169404D02*
X128583333Y-106193214D01*
X128583333Y-106193214D02*
X128392857Y-106193214D01*
X129154762Y-106431309D02*
X128869048Y-106431309D01*
X129011905Y-106431309D02*
X129011905Y-105931309D01*
X129011905Y-105931309D02*
X128964286Y-106002738D01*
X128964286Y-106002738D02*
X128916667Y-106050357D01*
X128916667Y-106050357D02*
X128869048Y-106074166D01*
X129630952Y-106431309D02*
X129345238Y-106431309D01*
X129488095Y-106431309D02*
X129488095Y-105931309D01*
X129488095Y-105931309D02*
X129440476Y-106002738D01*
X129440476Y-106002738D02*
X129392857Y-106050357D01*
X129392857Y-106050357D02*
X129345238Y-106074166D01*
%TO.C,R24*%
X152578571Y-99131309D02*
X152411905Y-98893214D01*
X152292857Y-99131309D02*
X152292857Y-98631309D01*
X152292857Y-98631309D02*
X152483333Y-98631309D01*
X152483333Y-98631309D02*
X152530952Y-98655119D01*
X152530952Y-98655119D02*
X152554762Y-98678928D01*
X152554762Y-98678928D02*
X152578571Y-98726547D01*
X152578571Y-98726547D02*
X152578571Y-98797976D01*
X152578571Y-98797976D02*
X152554762Y-98845595D01*
X152554762Y-98845595D02*
X152530952Y-98869404D01*
X152530952Y-98869404D02*
X152483333Y-98893214D01*
X152483333Y-98893214D02*
X152292857Y-98893214D01*
X152769048Y-98678928D02*
X152792857Y-98655119D01*
X152792857Y-98655119D02*
X152840476Y-98631309D01*
X152840476Y-98631309D02*
X152959524Y-98631309D01*
X152959524Y-98631309D02*
X153007143Y-98655119D01*
X153007143Y-98655119D02*
X153030952Y-98678928D01*
X153030952Y-98678928D02*
X153054762Y-98726547D01*
X153054762Y-98726547D02*
X153054762Y-98774166D01*
X153054762Y-98774166D02*
X153030952Y-98845595D01*
X153030952Y-98845595D02*
X152745238Y-99131309D01*
X152745238Y-99131309D02*
X153054762Y-99131309D01*
X153483333Y-98797976D02*
X153483333Y-99131309D01*
X153364285Y-98607500D02*
X153245238Y-98964642D01*
X153245238Y-98964642D02*
X153554761Y-98964642D01*
%TO.C,C18*%
X153007395Y-111742827D02*
X153007395Y-111709155D01*
X153007395Y-111709155D02*
X153041066Y-111641811D01*
X153041066Y-111641811D02*
X153074738Y-111608140D01*
X153074738Y-111608140D02*
X153142082Y-111574468D01*
X153142082Y-111574468D02*
X153209425Y-111574468D01*
X153209425Y-111574468D02*
X153259933Y-111591304D01*
X153259933Y-111591304D02*
X153344112Y-111641811D01*
X153344112Y-111641811D02*
X153394620Y-111692319D01*
X153394620Y-111692319D02*
X153445127Y-111776498D01*
X153445127Y-111776498D02*
X153461963Y-111827006D01*
X153461963Y-111827006D02*
X153461963Y-111894350D01*
X153461963Y-111894350D02*
X153428292Y-111961693D01*
X153428292Y-111961693D02*
X153394620Y-111995365D01*
X153394620Y-111995365D02*
X153327276Y-112029037D01*
X153327276Y-112029037D02*
X153293605Y-112029037D01*
X152637005Y-112045872D02*
X152839036Y-111843842D01*
X152738021Y-111944857D02*
X153091574Y-112298411D01*
X153091574Y-112298411D02*
X153074738Y-112214231D01*
X153074738Y-112214231D02*
X153074738Y-112146888D01*
X153074738Y-112146888D02*
X153091574Y-112096380D01*
X152637006Y-112449933D02*
X152687513Y-112433097D01*
X152687513Y-112433097D02*
X152721185Y-112433097D01*
X152721185Y-112433097D02*
X152771693Y-112449933D01*
X152771693Y-112449933D02*
X152788529Y-112466769D01*
X152788529Y-112466769D02*
X152805365Y-112517277D01*
X152805365Y-112517277D02*
X152805365Y-112550948D01*
X152805365Y-112550948D02*
X152788529Y-112601456D01*
X152788529Y-112601456D02*
X152721185Y-112668800D01*
X152721185Y-112668800D02*
X152670678Y-112685635D01*
X152670678Y-112685635D02*
X152637006Y-112685635D01*
X152637006Y-112685635D02*
X152586498Y-112668800D01*
X152586498Y-112668800D02*
X152569662Y-112651964D01*
X152569662Y-112651964D02*
X152552826Y-112601456D01*
X152552826Y-112601456D02*
X152552826Y-112567784D01*
X152552826Y-112567784D02*
X152569662Y-112517277D01*
X152569662Y-112517277D02*
X152637006Y-112449933D01*
X152637006Y-112449933D02*
X152653842Y-112399426D01*
X152653842Y-112399426D02*
X152653842Y-112365754D01*
X152653842Y-112365754D02*
X152637006Y-112315246D01*
X152637006Y-112315246D02*
X152569662Y-112247903D01*
X152569662Y-112247903D02*
X152519155Y-112231067D01*
X152519155Y-112231067D02*
X152485483Y-112231067D01*
X152485483Y-112231067D02*
X152434975Y-112247903D01*
X152434975Y-112247903D02*
X152367632Y-112315246D01*
X152367632Y-112315246D02*
X152350796Y-112365754D01*
X152350796Y-112365754D02*
X152350796Y-112399426D01*
X152350796Y-112399426D02*
X152367632Y-112449933D01*
X152367632Y-112449933D02*
X152434975Y-112517277D01*
X152434975Y-112517277D02*
X152485483Y-112534113D01*
X152485483Y-112534113D02*
X152519155Y-112534113D01*
X152519155Y-112534113D02*
X152569662Y-112517277D01*
%TO.C,C32*%
X149978571Y-78383690D02*
X149954762Y-78407500D01*
X149954762Y-78407500D02*
X149883333Y-78431309D01*
X149883333Y-78431309D02*
X149835714Y-78431309D01*
X149835714Y-78431309D02*
X149764286Y-78407500D01*
X149764286Y-78407500D02*
X149716667Y-78359880D01*
X149716667Y-78359880D02*
X149692857Y-78312261D01*
X149692857Y-78312261D02*
X149669048Y-78217023D01*
X149669048Y-78217023D02*
X149669048Y-78145595D01*
X149669048Y-78145595D02*
X149692857Y-78050357D01*
X149692857Y-78050357D02*
X149716667Y-78002738D01*
X149716667Y-78002738D02*
X149764286Y-77955119D01*
X149764286Y-77955119D02*
X149835714Y-77931309D01*
X149835714Y-77931309D02*
X149883333Y-77931309D01*
X149883333Y-77931309D02*
X149954762Y-77955119D01*
X149954762Y-77955119D02*
X149978571Y-77978928D01*
X150145238Y-77931309D02*
X150454762Y-77931309D01*
X150454762Y-77931309D02*
X150288095Y-78121785D01*
X150288095Y-78121785D02*
X150359524Y-78121785D01*
X150359524Y-78121785D02*
X150407143Y-78145595D01*
X150407143Y-78145595D02*
X150430952Y-78169404D01*
X150430952Y-78169404D02*
X150454762Y-78217023D01*
X150454762Y-78217023D02*
X150454762Y-78336071D01*
X150454762Y-78336071D02*
X150430952Y-78383690D01*
X150430952Y-78383690D02*
X150407143Y-78407500D01*
X150407143Y-78407500D02*
X150359524Y-78431309D01*
X150359524Y-78431309D02*
X150216667Y-78431309D01*
X150216667Y-78431309D02*
X150169048Y-78407500D01*
X150169048Y-78407500D02*
X150145238Y-78383690D01*
X150645238Y-77978928D02*
X150669047Y-77955119D01*
X150669047Y-77955119D02*
X150716666Y-77931309D01*
X150716666Y-77931309D02*
X150835714Y-77931309D01*
X150835714Y-77931309D02*
X150883333Y-77955119D01*
X150883333Y-77955119D02*
X150907142Y-77978928D01*
X150907142Y-77978928D02*
X150930952Y-78026547D01*
X150930952Y-78026547D02*
X150930952Y-78074166D01*
X150930952Y-78074166D02*
X150907142Y-78145595D01*
X150907142Y-78145595D02*
X150621428Y-78431309D01*
X150621428Y-78431309D02*
X150930952Y-78431309D01*
%TO.C,C25*%
X151697395Y-87742827D02*
X151697395Y-87709155D01*
X151697395Y-87709155D02*
X151731066Y-87641811D01*
X151731066Y-87641811D02*
X151764738Y-87608140D01*
X151764738Y-87608140D02*
X151832082Y-87574468D01*
X151832082Y-87574468D02*
X151899425Y-87574468D01*
X151899425Y-87574468D02*
X151949933Y-87591304D01*
X151949933Y-87591304D02*
X152034112Y-87641811D01*
X152034112Y-87641811D02*
X152084620Y-87692319D01*
X152084620Y-87692319D02*
X152135127Y-87776498D01*
X152135127Y-87776498D02*
X152151963Y-87827006D01*
X152151963Y-87827006D02*
X152151963Y-87894350D01*
X152151963Y-87894350D02*
X152118292Y-87961693D01*
X152118292Y-87961693D02*
X152084620Y-87995365D01*
X152084620Y-87995365D02*
X152017276Y-88029037D01*
X152017276Y-88029037D02*
X151983605Y-88029037D01*
X151848918Y-88163724D02*
X151848918Y-88197395D01*
X151848918Y-88197395D02*
X151832082Y-88247903D01*
X151832082Y-88247903D02*
X151747902Y-88332082D01*
X151747902Y-88332082D02*
X151697395Y-88348918D01*
X151697395Y-88348918D02*
X151663723Y-88348918D01*
X151663723Y-88348918D02*
X151613215Y-88332082D01*
X151613215Y-88332082D02*
X151579544Y-88298411D01*
X151579544Y-88298411D02*
X151545872Y-88231067D01*
X151545872Y-88231067D02*
X151545872Y-87827006D01*
X151545872Y-87827006D02*
X151327005Y-88045872D01*
X151360678Y-88719307D02*
X151529036Y-88550948D01*
X151529036Y-88550948D02*
X151377513Y-88365754D01*
X151377513Y-88365754D02*
X151377513Y-88399426D01*
X151377513Y-88399426D02*
X151360678Y-88449933D01*
X151360678Y-88449933D02*
X151276498Y-88534113D01*
X151276498Y-88534113D02*
X151225991Y-88550948D01*
X151225991Y-88550948D02*
X151192319Y-88550948D01*
X151192319Y-88550948D02*
X151141811Y-88534113D01*
X151141811Y-88534113D02*
X151057632Y-88449933D01*
X151057632Y-88449933D02*
X151040796Y-88399426D01*
X151040796Y-88399426D02*
X151040796Y-88365754D01*
X151040796Y-88365754D02*
X151057632Y-88315246D01*
X151057632Y-88315246D02*
X151141811Y-88231067D01*
X151141811Y-88231067D02*
X151192319Y-88214231D01*
X151192319Y-88214231D02*
X151225991Y-88214231D01*
%TO.C,R5*%
X132516666Y-87831309D02*
X132350000Y-87593214D01*
X132230952Y-87831309D02*
X132230952Y-87331309D01*
X132230952Y-87331309D02*
X132421428Y-87331309D01*
X132421428Y-87331309D02*
X132469047Y-87355119D01*
X132469047Y-87355119D02*
X132492857Y-87378928D01*
X132492857Y-87378928D02*
X132516666Y-87426547D01*
X132516666Y-87426547D02*
X132516666Y-87497976D01*
X132516666Y-87497976D02*
X132492857Y-87545595D01*
X132492857Y-87545595D02*
X132469047Y-87569404D01*
X132469047Y-87569404D02*
X132421428Y-87593214D01*
X132421428Y-87593214D02*
X132230952Y-87593214D01*
X132969047Y-87331309D02*
X132730952Y-87331309D01*
X132730952Y-87331309D02*
X132707143Y-87569404D01*
X132707143Y-87569404D02*
X132730952Y-87545595D01*
X132730952Y-87545595D02*
X132778571Y-87521785D01*
X132778571Y-87521785D02*
X132897619Y-87521785D01*
X132897619Y-87521785D02*
X132945238Y-87545595D01*
X132945238Y-87545595D02*
X132969047Y-87569404D01*
X132969047Y-87569404D02*
X132992857Y-87617023D01*
X132992857Y-87617023D02*
X132992857Y-87736071D01*
X132992857Y-87736071D02*
X132969047Y-87783690D01*
X132969047Y-87783690D02*
X132945238Y-87807500D01*
X132945238Y-87807500D02*
X132897619Y-87831309D01*
X132897619Y-87831309D02*
X132778571Y-87831309D01*
X132778571Y-87831309D02*
X132730952Y-87807500D01*
X132730952Y-87807500D02*
X132707143Y-87783690D01*
%TO.C,C29*%
X151597395Y-75742827D02*
X151597395Y-75709155D01*
X151597395Y-75709155D02*
X151631066Y-75641811D01*
X151631066Y-75641811D02*
X151664738Y-75608140D01*
X151664738Y-75608140D02*
X151732082Y-75574468D01*
X151732082Y-75574468D02*
X151799425Y-75574468D01*
X151799425Y-75574468D02*
X151849933Y-75591304D01*
X151849933Y-75591304D02*
X151934112Y-75641811D01*
X151934112Y-75641811D02*
X151984620Y-75692319D01*
X151984620Y-75692319D02*
X152035127Y-75776498D01*
X152035127Y-75776498D02*
X152051963Y-75827006D01*
X152051963Y-75827006D02*
X152051963Y-75894350D01*
X152051963Y-75894350D02*
X152018292Y-75961693D01*
X152018292Y-75961693D02*
X151984620Y-75995365D01*
X151984620Y-75995365D02*
X151917276Y-76029037D01*
X151917276Y-76029037D02*
X151883605Y-76029037D01*
X151748918Y-76163724D02*
X151748918Y-76197395D01*
X151748918Y-76197395D02*
X151732082Y-76247903D01*
X151732082Y-76247903D02*
X151647902Y-76332082D01*
X151647902Y-76332082D02*
X151597395Y-76348918D01*
X151597395Y-76348918D02*
X151563723Y-76348918D01*
X151563723Y-76348918D02*
X151513215Y-76332082D01*
X151513215Y-76332082D02*
X151479544Y-76298411D01*
X151479544Y-76298411D02*
X151445872Y-76231067D01*
X151445872Y-76231067D02*
X151445872Y-75827006D01*
X151445872Y-75827006D02*
X151227005Y-76045872D01*
X151058647Y-76214231D02*
X150991304Y-76281574D01*
X150991304Y-76281574D02*
X150974468Y-76332082D01*
X150974468Y-76332082D02*
X150974468Y-76365754D01*
X150974468Y-76365754D02*
X150991304Y-76449933D01*
X150991304Y-76449933D02*
X151041811Y-76534113D01*
X151041811Y-76534113D02*
X151176498Y-76668800D01*
X151176498Y-76668800D02*
X151227006Y-76685635D01*
X151227006Y-76685635D02*
X151260678Y-76685635D01*
X151260678Y-76685635D02*
X151311185Y-76668800D01*
X151311185Y-76668800D02*
X151378529Y-76601456D01*
X151378529Y-76601456D02*
X151395365Y-76550948D01*
X151395365Y-76550948D02*
X151395365Y-76517277D01*
X151395365Y-76517277D02*
X151378529Y-76466769D01*
X151378529Y-76466769D02*
X151294349Y-76382590D01*
X151294349Y-76382590D02*
X151243842Y-76365754D01*
X151243842Y-76365754D02*
X151210170Y-76365754D01*
X151210170Y-76365754D02*
X151159662Y-76382590D01*
X151159662Y-76382590D02*
X151092319Y-76449933D01*
X151092319Y-76449933D02*
X151075483Y-76500441D01*
X151075483Y-76500441D02*
X151075483Y-76534113D01*
X151075483Y-76534113D02*
X151092319Y-76584620D01*
%TO.C,C4*%
X131316666Y-78083690D02*
X131292857Y-78107500D01*
X131292857Y-78107500D02*
X131221428Y-78131309D01*
X131221428Y-78131309D02*
X131173809Y-78131309D01*
X131173809Y-78131309D02*
X131102381Y-78107500D01*
X131102381Y-78107500D02*
X131054762Y-78059880D01*
X131054762Y-78059880D02*
X131030952Y-78012261D01*
X131030952Y-78012261D02*
X131007143Y-77917023D01*
X131007143Y-77917023D02*
X131007143Y-77845595D01*
X131007143Y-77845595D02*
X131030952Y-77750357D01*
X131030952Y-77750357D02*
X131054762Y-77702738D01*
X131054762Y-77702738D02*
X131102381Y-77655119D01*
X131102381Y-77655119D02*
X131173809Y-77631309D01*
X131173809Y-77631309D02*
X131221428Y-77631309D01*
X131221428Y-77631309D02*
X131292857Y-77655119D01*
X131292857Y-77655119D02*
X131316666Y-77678928D01*
X131745238Y-77797976D02*
X131745238Y-78131309D01*
X131626190Y-77607500D02*
X131507143Y-77964642D01*
X131507143Y-77964642D02*
X131816666Y-77964642D01*
%TO.C,L7*%
X152603332Y-92203690D02*
X152841427Y-92203690D01*
X152841427Y-92203690D02*
X152841427Y-92703690D01*
X152484284Y-92703690D02*
X152150951Y-92703690D01*
X152150951Y-92703690D02*
X152365236Y-92203690D01*
%TO.C,C21*%
X151597395Y-99742827D02*
X151597395Y-99709155D01*
X151597395Y-99709155D02*
X151631066Y-99641811D01*
X151631066Y-99641811D02*
X151664738Y-99608140D01*
X151664738Y-99608140D02*
X151732082Y-99574468D01*
X151732082Y-99574468D02*
X151799425Y-99574468D01*
X151799425Y-99574468D02*
X151849933Y-99591304D01*
X151849933Y-99591304D02*
X151934112Y-99641811D01*
X151934112Y-99641811D02*
X151984620Y-99692319D01*
X151984620Y-99692319D02*
X152035127Y-99776498D01*
X152035127Y-99776498D02*
X152051963Y-99827006D01*
X152051963Y-99827006D02*
X152051963Y-99894350D01*
X152051963Y-99894350D02*
X152018292Y-99961693D01*
X152018292Y-99961693D02*
X151984620Y-99995365D01*
X151984620Y-99995365D02*
X151917276Y-100029037D01*
X151917276Y-100029037D02*
X151883605Y-100029037D01*
X151748918Y-100163724D02*
X151748918Y-100197395D01*
X151748918Y-100197395D02*
X151732082Y-100247903D01*
X151732082Y-100247903D02*
X151647902Y-100332082D01*
X151647902Y-100332082D02*
X151597395Y-100348918D01*
X151597395Y-100348918D02*
X151563723Y-100348918D01*
X151563723Y-100348918D02*
X151513215Y-100332082D01*
X151513215Y-100332082D02*
X151479544Y-100298411D01*
X151479544Y-100298411D02*
X151445872Y-100231067D01*
X151445872Y-100231067D02*
X151445872Y-99827006D01*
X151445872Y-99827006D02*
X151227005Y-100045872D01*
X150890288Y-100382590D02*
X151092319Y-100180559D01*
X150991304Y-100281574D02*
X151344857Y-100635128D01*
X151344857Y-100635128D02*
X151328021Y-100550948D01*
X151328021Y-100550948D02*
X151328021Y-100483605D01*
X151328021Y-100483605D02*
X151344857Y-100433097D01*
%TO.C,C6*%
X128836666Y-91893690D02*
X128812857Y-91917500D01*
X128812857Y-91917500D02*
X128741428Y-91941309D01*
X128741428Y-91941309D02*
X128693809Y-91941309D01*
X128693809Y-91941309D02*
X128622381Y-91917500D01*
X128622381Y-91917500D02*
X128574762Y-91869880D01*
X128574762Y-91869880D02*
X128550952Y-91822261D01*
X128550952Y-91822261D02*
X128527143Y-91727023D01*
X128527143Y-91727023D02*
X128527143Y-91655595D01*
X128527143Y-91655595D02*
X128550952Y-91560357D01*
X128550952Y-91560357D02*
X128574762Y-91512738D01*
X128574762Y-91512738D02*
X128622381Y-91465119D01*
X128622381Y-91465119D02*
X128693809Y-91441309D01*
X128693809Y-91441309D02*
X128741428Y-91441309D01*
X128741428Y-91441309D02*
X128812857Y-91465119D01*
X128812857Y-91465119D02*
X128836666Y-91488928D01*
X129265238Y-91441309D02*
X129170000Y-91441309D01*
X129170000Y-91441309D02*
X129122381Y-91465119D01*
X129122381Y-91465119D02*
X129098571Y-91488928D01*
X129098571Y-91488928D02*
X129050952Y-91560357D01*
X129050952Y-91560357D02*
X129027143Y-91655595D01*
X129027143Y-91655595D02*
X129027143Y-91846071D01*
X129027143Y-91846071D02*
X129050952Y-91893690D01*
X129050952Y-91893690D02*
X129074762Y-91917500D01*
X129074762Y-91917500D02*
X129122381Y-91941309D01*
X129122381Y-91941309D02*
X129217619Y-91941309D01*
X129217619Y-91941309D02*
X129265238Y-91917500D01*
X129265238Y-91917500D02*
X129289047Y-91893690D01*
X129289047Y-91893690D02*
X129312857Y-91846071D01*
X129312857Y-91846071D02*
X129312857Y-91727023D01*
X129312857Y-91727023D02*
X129289047Y-91679404D01*
X129289047Y-91679404D02*
X129265238Y-91655595D01*
X129265238Y-91655595D02*
X129217619Y-91631785D01*
X129217619Y-91631785D02*
X129122381Y-91631785D01*
X129122381Y-91631785D02*
X129074762Y-91655595D01*
X129074762Y-91655595D02*
X129050952Y-91679404D01*
X129050952Y-91679404D02*
X129027143Y-91727023D01*
%TO.C,R32*%
X152478571Y-75231309D02*
X152311905Y-74993214D01*
X152192857Y-75231309D02*
X152192857Y-74731309D01*
X152192857Y-74731309D02*
X152383333Y-74731309D01*
X152383333Y-74731309D02*
X152430952Y-74755119D01*
X152430952Y-74755119D02*
X152454762Y-74778928D01*
X152454762Y-74778928D02*
X152478571Y-74826547D01*
X152478571Y-74826547D02*
X152478571Y-74897976D01*
X152478571Y-74897976D02*
X152454762Y-74945595D01*
X152454762Y-74945595D02*
X152430952Y-74969404D01*
X152430952Y-74969404D02*
X152383333Y-74993214D01*
X152383333Y-74993214D02*
X152192857Y-74993214D01*
X152645238Y-74731309D02*
X152954762Y-74731309D01*
X152954762Y-74731309D02*
X152788095Y-74921785D01*
X152788095Y-74921785D02*
X152859524Y-74921785D01*
X152859524Y-74921785D02*
X152907143Y-74945595D01*
X152907143Y-74945595D02*
X152930952Y-74969404D01*
X152930952Y-74969404D02*
X152954762Y-75017023D01*
X152954762Y-75017023D02*
X152954762Y-75136071D01*
X152954762Y-75136071D02*
X152930952Y-75183690D01*
X152930952Y-75183690D02*
X152907143Y-75207500D01*
X152907143Y-75207500D02*
X152859524Y-75231309D01*
X152859524Y-75231309D02*
X152716667Y-75231309D01*
X152716667Y-75231309D02*
X152669048Y-75207500D01*
X152669048Y-75207500D02*
X152645238Y-75183690D01*
X153145238Y-74778928D02*
X153169047Y-74755119D01*
X153169047Y-74755119D02*
X153216666Y-74731309D01*
X153216666Y-74731309D02*
X153335714Y-74731309D01*
X153335714Y-74731309D02*
X153383333Y-74755119D01*
X153383333Y-74755119D02*
X153407142Y-74778928D01*
X153407142Y-74778928D02*
X153430952Y-74826547D01*
X153430952Y-74826547D02*
X153430952Y-74874166D01*
X153430952Y-74874166D02*
X153407142Y-74945595D01*
X153407142Y-74945595D02*
X153121428Y-75231309D01*
X153121428Y-75231309D02*
X153430952Y-75231309D01*
%TO.C,R29*%
X149178571Y-80631309D02*
X149011905Y-80393214D01*
X148892857Y-80631309D02*
X148892857Y-80131309D01*
X148892857Y-80131309D02*
X149083333Y-80131309D01*
X149083333Y-80131309D02*
X149130952Y-80155119D01*
X149130952Y-80155119D02*
X149154762Y-80178928D01*
X149154762Y-80178928D02*
X149178571Y-80226547D01*
X149178571Y-80226547D02*
X149178571Y-80297976D01*
X149178571Y-80297976D02*
X149154762Y-80345595D01*
X149154762Y-80345595D02*
X149130952Y-80369404D01*
X149130952Y-80369404D02*
X149083333Y-80393214D01*
X149083333Y-80393214D02*
X148892857Y-80393214D01*
X149369048Y-80178928D02*
X149392857Y-80155119D01*
X149392857Y-80155119D02*
X149440476Y-80131309D01*
X149440476Y-80131309D02*
X149559524Y-80131309D01*
X149559524Y-80131309D02*
X149607143Y-80155119D01*
X149607143Y-80155119D02*
X149630952Y-80178928D01*
X149630952Y-80178928D02*
X149654762Y-80226547D01*
X149654762Y-80226547D02*
X149654762Y-80274166D01*
X149654762Y-80274166D02*
X149630952Y-80345595D01*
X149630952Y-80345595D02*
X149345238Y-80631309D01*
X149345238Y-80631309D02*
X149654762Y-80631309D01*
X149892857Y-80631309D02*
X149988095Y-80631309D01*
X149988095Y-80631309D02*
X150035714Y-80607500D01*
X150035714Y-80607500D02*
X150059523Y-80583690D01*
X150059523Y-80583690D02*
X150107142Y-80512261D01*
X150107142Y-80512261D02*
X150130952Y-80417023D01*
X150130952Y-80417023D02*
X150130952Y-80226547D01*
X150130952Y-80226547D02*
X150107142Y-80178928D01*
X150107142Y-80178928D02*
X150083333Y-80155119D01*
X150083333Y-80155119D02*
X150035714Y-80131309D01*
X150035714Y-80131309D02*
X149940476Y-80131309D01*
X149940476Y-80131309D02*
X149892857Y-80155119D01*
X149892857Y-80155119D02*
X149869047Y-80178928D01*
X149869047Y-80178928D02*
X149845238Y-80226547D01*
X149845238Y-80226547D02*
X149845238Y-80345595D01*
X149845238Y-80345595D02*
X149869047Y-80393214D01*
X149869047Y-80393214D02*
X149892857Y-80417023D01*
X149892857Y-80417023D02*
X149940476Y-80440833D01*
X149940476Y-80440833D02*
X150035714Y-80440833D01*
X150035714Y-80440833D02*
X150083333Y-80417023D01*
X150083333Y-80417023D02*
X150107142Y-80393214D01*
X150107142Y-80393214D02*
X150130952Y-80345595D01*
%TO.C,R3*%
X129116666Y-82531309D02*
X128950000Y-82293214D01*
X128830952Y-82531309D02*
X128830952Y-82031309D01*
X128830952Y-82031309D02*
X129021428Y-82031309D01*
X129021428Y-82031309D02*
X129069047Y-82055119D01*
X129069047Y-82055119D02*
X129092857Y-82078928D01*
X129092857Y-82078928D02*
X129116666Y-82126547D01*
X129116666Y-82126547D02*
X129116666Y-82197976D01*
X129116666Y-82197976D02*
X129092857Y-82245595D01*
X129092857Y-82245595D02*
X129069047Y-82269404D01*
X129069047Y-82269404D02*
X129021428Y-82293214D01*
X129021428Y-82293214D02*
X128830952Y-82293214D01*
X129283333Y-82031309D02*
X129592857Y-82031309D01*
X129592857Y-82031309D02*
X129426190Y-82221785D01*
X129426190Y-82221785D02*
X129497619Y-82221785D01*
X129497619Y-82221785D02*
X129545238Y-82245595D01*
X129545238Y-82245595D02*
X129569047Y-82269404D01*
X129569047Y-82269404D02*
X129592857Y-82317023D01*
X129592857Y-82317023D02*
X129592857Y-82436071D01*
X129592857Y-82436071D02*
X129569047Y-82483690D01*
X129569047Y-82483690D02*
X129545238Y-82507500D01*
X129545238Y-82507500D02*
X129497619Y-82531309D01*
X129497619Y-82531309D02*
X129354762Y-82531309D01*
X129354762Y-82531309D02*
X129307143Y-82507500D01*
X129307143Y-82507500D02*
X129283333Y-82483690D01*
%TO.C,R6*%
X132516666Y-92331309D02*
X132350000Y-92093214D01*
X132230952Y-92331309D02*
X132230952Y-91831309D01*
X132230952Y-91831309D02*
X132421428Y-91831309D01*
X132421428Y-91831309D02*
X132469047Y-91855119D01*
X132469047Y-91855119D02*
X132492857Y-91878928D01*
X132492857Y-91878928D02*
X132516666Y-91926547D01*
X132516666Y-91926547D02*
X132516666Y-91997976D01*
X132516666Y-91997976D02*
X132492857Y-92045595D01*
X132492857Y-92045595D02*
X132469047Y-92069404D01*
X132469047Y-92069404D02*
X132421428Y-92093214D01*
X132421428Y-92093214D02*
X132230952Y-92093214D01*
X132945238Y-91831309D02*
X132850000Y-91831309D01*
X132850000Y-91831309D02*
X132802381Y-91855119D01*
X132802381Y-91855119D02*
X132778571Y-91878928D01*
X132778571Y-91878928D02*
X132730952Y-91950357D01*
X132730952Y-91950357D02*
X132707143Y-92045595D01*
X132707143Y-92045595D02*
X132707143Y-92236071D01*
X132707143Y-92236071D02*
X132730952Y-92283690D01*
X132730952Y-92283690D02*
X132754762Y-92307500D01*
X132754762Y-92307500D02*
X132802381Y-92331309D01*
X132802381Y-92331309D02*
X132897619Y-92331309D01*
X132897619Y-92331309D02*
X132945238Y-92307500D01*
X132945238Y-92307500D02*
X132969047Y-92283690D01*
X132969047Y-92283690D02*
X132992857Y-92236071D01*
X132992857Y-92236071D02*
X132992857Y-92117023D01*
X132992857Y-92117023D02*
X132969047Y-92069404D01*
X132969047Y-92069404D02*
X132945238Y-92045595D01*
X132945238Y-92045595D02*
X132897619Y-92021785D01*
X132897619Y-92021785D02*
X132802381Y-92021785D01*
X132802381Y-92021785D02*
X132754762Y-92045595D01*
X132754762Y-92045595D02*
X132730952Y-92069404D01*
X132730952Y-92069404D02*
X132707143Y-92117023D01*
%TO.C,C27*%
X149795238Y-84816309D02*
X149819047Y-84792500D01*
X149819047Y-84792500D02*
X149890476Y-84768690D01*
X149890476Y-84768690D02*
X149938095Y-84768690D01*
X149938095Y-84768690D02*
X150009523Y-84792500D01*
X150009523Y-84792500D02*
X150057142Y-84840119D01*
X150057142Y-84840119D02*
X150080952Y-84887738D01*
X150080952Y-84887738D02*
X150104761Y-84982976D01*
X150104761Y-84982976D02*
X150104761Y-85054404D01*
X150104761Y-85054404D02*
X150080952Y-85149642D01*
X150080952Y-85149642D02*
X150057142Y-85197261D01*
X150057142Y-85197261D02*
X150009523Y-85244880D01*
X150009523Y-85244880D02*
X149938095Y-85268690D01*
X149938095Y-85268690D02*
X149890476Y-85268690D01*
X149890476Y-85268690D02*
X149819047Y-85244880D01*
X149819047Y-85244880D02*
X149795238Y-85221071D01*
X149604761Y-85221071D02*
X149580952Y-85244880D01*
X149580952Y-85244880D02*
X149533333Y-85268690D01*
X149533333Y-85268690D02*
X149414285Y-85268690D01*
X149414285Y-85268690D02*
X149366666Y-85244880D01*
X149366666Y-85244880D02*
X149342857Y-85221071D01*
X149342857Y-85221071D02*
X149319047Y-85173452D01*
X149319047Y-85173452D02*
X149319047Y-85125833D01*
X149319047Y-85125833D02*
X149342857Y-85054404D01*
X149342857Y-85054404D02*
X149628571Y-84768690D01*
X149628571Y-84768690D02*
X149319047Y-84768690D01*
X149152381Y-85268690D02*
X148819048Y-85268690D01*
X148819048Y-85268690D02*
X149033333Y-84768690D01*
%TO.C,R21*%
X149278571Y-104631309D02*
X149111905Y-104393214D01*
X148992857Y-104631309D02*
X148992857Y-104131309D01*
X148992857Y-104131309D02*
X149183333Y-104131309D01*
X149183333Y-104131309D02*
X149230952Y-104155119D01*
X149230952Y-104155119D02*
X149254762Y-104178928D01*
X149254762Y-104178928D02*
X149278571Y-104226547D01*
X149278571Y-104226547D02*
X149278571Y-104297976D01*
X149278571Y-104297976D02*
X149254762Y-104345595D01*
X149254762Y-104345595D02*
X149230952Y-104369404D01*
X149230952Y-104369404D02*
X149183333Y-104393214D01*
X149183333Y-104393214D02*
X148992857Y-104393214D01*
X149469048Y-104178928D02*
X149492857Y-104155119D01*
X149492857Y-104155119D02*
X149540476Y-104131309D01*
X149540476Y-104131309D02*
X149659524Y-104131309D01*
X149659524Y-104131309D02*
X149707143Y-104155119D01*
X149707143Y-104155119D02*
X149730952Y-104178928D01*
X149730952Y-104178928D02*
X149754762Y-104226547D01*
X149754762Y-104226547D02*
X149754762Y-104274166D01*
X149754762Y-104274166D02*
X149730952Y-104345595D01*
X149730952Y-104345595D02*
X149445238Y-104631309D01*
X149445238Y-104631309D02*
X149754762Y-104631309D01*
X150230952Y-104631309D02*
X149945238Y-104631309D01*
X150088095Y-104631309D02*
X150088095Y-104131309D01*
X150088095Y-104131309D02*
X150040476Y-104202738D01*
X150040476Y-104202738D02*
X149992857Y-104250357D01*
X149992857Y-104250357D02*
X149945238Y-104274166D01*
%TO.C,C34*%
X147073571Y-66638690D02*
X147049762Y-66662500D01*
X147049762Y-66662500D02*
X146978333Y-66686309D01*
X146978333Y-66686309D02*
X146930714Y-66686309D01*
X146930714Y-66686309D02*
X146859286Y-66662500D01*
X146859286Y-66662500D02*
X146811667Y-66614880D01*
X146811667Y-66614880D02*
X146787857Y-66567261D01*
X146787857Y-66567261D02*
X146764048Y-66472023D01*
X146764048Y-66472023D02*
X146764048Y-66400595D01*
X146764048Y-66400595D02*
X146787857Y-66305357D01*
X146787857Y-66305357D02*
X146811667Y-66257738D01*
X146811667Y-66257738D02*
X146859286Y-66210119D01*
X146859286Y-66210119D02*
X146930714Y-66186309D01*
X146930714Y-66186309D02*
X146978333Y-66186309D01*
X146978333Y-66186309D02*
X147049762Y-66210119D01*
X147049762Y-66210119D02*
X147073571Y-66233928D01*
X147240238Y-66186309D02*
X147549762Y-66186309D01*
X147549762Y-66186309D02*
X147383095Y-66376785D01*
X147383095Y-66376785D02*
X147454524Y-66376785D01*
X147454524Y-66376785D02*
X147502143Y-66400595D01*
X147502143Y-66400595D02*
X147525952Y-66424404D01*
X147525952Y-66424404D02*
X147549762Y-66472023D01*
X147549762Y-66472023D02*
X147549762Y-66591071D01*
X147549762Y-66591071D02*
X147525952Y-66638690D01*
X147525952Y-66638690D02*
X147502143Y-66662500D01*
X147502143Y-66662500D02*
X147454524Y-66686309D01*
X147454524Y-66686309D02*
X147311667Y-66686309D01*
X147311667Y-66686309D02*
X147264048Y-66662500D01*
X147264048Y-66662500D02*
X147240238Y-66638690D01*
X147978333Y-66352976D02*
X147978333Y-66686309D01*
X147859285Y-66162500D02*
X147740238Y-66519642D01*
X147740238Y-66519642D02*
X148049761Y-66519642D01*
%TO.C,R10*%
X132178571Y-104431309D02*
X132011905Y-104193214D01*
X131892857Y-104431309D02*
X131892857Y-103931309D01*
X131892857Y-103931309D02*
X132083333Y-103931309D01*
X132083333Y-103931309D02*
X132130952Y-103955119D01*
X132130952Y-103955119D02*
X132154762Y-103978928D01*
X132154762Y-103978928D02*
X132178571Y-104026547D01*
X132178571Y-104026547D02*
X132178571Y-104097976D01*
X132178571Y-104097976D02*
X132154762Y-104145595D01*
X132154762Y-104145595D02*
X132130952Y-104169404D01*
X132130952Y-104169404D02*
X132083333Y-104193214D01*
X132083333Y-104193214D02*
X131892857Y-104193214D01*
X132654762Y-104431309D02*
X132369048Y-104431309D01*
X132511905Y-104431309D02*
X132511905Y-103931309D01*
X132511905Y-103931309D02*
X132464286Y-104002738D01*
X132464286Y-104002738D02*
X132416667Y-104050357D01*
X132416667Y-104050357D02*
X132369048Y-104074166D01*
X132964285Y-103931309D02*
X133011904Y-103931309D01*
X133011904Y-103931309D02*
X133059523Y-103955119D01*
X133059523Y-103955119D02*
X133083333Y-103978928D01*
X133083333Y-103978928D02*
X133107142Y-104026547D01*
X133107142Y-104026547D02*
X133130952Y-104121785D01*
X133130952Y-104121785D02*
X133130952Y-104240833D01*
X133130952Y-104240833D02*
X133107142Y-104336071D01*
X133107142Y-104336071D02*
X133083333Y-104383690D01*
X133083333Y-104383690D02*
X133059523Y-104407500D01*
X133059523Y-104407500D02*
X133011904Y-104431309D01*
X133011904Y-104431309D02*
X132964285Y-104431309D01*
X132964285Y-104431309D02*
X132916666Y-104407500D01*
X132916666Y-104407500D02*
X132892857Y-104383690D01*
X132892857Y-104383690D02*
X132869047Y-104336071D01*
X132869047Y-104336071D02*
X132845238Y-104240833D01*
X132845238Y-104240833D02*
X132845238Y-104121785D01*
X132845238Y-104121785D02*
X132869047Y-104026547D01*
X132869047Y-104026547D02*
X132892857Y-103978928D01*
X132892857Y-103978928D02*
X132916666Y-103955119D01*
X132916666Y-103955119D02*
X132964285Y-103931309D01*
%TO.C,C17*%
X151547395Y-111742827D02*
X151547395Y-111709155D01*
X151547395Y-111709155D02*
X151581066Y-111641811D01*
X151581066Y-111641811D02*
X151614738Y-111608140D01*
X151614738Y-111608140D02*
X151682082Y-111574468D01*
X151682082Y-111574468D02*
X151749425Y-111574468D01*
X151749425Y-111574468D02*
X151799933Y-111591304D01*
X151799933Y-111591304D02*
X151884112Y-111641811D01*
X151884112Y-111641811D02*
X151934620Y-111692319D01*
X151934620Y-111692319D02*
X151985127Y-111776498D01*
X151985127Y-111776498D02*
X152001963Y-111827006D01*
X152001963Y-111827006D02*
X152001963Y-111894350D01*
X152001963Y-111894350D02*
X151968292Y-111961693D01*
X151968292Y-111961693D02*
X151934620Y-111995365D01*
X151934620Y-111995365D02*
X151867276Y-112029037D01*
X151867276Y-112029037D02*
X151833605Y-112029037D01*
X151177005Y-112045872D02*
X151379036Y-111843842D01*
X151278021Y-111944857D02*
X151631574Y-112298411D01*
X151631574Y-112298411D02*
X151614738Y-112214231D01*
X151614738Y-112214231D02*
X151614738Y-112146888D01*
X151614738Y-112146888D02*
X151631574Y-112096380D01*
X151412708Y-112517277D02*
X151177006Y-112752979D01*
X151177006Y-112752979D02*
X150974975Y-112247903D01*
%TO.C,R19*%
X152478571Y-110131309D02*
X152311905Y-109893214D01*
X152192857Y-110131309D02*
X152192857Y-109631309D01*
X152192857Y-109631309D02*
X152383333Y-109631309D01*
X152383333Y-109631309D02*
X152430952Y-109655119D01*
X152430952Y-109655119D02*
X152454762Y-109678928D01*
X152454762Y-109678928D02*
X152478571Y-109726547D01*
X152478571Y-109726547D02*
X152478571Y-109797976D01*
X152478571Y-109797976D02*
X152454762Y-109845595D01*
X152454762Y-109845595D02*
X152430952Y-109869404D01*
X152430952Y-109869404D02*
X152383333Y-109893214D01*
X152383333Y-109893214D02*
X152192857Y-109893214D01*
X152954762Y-110131309D02*
X152669048Y-110131309D01*
X152811905Y-110131309D02*
X152811905Y-109631309D01*
X152811905Y-109631309D02*
X152764286Y-109702738D01*
X152764286Y-109702738D02*
X152716667Y-109750357D01*
X152716667Y-109750357D02*
X152669048Y-109774166D01*
X153192857Y-110131309D02*
X153288095Y-110131309D01*
X153288095Y-110131309D02*
X153335714Y-110107500D01*
X153335714Y-110107500D02*
X153359523Y-110083690D01*
X153359523Y-110083690D02*
X153407142Y-110012261D01*
X153407142Y-110012261D02*
X153430952Y-109917023D01*
X153430952Y-109917023D02*
X153430952Y-109726547D01*
X153430952Y-109726547D02*
X153407142Y-109678928D01*
X153407142Y-109678928D02*
X153383333Y-109655119D01*
X153383333Y-109655119D02*
X153335714Y-109631309D01*
X153335714Y-109631309D02*
X153240476Y-109631309D01*
X153240476Y-109631309D02*
X153192857Y-109655119D01*
X153192857Y-109655119D02*
X153169047Y-109678928D01*
X153169047Y-109678928D02*
X153145238Y-109726547D01*
X153145238Y-109726547D02*
X153145238Y-109845595D01*
X153145238Y-109845595D02*
X153169047Y-109893214D01*
X153169047Y-109893214D02*
X153192857Y-109917023D01*
X153192857Y-109917023D02*
X153240476Y-109940833D01*
X153240476Y-109940833D02*
X153335714Y-109940833D01*
X153335714Y-109940833D02*
X153383333Y-109917023D01*
X153383333Y-109917023D02*
X153407142Y-109893214D01*
X153407142Y-109893214D02*
X153430952Y-109845595D01*
%TO.C,R20*%
X152478571Y-111231309D02*
X152311905Y-110993214D01*
X152192857Y-111231309D02*
X152192857Y-110731309D01*
X152192857Y-110731309D02*
X152383333Y-110731309D01*
X152383333Y-110731309D02*
X152430952Y-110755119D01*
X152430952Y-110755119D02*
X152454762Y-110778928D01*
X152454762Y-110778928D02*
X152478571Y-110826547D01*
X152478571Y-110826547D02*
X152478571Y-110897976D01*
X152478571Y-110897976D02*
X152454762Y-110945595D01*
X152454762Y-110945595D02*
X152430952Y-110969404D01*
X152430952Y-110969404D02*
X152383333Y-110993214D01*
X152383333Y-110993214D02*
X152192857Y-110993214D01*
X152669048Y-110778928D02*
X152692857Y-110755119D01*
X152692857Y-110755119D02*
X152740476Y-110731309D01*
X152740476Y-110731309D02*
X152859524Y-110731309D01*
X152859524Y-110731309D02*
X152907143Y-110755119D01*
X152907143Y-110755119D02*
X152930952Y-110778928D01*
X152930952Y-110778928D02*
X152954762Y-110826547D01*
X152954762Y-110826547D02*
X152954762Y-110874166D01*
X152954762Y-110874166D02*
X152930952Y-110945595D01*
X152930952Y-110945595D02*
X152645238Y-111231309D01*
X152645238Y-111231309D02*
X152954762Y-111231309D01*
X153264285Y-110731309D02*
X153311904Y-110731309D01*
X153311904Y-110731309D02*
X153359523Y-110755119D01*
X153359523Y-110755119D02*
X153383333Y-110778928D01*
X153383333Y-110778928D02*
X153407142Y-110826547D01*
X153407142Y-110826547D02*
X153430952Y-110921785D01*
X153430952Y-110921785D02*
X153430952Y-111040833D01*
X153430952Y-111040833D02*
X153407142Y-111136071D01*
X153407142Y-111136071D02*
X153383333Y-111183690D01*
X153383333Y-111183690D02*
X153359523Y-111207500D01*
X153359523Y-111207500D02*
X153311904Y-111231309D01*
X153311904Y-111231309D02*
X153264285Y-111231309D01*
X153264285Y-111231309D02*
X153216666Y-111207500D01*
X153216666Y-111207500D02*
X153192857Y-111183690D01*
X153192857Y-111183690D02*
X153169047Y-111136071D01*
X153169047Y-111136071D02*
X153145238Y-111040833D01*
X153145238Y-111040833D02*
X153145238Y-110921785D01*
X153145238Y-110921785D02*
X153169047Y-110826547D01*
X153169047Y-110826547D02*
X153192857Y-110778928D01*
X153192857Y-110778928D02*
X153216666Y-110755119D01*
X153216666Y-110755119D02*
X153264285Y-110731309D01*
D11*
%TO.C,J6*%
X153368333Y-108387379D02*
X153368333Y-107673094D01*
X153368333Y-107673094D02*
X153415952Y-107530237D01*
X153415952Y-107530237D02*
X153511190Y-107434999D01*
X153511190Y-107434999D02*
X153654047Y-107387379D01*
X153654047Y-107387379D02*
X153749285Y-107387379D01*
X152463571Y-108387379D02*
X152654047Y-108387379D01*
X152654047Y-108387379D02*
X152749285Y-108339760D01*
X152749285Y-108339760D02*
X152796904Y-108292141D01*
X152796904Y-108292141D02*
X152892142Y-108149284D01*
X152892142Y-108149284D02*
X152939761Y-107958808D01*
X152939761Y-107958808D02*
X152939761Y-107577856D01*
X152939761Y-107577856D02*
X152892142Y-107482618D01*
X152892142Y-107482618D02*
X152844523Y-107434999D01*
X152844523Y-107434999D02*
X152749285Y-107387379D01*
X152749285Y-107387379D02*
X152558809Y-107387379D01*
X152558809Y-107387379D02*
X152463571Y-107434999D01*
X152463571Y-107434999D02*
X152415952Y-107482618D01*
X152415952Y-107482618D02*
X152368333Y-107577856D01*
X152368333Y-107577856D02*
X152368333Y-107815951D01*
X152368333Y-107815951D02*
X152415952Y-107911189D01*
X152415952Y-107911189D02*
X152463571Y-107958808D01*
X152463571Y-107958808D02*
X152558809Y-108006427D01*
X152558809Y-108006427D02*
X152749285Y-108006427D01*
X152749285Y-108006427D02*
X152844523Y-107958808D01*
X152844523Y-107958808D02*
X152892142Y-107911189D01*
X152892142Y-107911189D02*
X152939761Y-107815951D01*
D12*
%TO.C,L8*%
X152603332Y-80203690D02*
X152841427Y-80203690D01*
X152841427Y-80203690D02*
X152841427Y-80703690D01*
X152365236Y-80489404D02*
X152412855Y-80513214D01*
X152412855Y-80513214D02*
X152436665Y-80537023D01*
X152436665Y-80537023D02*
X152460474Y-80584642D01*
X152460474Y-80584642D02*
X152460474Y-80608452D01*
X152460474Y-80608452D02*
X152436665Y-80656071D01*
X152436665Y-80656071D02*
X152412855Y-80679880D01*
X152412855Y-80679880D02*
X152365236Y-80703690D01*
X152365236Y-80703690D02*
X152269998Y-80703690D01*
X152269998Y-80703690D02*
X152222379Y-80679880D01*
X152222379Y-80679880D02*
X152198570Y-80656071D01*
X152198570Y-80656071D02*
X152174760Y-80608452D01*
X152174760Y-80608452D02*
X152174760Y-80584642D01*
X152174760Y-80584642D02*
X152198570Y-80537023D01*
X152198570Y-80537023D02*
X152222379Y-80513214D01*
X152222379Y-80513214D02*
X152269998Y-80489404D01*
X152269998Y-80489404D02*
X152365236Y-80489404D01*
X152365236Y-80489404D02*
X152412855Y-80465595D01*
X152412855Y-80465595D02*
X152436665Y-80441785D01*
X152436665Y-80441785D02*
X152460474Y-80394166D01*
X152460474Y-80394166D02*
X152460474Y-80298928D01*
X152460474Y-80298928D02*
X152436665Y-80251309D01*
X152436665Y-80251309D02*
X152412855Y-80227500D01*
X152412855Y-80227500D02*
X152365236Y-80203690D01*
X152365236Y-80203690D02*
X152269998Y-80203690D01*
X152269998Y-80203690D02*
X152222379Y-80227500D01*
X152222379Y-80227500D02*
X152198570Y-80251309D01*
X152198570Y-80251309D02*
X152174760Y-80298928D01*
X152174760Y-80298928D02*
X152174760Y-80394166D01*
X152174760Y-80394166D02*
X152198570Y-80441785D01*
X152198570Y-80441785D02*
X152222379Y-80465595D01*
X152222379Y-80465595D02*
X152269998Y-80489404D01*
%TO.C,R28*%
X152478571Y-87231309D02*
X152311905Y-86993214D01*
X152192857Y-87231309D02*
X152192857Y-86731309D01*
X152192857Y-86731309D02*
X152383333Y-86731309D01*
X152383333Y-86731309D02*
X152430952Y-86755119D01*
X152430952Y-86755119D02*
X152454762Y-86778928D01*
X152454762Y-86778928D02*
X152478571Y-86826547D01*
X152478571Y-86826547D02*
X152478571Y-86897976D01*
X152478571Y-86897976D02*
X152454762Y-86945595D01*
X152454762Y-86945595D02*
X152430952Y-86969404D01*
X152430952Y-86969404D02*
X152383333Y-86993214D01*
X152383333Y-86993214D02*
X152192857Y-86993214D01*
X152669048Y-86778928D02*
X152692857Y-86755119D01*
X152692857Y-86755119D02*
X152740476Y-86731309D01*
X152740476Y-86731309D02*
X152859524Y-86731309D01*
X152859524Y-86731309D02*
X152907143Y-86755119D01*
X152907143Y-86755119D02*
X152930952Y-86778928D01*
X152930952Y-86778928D02*
X152954762Y-86826547D01*
X152954762Y-86826547D02*
X152954762Y-86874166D01*
X152954762Y-86874166D02*
X152930952Y-86945595D01*
X152930952Y-86945595D02*
X152645238Y-87231309D01*
X152645238Y-87231309D02*
X152954762Y-87231309D01*
X153240476Y-86945595D02*
X153192857Y-86921785D01*
X153192857Y-86921785D02*
X153169047Y-86897976D01*
X153169047Y-86897976D02*
X153145238Y-86850357D01*
X153145238Y-86850357D02*
X153145238Y-86826547D01*
X153145238Y-86826547D02*
X153169047Y-86778928D01*
X153169047Y-86778928D02*
X153192857Y-86755119D01*
X153192857Y-86755119D02*
X153240476Y-86731309D01*
X153240476Y-86731309D02*
X153335714Y-86731309D01*
X153335714Y-86731309D02*
X153383333Y-86755119D01*
X153383333Y-86755119D02*
X153407142Y-86778928D01*
X153407142Y-86778928D02*
X153430952Y-86826547D01*
X153430952Y-86826547D02*
X153430952Y-86850357D01*
X153430952Y-86850357D02*
X153407142Y-86897976D01*
X153407142Y-86897976D02*
X153383333Y-86921785D01*
X153383333Y-86921785D02*
X153335714Y-86945595D01*
X153335714Y-86945595D02*
X153240476Y-86945595D01*
X153240476Y-86945595D02*
X153192857Y-86969404D01*
X153192857Y-86969404D02*
X153169047Y-86993214D01*
X153169047Y-86993214D02*
X153145238Y-87040833D01*
X153145238Y-87040833D02*
X153145238Y-87136071D01*
X153145238Y-87136071D02*
X153169047Y-87183690D01*
X153169047Y-87183690D02*
X153192857Y-87207500D01*
X153192857Y-87207500D02*
X153240476Y-87231309D01*
X153240476Y-87231309D02*
X153335714Y-87231309D01*
X153335714Y-87231309D02*
X153383333Y-87207500D01*
X153383333Y-87207500D02*
X153407142Y-87183690D01*
X153407142Y-87183690D02*
X153430952Y-87136071D01*
X153430952Y-87136071D02*
X153430952Y-87040833D01*
X153430952Y-87040833D02*
X153407142Y-86993214D01*
X153407142Y-86993214D02*
X153383333Y-86969404D01*
X153383333Y-86969404D02*
X153335714Y-86945595D01*
%TO.C,R23*%
X152578571Y-98031309D02*
X152411905Y-97793214D01*
X152292857Y-98031309D02*
X152292857Y-97531309D01*
X152292857Y-97531309D02*
X152483333Y-97531309D01*
X152483333Y-97531309D02*
X152530952Y-97555119D01*
X152530952Y-97555119D02*
X152554762Y-97578928D01*
X152554762Y-97578928D02*
X152578571Y-97626547D01*
X152578571Y-97626547D02*
X152578571Y-97697976D01*
X152578571Y-97697976D02*
X152554762Y-97745595D01*
X152554762Y-97745595D02*
X152530952Y-97769404D01*
X152530952Y-97769404D02*
X152483333Y-97793214D01*
X152483333Y-97793214D02*
X152292857Y-97793214D01*
X152769048Y-97578928D02*
X152792857Y-97555119D01*
X152792857Y-97555119D02*
X152840476Y-97531309D01*
X152840476Y-97531309D02*
X152959524Y-97531309D01*
X152959524Y-97531309D02*
X153007143Y-97555119D01*
X153007143Y-97555119D02*
X153030952Y-97578928D01*
X153030952Y-97578928D02*
X153054762Y-97626547D01*
X153054762Y-97626547D02*
X153054762Y-97674166D01*
X153054762Y-97674166D02*
X153030952Y-97745595D01*
X153030952Y-97745595D02*
X152745238Y-98031309D01*
X152745238Y-98031309D02*
X153054762Y-98031309D01*
X153221428Y-97531309D02*
X153530952Y-97531309D01*
X153530952Y-97531309D02*
X153364285Y-97721785D01*
X153364285Y-97721785D02*
X153435714Y-97721785D01*
X153435714Y-97721785D02*
X153483333Y-97745595D01*
X153483333Y-97745595D02*
X153507142Y-97769404D01*
X153507142Y-97769404D02*
X153530952Y-97817023D01*
X153530952Y-97817023D02*
X153530952Y-97936071D01*
X153530952Y-97936071D02*
X153507142Y-97983690D01*
X153507142Y-97983690D02*
X153483333Y-98007500D01*
X153483333Y-98007500D02*
X153435714Y-98031309D01*
X153435714Y-98031309D02*
X153292857Y-98031309D01*
X153292857Y-98031309D02*
X153245238Y-98007500D01*
X153245238Y-98007500D02*
X153221428Y-97983690D01*
%TO.C,C16*%
X131178571Y-114083690D02*
X131154762Y-114107500D01*
X131154762Y-114107500D02*
X131083333Y-114131309D01*
X131083333Y-114131309D02*
X131035714Y-114131309D01*
X131035714Y-114131309D02*
X130964286Y-114107500D01*
X130964286Y-114107500D02*
X130916667Y-114059880D01*
X130916667Y-114059880D02*
X130892857Y-114012261D01*
X130892857Y-114012261D02*
X130869048Y-113917023D01*
X130869048Y-113917023D02*
X130869048Y-113845595D01*
X130869048Y-113845595D02*
X130892857Y-113750357D01*
X130892857Y-113750357D02*
X130916667Y-113702738D01*
X130916667Y-113702738D02*
X130964286Y-113655119D01*
X130964286Y-113655119D02*
X131035714Y-113631309D01*
X131035714Y-113631309D02*
X131083333Y-113631309D01*
X131083333Y-113631309D02*
X131154762Y-113655119D01*
X131154762Y-113655119D02*
X131178571Y-113678928D01*
X131654762Y-114131309D02*
X131369048Y-114131309D01*
X131511905Y-114131309D02*
X131511905Y-113631309D01*
X131511905Y-113631309D02*
X131464286Y-113702738D01*
X131464286Y-113702738D02*
X131416667Y-113750357D01*
X131416667Y-113750357D02*
X131369048Y-113774166D01*
X132083333Y-113631309D02*
X131988095Y-113631309D01*
X131988095Y-113631309D02*
X131940476Y-113655119D01*
X131940476Y-113655119D02*
X131916666Y-113678928D01*
X131916666Y-113678928D02*
X131869047Y-113750357D01*
X131869047Y-113750357D02*
X131845238Y-113845595D01*
X131845238Y-113845595D02*
X131845238Y-114036071D01*
X131845238Y-114036071D02*
X131869047Y-114083690D01*
X131869047Y-114083690D02*
X131892857Y-114107500D01*
X131892857Y-114107500D02*
X131940476Y-114131309D01*
X131940476Y-114131309D02*
X132035714Y-114131309D01*
X132035714Y-114131309D02*
X132083333Y-114107500D01*
X132083333Y-114107500D02*
X132107142Y-114083690D01*
X132107142Y-114083690D02*
X132130952Y-114036071D01*
X132130952Y-114036071D02*
X132130952Y-113917023D01*
X132130952Y-113917023D02*
X132107142Y-113869404D01*
X132107142Y-113869404D02*
X132083333Y-113845595D01*
X132083333Y-113845595D02*
X132035714Y-113821785D01*
X132035714Y-113821785D02*
X131940476Y-113821785D01*
X131940476Y-113821785D02*
X131892857Y-113845595D01*
X131892857Y-113845595D02*
X131869047Y-113869404D01*
X131869047Y-113869404D02*
X131845238Y-113917023D01*
%TO.C,C30*%
X152697395Y-75742827D02*
X152697395Y-75709155D01*
X152697395Y-75709155D02*
X152731066Y-75641811D01*
X152731066Y-75641811D02*
X152764738Y-75608140D01*
X152764738Y-75608140D02*
X152832082Y-75574468D01*
X152832082Y-75574468D02*
X152899425Y-75574468D01*
X152899425Y-75574468D02*
X152949933Y-75591304D01*
X152949933Y-75591304D02*
X153034112Y-75641811D01*
X153034112Y-75641811D02*
X153084620Y-75692319D01*
X153084620Y-75692319D02*
X153135127Y-75776498D01*
X153135127Y-75776498D02*
X153151963Y-75827006D01*
X153151963Y-75827006D02*
X153151963Y-75894350D01*
X153151963Y-75894350D02*
X153118292Y-75961693D01*
X153118292Y-75961693D02*
X153084620Y-75995365D01*
X153084620Y-75995365D02*
X153017276Y-76029037D01*
X153017276Y-76029037D02*
X152983605Y-76029037D01*
X152899425Y-76180560D02*
X152680559Y-76399426D01*
X152680559Y-76399426D02*
X152663723Y-76146888D01*
X152663723Y-76146888D02*
X152613215Y-76197395D01*
X152613215Y-76197395D02*
X152562708Y-76214231D01*
X152562708Y-76214231D02*
X152529036Y-76214231D01*
X152529036Y-76214231D02*
X152478528Y-76197395D01*
X152478528Y-76197395D02*
X152394349Y-76113216D01*
X152394349Y-76113216D02*
X152377513Y-76062708D01*
X152377513Y-76062708D02*
X152377513Y-76029037D01*
X152377513Y-76029037D02*
X152394349Y-75978529D01*
X152394349Y-75978529D02*
X152495364Y-75877514D01*
X152495364Y-75877514D02*
X152545872Y-75860678D01*
X152545872Y-75860678D02*
X152579544Y-75860678D01*
X152461693Y-76618292D02*
X152428021Y-76651964D01*
X152428021Y-76651964D02*
X152377513Y-76668800D01*
X152377513Y-76668800D02*
X152343842Y-76668800D01*
X152343842Y-76668800D02*
X152293334Y-76651964D01*
X152293334Y-76651964D02*
X152209155Y-76601456D01*
X152209155Y-76601456D02*
X152124975Y-76517277D01*
X152124975Y-76517277D02*
X152074468Y-76433097D01*
X152074468Y-76433097D02*
X152057632Y-76382590D01*
X152057632Y-76382590D02*
X152057632Y-76348918D01*
X152057632Y-76348918D02*
X152074468Y-76298410D01*
X152074468Y-76298410D02*
X152108139Y-76264739D01*
X152108139Y-76264739D02*
X152158647Y-76247903D01*
X152158647Y-76247903D02*
X152192319Y-76247903D01*
X152192319Y-76247903D02*
X152242826Y-76264739D01*
X152242826Y-76264739D02*
X152327006Y-76315246D01*
X152327006Y-76315246D02*
X152411185Y-76399426D01*
X152411185Y-76399426D02*
X152461693Y-76483605D01*
X152461693Y-76483605D02*
X152478529Y-76534113D01*
X152478529Y-76534113D02*
X152478529Y-76567784D01*
X152478529Y-76567784D02*
X152461693Y-76618292D01*
%TO.C,L6*%
X152603332Y-104203690D02*
X152841427Y-104203690D01*
X152841427Y-104203690D02*
X152841427Y-104703690D01*
X152222379Y-104703690D02*
X152317617Y-104703690D01*
X152317617Y-104703690D02*
X152365236Y-104679880D01*
X152365236Y-104679880D02*
X152389046Y-104656071D01*
X152389046Y-104656071D02*
X152436665Y-104584642D01*
X152436665Y-104584642D02*
X152460474Y-104489404D01*
X152460474Y-104489404D02*
X152460474Y-104298928D01*
X152460474Y-104298928D02*
X152436665Y-104251309D01*
X152436665Y-104251309D02*
X152412855Y-104227500D01*
X152412855Y-104227500D02*
X152365236Y-104203690D01*
X152365236Y-104203690D02*
X152269998Y-104203690D01*
X152269998Y-104203690D02*
X152222379Y-104227500D01*
X152222379Y-104227500D02*
X152198570Y-104251309D01*
X152198570Y-104251309D02*
X152174760Y-104298928D01*
X152174760Y-104298928D02*
X152174760Y-104417976D01*
X152174760Y-104417976D02*
X152198570Y-104465595D01*
X152198570Y-104465595D02*
X152222379Y-104489404D01*
X152222379Y-104489404D02*
X152269998Y-104513214D01*
X152269998Y-104513214D02*
X152365236Y-104513214D01*
X152365236Y-104513214D02*
X152412855Y-104489404D01*
X152412855Y-104489404D02*
X152436665Y-104465595D01*
X152436665Y-104465595D02*
X152460474Y-104417976D01*
%TO.C,C23*%
X149695238Y-96816309D02*
X149719047Y-96792500D01*
X149719047Y-96792500D02*
X149790476Y-96768690D01*
X149790476Y-96768690D02*
X149838095Y-96768690D01*
X149838095Y-96768690D02*
X149909523Y-96792500D01*
X149909523Y-96792500D02*
X149957142Y-96840119D01*
X149957142Y-96840119D02*
X149980952Y-96887738D01*
X149980952Y-96887738D02*
X150004761Y-96982976D01*
X150004761Y-96982976D02*
X150004761Y-97054404D01*
X150004761Y-97054404D02*
X149980952Y-97149642D01*
X149980952Y-97149642D02*
X149957142Y-97197261D01*
X149957142Y-97197261D02*
X149909523Y-97244880D01*
X149909523Y-97244880D02*
X149838095Y-97268690D01*
X149838095Y-97268690D02*
X149790476Y-97268690D01*
X149790476Y-97268690D02*
X149719047Y-97244880D01*
X149719047Y-97244880D02*
X149695238Y-97221071D01*
X149504761Y-97221071D02*
X149480952Y-97244880D01*
X149480952Y-97244880D02*
X149433333Y-97268690D01*
X149433333Y-97268690D02*
X149314285Y-97268690D01*
X149314285Y-97268690D02*
X149266666Y-97244880D01*
X149266666Y-97244880D02*
X149242857Y-97221071D01*
X149242857Y-97221071D02*
X149219047Y-97173452D01*
X149219047Y-97173452D02*
X149219047Y-97125833D01*
X149219047Y-97125833D02*
X149242857Y-97054404D01*
X149242857Y-97054404D02*
X149528571Y-96768690D01*
X149528571Y-96768690D02*
X149219047Y-96768690D01*
X149052381Y-97268690D02*
X148742857Y-97268690D01*
X148742857Y-97268690D02*
X148909524Y-97078214D01*
X148909524Y-97078214D02*
X148838095Y-97078214D01*
X148838095Y-97078214D02*
X148790476Y-97054404D01*
X148790476Y-97054404D02*
X148766667Y-97030595D01*
X148766667Y-97030595D02*
X148742857Y-96982976D01*
X148742857Y-96982976D02*
X148742857Y-96863928D01*
X148742857Y-96863928D02*
X148766667Y-96816309D01*
X148766667Y-96816309D02*
X148790476Y-96792500D01*
X148790476Y-96792500D02*
X148838095Y-96768690D01*
X148838095Y-96768690D02*
X148980952Y-96768690D01*
X148980952Y-96768690D02*
X149028571Y-96792500D01*
X149028571Y-96792500D02*
X149052381Y-96816309D01*
%TO.C,C28*%
X149978571Y-90383690D02*
X149954762Y-90407500D01*
X149954762Y-90407500D02*
X149883333Y-90431309D01*
X149883333Y-90431309D02*
X149835714Y-90431309D01*
X149835714Y-90431309D02*
X149764286Y-90407500D01*
X149764286Y-90407500D02*
X149716667Y-90359880D01*
X149716667Y-90359880D02*
X149692857Y-90312261D01*
X149692857Y-90312261D02*
X149669048Y-90217023D01*
X149669048Y-90217023D02*
X149669048Y-90145595D01*
X149669048Y-90145595D02*
X149692857Y-90050357D01*
X149692857Y-90050357D02*
X149716667Y-90002738D01*
X149716667Y-90002738D02*
X149764286Y-89955119D01*
X149764286Y-89955119D02*
X149835714Y-89931309D01*
X149835714Y-89931309D02*
X149883333Y-89931309D01*
X149883333Y-89931309D02*
X149954762Y-89955119D01*
X149954762Y-89955119D02*
X149978571Y-89978928D01*
X150169048Y-89978928D02*
X150192857Y-89955119D01*
X150192857Y-89955119D02*
X150240476Y-89931309D01*
X150240476Y-89931309D02*
X150359524Y-89931309D01*
X150359524Y-89931309D02*
X150407143Y-89955119D01*
X150407143Y-89955119D02*
X150430952Y-89978928D01*
X150430952Y-89978928D02*
X150454762Y-90026547D01*
X150454762Y-90026547D02*
X150454762Y-90074166D01*
X150454762Y-90074166D02*
X150430952Y-90145595D01*
X150430952Y-90145595D02*
X150145238Y-90431309D01*
X150145238Y-90431309D02*
X150454762Y-90431309D01*
X150740476Y-90145595D02*
X150692857Y-90121785D01*
X150692857Y-90121785D02*
X150669047Y-90097976D01*
X150669047Y-90097976D02*
X150645238Y-90050357D01*
X150645238Y-90050357D02*
X150645238Y-90026547D01*
X150645238Y-90026547D02*
X150669047Y-89978928D01*
X150669047Y-89978928D02*
X150692857Y-89955119D01*
X150692857Y-89955119D02*
X150740476Y-89931309D01*
X150740476Y-89931309D02*
X150835714Y-89931309D01*
X150835714Y-89931309D02*
X150883333Y-89955119D01*
X150883333Y-89955119D02*
X150907142Y-89978928D01*
X150907142Y-89978928D02*
X150930952Y-90026547D01*
X150930952Y-90026547D02*
X150930952Y-90050357D01*
X150930952Y-90050357D02*
X150907142Y-90097976D01*
X150907142Y-90097976D02*
X150883333Y-90121785D01*
X150883333Y-90121785D02*
X150835714Y-90145595D01*
X150835714Y-90145595D02*
X150740476Y-90145595D01*
X150740476Y-90145595D02*
X150692857Y-90169404D01*
X150692857Y-90169404D02*
X150669047Y-90193214D01*
X150669047Y-90193214D02*
X150645238Y-90240833D01*
X150645238Y-90240833D02*
X150645238Y-90336071D01*
X150645238Y-90336071D02*
X150669047Y-90383690D01*
X150669047Y-90383690D02*
X150692857Y-90407500D01*
X150692857Y-90407500D02*
X150740476Y-90431309D01*
X150740476Y-90431309D02*
X150835714Y-90431309D01*
X150835714Y-90431309D02*
X150883333Y-90407500D01*
X150883333Y-90407500D02*
X150907142Y-90383690D01*
X150907142Y-90383690D02*
X150930952Y-90336071D01*
X150930952Y-90336071D02*
X150930952Y-90240833D01*
X150930952Y-90240833D02*
X150907142Y-90193214D01*
X150907142Y-90193214D02*
X150883333Y-90169404D01*
X150883333Y-90169404D02*
X150835714Y-90145595D01*
%TO.C,C26*%
X152797395Y-87742827D02*
X152797395Y-87709155D01*
X152797395Y-87709155D02*
X152831066Y-87641811D01*
X152831066Y-87641811D02*
X152864738Y-87608140D01*
X152864738Y-87608140D02*
X152932082Y-87574468D01*
X152932082Y-87574468D02*
X152999425Y-87574468D01*
X152999425Y-87574468D02*
X153049933Y-87591304D01*
X153049933Y-87591304D02*
X153134112Y-87641811D01*
X153134112Y-87641811D02*
X153184620Y-87692319D01*
X153184620Y-87692319D02*
X153235127Y-87776498D01*
X153235127Y-87776498D02*
X153251963Y-87827006D01*
X153251963Y-87827006D02*
X153251963Y-87894350D01*
X153251963Y-87894350D02*
X153218292Y-87961693D01*
X153218292Y-87961693D02*
X153184620Y-87995365D01*
X153184620Y-87995365D02*
X153117276Y-88029037D01*
X153117276Y-88029037D02*
X153083605Y-88029037D01*
X152948918Y-88163724D02*
X152948918Y-88197395D01*
X152948918Y-88197395D02*
X152932082Y-88247903D01*
X152932082Y-88247903D02*
X152847902Y-88332082D01*
X152847902Y-88332082D02*
X152797395Y-88348918D01*
X152797395Y-88348918D02*
X152763723Y-88348918D01*
X152763723Y-88348918D02*
X152713215Y-88332082D01*
X152713215Y-88332082D02*
X152679544Y-88298411D01*
X152679544Y-88298411D02*
X152645872Y-88231067D01*
X152645872Y-88231067D02*
X152645872Y-87827006D01*
X152645872Y-87827006D02*
X152427005Y-88045872D01*
X152477513Y-88702471D02*
X152544857Y-88635128D01*
X152544857Y-88635128D02*
X152561693Y-88584620D01*
X152561693Y-88584620D02*
X152561693Y-88550948D01*
X152561693Y-88550948D02*
X152544857Y-88466769D01*
X152544857Y-88466769D02*
X152494349Y-88382590D01*
X152494349Y-88382590D02*
X152359662Y-88247903D01*
X152359662Y-88247903D02*
X152309155Y-88231067D01*
X152309155Y-88231067D02*
X152275483Y-88231067D01*
X152275483Y-88231067D02*
X152224975Y-88247903D01*
X152224975Y-88247903D02*
X152157632Y-88315246D01*
X152157632Y-88315246D02*
X152140796Y-88365754D01*
X152140796Y-88365754D02*
X152140796Y-88399426D01*
X152140796Y-88399426D02*
X152157632Y-88449933D01*
X152157632Y-88449933D02*
X152241811Y-88534113D01*
X152241811Y-88534113D02*
X152292319Y-88550948D01*
X152292319Y-88550948D02*
X152325991Y-88550948D01*
X152325991Y-88550948D02*
X152376498Y-88534113D01*
X152376498Y-88534113D02*
X152443842Y-88466769D01*
X152443842Y-88466769D02*
X152460678Y-88416261D01*
X152460678Y-88416261D02*
X152460678Y-88382590D01*
X152460678Y-88382590D02*
X152443842Y-88332082D01*
%TO.C,L4*%
X129226666Y-111801309D02*
X128988571Y-111801309D01*
X128988571Y-111801309D02*
X128988571Y-111301309D01*
X129607619Y-111467976D02*
X129607619Y-111801309D01*
X129488571Y-111277500D02*
X129369524Y-111634642D01*
X129369524Y-111634642D02*
X129679047Y-111634642D01*
%TO.C,C20*%
X149978571Y-114383690D02*
X149954762Y-114407500D01*
X149954762Y-114407500D02*
X149883333Y-114431309D01*
X149883333Y-114431309D02*
X149835714Y-114431309D01*
X149835714Y-114431309D02*
X149764286Y-114407500D01*
X149764286Y-114407500D02*
X149716667Y-114359880D01*
X149716667Y-114359880D02*
X149692857Y-114312261D01*
X149692857Y-114312261D02*
X149669048Y-114217023D01*
X149669048Y-114217023D02*
X149669048Y-114145595D01*
X149669048Y-114145595D02*
X149692857Y-114050357D01*
X149692857Y-114050357D02*
X149716667Y-114002738D01*
X149716667Y-114002738D02*
X149764286Y-113955119D01*
X149764286Y-113955119D02*
X149835714Y-113931309D01*
X149835714Y-113931309D02*
X149883333Y-113931309D01*
X149883333Y-113931309D02*
X149954762Y-113955119D01*
X149954762Y-113955119D02*
X149978571Y-113978928D01*
X150169048Y-113978928D02*
X150192857Y-113955119D01*
X150192857Y-113955119D02*
X150240476Y-113931309D01*
X150240476Y-113931309D02*
X150359524Y-113931309D01*
X150359524Y-113931309D02*
X150407143Y-113955119D01*
X150407143Y-113955119D02*
X150430952Y-113978928D01*
X150430952Y-113978928D02*
X150454762Y-114026547D01*
X150454762Y-114026547D02*
X150454762Y-114074166D01*
X150454762Y-114074166D02*
X150430952Y-114145595D01*
X150430952Y-114145595D02*
X150145238Y-114431309D01*
X150145238Y-114431309D02*
X150454762Y-114431309D01*
X150764285Y-113931309D02*
X150811904Y-113931309D01*
X150811904Y-113931309D02*
X150859523Y-113955119D01*
X150859523Y-113955119D02*
X150883333Y-113978928D01*
X150883333Y-113978928D02*
X150907142Y-114026547D01*
X150907142Y-114026547D02*
X150930952Y-114121785D01*
X150930952Y-114121785D02*
X150930952Y-114240833D01*
X150930952Y-114240833D02*
X150907142Y-114336071D01*
X150907142Y-114336071D02*
X150883333Y-114383690D01*
X150883333Y-114383690D02*
X150859523Y-114407500D01*
X150859523Y-114407500D02*
X150811904Y-114431309D01*
X150811904Y-114431309D02*
X150764285Y-114431309D01*
X150764285Y-114431309D02*
X150716666Y-114407500D01*
X150716666Y-114407500D02*
X150692857Y-114383690D01*
X150692857Y-114383690D02*
X150669047Y-114336071D01*
X150669047Y-114336071D02*
X150645238Y-114240833D01*
X150645238Y-114240833D02*
X150645238Y-114121785D01*
X150645238Y-114121785D02*
X150669047Y-114026547D01*
X150669047Y-114026547D02*
X150692857Y-113978928D01*
X150692857Y-113978928D02*
X150716666Y-113955119D01*
X150716666Y-113955119D02*
X150764285Y-113931309D01*
%TO.C,C35*%
X147093571Y-67638690D02*
X147069762Y-67662500D01*
X147069762Y-67662500D02*
X146998333Y-67686309D01*
X146998333Y-67686309D02*
X146950714Y-67686309D01*
X146950714Y-67686309D02*
X146879286Y-67662500D01*
X146879286Y-67662500D02*
X146831667Y-67614880D01*
X146831667Y-67614880D02*
X146807857Y-67567261D01*
X146807857Y-67567261D02*
X146784048Y-67472023D01*
X146784048Y-67472023D02*
X146784048Y-67400595D01*
X146784048Y-67400595D02*
X146807857Y-67305357D01*
X146807857Y-67305357D02*
X146831667Y-67257738D01*
X146831667Y-67257738D02*
X146879286Y-67210119D01*
X146879286Y-67210119D02*
X146950714Y-67186309D01*
X146950714Y-67186309D02*
X146998333Y-67186309D01*
X146998333Y-67186309D02*
X147069762Y-67210119D01*
X147069762Y-67210119D02*
X147093571Y-67233928D01*
X147260238Y-67186309D02*
X147569762Y-67186309D01*
X147569762Y-67186309D02*
X147403095Y-67376785D01*
X147403095Y-67376785D02*
X147474524Y-67376785D01*
X147474524Y-67376785D02*
X147522143Y-67400595D01*
X147522143Y-67400595D02*
X147545952Y-67424404D01*
X147545952Y-67424404D02*
X147569762Y-67472023D01*
X147569762Y-67472023D02*
X147569762Y-67591071D01*
X147569762Y-67591071D02*
X147545952Y-67638690D01*
X147545952Y-67638690D02*
X147522143Y-67662500D01*
X147522143Y-67662500D02*
X147474524Y-67686309D01*
X147474524Y-67686309D02*
X147331667Y-67686309D01*
X147331667Y-67686309D02*
X147284048Y-67662500D01*
X147284048Y-67662500D02*
X147260238Y-67638690D01*
X148022142Y-67186309D02*
X147784047Y-67186309D01*
X147784047Y-67186309D02*
X147760238Y-67424404D01*
X147760238Y-67424404D02*
X147784047Y-67400595D01*
X147784047Y-67400595D02*
X147831666Y-67376785D01*
X147831666Y-67376785D02*
X147950714Y-67376785D01*
X147950714Y-67376785D02*
X147998333Y-67400595D01*
X147998333Y-67400595D02*
X148022142Y-67424404D01*
X148022142Y-67424404D02*
X148045952Y-67472023D01*
X148045952Y-67472023D02*
X148045952Y-67591071D01*
X148045952Y-67591071D02*
X148022142Y-67638690D01*
X148022142Y-67638690D02*
X147998333Y-67662500D01*
X147998333Y-67662500D02*
X147950714Y-67686309D01*
X147950714Y-67686309D02*
X147831666Y-67686309D01*
X147831666Y-67686309D02*
X147784047Y-67662500D01*
X147784047Y-67662500D02*
X147760238Y-67638690D01*
D11*
%TO.C,J3*%
X128461666Y-95617619D02*
X128461666Y-96331904D01*
X128461666Y-96331904D02*
X128414047Y-96474761D01*
X128414047Y-96474761D02*
X128318809Y-96570000D01*
X128318809Y-96570000D02*
X128175952Y-96617619D01*
X128175952Y-96617619D02*
X128080714Y-96617619D01*
X128842619Y-95617619D02*
X129461666Y-95617619D01*
X129461666Y-95617619D02*
X129128333Y-95998571D01*
X129128333Y-95998571D02*
X129271190Y-95998571D01*
X129271190Y-95998571D02*
X129366428Y-96046190D01*
X129366428Y-96046190D02*
X129414047Y-96093809D01*
X129414047Y-96093809D02*
X129461666Y-96189047D01*
X129461666Y-96189047D02*
X129461666Y-96427142D01*
X129461666Y-96427142D02*
X129414047Y-96522380D01*
X129414047Y-96522380D02*
X129366428Y-96570000D01*
X129366428Y-96570000D02*
X129271190Y-96617619D01*
X129271190Y-96617619D02*
X128985476Y-96617619D01*
X128985476Y-96617619D02*
X128890238Y-96570000D01*
X128890238Y-96570000D02*
X128842619Y-96522380D01*
D12*
%TO.C,R31*%
X152478571Y-74031309D02*
X152311905Y-73793214D01*
X152192857Y-74031309D02*
X152192857Y-73531309D01*
X152192857Y-73531309D02*
X152383333Y-73531309D01*
X152383333Y-73531309D02*
X152430952Y-73555119D01*
X152430952Y-73555119D02*
X152454762Y-73578928D01*
X152454762Y-73578928D02*
X152478571Y-73626547D01*
X152478571Y-73626547D02*
X152478571Y-73697976D01*
X152478571Y-73697976D02*
X152454762Y-73745595D01*
X152454762Y-73745595D02*
X152430952Y-73769404D01*
X152430952Y-73769404D02*
X152383333Y-73793214D01*
X152383333Y-73793214D02*
X152192857Y-73793214D01*
X152645238Y-73531309D02*
X152954762Y-73531309D01*
X152954762Y-73531309D02*
X152788095Y-73721785D01*
X152788095Y-73721785D02*
X152859524Y-73721785D01*
X152859524Y-73721785D02*
X152907143Y-73745595D01*
X152907143Y-73745595D02*
X152930952Y-73769404D01*
X152930952Y-73769404D02*
X152954762Y-73817023D01*
X152954762Y-73817023D02*
X152954762Y-73936071D01*
X152954762Y-73936071D02*
X152930952Y-73983690D01*
X152930952Y-73983690D02*
X152907143Y-74007500D01*
X152907143Y-74007500D02*
X152859524Y-74031309D01*
X152859524Y-74031309D02*
X152716667Y-74031309D01*
X152716667Y-74031309D02*
X152669048Y-74007500D01*
X152669048Y-74007500D02*
X152645238Y-73983690D01*
X153430952Y-74031309D02*
X153145238Y-74031309D01*
X153288095Y-74031309D02*
X153288095Y-73531309D01*
X153288095Y-73531309D02*
X153240476Y-73602738D01*
X153240476Y-73602738D02*
X153192857Y-73650357D01*
X153192857Y-73650357D02*
X153145238Y-73674166D01*
%TO.C,C24*%
X149978571Y-102383690D02*
X149954762Y-102407500D01*
X149954762Y-102407500D02*
X149883333Y-102431309D01*
X149883333Y-102431309D02*
X149835714Y-102431309D01*
X149835714Y-102431309D02*
X149764286Y-102407500D01*
X149764286Y-102407500D02*
X149716667Y-102359880D01*
X149716667Y-102359880D02*
X149692857Y-102312261D01*
X149692857Y-102312261D02*
X149669048Y-102217023D01*
X149669048Y-102217023D02*
X149669048Y-102145595D01*
X149669048Y-102145595D02*
X149692857Y-102050357D01*
X149692857Y-102050357D02*
X149716667Y-102002738D01*
X149716667Y-102002738D02*
X149764286Y-101955119D01*
X149764286Y-101955119D02*
X149835714Y-101931309D01*
X149835714Y-101931309D02*
X149883333Y-101931309D01*
X149883333Y-101931309D02*
X149954762Y-101955119D01*
X149954762Y-101955119D02*
X149978571Y-101978928D01*
X150169048Y-101978928D02*
X150192857Y-101955119D01*
X150192857Y-101955119D02*
X150240476Y-101931309D01*
X150240476Y-101931309D02*
X150359524Y-101931309D01*
X150359524Y-101931309D02*
X150407143Y-101955119D01*
X150407143Y-101955119D02*
X150430952Y-101978928D01*
X150430952Y-101978928D02*
X150454762Y-102026547D01*
X150454762Y-102026547D02*
X150454762Y-102074166D01*
X150454762Y-102074166D02*
X150430952Y-102145595D01*
X150430952Y-102145595D02*
X150145238Y-102431309D01*
X150145238Y-102431309D02*
X150454762Y-102431309D01*
X150883333Y-102097976D02*
X150883333Y-102431309D01*
X150764285Y-101907500D02*
X150645238Y-102264642D01*
X150645238Y-102264642D02*
X150954761Y-102264642D01*
%TO.C,R15*%
X128678571Y-118431309D02*
X128511905Y-118193214D01*
X128392857Y-118431309D02*
X128392857Y-117931309D01*
X128392857Y-117931309D02*
X128583333Y-117931309D01*
X128583333Y-117931309D02*
X128630952Y-117955119D01*
X128630952Y-117955119D02*
X128654762Y-117978928D01*
X128654762Y-117978928D02*
X128678571Y-118026547D01*
X128678571Y-118026547D02*
X128678571Y-118097976D01*
X128678571Y-118097976D02*
X128654762Y-118145595D01*
X128654762Y-118145595D02*
X128630952Y-118169404D01*
X128630952Y-118169404D02*
X128583333Y-118193214D01*
X128583333Y-118193214D02*
X128392857Y-118193214D01*
X129154762Y-118431309D02*
X128869048Y-118431309D01*
X129011905Y-118431309D02*
X129011905Y-117931309D01*
X129011905Y-117931309D02*
X128964286Y-118002738D01*
X128964286Y-118002738D02*
X128916667Y-118050357D01*
X128916667Y-118050357D02*
X128869048Y-118074166D01*
X129607142Y-117931309D02*
X129369047Y-117931309D01*
X129369047Y-117931309D02*
X129345238Y-118169404D01*
X129345238Y-118169404D02*
X129369047Y-118145595D01*
X129369047Y-118145595D02*
X129416666Y-118121785D01*
X129416666Y-118121785D02*
X129535714Y-118121785D01*
X129535714Y-118121785D02*
X129583333Y-118145595D01*
X129583333Y-118145595D02*
X129607142Y-118169404D01*
X129607142Y-118169404D02*
X129630952Y-118217023D01*
X129630952Y-118217023D02*
X129630952Y-118336071D01*
X129630952Y-118336071D02*
X129607142Y-118383690D01*
X129607142Y-118383690D02*
X129583333Y-118407500D01*
X129583333Y-118407500D02*
X129535714Y-118431309D01*
X129535714Y-118431309D02*
X129416666Y-118431309D01*
X129416666Y-118431309D02*
X129369047Y-118407500D01*
X129369047Y-118407500D02*
X129345238Y-118383690D01*
%TO.C,C7*%
X132294761Y-95063690D02*
X132270952Y-95087500D01*
X132270952Y-95087500D02*
X132199523Y-95111309D01*
X132199523Y-95111309D02*
X132151904Y-95111309D01*
X132151904Y-95111309D02*
X132080476Y-95087500D01*
X132080476Y-95087500D02*
X132032857Y-95039880D01*
X132032857Y-95039880D02*
X132009047Y-94992261D01*
X132009047Y-94992261D02*
X131985238Y-94897023D01*
X131985238Y-94897023D02*
X131985238Y-94825595D01*
X131985238Y-94825595D02*
X132009047Y-94730357D01*
X132009047Y-94730357D02*
X132032857Y-94682738D01*
X132032857Y-94682738D02*
X132080476Y-94635119D01*
X132080476Y-94635119D02*
X132151904Y-94611309D01*
X132151904Y-94611309D02*
X132199523Y-94611309D01*
X132199523Y-94611309D02*
X132270952Y-94635119D01*
X132270952Y-94635119D02*
X132294761Y-94658928D01*
X132461428Y-94611309D02*
X132794761Y-94611309D01*
X132794761Y-94611309D02*
X132580476Y-95111309D01*
%TO.C,C33*%
X126478571Y-70683690D02*
X126454762Y-70707500D01*
X126454762Y-70707500D02*
X126383333Y-70731309D01*
X126383333Y-70731309D02*
X126335714Y-70731309D01*
X126335714Y-70731309D02*
X126264286Y-70707500D01*
X126264286Y-70707500D02*
X126216667Y-70659880D01*
X126216667Y-70659880D02*
X126192857Y-70612261D01*
X126192857Y-70612261D02*
X126169048Y-70517023D01*
X126169048Y-70517023D02*
X126169048Y-70445595D01*
X126169048Y-70445595D02*
X126192857Y-70350357D01*
X126192857Y-70350357D02*
X126216667Y-70302738D01*
X126216667Y-70302738D02*
X126264286Y-70255119D01*
X126264286Y-70255119D02*
X126335714Y-70231309D01*
X126335714Y-70231309D02*
X126383333Y-70231309D01*
X126383333Y-70231309D02*
X126454762Y-70255119D01*
X126454762Y-70255119D02*
X126478571Y-70278928D01*
X126645238Y-70231309D02*
X126954762Y-70231309D01*
X126954762Y-70231309D02*
X126788095Y-70421785D01*
X126788095Y-70421785D02*
X126859524Y-70421785D01*
X126859524Y-70421785D02*
X126907143Y-70445595D01*
X126907143Y-70445595D02*
X126930952Y-70469404D01*
X126930952Y-70469404D02*
X126954762Y-70517023D01*
X126954762Y-70517023D02*
X126954762Y-70636071D01*
X126954762Y-70636071D02*
X126930952Y-70683690D01*
X126930952Y-70683690D02*
X126907143Y-70707500D01*
X126907143Y-70707500D02*
X126859524Y-70731309D01*
X126859524Y-70731309D02*
X126716667Y-70731309D01*
X126716667Y-70731309D02*
X126669048Y-70707500D01*
X126669048Y-70707500D02*
X126645238Y-70683690D01*
X127121428Y-70231309D02*
X127430952Y-70231309D01*
X127430952Y-70231309D02*
X127264285Y-70421785D01*
X127264285Y-70421785D02*
X127335714Y-70421785D01*
X127335714Y-70421785D02*
X127383333Y-70445595D01*
X127383333Y-70445595D02*
X127407142Y-70469404D01*
X127407142Y-70469404D02*
X127430952Y-70517023D01*
X127430952Y-70517023D02*
X127430952Y-70636071D01*
X127430952Y-70636071D02*
X127407142Y-70683690D01*
X127407142Y-70683690D02*
X127383333Y-70707500D01*
X127383333Y-70707500D02*
X127335714Y-70731309D01*
X127335714Y-70731309D02*
X127192857Y-70731309D01*
X127192857Y-70731309D02*
X127145238Y-70707500D01*
X127145238Y-70707500D02*
X127121428Y-70683690D01*
%TO.C,R8*%
X129016666Y-93231309D02*
X128850000Y-92993214D01*
X128730952Y-93231309D02*
X128730952Y-92731309D01*
X128730952Y-92731309D02*
X128921428Y-92731309D01*
X128921428Y-92731309D02*
X128969047Y-92755119D01*
X128969047Y-92755119D02*
X128992857Y-92778928D01*
X128992857Y-92778928D02*
X129016666Y-92826547D01*
X129016666Y-92826547D02*
X129016666Y-92897976D01*
X129016666Y-92897976D02*
X128992857Y-92945595D01*
X128992857Y-92945595D02*
X128969047Y-92969404D01*
X128969047Y-92969404D02*
X128921428Y-92993214D01*
X128921428Y-92993214D02*
X128730952Y-92993214D01*
X129302381Y-92945595D02*
X129254762Y-92921785D01*
X129254762Y-92921785D02*
X129230952Y-92897976D01*
X129230952Y-92897976D02*
X129207143Y-92850357D01*
X129207143Y-92850357D02*
X129207143Y-92826547D01*
X129207143Y-92826547D02*
X129230952Y-92778928D01*
X129230952Y-92778928D02*
X129254762Y-92755119D01*
X129254762Y-92755119D02*
X129302381Y-92731309D01*
X129302381Y-92731309D02*
X129397619Y-92731309D01*
X129397619Y-92731309D02*
X129445238Y-92755119D01*
X129445238Y-92755119D02*
X129469047Y-92778928D01*
X129469047Y-92778928D02*
X129492857Y-92826547D01*
X129492857Y-92826547D02*
X129492857Y-92850357D01*
X129492857Y-92850357D02*
X129469047Y-92897976D01*
X129469047Y-92897976D02*
X129445238Y-92921785D01*
X129445238Y-92921785D02*
X129397619Y-92945595D01*
X129397619Y-92945595D02*
X129302381Y-92945595D01*
X129302381Y-92945595D02*
X129254762Y-92969404D01*
X129254762Y-92969404D02*
X129230952Y-92993214D01*
X129230952Y-92993214D02*
X129207143Y-93040833D01*
X129207143Y-93040833D02*
X129207143Y-93136071D01*
X129207143Y-93136071D02*
X129230952Y-93183690D01*
X129230952Y-93183690D02*
X129254762Y-93207500D01*
X129254762Y-93207500D02*
X129302381Y-93231309D01*
X129302381Y-93231309D02*
X129397619Y-93231309D01*
X129397619Y-93231309D02*
X129445238Y-93207500D01*
X129445238Y-93207500D02*
X129469047Y-93183690D01*
X129469047Y-93183690D02*
X129492857Y-93136071D01*
X129492857Y-93136071D02*
X129492857Y-93040833D01*
X129492857Y-93040833D02*
X129469047Y-92993214D01*
X129469047Y-92993214D02*
X129445238Y-92969404D01*
X129445238Y-92969404D02*
X129397619Y-92945595D01*
%TO.C,R4*%
X129116666Y-81331309D02*
X128950000Y-81093214D01*
X128830952Y-81331309D02*
X128830952Y-80831309D01*
X128830952Y-80831309D02*
X129021428Y-80831309D01*
X129021428Y-80831309D02*
X129069047Y-80855119D01*
X129069047Y-80855119D02*
X129092857Y-80878928D01*
X129092857Y-80878928D02*
X129116666Y-80926547D01*
X129116666Y-80926547D02*
X129116666Y-80997976D01*
X129116666Y-80997976D02*
X129092857Y-81045595D01*
X129092857Y-81045595D02*
X129069047Y-81069404D01*
X129069047Y-81069404D02*
X129021428Y-81093214D01*
X129021428Y-81093214D02*
X128830952Y-81093214D01*
X129545238Y-80997976D02*
X129545238Y-81331309D01*
X129426190Y-80807500D02*
X129307143Y-81164642D01*
X129307143Y-81164642D02*
X129616666Y-81164642D01*
%TO.C,C10*%
X128902604Y-104257172D02*
X128902604Y-104290844D01*
X128902604Y-104290844D02*
X128868933Y-104358188D01*
X128868933Y-104358188D02*
X128835261Y-104391859D01*
X128835261Y-104391859D02*
X128767917Y-104425531D01*
X128767917Y-104425531D02*
X128700574Y-104425531D01*
X128700574Y-104425531D02*
X128650066Y-104408695D01*
X128650066Y-104408695D02*
X128565887Y-104358188D01*
X128565887Y-104358188D02*
X128515379Y-104307680D01*
X128515379Y-104307680D02*
X128464872Y-104223501D01*
X128464872Y-104223501D02*
X128448036Y-104172993D01*
X128448036Y-104172993D02*
X128448036Y-104105649D01*
X128448036Y-104105649D02*
X128481707Y-104038306D01*
X128481707Y-104038306D02*
X128515379Y-104004634D01*
X128515379Y-104004634D02*
X128582723Y-103970962D01*
X128582723Y-103970962D02*
X128616394Y-103970962D01*
X129272994Y-103954127D02*
X129070963Y-104156157D01*
X129171978Y-104055142D02*
X128818425Y-103701588D01*
X128818425Y-103701588D02*
X128835261Y-103785768D01*
X128835261Y-103785768D02*
X128835261Y-103853111D01*
X128835261Y-103853111D02*
X128818425Y-103903619D01*
X129138306Y-103381707D02*
X129171978Y-103348035D01*
X129171978Y-103348035D02*
X129222486Y-103331199D01*
X129222486Y-103331199D02*
X129256157Y-103331199D01*
X129256157Y-103331199D02*
X129306665Y-103348035D01*
X129306665Y-103348035D02*
X129390844Y-103398543D01*
X129390844Y-103398543D02*
X129475024Y-103482722D01*
X129475024Y-103482722D02*
X129525531Y-103566902D01*
X129525531Y-103566902D02*
X129542367Y-103617409D01*
X129542367Y-103617409D02*
X129542367Y-103651081D01*
X129542367Y-103651081D02*
X129525531Y-103701589D01*
X129525531Y-103701589D02*
X129491860Y-103735260D01*
X129491860Y-103735260D02*
X129441352Y-103752096D01*
X129441352Y-103752096D02*
X129407680Y-103752096D01*
X129407680Y-103752096D02*
X129357173Y-103735260D01*
X129357173Y-103735260D02*
X129272993Y-103684753D01*
X129272993Y-103684753D02*
X129188814Y-103600573D01*
X129188814Y-103600573D02*
X129138306Y-103516394D01*
X129138306Y-103516394D02*
X129121470Y-103465886D01*
X129121470Y-103465886D02*
X129121470Y-103432215D01*
X129121470Y-103432215D02*
X129138306Y-103381707D01*
D11*
%TO.C,J7*%
X153368333Y-96387379D02*
X153368333Y-95673094D01*
X153368333Y-95673094D02*
X153415952Y-95530237D01*
X153415952Y-95530237D02*
X153511190Y-95434999D01*
X153511190Y-95434999D02*
X153654047Y-95387379D01*
X153654047Y-95387379D02*
X153749285Y-95387379D01*
X152987380Y-96387379D02*
X152320714Y-96387379D01*
X152320714Y-96387379D02*
X152749285Y-95387379D01*
%TO.C,J8*%
X153368333Y-84387379D02*
X153368333Y-83673094D01*
X153368333Y-83673094D02*
X153415952Y-83530237D01*
X153415952Y-83530237D02*
X153511190Y-83434999D01*
X153511190Y-83434999D02*
X153654047Y-83387379D01*
X153654047Y-83387379D02*
X153749285Y-83387379D01*
X152749285Y-83958808D02*
X152844523Y-84006427D01*
X152844523Y-84006427D02*
X152892142Y-84054046D01*
X152892142Y-84054046D02*
X152939761Y-84149284D01*
X152939761Y-84149284D02*
X152939761Y-84196903D01*
X152939761Y-84196903D02*
X152892142Y-84292141D01*
X152892142Y-84292141D02*
X152844523Y-84339760D01*
X152844523Y-84339760D02*
X152749285Y-84387379D01*
X152749285Y-84387379D02*
X152558809Y-84387379D01*
X152558809Y-84387379D02*
X152463571Y-84339760D01*
X152463571Y-84339760D02*
X152415952Y-84292141D01*
X152415952Y-84292141D02*
X152368333Y-84196903D01*
X152368333Y-84196903D02*
X152368333Y-84149284D01*
X152368333Y-84149284D02*
X152415952Y-84054046D01*
X152415952Y-84054046D02*
X152463571Y-84006427D01*
X152463571Y-84006427D02*
X152558809Y-83958808D01*
X152558809Y-83958808D02*
X152749285Y-83958808D01*
X152749285Y-83958808D02*
X152844523Y-83911189D01*
X152844523Y-83911189D02*
X152892142Y-83863570D01*
X152892142Y-83863570D02*
X152939761Y-83768332D01*
X152939761Y-83768332D02*
X152939761Y-83577856D01*
X152939761Y-83577856D02*
X152892142Y-83482618D01*
X152892142Y-83482618D02*
X152844523Y-83434999D01*
X152844523Y-83434999D02*
X152749285Y-83387379D01*
X152749285Y-83387379D02*
X152558809Y-83387379D01*
X152558809Y-83387379D02*
X152463571Y-83434999D01*
X152463571Y-83434999D02*
X152415952Y-83482618D01*
X152415952Y-83482618D02*
X152368333Y-83577856D01*
X152368333Y-83577856D02*
X152368333Y-83768332D01*
X152368333Y-83768332D02*
X152415952Y-83863570D01*
X152415952Y-83863570D02*
X152463571Y-83911189D01*
X152463571Y-83911189D02*
X152558809Y-83958808D01*
D12*
%TO.C,R27*%
X152478571Y-86031309D02*
X152311905Y-85793214D01*
X152192857Y-86031309D02*
X152192857Y-85531309D01*
X152192857Y-85531309D02*
X152383333Y-85531309D01*
X152383333Y-85531309D02*
X152430952Y-85555119D01*
X152430952Y-85555119D02*
X152454762Y-85578928D01*
X152454762Y-85578928D02*
X152478571Y-85626547D01*
X152478571Y-85626547D02*
X152478571Y-85697976D01*
X152478571Y-85697976D02*
X152454762Y-85745595D01*
X152454762Y-85745595D02*
X152430952Y-85769404D01*
X152430952Y-85769404D02*
X152383333Y-85793214D01*
X152383333Y-85793214D02*
X152192857Y-85793214D01*
X152669048Y-85578928D02*
X152692857Y-85555119D01*
X152692857Y-85555119D02*
X152740476Y-85531309D01*
X152740476Y-85531309D02*
X152859524Y-85531309D01*
X152859524Y-85531309D02*
X152907143Y-85555119D01*
X152907143Y-85555119D02*
X152930952Y-85578928D01*
X152930952Y-85578928D02*
X152954762Y-85626547D01*
X152954762Y-85626547D02*
X152954762Y-85674166D01*
X152954762Y-85674166D02*
X152930952Y-85745595D01*
X152930952Y-85745595D02*
X152645238Y-86031309D01*
X152645238Y-86031309D02*
X152954762Y-86031309D01*
X153121428Y-85531309D02*
X153454761Y-85531309D01*
X153454761Y-85531309D02*
X153240476Y-86031309D01*
%TO.C,C19*%
X149695238Y-108816309D02*
X149719047Y-108792500D01*
X149719047Y-108792500D02*
X149790476Y-108768690D01*
X149790476Y-108768690D02*
X149838095Y-108768690D01*
X149838095Y-108768690D02*
X149909523Y-108792500D01*
X149909523Y-108792500D02*
X149957142Y-108840119D01*
X149957142Y-108840119D02*
X149980952Y-108887738D01*
X149980952Y-108887738D02*
X150004761Y-108982976D01*
X150004761Y-108982976D02*
X150004761Y-109054404D01*
X150004761Y-109054404D02*
X149980952Y-109149642D01*
X149980952Y-109149642D02*
X149957142Y-109197261D01*
X149957142Y-109197261D02*
X149909523Y-109244880D01*
X149909523Y-109244880D02*
X149838095Y-109268690D01*
X149838095Y-109268690D02*
X149790476Y-109268690D01*
X149790476Y-109268690D02*
X149719047Y-109244880D01*
X149719047Y-109244880D02*
X149695238Y-109221071D01*
X149219047Y-108768690D02*
X149504761Y-108768690D01*
X149361904Y-108768690D02*
X149361904Y-109268690D01*
X149361904Y-109268690D02*
X149409523Y-109197261D01*
X149409523Y-109197261D02*
X149457142Y-109149642D01*
X149457142Y-109149642D02*
X149504761Y-109125833D01*
X148980952Y-108768690D02*
X148885714Y-108768690D01*
X148885714Y-108768690D02*
X148838095Y-108792500D01*
X148838095Y-108792500D02*
X148814286Y-108816309D01*
X148814286Y-108816309D02*
X148766667Y-108887738D01*
X148766667Y-108887738D02*
X148742857Y-108982976D01*
X148742857Y-108982976D02*
X148742857Y-109173452D01*
X148742857Y-109173452D02*
X148766667Y-109221071D01*
X148766667Y-109221071D02*
X148790476Y-109244880D01*
X148790476Y-109244880D02*
X148838095Y-109268690D01*
X148838095Y-109268690D02*
X148933333Y-109268690D01*
X148933333Y-109268690D02*
X148980952Y-109244880D01*
X148980952Y-109244880D02*
X149004762Y-109221071D01*
X149004762Y-109221071D02*
X149028571Y-109173452D01*
X149028571Y-109173452D02*
X149028571Y-109054404D01*
X149028571Y-109054404D02*
X149004762Y-109006785D01*
X149004762Y-109006785D02*
X148980952Y-108982976D01*
X148980952Y-108982976D02*
X148933333Y-108959166D01*
X148933333Y-108959166D02*
X148838095Y-108959166D01*
X148838095Y-108959166D02*
X148790476Y-108982976D01*
X148790476Y-108982976D02*
X148766667Y-109006785D01*
X148766667Y-109006785D02*
X148742857Y-109054404D01*
%TO.C,R18*%
X149078571Y-112031309D02*
X148911905Y-111793214D01*
X148792857Y-112031309D02*
X148792857Y-111531309D01*
X148792857Y-111531309D02*
X148983333Y-111531309D01*
X148983333Y-111531309D02*
X149030952Y-111555119D01*
X149030952Y-111555119D02*
X149054762Y-111578928D01*
X149054762Y-111578928D02*
X149078571Y-111626547D01*
X149078571Y-111626547D02*
X149078571Y-111697976D01*
X149078571Y-111697976D02*
X149054762Y-111745595D01*
X149054762Y-111745595D02*
X149030952Y-111769404D01*
X149030952Y-111769404D02*
X148983333Y-111793214D01*
X148983333Y-111793214D02*
X148792857Y-111793214D01*
X149554762Y-112031309D02*
X149269048Y-112031309D01*
X149411905Y-112031309D02*
X149411905Y-111531309D01*
X149411905Y-111531309D02*
X149364286Y-111602738D01*
X149364286Y-111602738D02*
X149316667Y-111650357D01*
X149316667Y-111650357D02*
X149269048Y-111674166D01*
X149840476Y-111745595D02*
X149792857Y-111721785D01*
X149792857Y-111721785D02*
X149769047Y-111697976D01*
X149769047Y-111697976D02*
X149745238Y-111650357D01*
X149745238Y-111650357D02*
X149745238Y-111626547D01*
X149745238Y-111626547D02*
X149769047Y-111578928D01*
X149769047Y-111578928D02*
X149792857Y-111555119D01*
X149792857Y-111555119D02*
X149840476Y-111531309D01*
X149840476Y-111531309D02*
X149935714Y-111531309D01*
X149935714Y-111531309D02*
X149983333Y-111555119D01*
X149983333Y-111555119D02*
X150007142Y-111578928D01*
X150007142Y-111578928D02*
X150030952Y-111626547D01*
X150030952Y-111626547D02*
X150030952Y-111650357D01*
X150030952Y-111650357D02*
X150007142Y-111697976D01*
X150007142Y-111697976D02*
X149983333Y-111721785D01*
X149983333Y-111721785D02*
X149935714Y-111745595D01*
X149935714Y-111745595D02*
X149840476Y-111745595D01*
X149840476Y-111745595D02*
X149792857Y-111769404D01*
X149792857Y-111769404D02*
X149769047Y-111793214D01*
X149769047Y-111793214D02*
X149745238Y-111840833D01*
X149745238Y-111840833D02*
X149745238Y-111936071D01*
X149745238Y-111936071D02*
X149769047Y-111983690D01*
X149769047Y-111983690D02*
X149792857Y-112007500D01*
X149792857Y-112007500D02*
X149840476Y-112031309D01*
X149840476Y-112031309D02*
X149935714Y-112031309D01*
X149935714Y-112031309D02*
X149983333Y-112007500D01*
X149983333Y-112007500D02*
X150007142Y-111983690D01*
X150007142Y-111983690D02*
X150030952Y-111936071D01*
X150030952Y-111936071D02*
X150030952Y-111840833D01*
X150030952Y-111840833D02*
X150007142Y-111793214D01*
X150007142Y-111793214D02*
X149983333Y-111769404D01*
X149983333Y-111769404D02*
X149935714Y-111745595D01*
%TO.C,L3*%
X129226666Y-99801309D02*
X128988571Y-99801309D01*
X128988571Y-99801309D02*
X128988571Y-99301309D01*
X129345714Y-99301309D02*
X129655238Y-99301309D01*
X129655238Y-99301309D02*
X129488571Y-99491785D01*
X129488571Y-99491785D02*
X129560000Y-99491785D01*
X129560000Y-99491785D02*
X129607619Y-99515595D01*
X129607619Y-99515595D02*
X129631428Y-99539404D01*
X129631428Y-99539404D02*
X129655238Y-99587023D01*
X129655238Y-99587023D02*
X129655238Y-99706071D01*
X129655238Y-99706071D02*
X129631428Y-99753690D01*
X129631428Y-99753690D02*
X129607619Y-99777500D01*
X129607619Y-99777500D02*
X129560000Y-99801309D01*
X129560000Y-99801309D02*
X129417143Y-99801309D01*
X129417143Y-99801309D02*
X129369524Y-99777500D01*
X129369524Y-99777500D02*
X129345714Y-99753690D01*
%TO.C,R16*%
X128678571Y-117231309D02*
X128511905Y-116993214D01*
X128392857Y-117231309D02*
X128392857Y-116731309D01*
X128392857Y-116731309D02*
X128583333Y-116731309D01*
X128583333Y-116731309D02*
X128630952Y-116755119D01*
X128630952Y-116755119D02*
X128654762Y-116778928D01*
X128654762Y-116778928D02*
X128678571Y-116826547D01*
X128678571Y-116826547D02*
X128678571Y-116897976D01*
X128678571Y-116897976D02*
X128654762Y-116945595D01*
X128654762Y-116945595D02*
X128630952Y-116969404D01*
X128630952Y-116969404D02*
X128583333Y-116993214D01*
X128583333Y-116993214D02*
X128392857Y-116993214D01*
X129154762Y-117231309D02*
X128869048Y-117231309D01*
X129011905Y-117231309D02*
X129011905Y-116731309D01*
X129011905Y-116731309D02*
X128964286Y-116802738D01*
X128964286Y-116802738D02*
X128916667Y-116850357D01*
X128916667Y-116850357D02*
X128869048Y-116874166D01*
X129583333Y-116731309D02*
X129488095Y-116731309D01*
X129488095Y-116731309D02*
X129440476Y-116755119D01*
X129440476Y-116755119D02*
X129416666Y-116778928D01*
X129416666Y-116778928D02*
X129369047Y-116850357D01*
X129369047Y-116850357D02*
X129345238Y-116945595D01*
X129345238Y-116945595D02*
X129345238Y-117136071D01*
X129345238Y-117136071D02*
X129369047Y-117183690D01*
X129369047Y-117183690D02*
X129392857Y-117207500D01*
X129392857Y-117207500D02*
X129440476Y-117231309D01*
X129440476Y-117231309D02*
X129535714Y-117231309D01*
X129535714Y-117231309D02*
X129583333Y-117207500D01*
X129583333Y-117207500D02*
X129607142Y-117183690D01*
X129607142Y-117183690D02*
X129630952Y-117136071D01*
X129630952Y-117136071D02*
X129630952Y-117017023D01*
X129630952Y-117017023D02*
X129607142Y-116969404D01*
X129607142Y-116969404D02*
X129583333Y-116945595D01*
X129583333Y-116945595D02*
X129535714Y-116921785D01*
X129535714Y-116921785D02*
X129440476Y-116921785D01*
X129440476Y-116921785D02*
X129392857Y-116945595D01*
X129392857Y-116945595D02*
X129369047Y-116969404D01*
X129369047Y-116969404D02*
X129345238Y-117017023D01*
%TO.C,R26*%
X149078571Y-88031309D02*
X148911905Y-87793214D01*
X148792857Y-88031309D02*
X148792857Y-87531309D01*
X148792857Y-87531309D02*
X148983333Y-87531309D01*
X148983333Y-87531309D02*
X149030952Y-87555119D01*
X149030952Y-87555119D02*
X149054762Y-87578928D01*
X149054762Y-87578928D02*
X149078571Y-87626547D01*
X149078571Y-87626547D02*
X149078571Y-87697976D01*
X149078571Y-87697976D02*
X149054762Y-87745595D01*
X149054762Y-87745595D02*
X149030952Y-87769404D01*
X149030952Y-87769404D02*
X148983333Y-87793214D01*
X148983333Y-87793214D02*
X148792857Y-87793214D01*
X149269048Y-87578928D02*
X149292857Y-87555119D01*
X149292857Y-87555119D02*
X149340476Y-87531309D01*
X149340476Y-87531309D02*
X149459524Y-87531309D01*
X149459524Y-87531309D02*
X149507143Y-87555119D01*
X149507143Y-87555119D02*
X149530952Y-87578928D01*
X149530952Y-87578928D02*
X149554762Y-87626547D01*
X149554762Y-87626547D02*
X149554762Y-87674166D01*
X149554762Y-87674166D02*
X149530952Y-87745595D01*
X149530952Y-87745595D02*
X149245238Y-88031309D01*
X149245238Y-88031309D02*
X149554762Y-88031309D01*
X149983333Y-87531309D02*
X149888095Y-87531309D01*
X149888095Y-87531309D02*
X149840476Y-87555119D01*
X149840476Y-87555119D02*
X149816666Y-87578928D01*
X149816666Y-87578928D02*
X149769047Y-87650357D01*
X149769047Y-87650357D02*
X149745238Y-87745595D01*
X149745238Y-87745595D02*
X149745238Y-87936071D01*
X149745238Y-87936071D02*
X149769047Y-87983690D01*
X149769047Y-87983690D02*
X149792857Y-88007500D01*
X149792857Y-88007500D02*
X149840476Y-88031309D01*
X149840476Y-88031309D02*
X149935714Y-88031309D01*
X149935714Y-88031309D02*
X149983333Y-88007500D01*
X149983333Y-88007500D02*
X150007142Y-87983690D01*
X150007142Y-87983690D02*
X150030952Y-87936071D01*
X150030952Y-87936071D02*
X150030952Y-87817023D01*
X150030952Y-87817023D02*
X150007142Y-87769404D01*
X150007142Y-87769404D02*
X149983333Y-87745595D01*
X149983333Y-87745595D02*
X149935714Y-87721785D01*
X149935714Y-87721785D02*
X149840476Y-87721785D01*
X149840476Y-87721785D02*
X149792857Y-87745595D01*
X149792857Y-87745595D02*
X149769047Y-87769404D01*
X149769047Y-87769404D02*
X149745238Y-87817023D01*
%TO.C,L1*%
X129226666Y-75801309D02*
X128988571Y-75801309D01*
X128988571Y-75801309D02*
X128988571Y-75301309D01*
X129655238Y-75801309D02*
X129369524Y-75801309D01*
X129512381Y-75801309D02*
X129512381Y-75301309D01*
X129512381Y-75301309D02*
X129464762Y-75372738D01*
X129464762Y-75372738D02*
X129417143Y-75420357D01*
X129417143Y-75420357D02*
X129369524Y-75444166D01*
%TO.C,C1*%
X130296666Y-79983690D02*
X130272857Y-80007500D01*
X130272857Y-80007500D02*
X130201428Y-80031309D01*
X130201428Y-80031309D02*
X130153809Y-80031309D01*
X130153809Y-80031309D02*
X130082381Y-80007500D01*
X130082381Y-80007500D02*
X130034762Y-79959880D01*
X130034762Y-79959880D02*
X130010952Y-79912261D01*
X130010952Y-79912261D02*
X129987143Y-79817023D01*
X129987143Y-79817023D02*
X129987143Y-79745595D01*
X129987143Y-79745595D02*
X130010952Y-79650357D01*
X130010952Y-79650357D02*
X130034762Y-79602738D01*
X130034762Y-79602738D02*
X130082381Y-79555119D01*
X130082381Y-79555119D02*
X130153809Y-79531309D01*
X130153809Y-79531309D02*
X130201428Y-79531309D01*
X130201428Y-79531309D02*
X130272857Y-79555119D01*
X130272857Y-79555119D02*
X130296666Y-79578928D01*
X130772857Y-80031309D02*
X130487143Y-80031309D01*
X130630000Y-80031309D02*
X130630000Y-79531309D01*
X130630000Y-79531309D02*
X130582381Y-79602738D01*
X130582381Y-79602738D02*
X130534762Y-79650357D01*
X130534762Y-79650357D02*
X130487143Y-79674166D01*
%TO.C,C22*%
X152897395Y-99642827D02*
X152897395Y-99609155D01*
X152897395Y-99609155D02*
X152931066Y-99541811D01*
X152931066Y-99541811D02*
X152964738Y-99508140D01*
X152964738Y-99508140D02*
X153032082Y-99474468D01*
X153032082Y-99474468D02*
X153099425Y-99474468D01*
X153099425Y-99474468D02*
X153149933Y-99491304D01*
X153149933Y-99491304D02*
X153234112Y-99541811D01*
X153234112Y-99541811D02*
X153284620Y-99592319D01*
X153284620Y-99592319D02*
X153335127Y-99676498D01*
X153335127Y-99676498D02*
X153351963Y-99727006D01*
X153351963Y-99727006D02*
X153351963Y-99794350D01*
X153351963Y-99794350D02*
X153318292Y-99861693D01*
X153318292Y-99861693D02*
X153284620Y-99895365D01*
X153284620Y-99895365D02*
X153217276Y-99929037D01*
X153217276Y-99929037D02*
X153183605Y-99929037D01*
X153048918Y-100063724D02*
X153048918Y-100097395D01*
X153048918Y-100097395D02*
X153032082Y-100147903D01*
X153032082Y-100147903D02*
X152947902Y-100232082D01*
X152947902Y-100232082D02*
X152897395Y-100248918D01*
X152897395Y-100248918D02*
X152863723Y-100248918D01*
X152863723Y-100248918D02*
X152813215Y-100232082D01*
X152813215Y-100232082D02*
X152779544Y-100198411D01*
X152779544Y-100198411D02*
X152745872Y-100131067D01*
X152745872Y-100131067D02*
X152745872Y-99727006D01*
X152745872Y-99727006D02*
X152527005Y-99945872D01*
X152712200Y-100400441D02*
X152712200Y-100434113D01*
X152712200Y-100434113D02*
X152695365Y-100484620D01*
X152695365Y-100484620D02*
X152611185Y-100568800D01*
X152611185Y-100568800D02*
X152560678Y-100585635D01*
X152560678Y-100585635D02*
X152527006Y-100585635D01*
X152527006Y-100585635D02*
X152476498Y-100568800D01*
X152476498Y-100568800D02*
X152442826Y-100535128D01*
X152442826Y-100535128D02*
X152409155Y-100467784D01*
X152409155Y-100467784D02*
X152409155Y-100063723D01*
X152409155Y-100063723D02*
X152190288Y-100282590D01*
%TO.C,R2*%
X132516666Y-80431309D02*
X132350000Y-80193214D01*
X132230952Y-80431309D02*
X132230952Y-79931309D01*
X132230952Y-79931309D02*
X132421428Y-79931309D01*
X132421428Y-79931309D02*
X132469047Y-79955119D01*
X132469047Y-79955119D02*
X132492857Y-79978928D01*
X132492857Y-79978928D02*
X132516666Y-80026547D01*
X132516666Y-80026547D02*
X132516666Y-80097976D01*
X132516666Y-80097976D02*
X132492857Y-80145595D01*
X132492857Y-80145595D02*
X132469047Y-80169404D01*
X132469047Y-80169404D02*
X132421428Y-80193214D01*
X132421428Y-80193214D02*
X132230952Y-80193214D01*
X132707143Y-79978928D02*
X132730952Y-79955119D01*
X132730952Y-79955119D02*
X132778571Y-79931309D01*
X132778571Y-79931309D02*
X132897619Y-79931309D01*
X132897619Y-79931309D02*
X132945238Y-79955119D01*
X132945238Y-79955119D02*
X132969047Y-79978928D01*
X132969047Y-79978928D02*
X132992857Y-80026547D01*
X132992857Y-80026547D02*
X132992857Y-80074166D01*
X132992857Y-80074166D02*
X132969047Y-80145595D01*
X132969047Y-80145595D02*
X132683333Y-80431309D01*
X132683333Y-80431309D02*
X132992857Y-80431309D01*
%TO.C,C13*%
X130102604Y-116357172D02*
X130102604Y-116390844D01*
X130102604Y-116390844D02*
X130068933Y-116458188D01*
X130068933Y-116458188D02*
X130035261Y-116491859D01*
X130035261Y-116491859D02*
X129967917Y-116525531D01*
X129967917Y-116525531D02*
X129900574Y-116525531D01*
X129900574Y-116525531D02*
X129850066Y-116508695D01*
X129850066Y-116508695D02*
X129765887Y-116458188D01*
X129765887Y-116458188D02*
X129715379Y-116407680D01*
X129715379Y-116407680D02*
X129664872Y-116323501D01*
X129664872Y-116323501D02*
X129648036Y-116272993D01*
X129648036Y-116272993D02*
X129648036Y-116205649D01*
X129648036Y-116205649D02*
X129681707Y-116138306D01*
X129681707Y-116138306D02*
X129715379Y-116104634D01*
X129715379Y-116104634D02*
X129782723Y-116070962D01*
X129782723Y-116070962D02*
X129816394Y-116070962D01*
X130472994Y-116054127D02*
X130270963Y-116256157D01*
X130371978Y-116155142D02*
X130018425Y-115801588D01*
X130018425Y-115801588D02*
X130035261Y-115885768D01*
X130035261Y-115885768D02*
X130035261Y-115953111D01*
X130035261Y-115953111D02*
X130018425Y-116003619D01*
X130237291Y-115582722D02*
X130456157Y-115363856D01*
X130456157Y-115363856D02*
X130472993Y-115616394D01*
X130472993Y-115616394D02*
X130523501Y-115565886D01*
X130523501Y-115565886D02*
X130574008Y-115549051D01*
X130574008Y-115549051D02*
X130607680Y-115549051D01*
X130607680Y-115549051D02*
X130658188Y-115565886D01*
X130658188Y-115565886D02*
X130742367Y-115650066D01*
X130742367Y-115650066D02*
X130759203Y-115700573D01*
X130759203Y-115700573D02*
X130759203Y-115734245D01*
X130759203Y-115734245D02*
X130742367Y-115784753D01*
X130742367Y-115784753D02*
X130641352Y-115885768D01*
X130641352Y-115885768D02*
X130590844Y-115902604D01*
X130590844Y-115902604D02*
X130557173Y-115902604D01*
%TO.C,C9*%
X130270963Y-103988814D02*
X130270963Y-104022485D01*
X130270963Y-104022485D02*
X130237291Y-104089829D01*
X130237291Y-104089829D02*
X130203619Y-104123501D01*
X130203619Y-104123501D02*
X130136276Y-104157172D01*
X130136276Y-104157172D02*
X130068932Y-104157172D01*
X130068932Y-104157172D02*
X130018425Y-104140337D01*
X130018425Y-104140337D02*
X129934245Y-104089829D01*
X129934245Y-104089829D02*
X129883738Y-104039321D01*
X129883738Y-104039321D02*
X129833230Y-103955142D01*
X129833230Y-103955142D02*
X129816394Y-103904634D01*
X129816394Y-103904634D02*
X129816394Y-103837291D01*
X129816394Y-103837291D02*
X129850066Y-103769947D01*
X129850066Y-103769947D02*
X129883738Y-103736276D01*
X129883738Y-103736276D02*
X129951081Y-103702604D01*
X129951081Y-103702604D02*
X129984753Y-103702604D01*
X130472993Y-103854127D02*
X130540337Y-103786783D01*
X130540337Y-103786783D02*
X130557173Y-103736276D01*
X130557173Y-103736276D02*
X130557173Y-103702604D01*
X130557173Y-103702604D02*
X130540337Y-103618424D01*
X130540337Y-103618424D02*
X130489829Y-103534245D01*
X130489829Y-103534245D02*
X130355142Y-103399558D01*
X130355142Y-103399558D02*
X130304635Y-103382722D01*
X130304635Y-103382722D02*
X130270963Y-103382722D01*
X130270963Y-103382722D02*
X130220455Y-103399558D01*
X130220455Y-103399558D02*
X130153112Y-103466902D01*
X130153112Y-103466902D02*
X130136276Y-103517409D01*
X130136276Y-103517409D02*
X130136276Y-103551081D01*
X130136276Y-103551081D02*
X130153112Y-103601589D01*
X130153112Y-103601589D02*
X130237291Y-103685768D01*
X130237291Y-103685768D02*
X130287799Y-103702604D01*
X130287799Y-103702604D02*
X130321471Y-103702604D01*
X130321471Y-103702604D02*
X130371978Y-103685768D01*
X130371978Y-103685768D02*
X130439322Y-103618424D01*
X130439322Y-103618424D02*
X130456158Y-103567917D01*
X130456158Y-103567917D02*
X130456158Y-103534245D01*
X130456158Y-103534245D02*
X130439322Y-103483737D01*
%TO.C,C3*%
X132294761Y-83183690D02*
X132270952Y-83207500D01*
X132270952Y-83207500D02*
X132199523Y-83231309D01*
X132199523Y-83231309D02*
X132151904Y-83231309D01*
X132151904Y-83231309D02*
X132080476Y-83207500D01*
X132080476Y-83207500D02*
X132032857Y-83159880D01*
X132032857Y-83159880D02*
X132009047Y-83112261D01*
X132009047Y-83112261D02*
X131985238Y-83017023D01*
X131985238Y-83017023D02*
X131985238Y-82945595D01*
X131985238Y-82945595D02*
X132009047Y-82850357D01*
X132009047Y-82850357D02*
X132032857Y-82802738D01*
X132032857Y-82802738D02*
X132080476Y-82755119D01*
X132080476Y-82755119D02*
X132151904Y-82731309D01*
X132151904Y-82731309D02*
X132199523Y-82731309D01*
X132199523Y-82731309D02*
X132270952Y-82755119D01*
X132270952Y-82755119D02*
X132294761Y-82778928D01*
X132461428Y-82731309D02*
X132770952Y-82731309D01*
X132770952Y-82731309D02*
X132604285Y-82921785D01*
X132604285Y-82921785D02*
X132675714Y-82921785D01*
X132675714Y-82921785D02*
X132723333Y-82945595D01*
X132723333Y-82945595D02*
X132747142Y-82969404D01*
X132747142Y-82969404D02*
X132770952Y-83017023D01*
X132770952Y-83017023D02*
X132770952Y-83136071D01*
X132770952Y-83136071D02*
X132747142Y-83183690D01*
X132747142Y-83183690D02*
X132723333Y-83207500D01*
X132723333Y-83207500D02*
X132675714Y-83231309D01*
X132675714Y-83231309D02*
X132532857Y-83231309D01*
X132532857Y-83231309D02*
X132485238Y-83207500D01*
X132485238Y-83207500D02*
X132461428Y-83183690D01*
D13*
%TO.C,R7*%
X130526359Y-93800000D02*
X130833641Y-93800000D01*
X130526359Y-94560000D02*
X130833641Y-94560000D01*
%TO.C,J1*%
X125565000Y-72785000D02*
X126895000Y-72785000D01*
X125565000Y-74115000D02*
X125565000Y-72785000D01*
X125565000Y-75385000D02*
X125565000Y-83065000D01*
X125565000Y-75385000D02*
X128225000Y-75385000D01*
X125565000Y-83065000D02*
X128225000Y-83065000D01*
X128225000Y-75385000D02*
X128225000Y-83065000D01*
%TO.C,R17*%
X148870000Y-115318641D02*
X148870000Y-115011359D01*
X149630000Y-115318641D02*
X149630000Y-115011359D01*
%TO.C,R30*%
X148860000Y-77368642D02*
X148860000Y-77061360D01*
X149620000Y-77368642D02*
X149620000Y-77061360D01*
D14*
%TO.C,Q8*%
X149839999Y-80765000D02*
X149839999Y-80815000D01*
X149839999Y-80815000D02*
X149064999Y-80815000D01*
X149839999Y-83790000D02*
X149839999Y-83440000D01*
X150214999Y-80490000D02*
X149839999Y-80765000D01*
X150314999Y-83790000D02*
X149839999Y-83790000D01*
X150489999Y-80490000D02*
X150214999Y-80490000D01*
X151114999Y-80490000D02*
X151489999Y-80490000D01*
X151489999Y-80490000D02*
X151489999Y-80790000D01*
X151489999Y-83490000D02*
X151489999Y-83790000D01*
X151489999Y-83565000D02*
X151489999Y-83440000D01*
X151489999Y-83790000D02*
X151039999Y-83790000D01*
D13*
%TO.C,L5*%
X151582779Y-115845000D02*
X151257221Y-115845000D01*
X151582779Y-114825000D02*
X151257221Y-114825000D01*
%TO.C,U5*%
X144935000Y-119150000D02*
X148435000Y-119150000D01*
X144935000Y-119150000D02*
X142985000Y-119150000D01*
X144935000Y-109030000D02*
X146885000Y-109030000D01*
X144935000Y-109030000D02*
X142985000Y-109030000D01*
%TO.C,C14*%
X129750000Y-114302164D02*
X129750000Y-114517836D01*
X129030000Y-114302164D02*
X129030000Y-114517836D01*
D14*
%TO.C,Q1*%
X131990000Y-75240000D02*
X131990000Y-75190000D01*
X131990000Y-75190000D02*
X132765000Y-75190000D01*
X131990000Y-72215000D02*
X131990000Y-72565000D01*
X131615000Y-75515000D02*
X131990000Y-75240000D01*
X131515000Y-72215000D02*
X131990000Y-72215000D01*
X131340000Y-75515000D02*
X131615000Y-75515000D01*
X130715000Y-75515000D02*
X130340000Y-75515000D01*
X130340000Y-75515000D02*
X130340000Y-75215000D01*
X130340000Y-72515000D02*
X130340000Y-72215000D01*
X130340000Y-72440000D02*
X130340000Y-72565000D01*
X130340000Y-72215000D02*
X130790000Y-72215000D01*
D13*
%TO.C,R22*%
X148860000Y-101368642D02*
X148860000Y-101061360D01*
X149620000Y-101368642D02*
X149620000Y-101061360D01*
%TO.C,R1*%
X132960000Y-76686359D02*
X132960000Y-76993641D01*
X132200000Y-76686359D02*
X132200000Y-76993641D01*
%TO.C,J4*%
X125565000Y-108785000D02*
X126895000Y-108785000D01*
X125565000Y-110115000D02*
X125565000Y-108785000D01*
X125565000Y-111385000D02*
X125565000Y-119065000D01*
X125565000Y-111385000D02*
X128225000Y-111385000D01*
X125565000Y-119065000D02*
X128225000Y-119065000D01*
X128225000Y-111385000D02*
X128225000Y-119065000D01*
%TO.C,J5*%
X156265000Y-119220000D02*
X154935000Y-119220000D01*
X156265000Y-117890000D02*
X156265000Y-119220000D01*
X156265000Y-116620000D02*
X156265000Y-108940000D01*
X156265000Y-116620000D02*
X153605000Y-116620000D01*
X156265000Y-108940000D02*
X153605000Y-108940000D01*
X153605000Y-116620000D02*
X153605000Y-108940000D01*
%TO.C,L2*%
X130247221Y-88160000D02*
X130572779Y-88160000D01*
X130247221Y-89180000D02*
X130572779Y-89180000D01*
%TO.C,J9*%
X130670000Y-71330000D02*
X130670000Y-70000000D01*
X132000000Y-71330000D02*
X130670000Y-71330000D01*
X133270000Y-71330000D02*
X151110000Y-71330000D01*
X133270000Y-71330000D02*
X133270000Y-68670000D01*
X151110000Y-71330000D02*
X151110000Y-68670000D01*
X133270000Y-68670000D02*
X151110000Y-68670000D01*
D14*
%TO.C,Q7*%
X149839999Y-92765000D02*
X149839999Y-92815000D01*
X149839999Y-92815000D02*
X149064999Y-92815000D01*
X149839999Y-95790000D02*
X149839999Y-95440000D01*
X150214999Y-92490000D02*
X149839999Y-92765000D01*
X150314999Y-95790000D02*
X149839999Y-95790000D01*
X150489999Y-92490000D02*
X150214999Y-92490000D01*
X151114999Y-92490000D02*
X151489999Y-92490000D01*
X151489999Y-92490000D02*
X151489999Y-92790000D01*
X151489999Y-95490000D02*
X151489999Y-95790000D01*
X151489999Y-95565000D02*
X151489999Y-95440000D01*
X151489999Y-95790000D02*
X151039999Y-95790000D01*
D13*
%TO.C,C8*%
X131030000Y-91247836D02*
X131030000Y-91032164D01*
X131750000Y-91247836D02*
X131750000Y-91032164D01*
%TO.C,C2*%
X129750000Y-78302164D02*
X129750000Y-78517836D01*
X129030000Y-78302164D02*
X129030000Y-78517836D01*
%TO.C,U7*%
X144935000Y-95150000D02*
X148435000Y-95150000D01*
X144935000Y-95150000D02*
X142985000Y-95150000D01*
X144935000Y-85030000D02*
X146885000Y-85030000D01*
X144935000Y-85030000D02*
X142985000Y-85030000D01*
%TO.C,R9*%
X132960000Y-100686359D02*
X132960000Y-100993641D01*
X132200000Y-100686359D02*
X132200000Y-100993641D01*
%TO.C,C12*%
X131030000Y-103247836D02*
X131030000Y-103032164D01*
X131750000Y-103247836D02*
X131750000Y-103032164D01*
%TO.C,C15*%
X132000000Y-117737836D02*
X132000000Y-117522164D01*
X132720000Y-117737836D02*
X132720000Y-117522164D01*
%TO.C,R13*%
X132960000Y-112686359D02*
X132960000Y-112993641D01*
X132200000Y-112686359D02*
X132200000Y-112993641D01*
%TO.C,R12*%
X130526359Y-104640000D02*
X130833641Y-104640000D01*
X130526359Y-105400000D02*
X130833641Y-105400000D01*
%TO.C,J2*%
X125565000Y-84785000D02*
X126895000Y-84785000D01*
X125565000Y-86115000D02*
X125565000Y-84785000D01*
X125565000Y-87385000D02*
X125565000Y-95065000D01*
X125565000Y-87385000D02*
X128225000Y-87385000D01*
X125565000Y-95065000D02*
X128225000Y-95065000D01*
X128225000Y-87385000D02*
X128225000Y-95065000D01*
%TO.C,C31*%
X149830000Y-74267165D02*
X149830000Y-74482837D01*
X149110000Y-74267165D02*
X149110000Y-74482837D01*
%TO.C,C5*%
X130740000Y-90302164D02*
X130740000Y-90517836D01*
X130020000Y-90302164D02*
X130020000Y-90517836D01*
%TO.C,R14*%
X132970000Y-114636359D02*
X132970000Y-114943641D01*
X132210000Y-114636359D02*
X132210000Y-114943641D01*
%TO.C,R25*%
X148870000Y-91318641D02*
X148870000Y-91011359D01*
X149630000Y-91318641D02*
X149630000Y-91011359D01*
%TO.C,C11*%
X132000000Y-105737836D02*
X132000000Y-105522164D01*
X132720000Y-105737836D02*
X132720000Y-105522164D01*
%TO.C,R11*%
X130526359Y-105800000D02*
X130833641Y-105800000D01*
X130526359Y-106560000D02*
X130833641Y-106560000D01*
%TO.C,U3*%
X136895000Y-96855000D02*
X133395000Y-96855000D01*
X136895000Y-96855000D02*
X138845000Y-96855000D01*
X136895000Y-106975000D02*
X134945000Y-106975000D01*
X136895000Y-106975000D02*
X138845000Y-106975000D01*
%TO.C,U4*%
X136895000Y-108855000D02*
X133395000Y-108855000D01*
X136895000Y-108855000D02*
X138845000Y-108855000D01*
X136895000Y-118975000D02*
X134945000Y-118975000D01*
X136895000Y-118975000D02*
X138845000Y-118975000D01*
%TO.C,R24*%
X151303641Y-99365001D02*
X150996359Y-99365001D01*
X151303641Y-98605001D02*
X150996359Y-98605001D01*
%TO.C,C18*%
X152080000Y-113702837D02*
X152080000Y-113487165D01*
X152800000Y-113702837D02*
X152800000Y-113487165D01*
%TO.C,C32*%
X150800000Y-76757165D02*
X150800000Y-76972837D01*
X150080000Y-76757165D02*
X150080000Y-76972837D01*
%TO.C,C25*%
X151090000Y-89702837D02*
X151090000Y-89487165D01*
X151810000Y-89702837D02*
X151810000Y-89487165D01*
%TO.C,R5*%
X132960000Y-88686359D02*
X132960000Y-88993641D01*
X132200000Y-88686359D02*
X132200000Y-88993641D01*
%TO.C,C29*%
X151090000Y-77702837D02*
X151090000Y-77487165D01*
X151810000Y-77702837D02*
X151810000Y-77487165D01*
%TO.C,C4*%
X131030000Y-79247836D02*
X131030000Y-79032164D01*
X131750000Y-79247836D02*
X131750000Y-79032164D01*
%TO.C,L7*%
X151582779Y-91845000D02*
X151257221Y-91845000D01*
X151582779Y-90825000D02*
X151257221Y-90825000D01*
%TO.C,C21*%
X151090000Y-101702837D02*
X151090000Y-101487165D01*
X151810000Y-101702837D02*
X151810000Y-101487165D01*
%TO.C,C6*%
X129750000Y-90302164D02*
X129750000Y-90517836D01*
X129030000Y-90302164D02*
X129030000Y-90517836D01*
D14*
%TO.C,Q2*%
X131990000Y-87240000D02*
X131990000Y-87190000D01*
X131990000Y-87190000D02*
X132765000Y-87190000D01*
X131990000Y-84215000D02*
X131990000Y-84565000D01*
X131615000Y-87515000D02*
X131990000Y-87240000D01*
X131515000Y-84215000D02*
X131990000Y-84215000D01*
X131340000Y-87515000D02*
X131615000Y-87515000D01*
X130715000Y-87515000D02*
X130340000Y-87515000D01*
X130340000Y-87515000D02*
X130340000Y-87215000D01*
X130340000Y-84515000D02*
X130340000Y-84215000D01*
X130340000Y-84440000D02*
X130340000Y-84565000D01*
X130340000Y-84215000D02*
X130790000Y-84215000D01*
D13*
%TO.C,R32*%
X151303641Y-75365001D02*
X150996359Y-75365001D01*
X151303641Y-74605001D02*
X150996359Y-74605001D01*
%TO.C,R29*%
X148870000Y-79318641D02*
X148870000Y-79011359D01*
X149630000Y-79318641D02*
X149630000Y-79011359D01*
%TO.C,R3*%
X130526359Y-81800000D02*
X130833641Y-81800000D01*
X130526359Y-82560000D02*
X130833641Y-82560000D01*
%TO.C,U2*%
X136895000Y-84855000D02*
X133395000Y-84855000D01*
X136895000Y-84855000D02*
X138845000Y-84855000D01*
X136895000Y-94975000D02*
X134945000Y-94975000D01*
X136895000Y-94975000D02*
X138845000Y-94975000D01*
%TO.C,R6*%
X132970000Y-90636359D02*
X132970000Y-90943641D01*
X132210000Y-90636359D02*
X132210000Y-90943641D01*
%TO.C,U8*%
X144935000Y-83150000D02*
X148435000Y-83150000D01*
X144935000Y-83150000D02*
X142985000Y-83150000D01*
X144935000Y-73030000D02*
X146885000Y-73030000D01*
X144935000Y-73030000D02*
X142985000Y-73030000D01*
%TO.C,C27*%
X149830000Y-86267165D02*
X149830000Y-86482837D01*
X149110000Y-86267165D02*
X149110000Y-86482837D01*
%TO.C,U6*%
X144935000Y-107150000D02*
X148435000Y-107150000D01*
X144935000Y-107150000D02*
X142985000Y-107150000D01*
X144935000Y-97030000D02*
X146885000Y-97030000D01*
X144935000Y-97030000D02*
X142985000Y-97030000D01*
%TO.C,R21*%
X148870000Y-103318641D02*
X148870000Y-103011359D01*
X149630000Y-103318641D02*
X149630000Y-103011359D01*
%TO.C,C34*%
X148767164Y-66095000D02*
X148982836Y-66095000D01*
X148767164Y-66815000D02*
X148982836Y-66815000D01*
%TO.C,R10*%
X132970000Y-102636359D02*
X132970000Y-102943641D01*
X132210000Y-102636359D02*
X132210000Y-102943641D01*
%TO.C,C17*%
X151090000Y-113702837D02*
X151090000Y-113487165D01*
X151810000Y-113702837D02*
X151810000Y-113487165D01*
%TO.C,R19*%
X151303641Y-110205001D02*
X150996359Y-110205001D01*
X151303641Y-109445001D02*
X150996359Y-109445001D01*
D14*
%TO.C,Q4*%
X131990000Y-111240000D02*
X131990000Y-111190000D01*
X131990000Y-111190000D02*
X132765000Y-111190000D01*
X131990000Y-108215000D02*
X131990000Y-108565000D01*
X131615000Y-111515000D02*
X131990000Y-111240000D01*
X131515000Y-108215000D02*
X131990000Y-108215000D01*
X131340000Y-111515000D02*
X131615000Y-111515000D01*
X130715000Y-111515000D02*
X130340000Y-111515000D01*
X130340000Y-111515000D02*
X130340000Y-111215000D01*
X130340000Y-108515000D02*
X130340000Y-108215000D01*
X130340000Y-108440000D02*
X130340000Y-108565000D01*
X130340000Y-108215000D02*
X130790000Y-108215000D01*
D13*
%TO.C,R20*%
X151303641Y-111365001D02*
X150996359Y-111365001D01*
X151303641Y-110605001D02*
X150996359Y-110605001D01*
%TO.C,J10*%
X130670000Y-68745000D02*
X130670000Y-67415000D01*
X132000000Y-68745000D02*
X130670000Y-68745000D01*
X133270000Y-68745000D02*
X138410000Y-68745000D01*
X133270000Y-68745000D02*
X133270000Y-66085000D01*
X138410000Y-68745000D02*
X138410000Y-66085000D01*
X133270000Y-66085000D02*
X138410000Y-66085000D01*
%TO.C,J6*%
X156265000Y-107220000D02*
X154935000Y-107220000D01*
X156265000Y-105890000D02*
X156265000Y-107220000D01*
X156265000Y-104620000D02*
X156265000Y-96940000D01*
X156265000Y-104620000D02*
X153605000Y-104620000D01*
X156265000Y-96940000D02*
X153605000Y-96940000D01*
X153605000Y-104620000D02*
X153605000Y-96940000D01*
%TO.C,L8*%
X151582779Y-79845000D02*
X151257221Y-79845000D01*
X151582779Y-78825000D02*
X151257221Y-78825000D01*
%TO.C,R28*%
X151303641Y-87365001D02*
X150996359Y-87365001D01*
X151303641Y-86605001D02*
X150996359Y-86605001D01*
%TO.C,R23*%
X151303641Y-98205001D02*
X150996359Y-98205001D01*
X151303641Y-97445001D02*
X150996359Y-97445001D01*
%TO.C,C16*%
X131030000Y-115247836D02*
X131030000Y-115032164D01*
X131750000Y-115247836D02*
X131750000Y-115032164D01*
D14*
%TO.C,Q5*%
X149839999Y-116765000D02*
X149839999Y-116815000D01*
X149839999Y-116815000D02*
X149064999Y-116815000D01*
X149839999Y-119790000D02*
X149839999Y-119440000D01*
X150214999Y-116490000D02*
X149839999Y-116765000D01*
X150314999Y-119790000D02*
X149839999Y-119790000D01*
X150489999Y-116490000D02*
X150214999Y-116490000D01*
X151114999Y-116490000D02*
X151489999Y-116490000D01*
X151489999Y-116490000D02*
X151489999Y-116790000D01*
X151489999Y-119490000D02*
X151489999Y-119790000D01*
X151489999Y-119565000D02*
X151489999Y-119440000D01*
X151489999Y-119790000D02*
X151039999Y-119790000D01*
D13*
%TO.C,C30*%
X152080000Y-77702837D02*
X152080000Y-77487165D01*
X152800000Y-77702837D02*
X152800000Y-77487165D01*
%TO.C,L6*%
X151582779Y-103845000D02*
X151257221Y-103845000D01*
X151582779Y-102825000D02*
X151257221Y-102825000D01*
%TO.C,C23*%
X149830000Y-98267165D02*
X149830000Y-98482837D01*
X149110000Y-98267165D02*
X149110000Y-98482837D01*
%TO.C,C28*%
X150800000Y-88757165D02*
X150800000Y-88972837D01*
X150080000Y-88757165D02*
X150080000Y-88972837D01*
%TO.C,C26*%
X152080000Y-89702837D02*
X152080000Y-89487165D01*
X152800000Y-89702837D02*
X152800000Y-89487165D01*
%TO.C,L4*%
X130247221Y-112160000D02*
X130572779Y-112160000D01*
X130247221Y-113180000D02*
X130572779Y-113180000D01*
%TO.C,C20*%
X150800000Y-112757165D02*
X150800000Y-112972837D01*
X150080000Y-112757165D02*
X150080000Y-112972837D01*
%TO.C,C35*%
X148807164Y-67095000D02*
X149022836Y-67095000D01*
X148807164Y-67815000D02*
X149022836Y-67815000D01*
%TO.C,J11*%
X140805000Y-68745000D02*
X140805000Y-67415000D01*
X142135000Y-68745000D02*
X140805000Y-68745000D01*
X143405000Y-68745000D02*
X146005000Y-68745000D01*
X143405000Y-68745000D02*
X143405000Y-66085000D01*
X146005000Y-68745000D02*
X146005000Y-66085000D01*
X143405000Y-66085000D02*
X146005000Y-66085000D01*
%TO.C,J3*%
X125565000Y-96785000D02*
X126895000Y-96785000D01*
X125565000Y-98115000D02*
X125565000Y-96785000D01*
X125565000Y-99385000D02*
X125565000Y-107065000D01*
X125565000Y-99385000D02*
X128225000Y-99385000D01*
X125565000Y-107065000D02*
X128225000Y-107065000D01*
X128225000Y-99385000D02*
X128225000Y-107065000D01*
%TO.C,R31*%
X151303641Y-74205001D02*
X150996359Y-74205001D01*
X151303641Y-73445001D02*
X150996359Y-73445001D01*
%TO.C,C24*%
X150800000Y-100757165D02*
X150800000Y-100972837D01*
X150080000Y-100757165D02*
X150080000Y-100972837D01*
%TO.C,R15*%
X130526359Y-117800000D02*
X130833641Y-117800000D01*
X130526359Y-118560000D02*
X130833641Y-118560000D01*
%TO.C,C7*%
X132000000Y-93737836D02*
X132000000Y-93522164D01*
X132720000Y-93737836D02*
X132720000Y-93522164D01*
%TO.C,C33*%
X126592164Y-71040000D02*
X126807836Y-71040000D01*
X126592164Y-71760000D02*
X126807836Y-71760000D01*
%TO.C,R8*%
X130526359Y-92640000D02*
X130833641Y-92640000D01*
X130526359Y-93400000D02*
X130833641Y-93400000D01*
%TO.C,R4*%
X130526359Y-80640000D02*
X130833641Y-80640000D01*
X130526359Y-81400000D02*
X130833641Y-81400000D01*
%TO.C,C10*%
X129750000Y-102302164D02*
X129750000Y-102517836D01*
X129030000Y-102302164D02*
X129030000Y-102517836D01*
%TO.C,J7*%
X156265000Y-95220000D02*
X154935000Y-95220000D01*
X156265000Y-93890000D02*
X156265000Y-95220000D01*
X156265000Y-92620000D02*
X156265000Y-84940000D01*
X156265000Y-92620000D02*
X153605000Y-92620000D01*
X156265000Y-84940000D02*
X153605000Y-84940000D01*
X153605000Y-92620000D02*
X153605000Y-84940000D01*
%TO.C,J12*%
X137130000Y-123330000D02*
X137130000Y-122000000D01*
X138460000Y-123330000D02*
X137130000Y-123330000D01*
X139730000Y-123330000D02*
X144870000Y-123330000D01*
X139730000Y-123330000D02*
X139730000Y-120670000D01*
X144870000Y-123330000D02*
X144870000Y-120670000D01*
X139730000Y-120670000D02*
X144870000Y-120670000D01*
%TO.C,J8*%
X156265000Y-83220000D02*
X154935000Y-83220000D01*
X156265000Y-81890000D02*
X156265000Y-83220000D01*
X156265000Y-80620000D02*
X156265000Y-72940000D01*
X156265000Y-80620000D02*
X153605000Y-80620000D01*
X156265000Y-72940000D02*
X153605000Y-72940000D01*
X153605000Y-80620000D02*
X153605000Y-72940000D01*
D14*
%TO.C,Q3*%
X131990000Y-99240000D02*
X131990000Y-99190000D01*
X131990000Y-99190000D02*
X132765000Y-99190000D01*
X131990000Y-96215000D02*
X131990000Y-96565000D01*
X131615000Y-99515000D02*
X131990000Y-99240000D01*
X131515000Y-96215000D02*
X131990000Y-96215000D01*
X131340000Y-99515000D02*
X131615000Y-99515000D01*
X130715000Y-99515000D02*
X130340000Y-99515000D01*
X130340000Y-99515000D02*
X130340000Y-99215000D01*
X130340000Y-96515000D02*
X130340000Y-96215000D01*
X130340000Y-96440000D02*
X130340000Y-96565000D01*
X130340000Y-96215000D02*
X130790000Y-96215000D01*
D13*
%TO.C,R27*%
X151303641Y-86205001D02*
X150996359Y-86205001D01*
X151303641Y-85445001D02*
X150996359Y-85445001D01*
%TO.C,C19*%
X149830000Y-110267165D02*
X149830000Y-110482837D01*
X149110000Y-110267165D02*
X149110000Y-110482837D01*
%TO.C,R18*%
X148860000Y-113368642D02*
X148860000Y-113061360D01*
X149620000Y-113368642D02*
X149620000Y-113061360D01*
%TO.C,L3*%
X130247221Y-100160000D02*
X130572779Y-100160000D01*
X130247221Y-101180000D02*
X130572779Y-101180000D01*
%TO.C,R16*%
X130526359Y-116640000D02*
X130833641Y-116640000D01*
X130526359Y-117400000D02*
X130833641Y-117400000D01*
%TO.C,R26*%
X148860000Y-89368642D02*
X148860000Y-89061360D01*
X149620000Y-89368642D02*
X149620000Y-89061360D01*
%TO.C,L1*%
X130247221Y-76160000D02*
X130572779Y-76160000D01*
X130247221Y-77180000D02*
X130572779Y-77180000D01*
%TO.C,JP1*%
X153300000Y-71400000D02*
X153300000Y-70800000D01*
X154000000Y-70100000D02*
X155400000Y-70100000D01*
X155400000Y-72100000D02*
X154000000Y-72100000D01*
X156100000Y-70800000D02*
X156100000Y-71400000D01*
X154000000Y-70100000D02*
G75*
G03*
X153300000Y-70800000I-1J-699999D01*
G01*
X153300000Y-71400000D02*
G75*
G03*
X154000000Y-72100000I699999J-1D01*
G01*
X156100000Y-70800000D02*
G75*
G03*
X155400000Y-70100000I-700000J0D01*
G01*
X155400000Y-72100000D02*
G75*
G03*
X156100000Y-71400000I0J700000D01*
G01*
%TO.C,C1*%
X130740000Y-78302164D02*
X130740000Y-78517836D01*
X130020000Y-78302164D02*
X130020000Y-78517836D01*
%TO.C,C22*%
X152080000Y-101702837D02*
X152080000Y-101487165D01*
X152800000Y-101702837D02*
X152800000Y-101487165D01*
%TO.C,R2*%
X132970000Y-78636359D02*
X132970000Y-78943641D01*
X132210000Y-78636359D02*
X132210000Y-78943641D01*
%TO.C,C13*%
X130740000Y-114302164D02*
X130740000Y-114517836D01*
X130020000Y-114302164D02*
X130020000Y-114517836D01*
D14*
%TO.C,Q6*%
X149839999Y-104765000D02*
X149839999Y-104815000D01*
X149839999Y-104815000D02*
X149064999Y-104815000D01*
X149839999Y-107790000D02*
X149839999Y-107440000D01*
X150214999Y-104490000D02*
X149839999Y-104765000D01*
X150314999Y-107790000D02*
X149839999Y-107790000D01*
X150489999Y-104490000D02*
X150214999Y-104490000D01*
X151114999Y-104490000D02*
X151489999Y-104490000D01*
X151489999Y-104490000D02*
X151489999Y-104790000D01*
X151489999Y-107490000D02*
X151489999Y-107790000D01*
X151489999Y-107565000D02*
X151489999Y-107440000D01*
X151489999Y-107790000D02*
X151039999Y-107790000D01*
D13*
%TO.C,C9*%
X130740000Y-102302164D02*
X130740000Y-102517836D01*
X130020000Y-102302164D02*
X130020000Y-102517836D01*
%TO.C,U1*%
X136895000Y-72855000D02*
X133395000Y-72855000D01*
X136895000Y-72855000D02*
X138845000Y-72855000D01*
X136895000Y-82975000D02*
X134945000Y-82975000D01*
X136895000Y-82975000D02*
X138845000Y-82975000D01*
%TO.C,C3*%
X132000000Y-81737836D02*
X132000000Y-81522164D01*
X132720000Y-81737836D02*
X132720000Y-81522164D01*
%TD*%
%LPC*%
D15*
%TO.C,R7*%
X130170000Y-94180000D03*
X131190000Y-94180000D03*
%TD*%
D16*
%TO.C,J1*%
X126895000Y-74115000D03*
D17*
X126895000Y-76655000D03*
X126895000Y-79195000D03*
X126895000Y-81735000D03*
%TD*%
D18*
%TO.C,R17*%
X149250000Y-115675000D03*
X149250000Y-114655000D03*
%TD*%
%TO.C,R30*%
X149240000Y-77725001D03*
X149240000Y-76705001D03*
%TD*%
D19*
%TO.C,Q8*%
X149614999Y-81190000D03*
X149614999Y-83090000D03*
X151714999Y-82140000D03*
%TD*%
D20*
%TO.C,L5*%
X152207500Y-115335000D03*
X150632500Y-115335000D03*
%TD*%
D21*
%TO.C,U5*%
X147435000Y-118535000D03*
X147435000Y-117265000D03*
X147435000Y-115995000D03*
X147435000Y-114725000D03*
X147435000Y-113455000D03*
X147435000Y-112185000D03*
X147435000Y-110915000D03*
X147435000Y-109645000D03*
X142435000Y-109645000D03*
X142435000Y-110915000D03*
X142435000Y-112185000D03*
X142435000Y-113455000D03*
X142435000Y-114725000D03*
X142435000Y-115995000D03*
X142435000Y-117265000D03*
X142435000Y-118535000D03*
%TD*%
D22*
%TO.C,C14*%
X129390000Y-113930000D03*
X129390000Y-114890000D03*
%TD*%
D23*
%TO.C,Q1*%
X132215000Y-74815000D03*
X132215000Y-72915000D03*
X130115000Y-73865000D03*
%TD*%
D18*
%TO.C,R22*%
X149240000Y-101725001D03*
X149240000Y-100705001D03*
%TD*%
D24*
%TO.C,R1*%
X132580000Y-76330000D03*
X132580000Y-77350000D03*
%TD*%
D16*
%TO.C,J4*%
X126895000Y-110115000D03*
D17*
X126895000Y-112655000D03*
X126895000Y-115195000D03*
X126895000Y-117735000D03*
%TD*%
D16*
%TO.C,J5*%
X154935000Y-117890000D03*
D17*
X154935000Y-115350000D03*
X154935000Y-112810000D03*
X154935000Y-110270000D03*
%TD*%
D25*
%TO.C,L2*%
X129622500Y-88670000D03*
X131197500Y-88670000D03*
%TD*%
D16*
%TO.C,J9*%
X132000000Y-70000000D03*
D17*
X134540000Y-70000000D03*
X137080000Y-70000000D03*
X139620000Y-70000000D03*
X142160000Y-70000000D03*
X144700000Y-70000000D03*
X147240000Y-70000000D03*
X149780000Y-70000000D03*
%TD*%
D19*
%TO.C,Q7*%
X149614999Y-93190000D03*
X149614999Y-95090000D03*
X151714999Y-94140000D03*
%TD*%
D26*
%TO.C,C8*%
X131390000Y-91620000D03*
X131390000Y-90660000D03*
%TD*%
D22*
%TO.C,C2*%
X129390000Y-77930000D03*
X129390000Y-78890000D03*
%TD*%
D21*
%TO.C,U7*%
X147435000Y-94535000D03*
X147435000Y-93265000D03*
X147435000Y-91995000D03*
X147435000Y-90725000D03*
X147435000Y-89455000D03*
X147435000Y-88185000D03*
X147435000Y-86915000D03*
X147435000Y-85645000D03*
X142435000Y-85645000D03*
X142435000Y-86915000D03*
X142435000Y-88185000D03*
X142435000Y-89455000D03*
X142435000Y-90725000D03*
X142435000Y-91995000D03*
X142435000Y-93265000D03*
X142435000Y-94535000D03*
%TD*%
D24*
%TO.C,R9*%
X132580000Y-100330000D03*
X132580000Y-101350000D03*
%TD*%
D26*
%TO.C,C12*%
X131390000Y-103620000D03*
X131390000Y-102660000D03*
%TD*%
%TO.C,C15*%
X132360000Y-118110000D03*
X132360000Y-117150000D03*
%TD*%
D24*
%TO.C,R13*%
X132580000Y-112330000D03*
X132580000Y-113350000D03*
%TD*%
D15*
%TO.C,R12*%
X130170000Y-105020000D03*
X131190000Y-105020000D03*
%TD*%
D16*
%TO.C,J2*%
X126895000Y-86115000D03*
D17*
X126895000Y-88655000D03*
X126895000Y-91195000D03*
X126895000Y-93735000D03*
%TD*%
D22*
%TO.C,C31*%
X149470000Y-73895001D03*
X149470000Y-74855001D03*
%TD*%
%TO.C,C5*%
X130380000Y-89930000D03*
X130380000Y-90890000D03*
%TD*%
D24*
%TO.C,R14*%
X132590000Y-114280000D03*
X132590000Y-115300000D03*
%TD*%
D18*
%TO.C,R25*%
X149250000Y-91675000D03*
X149250000Y-90655000D03*
%TD*%
D26*
%TO.C,C11*%
X132360000Y-106110000D03*
X132360000Y-105150000D03*
%TD*%
D15*
%TO.C,R11*%
X130170000Y-106180000D03*
X131190000Y-106180000D03*
%TD*%
D27*
%TO.C,U3*%
X134395000Y-97470000D03*
X134395000Y-98740000D03*
X134395000Y-100010000D03*
X134395000Y-101280000D03*
X134395000Y-102550000D03*
X134395000Y-103820000D03*
X134395000Y-105090000D03*
X134395000Y-106360000D03*
X139395000Y-106360000D03*
X139395000Y-105090000D03*
X139395000Y-103820000D03*
X139395000Y-102550000D03*
X139395000Y-101280000D03*
X139395000Y-100010000D03*
X139395000Y-98740000D03*
X139395000Y-97470000D03*
%TD*%
%TO.C,U4*%
X134395000Y-109470000D03*
X134395000Y-110740000D03*
X134395000Y-112010000D03*
X134395000Y-113280000D03*
X134395000Y-114550000D03*
X134395000Y-115820000D03*
X134395000Y-117090000D03*
X134395000Y-118360000D03*
X139395000Y-118360000D03*
X139395000Y-117090000D03*
X139395000Y-115820000D03*
X139395000Y-114550000D03*
X139395000Y-113280000D03*
X139395000Y-112010000D03*
X139395000Y-110740000D03*
X139395000Y-109470000D03*
%TD*%
D28*
%TO.C,R24*%
X151660000Y-98985001D03*
X150640000Y-98985001D03*
%TD*%
D26*
%TO.C,C18*%
X152440000Y-114075001D03*
X152440000Y-113115001D03*
%TD*%
D22*
%TO.C,C32*%
X150440000Y-76385001D03*
X150440000Y-77345001D03*
%TD*%
D26*
%TO.C,C25*%
X151450000Y-90075001D03*
X151450000Y-89115001D03*
%TD*%
D24*
%TO.C,R5*%
X132580000Y-88330000D03*
X132580000Y-89350000D03*
%TD*%
D26*
%TO.C,C29*%
X151450000Y-78075001D03*
X151450000Y-77115001D03*
%TD*%
%TO.C,C4*%
X131390000Y-79620000D03*
X131390000Y-78660000D03*
%TD*%
D20*
%TO.C,L7*%
X152207500Y-91335000D03*
X150632500Y-91335000D03*
%TD*%
D26*
%TO.C,C21*%
X151450000Y-102075001D03*
X151450000Y-101115001D03*
%TD*%
D22*
%TO.C,C6*%
X129390000Y-89930000D03*
X129390000Y-90890000D03*
%TD*%
D23*
%TO.C,Q2*%
X132215000Y-86815000D03*
X132215000Y-84915000D03*
X130115000Y-85865000D03*
%TD*%
D28*
%TO.C,R32*%
X151660000Y-74985001D03*
X150640000Y-74985001D03*
%TD*%
D18*
%TO.C,R29*%
X149250000Y-79675000D03*
X149250000Y-78655000D03*
%TD*%
D15*
%TO.C,R3*%
X130170000Y-82180000D03*
X131190000Y-82180000D03*
%TD*%
D27*
%TO.C,U2*%
X134395000Y-85470000D03*
X134395000Y-86740000D03*
X134395000Y-88010000D03*
X134395000Y-89280000D03*
X134395000Y-90550000D03*
X134395000Y-91820000D03*
X134395000Y-93090000D03*
X134395000Y-94360000D03*
X139395000Y-94360000D03*
X139395000Y-93090000D03*
X139395000Y-91820000D03*
X139395000Y-90550000D03*
X139395000Y-89280000D03*
X139395000Y-88010000D03*
X139395000Y-86740000D03*
X139395000Y-85470000D03*
%TD*%
D24*
%TO.C,R6*%
X132590000Y-90280000D03*
X132590000Y-91300000D03*
%TD*%
D21*
%TO.C,U8*%
X147435000Y-82535000D03*
X147435000Y-81265000D03*
X147435000Y-79995000D03*
X147435000Y-78725000D03*
X147435000Y-77455000D03*
X147435000Y-76185000D03*
X147435000Y-74915000D03*
X147435000Y-73645000D03*
X142435000Y-73645000D03*
X142435000Y-74915000D03*
X142435000Y-76185000D03*
X142435000Y-77455000D03*
X142435000Y-78725000D03*
X142435000Y-79995000D03*
X142435000Y-81265000D03*
X142435000Y-82535000D03*
%TD*%
D22*
%TO.C,C27*%
X149470000Y-85895001D03*
X149470000Y-86855001D03*
%TD*%
D21*
%TO.C,U6*%
X147435000Y-106535000D03*
X147435000Y-105265000D03*
X147435000Y-103995000D03*
X147435000Y-102725000D03*
X147435000Y-101455000D03*
X147435000Y-100185000D03*
X147435000Y-98915000D03*
X147435000Y-97645000D03*
X142435000Y-97645000D03*
X142435000Y-98915000D03*
X142435000Y-100185000D03*
X142435000Y-101455000D03*
X142435000Y-102725000D03*
X142435000Y-103995000D03*
X142435000Y-105265000D03*
X142435000Y-106535000D03*
%TD*%
D18*
%TO.C,R21*%
X149250000Y-103675000D03*
X149250000Y-102655000D03*
%TD*%
D29*
%TO.C,C34*%
X148395000Y-66455000D03*
X149355000Y-66455000D03*
%TD*%
D24*
%TO.C,R10*%
X132590000Y-102280000D03*
X132590000Y-103300000D03*
%TD*%
D26*
%TO.C,C17*%
X151450000Y-114075001D03*
X151450000Y-113115001D03*
%TD*%
D28*
%TO.C,R19*%
X151660000Y-109825001D03*
X150640000Y-109825001D03*
%TD*%
D23*
%TO.C,Q4*%
X132215000Y-110815000D03*
X132215000Y-108915000D03*
X130115000Y-109865000D03*
%TD*%
D28*
%TO.C,R20*%
X151660000Y-110985001D03*
X150640000Y-110985001D03*
%TD*%
D16*
%TO.C,J10*%
X132000000Y-67415000D03*
D17*
X134540000Y-67415000D03*
X137080000Y-67415000D03*
%TD*%
D16*
%TO.C,J6*%
X154935000Y-105890000D03*
D17*
X154935000Y-103350000D03*
X154935000Y-100810000D03*
X154935000Y-98270000D03*
%TD*%
D20*
%TO.C,L8*%
X152207500Y-79335000D03*
X150632500Y-79335000D03*
%TD*%
D28*
%TO.C,R28*%
X151660000Y-86985001D03*
X150640000Y-86985001D03*
%TD*%
%TO.C,R23*%
X151660000Y-97825001D03*
X150640000Y-97825001D03*
%TD*%
D26*
%TO.C,C16*%
X131390000Y-115620000D03*
X131390000Y-114660000D03*
%TD*%
D19*
%TO.C,Q5*%
X149614999Y-117190000D03*
X149614999Y-119090000D03*
X151714999Y-118140000D03*
%TD*%
D26*
%TO.C,C30*%
X152440000Y-78075001D03*
X152440000Y-77115001D03*
%TD*%
D20*
%TO.C,L6*%
X152207500Y-103335000D03*
X150632500Y-103335000D03*
%TD*%
D22*
%TO.C,C23*%
X149470000Y-97895001D03*
X149470000Y-98855001D03*
%TD*%
%TO.C,C28*%
X150440000Y-88385001D03*
X150440000Y-89345001D03*
%TD*%
D26*
%TO.C,C26*%
X152440000Y-90075001D03*
X152440000Y-89115001D03*
%TD*%
D25*
%TO.C,L4*%
X129622500Y-112670000D03*
X131197500Y-112670000D03*
%TD*%
D22*
%TO.C,C20*%
X150440000Y-112385001D03*
X150440000Y-113345001D03*
%TD*%
D29*
%TO.C,C35*%
X148435000Y-67455000D03*
X149395000Y-67455000D03*
%TD*%
D16*
%TO.C,J11*%
X142135000Y-67415000D03*
D17*
X144675000Y-67415000D03*
%TD*%
D16*
%TO.C,J3*%
X126895000Y-98115000D03*
D17*
X126895000Y-100655000D03*
X126895000Y-103195000D03*
X126895000Y-105735000D03*
%TD*%
D28*
%TO.C,R31*%
X151660000Y-73825001D03*
X150640000Y-73825001D03*
%TD*%
D22*
%TO.C,C24*%
X150440000Y-100385001D03*
X150440000Y-101345001D03*
%TD*%
D15*
%TO.C,R15*%
X130170000Y-118180000D03*
X131190000Y-118180000D03*
%TD*%
D26*
%TO.C,C7*%
X132360000Y-94110000D03*
X132360000Y-93150000D03*
%TD*%
D29*
%TO.C,C33*%
X126220000Y-71400000D03*
X127180000Y-71400000D03*
%TD*%
D15*
%TO.C,R8*%
X130170000Y-93020000D03*
X131190000Y-93020000D03*
%TD*%
%TO.C,R4*%
X130170000Y-81020000D03*
X131190000Y-81020000D03*
%TD*%
D22*
%TO.C,C10*%
X129390000Y-101930000D03*
X129390000Y-102890000D03*
%TD*%
D16*
%TO.C,J7*%
X154935000Y-93890000D03*
D17*
X154935000Y-91350000D03*
X154935000Y-88810000D03*
X154935000Y-86270000D03*
%TD*%
D16*
%TO.C,J12*%
X138460000Y-122000000D03*
D17*
X141000000Y-122000000D03*
X143540000Y-122000000D03*
%TD*%
D16*
%TO.C,J8*%
X154935000Y-81890000D03*
D17*
X154935000Y-79350000D03*
X154935000Y-76810000D03*
X154935000Y-74270000D03*
%TD*%
D23*
%TO.C,Q3*%
X132215000Y-98815000D03*
X132215000Y-96915000D03*
X130115000Y-97865000D03*
%TD*%
D28*
%TO.C,R27*%
X151660000Y-85825001D03*
X150640000Y-85825001D03*
%TD*%
D22*
%TO.C,C19*%
X149470000Y-109895001D03*
X149470000Y-110855001D03*
%TD*%
D18*
%TO.C,R18*%
X149240000Y-113725001D03*
X149240000Y-112705001D03*
%TD*%
D25*
%TO.C,L3*%
X129622500Y-100670000D03*
X131197500Y-100670000D03*
%TD*%
D15*
%TO.C,R16*%
X130170000Y-117020000D03*
X131190000Y-117020000D03*
%TD*%
D18*
%TO.C,R26*%
X149240000Y-89725001D03*
X149240000Y-88705001D03*
%TD*%
D25*
%TO.C,L1*%
X129622500Y-76670000D03*
X131197500Y-76670000D03*
%TD*%
D30*
%TO.C,JP1*%
X154050000Y-71100000D03*
D31*
X155350000Y-71100000D03*
%TD*%
D22*
%TO.C,C1*%
X130380000Y-77930000D03*
X130380000Y-78890000D03*
%TD*%
D26*
%TO.C,C22*%
X152440000Y-102075001D03*
X152440000Y-101115001D03*
%TD*%
D24*
%TO.C,R2*%
X132590000Y-78280000D03*
X132590000Y-79300000D03*
%TD*%
D22*
%TO.C,C13*%
X130380000Y-113930000D03*
X130380000Y-114890000D03*
%TD*%
D19*
%TO.C,Q6*%
X149614999Y-105190000D03*
X149614999Y-107090000D03*
X151714999Y-106140000D03*
%TD*%
D22*
%TO.C,C9*%
X130380000Y-101930000D03*
X130380000Y-102890000D03*
%TD*%
D27*
%TO.C,U1*%
X134395000Y-73470000D03*
X134395000Y-74740000D03*
X134395000Y-76010000D03*
X134395000Y-77280000D03*
X134395000Y-78550000D03*
X134395000Y-79820000D03*
X134395000Y-81090000D03*
X134395000Y-82360000D03*
X139395000Y-82360000D03*
X139395000Y-81090000D03*
X139395000Y-79820000D03*
X139395000Y-78550000D03*
X139395000Y-77280000D03*
X139395000Y-76010000D03*
X139395000Y-74740000D03*
X139395000Y-73470000D03*
%TD*%
D26*
%TO.C,C3*%
X132360000Y-82110000D03*
X132360000Y-81150000D03*
%TD*%
%LPD*%
M02*
