%TF.GenerationSoftware,KiCad,Pcbnew,7.0.2-6a45011f42~172~ubuntu22.04.1*%
%TF.CreationDate,2023-05-19T09:40:27+01:00*%
%TF.ProjectId,octoHX711,6f63746f-4858-4373-9131-2e6b69636164,rev?*%
%TF.SameCoordinates,Original*%
%TF.FileFunction,Paste,Top*%
%TF.FilePolarity,Positive*%
%FSLAX46Y46*%
G04 Gerber Fmt 4.6, Leading zero omitted, Abs format (unit mm)*
G04 Created by KiCad (PCBNEW 7.0.2-6a45011f42~172~ubuntu22.04.1) date 2023-05-19 09:40:27*
%MOMM*%
%LPD*%
G01*
G04 APERTURE LIST*
G04 Aperture macros list*
%AMRoundRect*
0 Rectangle with rounded corners*
0 $1 Rounding radius*
0 $2 $3 $4 $5 $6 $7 $8 $9 X,Y pos of 4 corners*
0 Add a 4 corners polygon primitive as box body*
4,1,4,$2,$3,$4,$5,$6,$7,$8,$9,$2,$3,0*
0 Add four circle primitives for the rounded corners*
1,1,$1+$1,$2,$3*
1,1,$1+$1,$4,$5*
1,1,$1+$1,$6,$7*
1,1,$1+$1,$8,$9*
0 Add four rect primitives between the rounded corners*
20,1,$1+$1,$2,$3,$4,$5,0*
20,1,$1+$1,$4,$5,$6,$7,0*
20,1,$1+$1,$6,$7,$8,$9,0*
20,1,$1+$1,$8,$9,$2,$3,0*%
G04 Aperture macros list end*
%ADD10RoundRect,0.135000X-0.135000X-0.185000X0.135000X-0.185000X0.135000X0.185000X-0.135000X0.185000X0*%
%ADD11RoundRect,0.135000X0.185000X-0.135000X0.185000X0.135000X-0.185000X0.135000X-0.185000X-0.135000X0*%
%ADD12R,1.300000X0.600000*%
%ADD13RoundRect,0.218750X0.218750X0.256250X-0.218750X0.256250X-0.218750X-0.256250X0.218750X-0.256250X0*%
%ADD14RoundRect,0.150000X0.850000X0.150000X-0.850000X0.150000X-0.850000X-0.150000X0.850000X-0.150000X0*%
%ADD15RoundRect,0.140000X-0.170000X0.140000X-0.170000X-0.140000X0.170000X-0.140000X0.170000X0.140000X0*%
%ADD16RoundRect,0.135000X-0.185000X0.135000X-0.185000X-0.135000X0.185000X-0.135000X0.185000X0.135000X0*%
%ADD17RoundRect,0.218750X-0.218750X-0.256250X0.218750X-0.256250X0.218750X0.256250X-0.218750X0.256250X0*%
%ADD18RoundRect,0.140000X0.170000X-0.140000X0.170000X0.140000X-0.170000X0.140000X-0.170000X-0.140000X0*%
%ADD19RoundRect,0.150000X-0.850000X-0.150000X0.850000X-0.150000X0.850000X0.150000X-0.850000X0.150000X0*%
%ADD20RoundRect,0.135000X0.135000X0.185000X-0.135000X0.185000X-0.135000X-0.185000X0.135000X-0.185000X0*%
%ADD21RoundRect,0.140000X-0.140000X-0.170000X0.140000X-0.170000X0.140000X0.170000X-0.140000X0.170000X0*%
G04 APERTURE END LIST*
D10*
%TO.C,R7*%
X130170000Y-94180000D03*
X131190000Y-94180000D03*
%TD*%
D11*
%TO.C,R17*%
X149250000Y-115675000D03*
X149250000Y-114655000D03*
%TD*%
%TO.C,R30*%
X149240000Y-77725001D03*
X149240000Y-76705001D03*
%TD*%
D12*
%TO.C,Q8*%
X149614999Y-81190000D03*
X149614999Y-83090000D03*
X151714999Y-82140000D03*
%TD*%
D13*
%TO.C,L5*%
X152207500Y-115335000D03*
X150632500Y-115335000D03*
%TD*%
D14*
%TO.C,U5*%
X147435000Y-118535000D03*
X147435000Y-117265000D03*
X147435000Y-115995000D03*
X147435000Y-114725000D03*
X147435000Y-113455000D03*
X147435000Y-112185000D03*
X147435000Y-110915000D03*
X147435000Y-109645000D03*
X142435000Y-109645000D03*
X142435000Y-110915000D03*
X142435000Y-112185000D03*
X142435000Y-113455000D03*
X142435000Y-114725000D03*
X142435000Y-115995000D03*
X142435000Y-117265000D03*
X142435000Y-118535000D03*
%TD*%
D15*
%TO.C,C14*%
X129390000Y-113930000D03*
X129390000Y-114890000D03*
%TD*%
D12*
%TO.C,Q1*%
X132215000Y-74815000D03*
X132215000Y-72915000D03*
X130115000Y-73865000D03*
%TD*%
D11*
%TO.C,R22*%
X149240000Y-101725001D03*
X149240000Y-100705001D03*
%TD*%
D16*
%TO.C,R1*%
X132580000Y-76330000D03*
X132580000Y-77350000D03*
%TD*%
D17*
%TO.C,L2*%
X129622500Y-88670000D03*
X131197500Y-88670000D03*
%TD*%
D12*
%TO.C,Q7*%
X149614999Y-93190000D03*
X149614999Y-95090000D03*
X151714999Y-94140000D03*
%TD*%
D18*
%TO.C,C8*%
X131390000Y-91620000D03*
X131390000Y-90660000D03*
%TD*%
D15*
%TO.C,C2*%
X129390000Y-77930000D03*
X129390000Y-78890000D03*
%TD*%
D14*
%TO.C,U7*%
X147435000Y-94535000D03*
X147435000Y-93265000D03*
X147435000Y-91995000D03*
X147435000Y-90725000D03*
X147435000Y-89455000D03*
X147435000Y-88185000D03*
X147435000Y-86915000D03*
X147435000Y-85645000D03*
X142435000Y-85645000D03*
X142435000Y-86915000D03*
X142435000Y-88185000D03*
X142435000Y-89455000D03*
X142435000Y-90725000D03*
X142435000Y-91995000D03*
X142435000Y-93265000D03*
X142435000Y-94535000D03*
%TD*%
D16*
%TO.C,R9*%
X132580000Y-100330000D03*
X132580000Y-101350000D03*
%TD*%
D18*
%TO.C,C12*%
X131390000Y-103620000D03*
X131390000Y-102660000D03*
%TD*%
%TO.C,C15*%
X132360000Y-118110000D03*
X132360000Y-117150000D03*
%TD*%
D16*
%TO.C,R13*%
X132580000Y-112330000D03*
X132580000Y-113350000D03*
%TD*%
D10*
%TO.C,R12*%
X130170000Y-105020000D03*
X131190000Y-105020000D03*
%TD*%
D15*
%TO.C,C31*%
X149470000Y-73895001D03*
X149470000Y-74855001D03*
%TD*%
%TO.C,C5*%
X130380000Y-89930000D03*
X130380000Y-90890000D03*
%TD*%
D16*
%TO.C,R14*%
X132590000Y-114280000D03*
X132590000Y-115300000D03*
%TD*%
D11*
%TO.C,R25*%
X149250000Y-91675000D03*
X149250000Y-90655000D03*
%TD*%
D18*
%TO.C,C11*%
X132360000Y-106110000D03*
X132360000Y-105150000D03*
%TD*%
D10*
%TO.C,R11*%
X130170000Y-106180000D03*
X131190000Y-106180000D03*
%TD*%
D19*
%TO.C,U3*%
X134395000Y-97470000D03*
X134395000Y-98740000D03*
X134395000Y-100010000D03*
X134395000Y-101280000D03*
X134395000Y-102550000D03*
X134395000Y-103820000D03*
X134395000Y-105090000D03*
X134395000Y-106360000D03*
X139395000Y-106360000D03*
X139395000Y-105090000D03*
X139395000Y-103820000D03*
X139395000Y-102550000D03*
X139395000Y-101280000D03*
X139395000Y-100010000D03*
X139395000Y-98740000D03*
X139395000Y-97470000D03*
%TD*%
%TO.C,U4*%
X134395000Y-109470000D03*
X134395000Y-110740000D03*
X134395000Y-112010000D03*
X134395000Y-113280000D03*
X134395000Y-114550000D03*
X134395000Y-115820000D03*
X134395000Y-117090000D03*
X134395000Y-118360000D03*
X139395000Y-118360000D03*
X139395000Y-117090000D03*
X139395000Y-115820000D03*
X139395000Y-114550000D03*
X139395000Y-113280000D03*
X139395000Y-112010000D03*
X139395000Y-110740000D03*
X139395000Y-109470000D03*
%TD*%
D20*
%TO.C,R24*%
X151660000Y-98985001D03*
X150640000Y-98985001D03*
%TD*%
D18*
%TO.C,C18*%
X152440000Y-114075001D03*
X152440000Y-113115001D03*
%TD*%
D15*
%TO.C,C32*%
X150440000Y-76385001D03*
X150440000Y-77345001D03*
%TD*%
D18*
%TO.C,C25*%
X151450000Y-90075001D03*
X151450000Y-89115001D03*
%TD*%
D16*
%TO.C,R5*%
X132580000Y-88330000D03*
X132580000Y-89350000D03*
%TD*%
D18*
%TO.C,C29*%
X151450000Y-78075001D03*
X151450000Y-77115001D03*
%TD*%
%TO.C,C4*%
X131390000Y-79620000D03*
X131390000Y-78660000D03*
%TD*%
D13*
%TO.C,L7*%
X152207500Y-91335000D03*
X150632500Y-91335000D03*
%TD*%
D18*
%TO.C,C21*%
X151450000Y-102075001D03*
X151450000Y-101115001D03*
%TD*%
D15*
%TO.C,C6*%
X129390000Y-89930000D03*
X129390000Y-90890000D03*
%TD*%
D12*
%TO.C,Q2*%
X132215000Y-86815000D03*
X132215000Y-84915000D03*
X130115000Y-85865000D03*
%TD*%
D20*
%TO.C,R32*%
X151660000Y-74985001D03*
X150640000Y-74985001D03*
%TD*%
D11*
%TO.C,R29*%
X149250000Y-79675000D03*
X149250000Y-78655000D03*
%TD*%
D10*
%TO.C,R3*%
X130170000Y-82180000D03*
X131190000Y-82180000D03*
%TD*%
D19*
%TO.C,U2*%
X134395000Y-85470000D03*
X134395000Y-86740000D03*
X134395000Y-88010000D03*
X134395000Y-89280000D03*
X134395000Y-90550000D03*
X134395000Y-91820000D03*
X134395000Y-93090000D03*
X134395000Y-94360000D03*
X139395000Y-94360000D03*
X139395000Y-93090000D03*
X139395000Y-91820000D03*
X139395000Y-90550000D03*
X139395000Y-89280000D03*
X139395000Y-88010000D03*
X139395000Y-86740000D03*
X139395000Y-85470000D03*
%TD*%
D16*
%TO.C,R6*%
X132590000Y-90280000D03*
X132590000Y-91300000D03*
%TD*%
D14*
%TO.C,U8*%
X147435000Y-82535000D03*
X147435000Y-81265000D03*
X147435000Y-79995000D03*
X147435000Y-78725000D03*
X147435000Y-77455000D03*
X147435000Y-76185000D03*
X147435000Y-74915000D03*
X147435000Y-73645000D03*
X142435000Y-73645000D03*
X142435000Y-74915000D03*
X142435000Y-76185000D03*
X142435000Y-77455000D03*
X142435000Y-78725000D03*
X142435000Y-79995000D03*
X142435000Y-81265000D03*
X142435000Y-82535000D03*
%TD*%
D15*
%TO.C,C27*%
X149470000Y-85895001D03*
X149470000Y-86855001D03*
%TD*%
D14*
%TO.C,U6*%
X147435000Y-106535000D03*
X147435000Y-105265000D03*
X147435000Y-103995000D03*
X147435000Y-102725000D03*
X147435000Y-101455000D03*
X147435000Y-100185000D03*
X147435000Y-98915000D03*
X147435000Y-97645000D03*
X142435000Y-97645000D03*
X142435000Y-98915000D03*
X142435000Y-100185000D03*
X142435000Y-101455000D03*
X142435000Y-102725000D03*
X142435000Y-103995000D03*
X142435000Y-105265000D03*
X142435000Y-106535000D03*
%TD*%
D11*
%TO.C,R21*%
X149250000Y-103675000D03*
X149250000Y-102655000D03*
%TD*%
D21*
%TO.C,C34*%
X148395000Y-66455000D03*
X149355000Y-66455000D03*
%TD*%
D16*
%TO.C,R10*%
X132590000Y-102280000D03*
X132590000Y-103300000D03*
%TD*%
D18*
%TO.C,C17*%
X151450000Y-114075001D03*
X151450000Y-113115001D03*
%TD*%
D20*
%TO.C,R19*%
X151660000Y-109825001D03*
X150640000Y-109825001D03*
%TD*%
D12*
%TO.C,Q4*%
X132215000Y-110815000D03*
X132215000Y-108915000D03*
X130115000Y-109865000D03*
%TD*%
D20*
%TO.C,R20*%
X151660000Y-110985001D03*
X150640000Y-110985001D03*
%TD*%
D13*
%TO.C,L8*%
X152207500Y-79335000D03*
X150632500Y-79335000D03*
%TD*%
D20*
%TO.C,R28*%
X151660000Y-86985001D03*
X150640000Y-86985001D03*
%TD*%
%TO.C,R23*%
X151660000Y-97825001D03*
X150640000Y-97825001D03*
%TD*%
D18*
%TO.C,C16*%
X131390000Y-115620000D03*
X131390000Y-114660000D03*
%TD*%
D12*
%TO.C,Q5*%
X149614999Y-117190000D03*
X149614999Y-119090000D03*
X151714999Y-118140000D03*
%TD*%
D18*
%TO.C,C30*%
X152440000Y-78075001D03*
X152440000Y-77115001D03*
%TD*%
D13*
%TO.C,L6*%
X152207500Y-103335000D03*
X150632500Y-103335000D03*
%TD*%
D15*
%TO.C,C23*%
X149470000Y-97895001D03*
X149470000Y-98855001D03*
%TD*%
%TO.C,C28*%
X150440000Y-88385001D03*
X150440000Y-89345001D03*
%TD*%
D18*
%TO.C,C26*%
X152440000Y-90075001D03*
X152440000Y-89115001D03*
%TD*%
D17*
%TO.C,L4*%
X129622500Y-112670000D03*
X131197500Y-112670000D03*
%TD*%
D15*
%TO.C,C20*%
X150440000Y-112385001D03*
X150440000Y-113345001D03*
%TD*%
D21*
%TO.C,C35*%
X148435000Y-67455000D03*
X149395000Y-67455000D03*
%TD*%
D20*
%TO.C,R31*%
X151660000Y-73825001D03*
X150640000Y-73825001D03*
%TD*%
D15*
%TO.C,C24*%
X150440000Y-100385001D03*
X150440000Y-101345001D03*
%TD*%
D10*
%TO.C,R15*%
X130170000Y-118180000D03*
X131190000Y-118180000D03*
%TD*%
D18*
%TO.C,C7*%
X132360000Y-94110000D03*
X132360000Y-93150000D03*
%TD*%
D21*
%TO.C,C33*%
X126220000Y-71400000D03*
X127180000Y-71400000D03*
%TD*%
D10*
%TO.C,R8*%
X130170000Y-93020000D03*
X131190000Y-93020000D03*
%TD*%
%TO.C,R4*%
X130170000Y-81020000D03*
X131190000Y-81020000D03*
%TD*%
D15*
%TO.C,C10*%
X129390000Y-101930000D03*
X129390000Y-102890000D03*
%TD*%
D12*
%TO.C,Q3*%
X132215000Y-98815000D03*
X132215000Y-96915000D03*
X130115000Y-97865000D03*
%TD*%
D20*
%TO.C,R27*%
X151660000Y-85825001D03*
X150640000Y-85825001D03*
%TD*%
D15*
%TO.C,C19*%
X149470000Y-109895001D03*
X149470000Y-110855001D03*
%TD*%
D11*
%TO.C,R18*%
X149240000Y-113725001D03*
X149240000Y-112705001D03*
%TD*%
D17*
%TO.C,L3*%
X129622500Y-100670000D03*
X131197500Y-100670000D03*
%TD*%
D10*
%TO.C,R16*%
X130170000Y-117020000D03*
X131190000Y-117020000D03*
%TD*%
D11*
%TO.C,R26*%
X149240000Y-89725001D03*
X149240000Y-88705001D03*
%TD*%
D17*
%TO.C,L1*%
X129622500Y-76670000D03*
X131197500Y-76670000D03*
%TD*%
D15*
%TO.C,C1*%
X130380000Y-77930000D03*
X130380000Y-78890000D03*
%TD*%
D18*
%TO.C,C22*%
X152440000Y-102075001D03*
X152440000Y-101115001D03*
%TD*%
D16*
%TO.C,R2*%
X132590000Y-78280000D03*
X132590000Y-79300000D03*
%TD*%
D15*
%TO.C,C13*%
X130380000Y-113930000D03*
X130380000Y-114890000D03*
%TD*%
D12*
%TO.C,Q6*%
X149614999Y-105190000D03*
X149614999Y-107090000D03*
X151714999Y-106140000D03*
%TD*%
D15*
%TO.C,C9*%
X130380000Y-101930000D03*
X130380000Y-102890000D03*
%TD*%
D19*
%TO.C,U1*%
X134395000Y-73470000D03*
X134395000Y-74740000D03*
X134395000Y-76010000D03*
X134395000Y-77280000D03*
X134395000Y-78550000D03*
X134395000Y-79820000D03*
X134395000Y-81090000D03*
X134395000Y-82360000D03*
X139395000Y-82360000D03*
X139395000Y-81090000D03*
X139395000Y-79820000D03*
X139395000Y-78550000D03*
X139395000Y-77280000D03*
X139395000Y-76010000D03*
X139395000Y-74740000D03*
X139395000Y-73470000D03*
%TD*%
D18*
%TO.C,C3*%
X132360000Y-82110000D03*
X132360000Y-81150000D03*
%TD*%
M02*
