%TF.GenerationSoftware,KiCad,Pcbnew,7.0.2-6a45011f42~172~ubuntu22.04.1*%
%TF.CreationDate,2023-05-19T09:40:27+01:00*%
%TF.ProjectId,octoHX711,6f63746f-4858-4373-9131-2e6b69636164,rev?*%
%TF.SameCoordinates,Original*%
%TF.FileFunction,Copper,L3,Inr*%
%TF.FilePolarity,Positive*%
%FSLAX46Y46*%
G04 Gerber Fmt 4.6, Leading zero omitted, Abs format (unit mm)*
G04 Created by KiCad (PCBNEW 7.0.2-6a45011f42~172~ubuntu22.04.1) date 2023-05-19 09:40:27*
%MOMM*%
%LPD*%
G01*
G04 APERTURE LIST*
%TA.AperFunction,ComponentPad*%
%ADD10R,1.700000X1.700000*%
%TD*%
%TA.AperFunction,ComponentPad*%
%ADD11O,1.700000X1.700000*%
%TD*%
%TA.AperFunction,ViaPad*%
%ADD12C,0.600000*%
%TD*%
G04 APERTURE END LIST*
D10*
%TO.N,/HX711_unit1/e+*%
%TO.C,J1*%
X126895000Y-74115000D03*
D11*
%TO.N,GND*%
X126895000Y-76655000D03*
%TO.N,/HX711_unit1/a-*%
X126895000Y-79195000D03*
%TO.N,/HX711_unit1/a+*%
X126895000Y-81735000D03*
%TD*%
D10*
%TO.N,/HX711_unit4/e+*%
%TO.C,J4*%
X126895000Y-110115000D03*
D11*
%TO.N,GND*%
X126895000Y-112655000D03*
%TO.N,/HX711_unit4/a-*%
X126895000Y-115195000D03*
%TO.N,/HX711_unit4/a+*%
X126895000Y-117735000D03*
%TD*%
D10*
%TO.N,/HX711_unit5/e+*%
%TO.C,J5*%
X154935000Y-117890000D03*
D11*
%TO.N,GND*%
X154935000Y-115350000D03*
%TO.N,/HX711_unit5/a-*%
X154935000Y-112810000D03*
%TO.N,/HX711_unit5/a+*%
X154935000Y-110270000D03*
%TD*%
D10*
%TO.N,/HX711_unit1/Sdat*%
%TO.C,J9*%
X132000000Y-70000000D03*
D11*
%TO.N,/HX711_unit2/Sdat*%
X134540000Y-70000000D03*
%TO.N,/HX711_unit3/Sdat*%
X137080000Y-70000000D03*
%TO.N,/HX711_unit4/Sdat*%
X139620000Y-70000000D03*
%TO.N,/HX711_unit5/Sdat*%
X142160000Y-70000000D03*
%TO.N,/HX711_unit8/Sdat*%
X144700000Y-70000000D03*
%TO.N,/HX711_unit6/Sdat*%
X147240000Y-70000000D03*
%TO.N,/HX711_unit7/Sdat*%
X149780000Y-70000000D03*
%TD*%
D10*
%TO.N,/HX711_unit2/e+*%
%TO.C,J2*%
X126895000Y-86115000D03*
D11*
%TO.N,GND*%
X126895000Y-88655000D03*
%TO.N,/HX711_unit2/a-*%
X126895000Y-91195000D03*
%TO.N,/HX711_unit2/a+*%
X126895000Y-93735000D03*
%TD*%
D10*
%TO.N,VDD*%
%TO.C,J10*%
X132000000Y-67415000D03*
D11*
%TO.N,Sclk*%
X134540000Y-67415000D03*
%TO.N,GND*%
X137080000Y-67415000D03*
%TD*%
D10*
%TO.N,/HX711_unit8/e+*%
%TO.C,J6*%
X154935000Y-105890000D03*
D11*
%TO.N,GND*%
X154935000Y-103350000D03*
%TO.N,/HX711_unit8/a-*%
X154935000Y-100810000D03*
%TO.N,/HX711_unit8/a+*%
X154935000Y-98270000D03*
%TD*%
D10*
%TO.N,VCC*%
%TO.C,J11*%
X142135000Y-67415000D03*
D11*
%TO.N,GND*%
X144675000Y-67415000D03*
%TD*%
D10*
%TO.N,/HX711_unit3/e+*%
%TO.C,J3*%
X126895000Y-98115000D03*
D11*
%TO.N,GND*%
X126895000Y-100655000D03*
%TO.N,/HX711_unit3/a-*%
X126895000Y-103195000D03*
%TO.N,/HX711_unit3/a+*%
X126895000Y-105735000D03*
%TD*%
D10*
%TO.N,/HX711_unit6/e+*%
%TO.C,J7*%
X154935000Y-93890000D03*
D11*
%TO.N,GND*%
X154935000Y-91350000D03*
%TO.N,/HX711_unit6/a-*%
X154935000Y-88810000D03*
%TO.N,/HX711_unit6/a+*%
X154935000Y-86270000D03*
%TD*%
D10*
%TO.N,VDD*%
%TO.C,J12*%
X138460000Y-122000000D03*
D11*
%TO.N,rate*%
X141000000Y-122000000D03*
%TO.N,GND*%
X143540000Y-122000000D03*
%TD*%
D10*
%TO.N,/HX711_unit7/e+*%
%TO.C,J8*%
X154935000Y-81890000D03*
D11*
%TO.N,GND*%
X154935000Y-79350000D03*
%TO.N,/HX711_unit7/a-*%
X154935000Y-76810000D03*
%TO.N,/HX711_unit7/a+*%
X154935000Y-74270000D03*
%TD*%
D12*
%TO.N,GND*%
X129000000Y-72500000D03*
X135695000Y-114255000D03*
X146135000Y-89750000D03*
X143835000Y-115950000D03*
X143835000Y-91950000D03*
X146135000Y-101750000D03*
X143835000Y-103950000D03*
X135695000Y-90255000D03*
X135695000Y-78255000D03*
X137995000Y-112055000D03*
X137995000Y-88055000D03*
X137995000Y-76055000D03*
X146135000Y-113750000D03*
X135695000Y-102255000D03*
X137995000Y-100055000D03*
X143835000Y-79950000D03*
X146135000Y-77750000D03*
%TO.N,VDD*%
X138500000Y-119500000D03*
%TO.N,/HX711_unit1/Sdat*%
X138000000Y-78600000D03*
%TO.N,Sclk*%
X144600000Y-76200000D03*
%TO.N,rate*%
X143816017Y-93276017D03*
X143816017Y-105276017D03*
X138013983Y-86728983D03*
X143816017Y-117276017D03*
X138013983Y-74728983D03*
X143816017Y-81276017D03*
X138013983Y-110728983D03*
X138013983Y-98728983D03*
%TO.N,/HX711_unit2/Sdat*%
X138000000Y-90600000D03*
%TO.N,/HX711_unit3/Sdat*%
X138000000Y-102600000D03*
%TO.N,/HX711_unit4/Sdat*%
X138000000Y-114600000D03*
%TO.N,/HX711_unit6/Sdat*%
X143830000Y-89405000D03*
%TO.N,/HX711_unit5/Sdat*%
X143830000Y-113405000D03*
%TO.N,/HX711_unit8/Sdat*%
X143830000Y-101405000D03*
%TO.N,/HX711_unit7/Sdat*%
X143830000Y-77405000D03*
%TD*%
%TA.AperFunction,Conductor*%
%TO.N,GND*%
G36*
X154955892Y-65030185D02*
G01*
X155001647Y-65082989D01*
X155011591Y-65152147D01*
X154982566Y-65215703D01*
X154944249Y-65245438D01*
X154878811Y-65278113D01*
X154786501Y-65324206D01*
X154603462Y-65457028D01*
X154444670Y-65618041D01*
X154314405Y-65802909D01*
X154216199Y-66006615D01*
X154152701Y-66223670D01*
X154125632Y-66448183D01*
X154125632Y-66448187D01*
X154125632Y-66448189D01*
X154129371Y-66531915D01*
X154135721Y-66674115D01*
X154182696Y-66895325D01*
X154241065Y-67044108D01*
X154265288Y-67105853D01*
X154381263Y-67299999D01*
X154527485Y-67472515D01*
X154700001Y-67618737D01*
X154894147Y-67734712D01*
X155104673Y-67817303D01*
X155325888Y-67864279D01*
X155551811Y-67874368D01*
X155776332Y-67847298D01*
X155993383Y-67783801D01*
X156197093Y-67685593D01*
X156381957Y-67555331D01*
X156542974Y-67396535D01*
X156675793Y-67213500D01*
X156754562Y-67055749D01*
X156802121Y-67004567D01*
X156869803Y-66987221D01*
X156936119Y-67009220D01*
X156980014Y-67063580D01*
X156989500Y-67111146D01*
X156989500Y-122888853D01*
X156969815Y-122955892D01*
X156917011Y-123001647D01*
X156847853Y-123011591D01*
X156784297Y-122982566D01*
X156754561Y-122944248D01*
X156754561Y-122944247D01*
X156675793Y-122786500D01*
X156542974Y-122603465D01*
X156381957Y-122444669D01*
X156197093Y-122314407D01*
X156197092Y-122314406D01*
X156197090Y-122314405D01*
X155993384Y-122216199D01*
X155776329Y-122152701D01*
X155551816Y-122125632D01*
X155551812Y-122125632D01*
X155551811Y-122125632D01*
X155426298Y-122131236D01*
X155325884Y-122135721D01*
X155104674Y-122182696D01*
X154894146Y-122265288D01*
X154700000Y-122381263D01*
X154527485Y-122527485D01*
X154381263Y-122700000D01*
X154265288Y-122894146D01*
X154182696Y-123104674D01*
X154135721Y-123325884D01*
X154125632Y-123551816D01*
X154152701Y-123776329D01*
X154216199Y-123993384D01*
X154314405Y-124197090D01*
X154314406Y-124197092D01*
X154314407Y-124197093D01*
X154444669Y-124381957D01*
X154603465Y-124542974D01*
X154786500Y-124675793D01*
X154944250Y-124754562D01*
X154995433Y-124802121D01*
X155012779Y-124869803D01*
X154990780Y-124936119D01*
X154936420Y-124980014D01*
X154888854Y-124989500D01*
X127111146Y-124989500D01*
X127044107Y-124969815D01*
X126998352Y-124917011D01*
X126988408Y-124847853D01*
X127017433Y-124784297D01*
X127055747Y-124754563D01*
X127213500Y-124675793D01*
X127396535Y-124542974D01*
X127555331Y-124381957D01*
X127685593Y-124197093D01*
X127783801Y-123993383D01*
X127847298Y-123776332D01*
X127874368Y-123551811D01*
X127864279Y-123325888D01*
X127817303Y-123104673D01*
X127734881Y-122894578D01*
X137109500Y-122894578D01*
X137109501Y-122897872D01*
X137109853Y-122901152D01*
X137109854Y-122901159D01*
X137115909Y-122957484D01*
X137128327Y-122990778D01*
X137166204Y-123092331D01*
X137252454Y-123207546D01*
X137367669Y-123293796D01*
X137502517Y-123344091D01*
X137562127Y-123350500D01*
X139357872Y-123350499D01*
X139417483Y-123344091D01*
X139552331Y-123293796D01*
X139667546Y-123207546D01*
X139753796Y-123092331D01*
X139802810Y-122960916D01*
X139844681Y-122904983D01*
X139910146Y-122880566D01*
X139978419Y-122895418D01*
X140006673Y-122916569D01*
X140128599Y-123038495D01*
X140322170Y-123174035D01*
X140536337Y-123273903D01*
X140764592Y-123335063D01*
X141000000Y-123355659D01*
X141235408Y-123335063D01*
X141463663Y-123273903D01*
X141677830Y-123174035D01*
X141871401Y-123038495D01*
X142038495Y-122871401D01*
X142168732Y-122685403D01*
X142223307Y-122641780D01*
X142292805Y-122634586D01*
X142355160Y-122666109D01*
X142371880Y-122685404D01*
X142501893Y-122871081D01*
X142668918Y-123038106D01*
X142862423Y-123173600D01*
X143076509Y-123273430D01*
X143290000Y-123330634D01*
X143290000Y-122435501D01*
X143397685Y-122484680D01*
X143504237Y-122500000D01*
X143575763Y-122500000D01*
X143682315Y-122484680D01*
X143790000Y-122435501D01*
X143790000Y-123330633D01*
X144003490Y-123273430D01*
X144217576Y-123173600D01*
X144411081Y-123038106D01*
X144578106Y-122871081D01*
X144713600Y-122677576D01*
X144813430Y-122463492D01*
X144870636Y-122250000D01*
X143973686Y-122250000D01*
X143999493Y-122209844D01*
X144040000Y-122071889D01*
X144040000Y-121928111D01*
X143999493Y-121790156D01*
X143973686Y-121750000D01*
X144870636Y-121750000D01*
X144870635Y-121749999D01*
X144813430Y-121536507D01*
X144713599Y-121322421D01*
X144578109Y-121128921D01*
X144411081Y-120961893D01*
X144217576Y-120826399D01*
X144003492Y-120726569D01*
X143790000Y-120669364D01*
X143790000Y-121564498D01*
X143682315Y-121515320D01*
X143575763Y-121500000D01*
X143504237Y-121500000D01*
X143397685Y-121515320D01*
X143290000Y-121564498D01*
X143290000Y-120669364D01*
X143289999Y-120669364D01*
X143076507Y-120726569D01*
X142862421Y-120826400D01*
X142668921Y-120961890D01*
X142501893Y-121128918D01*
X142371880Y-121314596D01*
X142317303Y-121358220D01*
X142247804Y-121365413D01*
X142185450Y-121333891D01*
X142168730Y-121314595D01*
X142038494Y-121128598D01*
X141871404Y-120961508D01*
X141871403Y-120961507D01*
X141871401Y-120961505D01*
X141677830Y-120825965D01*
X141463663Y-120726097D01*
X141402501Y-120709709D01*
X141235407Y-120664936D01*
X140999999Y-120644340D01*
X140764592Y-120664936D01*
X140536336Y-120726097D01*
X140322170Y-120825965D01*
X140128601Y-120961503D01*
X140006673Y-121083431D01*
X139945350Y-121116915D01*
X139875658Y-121111931D01*
X139819725Y-121070059D01*
X139802810Y-121039082D01*
X139774019Y-120961890D01*
X139753796Y-120907669D01*
X139667546Y-120792454D01*
X139552331Y-120706204D01*
X139417483Y-120655909D01*
X139357873Y-120649500D01*
X139354550Y-120649500D01*
X137565439Y-120649500D01*
X137565420Y-120649500D01*
X137562128Y-120649501D01*
X137558848Y-120649853D01*
X137558840Y-120649854D01*
X137502515Y-120655909D01*
X137367669Y-120706204D01*
X137252454Y-120792454D01*
X137166204Y-120907668D01*
X137145980Y-120961893D01*
X137115909Y-121042517D01*
X137109500Y-121102127D01*
X137109500Y-121105448D01*
X137109500Y-121105449D01*
X137109500Y-122894560D01*
X137109500Y-122894578D01*
X127734881Y-122894578D01*
X127734712Y-122894147D01*
X127618737Y-122700001D01*
X127472515Y-122527485D01*
X127299999Y-122381263D01*
X127105853Y-122265288D01*
X127050519Y-122243580D01*
X126895325Y-122182696D01*
X126674115Y-122135721D01*
X126598804Y-122132357D01*
X126448189Y-122125632D01*
X126448187Y-122125632D01*
X126448183Y-122125632D01*
X126223670Y-122152701D01*
X126006615Y-122216199D01*
X125802909Y-122314405D01*
X125618041Y-122444670D01*
X125457028Y-122603462D01*
X125324206Y-122786501D01*
X125245439Y-122944247D01*
X125197879Y-122995431D01*
X125130196Y-123012777D01*
X125063880Y-122990778D01*
X125019986Y-122936418D01*
X125010500Y-122888852D01*
X125010500Y-119500000D01*
X137694434Y-119500000D01*
X137714631Y-119679251D01*
X137714631Y-119679253D01*
X137714632Y-119679255D01*
X137774211Y-119849522D01*
X137774212Y-119849523D01*
X137870185Y-120002264D01*
X137997735Y-120129814D01*
X137997737Y-120129815D01*
X137997738Y-120129816D01*
X138150478Y-120225789D01*
X138320745Y-120285368D01*
X138455186Y-120300515D01*
X138499999Y-120305565D01*
X138499999Y-120305564D01*
X138500000Y-120305565D01*
X138679255Y-120285368D01*
X138849522Y-120225789D01*
X139002262Y-120129816D01*
X139129816Y-120002262D01*
X139225789Y-119849522D01*
X139285368Y-119679255D01*
X139305565Y-119500000D01*
X139285368Y-119320745D01*
X139225789Y-119150478D01*
X139129816Y-118997738D01*
X139129815Y-118997737D01*
X139129814Y-118997735D01*
X139002264Y-118870185D01*
X138939867Y-118830979D01*
X138849522Y-118774211D01*
X138679255Y-118714632D01*
X138679253Y-118714631D01*
X138679251Y-118714631D01*
X138500000Y-118694434D01*
X138320748Y-118714631D01*
X138320745Y-118714631D01*
X138320745Y-118714632D01*
X138150478Y-118774211D01*
X138150476Y-118774211D01*
X138150476Y-118774212D01*
X137997735Y-118870185D01*
X137870185Y-118997735D01*
X137774212Y-119150476D01*
X137714631Y-119320748D01*
X137694434Y-119500000D01*
X125010500Y-119500000D01*
X125010500Y-117735000D01*
X125539340Y-117735000D01*
X125559936Y-117970407D01*
X125604709Y-118137502D01*
X125621097Y-118198663D01*
X125720965Y-118412830D01*
X125856505Y-118606401D01*
X126023599Y-118773495D01*
X126217170Y-118909035D01*
X126431337Y-119008903D01*
X126659592Y-119070063D01*
X126894999Y-119090659D01*
X126894999Y-119090658D01*
X126895000Y-119090659D01*
X127130408Y-119070063D01*
X127358663Y-119008903D01*
X127572830Y-118909035D01*
X127766401Y-118773495D01*
X127933495Y-118606401D01*
X128069035Y-118412830D01*
X128168903Y-118198663D01*
X128230063Y-117970408D01*
X128250659Y-117735000D01*
X128230063Y-117499592D01*
X128170157Y-117276016D01*
X143010451Y-117276016D01*
X143030648Y-117455268D01*
X143030648Y-117455270D01*
X143030649Y-117455272D01*
X143090228Y-117625539D01*
X143090229Y-117625540D01*
X143186202Y-117778281D01*
X143313752Y-117905831D01*
X143313754Y-117905832D01*
X143313755Y-117905833D01*
X143466495Y-118001806D01*
X143636762Y-118061385D01*
X143816017Y-118081582D01*
X143995272Y-118061385D01*
X144165539Y-118001806D01*
X144318279Y-117905833D01*
X144445833Y-117778279D01*
X144541806Y-117625539D01*
X144601385Y-117455272D01*
X144621582Y-117276017D01*
X144601385Y-117096762D01*
X144541806Y-116926495D01*
X144445833Y-116773755D01*
X144445832Y-116773754D01*
X144445831Y-116773752D01*
X144318281Y-116646202D01*
X144191555Y-116566575D01*
X144165539Y-116550228D01*
X143995272Y-116490649D01*
X143995270Y-116490648D01*
X143995268Y-116490648D01*
X143816017Y-116470451D01*
X143636765Y-116490648D01*
X143636762Y-116490648D01*
X143636762Y-116490649D01*
X143466495Y-116550228D01*
X143466493Y-116550228D01*
X143466493Y-116550229D01*
X143313752Y-116646202D01*
X143186202Y-116773752D01*
X143129748Y-116863599D01*
X143090228Y-116926495D01*
X143030649Y-117096762D01*
X143030648Y-117096765D01*
X143010451Y-117276016D01*
X128170157Y-117276016D01*
X128168903Y-117271337D01*
X128069035Y-117057171D01*
X127933495Y-116863599D01*
X127766401Y-116696505D01*
X127580839Y-116566573D01*
X127537216Y-116511998D01*
X127530022Y-116442500D01*
X127561545Y-116380145D01*
X127580837Y-116363428D01*
X127766401Y-116233495D01*
X127933495Y-116066401D01*
X128069035Y-115872830D01*
X128168903Y-115658663D01*
X128230063Y-115430408D01*
X128250659Y-115195000D01*
X128230063Y-114959592D01*
X128168903Y-114731337D01*
X128107659Y-114599999D01*
X137194434Y-114599999D01*
X137214631Y-114779251D01*
X137214631Y-114779253D01*
X137214632Y-114779255D01*
X137274211Y-114949522D01*
X137317994Y-115019202D01*
X137370185Y-115102264D01*
X137497735Y-115229814D01*
X137497737Y-115229815D01*
X137497738Y-115229816D01*
X137650478Y-115325789D01*
X137820745Y-115385368D01*
X137955186Y-115400515D01*
X137999999Y-115405565D01*
X137999999Y-115405564D01*
X138000000Y-115405565D01*
X138179255Y-115385368D01*
X138349522Y-115325789D01*
X138502262Y-115229816D01*
X138629816Y-115102262D01*
X138725789Y-114949522D01*
X138785368Y-114779255D01*
X138805565Y-114600000D01*
X138785368Y-114420745D01*
X138725789Y-114250478D01*
X138629816Y-114097738D01*
X138629815Y-114097737D01*
X138629814Y-114097735D01*
X138502264Y-113970185D01*
X138439867Y-113930979D01*
X138349522Y-113874211D01*
X138179255Y-113814632D01*
X138179253Y-113814631D01*
X138179251Y-113814631D01*
X138000000Y-113794434D01*
X137820748Y-113814631D01*
X137820745Y-113814631D01*
X137820745Y-113814632D01*
X137650478Y-113874211D01*
X137650476Y-113874211D01*
X137650476Y-113874212D01*
X137497735Y-113970185D01*
X137370185Y-114097735D01*
X137299290Y-114210565D01*
X137274211Y-114250478D01*
X137252721Y-114311893D01*
X137214631Y-114420748D01*
X137194434Y-114599999D01*
X128107659Y-114599999D01*
X128069035Y-114517171D01*
X127933495Y-114323599D01*
X127766401Y-114156505D01*
X127580402Y-114026267D01*
X127536780Y-113971692D01*
X127529587Y-113902193D01*
X127561109Y-113839839D01*
X127580405Y-113823119D01*
X127766078Y-113693109D01*
X127933106Y-113526081D01*
X128017888Y-113405000D01*
X143024434Y-113405000D01*
X143044631Y-113584251D01*
X143044631Y-113584253D01*
X143044632Y-113584255D01*
X143104211Y-113754522D01*
X143129290Y-113794435D01*
X143200185Y-113907264D01*
X143327735Y-114034814D01*
X143327737Y-114034815D01*
X143327738Y-114034816D01*
X143480478Y-114130789D01*
X143650745Y-114190368D01*
X143830000Y-114210565D01*
X144009255Y-114190368D01*
X144179522Y-114130789D01*
X144332262Y-114034816D01*
X144459816Y-113907262D01*
X144555789Y-113754522D01*
X144615368Y-113584255D01*
X144635565Y-113405000D01*
X144615368Y-113225745D01*
X144555789Y-113055478D01*
X144459816Y-112902738D01*
X144459815Y-112902737D01*
X144459814Y-112902735D01*
X144367078Y-112809999D01*
X153579340Y-112809999D01*
X153599936Y-113045407D01*
X153644709Y-113212501D01*
X153661097Y-113273663D01*
X153760965Y-113487830D01*
X153896505Y-113681401D01*
X154063599Y-113848495D01*
X154249596Y-113978732D01*
X154293219Y-114033307D01*
X154300412Y-114102806D01*
X154268890Y-114165160D01*
X154249595Y-114181880D01*
X154063919Y-114311892D01*
X153896890Y-114478921D01*
X153761400Y-114672421D01*
X153661569Y-114886507D01*
X153604364Y-115099999D01*
X153604364Y-115100000D01*
X154501314Y-115100000D01*
X154475507Y-115140156D01*
X154435000Y-115278111D01*
X154435000Y-115421889D01*
X154475507Y-115559844D01*
X154501314Y-115600000D01*
X153604364Y-115600000D01*
X153661569Y-115813492D01*
X153761399Y-116027576D01*
X153896893Y-116221081D01*
X154018946Y-116343134D01*
X154052431Y-116404457D01*
X154047447Y-116474149D01*
X154005575Y-116530082D01*
X153974599Y-116546997D01*
X153842669Y-116596204D01*
X153727454Y-116682454D01*
X153641204Y-116797668D01*
X153590910Y-116932515D01*
X153590909Y-116932517D01*
X153584500Y-116992127D01*
X153584500Y-116995448D01*
X153584500Y-116995449D01*
X153584500Y-118784560D01*
X153584500Y-118784578D01*
X153584501Y-118787872D01*
X153590909Y-118847483D01*
X153641204Y-118982331D01*
X153727454Y-119097546D01*
X153842669Y-119183796D01*
X153977517Y-119234091D01*
X154037127Y-119240500D01*
X155832872Y-119240499D01*
X155892483Y-119234091D01*
X156027331Y-119183796D01*
X156142546Y-119097546D01*
X156228796Y-118982331D01*
X156279091Y-118847483D01*
X156285500Y-118787873D01*
X156285499Y-116992128D01*
X156279091Y-116932517D01*
X156228796Y-116797669D01*
X156142546Y-116682454D01*
X156027331Y-116596204D01*
X155895399Y-116546996D01*
X155839467Y-116505125D01*
X155815050Y-116439661D01*
X155829902Y-116371388D01*
X155851053Y-116343133D01*
X155973109Y-116221077D01*
X156108600Y-116027576D01*
X156208430Y-115813492D01*
X156265636Y-115600000D01*
X155368686Y-115600000D01*
X155394493Y-115559844D01*
X155435000Y-115421889D01*
X155435000Y-115278111D01*
X155394493Y-115140156D01*
X155368686Y-115100000D01*
X156265636Y-115100000D01*
X156265635Y-115099999D01*
X156208430Y-114886507D01*
X156108599Y-114672421D01*
X155973109Y-114478921D01*
X155806081Y-114311893D01*
X155620404Y-114181880D01*
X155576780Y-114127303D01*
X155569587Y-114057804D01*
X155601109Y-113995450D01*
X155620399Y-113978734D01*
X155806401Y-113848495D01*
X155973495Y-113681401D01*
X156109035Y-113487830D01*
X156208903Y-113273663D01*
X156270063Y-113045408D01*
X156290659Y-112810000D01*
X156274003Y-112619631D01*
X156270063Y-112574592D01*
X156235381Y-112445156D01*
X156208903Y-112346337D01*
X156109035Y-112132171D01*
X155973495Y-111938599D01*
X155806401Y-111771505D01*
X155620839Y-111641573D01*
X155577216Y-111586998D01*
X155570022Y-111517500D01*
X155601545Y-111455145D01*
X155620837Y-111438428D01*
X155806401Y-111308495D01*
X155973495Y-111141401D01*
X156109035Y-110947830D01*
X156208903Y-110733663D01*
X156270063Y-110505408D01*
X156290659Y-110270000D01*
X156270063Y-110034592D01*
X156208903Y-109806337D01*
X156109035Y-109592171D01*
X155973495Y-109398599D01*
X155806401Y-109231505D01*
X155612830Y-109095965D01*
X155398663Y-108996097D01*
X155337502Y-108979709D01*
X155170407Y-108934936D01*
X154935000Y-108914340D01*
X154699592Y-108934936D01*
X154471336Y-108996097D01*
X154257170Y-109095965D01*
X154063598Y-109231505D01*
X153896505Y-109398598D01*
X153760965Y-109592170D01*
X153661097Y-109806336D01*
X153599936Y-110034592D01*
X153579340Y-110270000D01*
X153599936Y-110505407D01*
X153611812Y-110549728D01*
X153661097Y-110733663D01*
X153760965Y-110947830D01*
X153896505Y-111141401D01*
X154063599Y-111308495D01*
X154249160Y-111438426D01*
X154292783Y-111493002D01*
X154299976Y-111562501D01*
X154268454Y-111624855D01*
X154249159Y-111641575D01*
X154063595Y-111771508D01*
X153896505Y-111938598D01*
X153760965Y-112132170D01*
X153661097Y-112346336D01*
X153599936Y-112574592D01*
X153579340Y-112809999D01*
X144367078Y-112809999D01*
X144332264Y-112775185D01*
X144255401Y-112726889D01*
X144179522Y-112679211D01*
X144009255Y-112619632D01*
X144009253Y-112619631D01*
X144009251Y-112619631D01*
X143830000Y-112599434D01*
X143650748Y-112619631D01*
X143650745Y-112619631D01*
X143650745Y-112619632D01*
X143480478Y-112679211D01*
X143480476Y-112679211D01*
X143480476Y-112679212D01*
X143327735Y-112775185D01*
X143200185Y-112902735D01*
X143110539Y-113045407D01*
X143104211Y-113055478D01*
X143069387Y-113155000D01*
X143044631Y-113225748D01*
X143024434Y-113405000D01*
X128017888Y-113405000D01*
X128068600Y-113332576D01*
X128168430Y-113118492D01*
X128225636Y-112905000D01*
X127328686Y-112905000D01*
X127354493Y-112864844D01*
X127395000Y-112726889D01*
X127395000Y-112583111D01*
X127354493Y-112445156D01*
X127328686Y-112405000D01*
X128225636Y-112405000D01*
X128225635Y-112404999D01*
X128168430Y-112191507D01*
X128068599Y-111977421D01*
X127933109Y-111783921D01*
X127811053Y-111661865D01*
X127777568Y-111600542D01*
X127782552Y-111530850D01*
X127824424Y-111474917D01*
X127855397Y-111458004D01*
X127987331Y-111408796D01*
X128102546Y-111322546D01*
X128188796Y-111207331D01*
X128239091Y-111072483D01*
X128245500Y-111012873D01*
X128245500Y-110728983D01*
X137208417Y-110728983D01*
X137228614Y-110908234D01*
X137228614Y-110908236D01*
X137228615Y-110908238D01*
X137288194Y-111078505D01*
X137288195Y-111078506D01*
X137384168Y-111231247D01*
X137511718Y-111358797D01*
X137511720Y-111358798D01*
X137511721Y-111358799D01*
X137664461Y-111454772D01*
X137834728Y-111514351D01*
X138013983Y-111534548D01*
X138193238Y-111514351D01*
X138363505Y-111454772D01*
X138516245Y-111358799D01*
X138643799Y-111231245D01*
X138739772Y-111078505D01*
X138799351Y-110908238D01*
X138819548Y-110728983D01*
X138799351Y-110549728D01*
X138739772Y-110379461D01*
X138643799Y-110226721D01*
X138643798Y-110226720D01*
X138643797Y-110226718D01*
X138516247Y-110099168D01*
X138453850Y-110059962D01*
X138363505Y-110003194D01*
X138193238Y-109943615D01*
X138193236Y-109943614D01*
X138193234Y-109943614D01*
X138013983Y-109923417D01*
X137834731Y-109943614D01*
X137834728Y-109943614D01*
X137834728Y-109943615D01*
X137664461Y-110003194D01*
X137664459Y-110003194D01*
X137664459Y-110003195D01*
X137511718Y-110099168D01*
X137384168Y-110226718D01*
X137288195Y-110379459D01*
X137228614Y-110549731D01*
X137208417Y-110728983D01*
X128245500Y-110728983D01*
X128245499Y-109217128D01*
X128239091Y-109157517D01*
X128188796Y-109022669D01*
X128102546Y-108907454D01*
X127987331Y-108821204D01*
X127852483Y-108770909D01*
X127792873Y-108764500D01*
X127789550Y-108764500D01*
X126000439Y-108764500D01*
X126000420Y-108764500D01*
X125997128Y-108764501D01*
X125993848Y-108764853D01*
X125993840Y-108764854D01*
X125937515Y-108770909D01*
X125802669Y-108821204D01*
X125687454Y-108907454D01*
X125601204Y-109022668D01*
X125550910Y-109157515D01*
X125550909Y-109157517D01*
X125544500Y-109217127D01*
X125544500Y-109220448D01*
X125544500Y-109220449D01*
X125544500Y-111009560D01*
X125544500Y-111009578D01*
X125544501Y-111012872D01*
X125550909Y-111072483D01*
X125601204Y-111207331D01*
X125687454Y-111322546D01*
X125802669Y-111408796D01*
X125934598Y-111458002D01*
X125990532Y-111499873D01*
X126014949Y-111565337D01*
X126000097Y-111633610D01*
X125978947Y-111661865D01*
X125856888Y-111783924D01*
X125721400Y-111977421D01*
X125621569Y-112191507D01*
X125564364Y-112404999D01*
X125564364Y-112405000D01*
X126461314Y-112405000D01*
X126435507Y-112445156D01*
X126395000Y-112583111D01*
X126395000Y-112726889D01*
X126435507Y-112864844D01*
X126461314Y-112905000D01*
X125564364Y-112905000D01*
X125621569Y-113118492D01*
X125721399Y-113332576D01*
X125856893Y-113526081D01*
X126023918Y-113693106D01*
X126209595Y-113823119D01*
X126253219Y-113877696D01*
X126260412Y-113947195D01*
X126228890Y-114009549D01*
X126209595Y-114026269D01*
X126023595Y-114156508D01*
X125856505Y-114323598D01*
X125720965Y-114517170D01*
X125621097Y-114731336D01*
X125559936Y-114959592D01*
X125539340Y-115195000D01*
X125559936Y-115430407D01*
X125594619Y-115559844D01*
X125621097Y-115658663D01*
X125720965Y-115872830D01*
X125856505Y-116066401D01*
X126023599Y-116233495D01*
X126209160Y-116363426D01*
X126252783Y-116418002D01*
X126259976Y-116487501D01*
X126228454Y-116549855D01*
X126209158Y-116566575D01*
X126095440Y-116646202D01*
X126023595Y-116696508D01*
X125856505Y-116863598D01*
X125720965Y-117057170D01*
X125621097Y-117271336D01*
X125559936Y-117499592D01*
X125539340Y-117735000D01*
X125010500Y-117735000D01*
X125010500Y-105734999D01*
X125539340Y-105734999D01*
X125559936Y-105970407D01*
X125604709Y-106137501D01*
X125621097Y-106198663D01*
X125720965Y-106412830D01*
X125856505Y-106606401D01*
X126023599Y-106773495D01*
X126217170Y-106909035D01*
X126431337Y-107008903D01*
X126659592Y-107070063D01*
X126895000Y-107090659D01*
X127130408Y-107070063D01*
X127358663Y-107008903D01*
X127572830Y-106909035D01*
X127766401Y-106773495D01*
X127933495Y-106606401D01*
X128069035Y-106412830D01*
X128168903Y-106198663D01*
X128230063Y-105970408D01*
X128250659Y-105735000D01*
X128230063Y-105499592D01*
X128170157Y-105276016D01*
X143010451Y-105276016D01*
X143030648Y-105455268D01*
X143030648Y-105455270D01*
X143030649Y-105455272D01*
X143090228Y-105625539D01*
X143090229Y-105625540D01*
X143186202Y-105778281D01*
X143313752Y-105905831D01*
X143313754Y-105905832D01*
X143313755Y-105905833D01*
X143466495Y-106001806D01*
X143636762Y-106061385D01*
X143816017Y-106081582D01*
X143995272Y-106061385D01*
X144165539Y-106001806D01*
X144318279Y-105905833D01*
X144445833Y-105778279D01*
X144541806Y-105625539D01*
X144601385Y-105455272D01*
X144621582Y-105276017D01*
X144601385Y-105096762D01*
X144541806Y-104926495D01*
X144445833Y-104773755D01*
X144445832Y-104773754D01*
X144445831Y-104773752D01*
X144318281Y-104646202D01*
X144191555Y-104566575D01*
X144165539Y-104550228D01*
X143995272Y-104490649D01*
X143995270Y-104490648D01*
X143995268Y-104490648D01*
X143816017Y-104470451D01*
X143636765Y-104490648D01*
X143636762Y-104490648D01*
X143636762Y-104490649D01*
X143466495Y-104550228D01*
X143466493Y-104550228D01*
X143466493Y-104550229D01*
X143313752Y-104646202D01*
X143186202Y-104773752D01*
X143129748Y-104863599D01*
X143090228Y-104926495D01*
X143030649Y-105096762D01*
X143030648Y-105096765D01*
X143010451Y-105276016D01*
X128170157Y-105276016D01*
X128168903Y-105271337D01*
X128069035Y-105057171D01*
X127933495Y-104863599D01*
X127766401Y-104696505D01*
X127580839Y-104566573D01*
X127537216Y-104511998D01*
X127530022Y-104442500D01*
X127561545Y-104380145D01*
X127580837Y-104363428D01*
X127766401Y-104233495D01*
X127933495Y-104066401D01*
X128069035Y-103872830D01*
X128168903Y-103658663D01*
X128230063Y-103430408D01*
X128250659Y-103195000D01*
X128242545Y-103102264D01*
X128230063Y-102959592D01*
X128181741Y-102779251D01*
X128168903Y-102731337D01*
X128107659Y-102599999D01*
X137194434Y-102599999D01*
X137214631Y-102779251D01*
X137214631Y-102779253D01*
X137214632Y-102779255D01*
X137274211Y-102949522D01*
X137317994Y-103019202D01*
X137370185Y-103102264D01*
X137497735Y-103229814D01*
X137497737Y-103229815D01*
X137497738Y-103229816D01*
X137650478Y-103325789D01*
X137820745Y-103385368D01*
X137955186Y-103400515D01*
X137999999Y-103405565D01*
X137999999Y-103405564D01*
X138000000Y-103405565D01*
X138179255Y-103385368D01*
X138349522Y-103325789D01*
X138502262Y-103229816D01*
X138629816Y-103102262D01*
X138725789Y-102949522D01*
X138785368Y-102779255D01*
X138805565Y-102600000D01*
X138785368Y-102420745D01*
X138725789Y-102250478D01*
X138629816Y-102097738D01*
X138629815Y-102097737D01*
X138629814Y-102097735D01*
X138502264Y-101970185D01*
X138439867Y-101930978D01*
X138349522Y-101874211D01*
X138179255Y-101814632D01*
X138179253Y-101814631D01*
X138179251Y-101814631D01*
X138000000Y-101794434D01*
X137820748Y-101814631D01*
X137820745Y-101814631D01*
X137820745Y-101814632D01*
X137650478Y-101874211D01*
X137650476Y-101874211D01*
X137650476Y-101874212D01*
X137497735Y-101970185D01*
X137370185Y-102097735D01*
X137299290Y-102210565D01*
X137274211Y-102250478D01*
X137252721Y-102311893D01*
X137214631Y-102420748D01*
X137194434Y-102599999D01*
X128107659Y-102599999D01*
X128069035Y-102517171D01*
X127933495Y-102323599D01*
X127766401Y-102156505D01*
X127580402Y-102026267D01*
X127536780Y-101971692D01*
X127529587Y-101902193D01*
X127561109Y-101839839D01*
X127580405Y-101823119D01*
X127766078Y-101693109D01*
X127933106Y-101526081D01*
X128017888Y-101405000D01*
X143024434Y-101405000D01*
X143044631Y-101584251D01*
X143044631Y-101584253D01*
X143044632Y-101584255D01*
X143104211Y-101754522D01*
X143129290Y-101794435D01*
X143200185Y-101907264D01*
X143327735Y-102034814D01*
X143327737Y-102034815D01*
X143327738Y-102034816D01*
X143480478Y-102130789D01*
X143650745Y-102190368D01*
X143830000Y-102210565D01*
X144009255Y-102190368D01*
X144179522Y-102130789D01*
X144332262Y-102034816D01*
X144459816Y-101907262D01*
X144555789Y-101754522D01*
X144615368Y-101584255D01*
X144635565Y-101405000D01*
X144615368Y-101225745D01*
X144555789Y-101055478D01*
X144459816Y-100902738D01*
X144459815Y-100902737D01*
X144459814Y-100902735D01*
X144367079Y-100810000D01*
X153579340Y-100810000D01*
X153599936Y-101045407D01*
X153644709Y-101212501D01*
X153661097Y-101273663D01*
X153760965Y-101487830D01*
X153896505Y-101681401D01*
X154063599Y-101848495D01*
X154249596Y-101978732D01*
X154293219Y-102033307D01*
X154300412Y-102102806D01*
X154268890Y-102165160D01*
X154249595Y-102181880D01*
X154063919Y-102311892D01*
X153896890Y-102478921D01*
X153761400Y-102672421D01*
X153661569Y-102886507D01*
X153604364Y-103099999D01*
X153604364Y-103100000D01*
X154501314Y-103100000D01*
X154475507Y-103140156D01*
X154435000Y-103278111D01*
X154435000Y-103421889D01*
X154475507Y-103559844D01*
X154501314Y-103600000D01*
X153604364Y-103600000D01*
X153661569Y-103813492D01*
X153761399Y-104027576D01*
X153896893Y-104221081D01*
X154018946Y-104343134D01*
X154052431Y-104404457D01*
X154047447Y-104474149D01*
X154005575Y-104530082D01*
X153974599Y-104546997D01*
X153842669Y-104596204D01*
X153727454Y-104682454D01*
X153641204Y-104797668D01*
X153590910Y-104932515D01*
X153590909Y-104932517D01*
X153584500Y-104992127D01*
X153584500Y-104995448D01*
X153584500Y-104995449D01*
X153584500Y-106784560D01*
X153584500Y-106784578D01*
X153584501Y-106787872D01*
X153590909Y-106847483D01*
X153641204Y-106982331D01*
X153727454Y-107097546D01*
X153842669Y-107183796D01*
X153977517Y-107234091D01*
X154037127Y-107240500D01*
X155832872Y-107240499D01*
X155892483Y-107234091D01*
X156027331Y-107183796D01*
X156142546Y-107097546D01*
X156228796Y-106982331D01*
X156279091Y-106847483D01*
X156285500Y-106787873D01*
X156285499Y-104992128D01*
X156279091Y-104932517D01*
X156228796Y-104797669D01*
X156142546Y-104682454D01*
X156027331Y-104596204D01*
X155895399Y-104546996D01*
X155839467Y-104505125D01*
X155815050Y-104439661D01*
X155829902Y-104371388D01*
X155851053Y-104343133D01*
X155973109Y-104221077D01*
X156108600Y-104027576D01*
X156208430Y-103813492D01*
X156265636Y-103600000D01*
X155368686Y-103600000D01*
X155394493Y-103559844D01*
X155435000Y-103421889D01*
X155435000Y-103278111D01*
X155394493Y-103140156D01*
X155368686Y-103100000D01*
X156265636Y-103100000D01*
X156265635Y-103099999D01*
X156208430Y-102886507D01*
X156108599Y-102672421D01*
X155973109Y-102478921D01*
X155806081Y-102311893D01*
X155620404Y-102181880D01*
X155576780Y-102127303D01*
X155569587Y-102057804D01*
X155601109Y-101995450D01*
X155620399Y-101978734D01*
X155806401Y-101848495D01*
X155973495Y-101681401D01*
X156109035Y-101487830D01*
X156208903Y-101273663D01*
X156270063Y-101045408D01*
X156290659Y-100810000D01*
X156270063Y-100574592D01*
X156208903Y-100346337D01*
X156109035Y-100132171D01*
X155973495Y-99938599D01*
X155806401Y-99771505D01*
X155620839Y-99641573D01*
X155577216Y-99586998D01*
X155570022Y-99517500D01*
X155601545Y-99455145D01*
X155620837Y-99438428D01*
X155806401Y-99308495D01*
X155973495Y-99141401D01*
X156109035Y-98947830D01*
X156208903Y-98733663D01*
X156270063Y-98505408D01*
X156290659Y-98270000D01*
X156286872Y-98226721D01*
X156270063Y-98034592D01*
X156240274Y-97923417D01*
X156208903Y-97806337D01*
X156109035Y-97592171D01*
X155973495Y-97398599D01*
X155806401Y-97231505D01*
X155612830Y-97095965D01*
X155398663Y-96996097D01*
X155337502Y-96979709D01*
X155170407Y-96934936D01*
X154934999Y-96914340D01*
X154699592Y-96934936D01*
X154471336Y-96996097D01*
X154257170Y-97095965D01*
X154063598Y-97231505D01*
X153896505Y-97398598D01*
X153760965Y-97592170D01*
X153661097Y-97806336D01*
X153599936Y-98034592D01*
X153579340Y-98270000D01*
X153599936Y-98505407D01*
X153611812Y-98549728D01*
X153661097Y-98733663D01*
X153760965Y-98947830D01*
X153896505Y-99141401D01*
X154063599Y-99308495D01*
X154249160Y-99438426D01*
X154292783Y-99493002D01*
X154299976Y-99562501D01*
X154268454Y-99624855D01*
X154249159Y-99641575D01*
X154063595Y-99771508D01*
X153896505Y-99938598D01*
X153760965Y-100132170D01*
X153661097Y-100346336D01*
X153599936Y-100574592D01*
X153579340Y-100810000D01*
X144367079Y-100810000D01*
X144332264Y-100775185D01*
X144255401Y-100726889D01*
X144179522Y-100679211D01*
X144009255Y-100619632D01*
X144009253Y-100619631D01*
X144009251Y-100619631D01*
X143830000Y-100599434D01*
X143650748Y-100619631D01*
X143650745Y-100619631D01*
X143650745Y-100619632D01*
X143480478Y-100679211D01*
X143480476Y-100679211D01*
X143480476Y-100679212D01*
X143327735Y-100775185D01*
X143200185Y-100902735D01*
X143110539Y-101045407D01*
X143104211Y-101055478D01*
X143069387Y-101155000D01*
X143044631Y-101225748D01*
X143024434Y-101405000D01*
X128017888Y-101405000D01*
X128068600Y-101332576D01*
X128168430Y-101118492D01*
X128225636Y-100905000D01*
X127328686Y-100905000D01*
X127354493Y-100864844D01*
X127395000Y-100726889D01*
X127395000Y-100583111D01*
X127354493Y-100445156D01*
X127328686Y-100405000D01*
X128225636Y-100405000D01*
X128225635Y-100404999D01*
X128168430Y-100191507D01*
X128068599Y-99977421D01*
X127933109Y-99783921D01*
X127811053Y-99661865D01*
X127777568Y-99600542D01*
X127782552Y-99530850D01*
X127824424Y-99474917D01*
X127855397Y-99458004D01*
X127987331Y-99408796D01*
X128102546Y-99322546D01*
X128188796Y-99207331D01*
X128239091Y-99072483D01*
X128245500Y-99012873D01*
X128245500Y-98728983D01*
X137208417Y-98728983D01*
X137228614Y-98908234D01*
X137228614Y-98908236D01*
X137228615Y-98908238D01*
X137288194Y-99078505D01*
X137288195Y-99078506D01*
X137384168Y-99231247D01*
X137511718Y-99358797D01*
X137511720Y-99358798D01*
X137511721Y-99358799D01*
X137664461Y-99454772D01*
X137834728Y-99514351D01*
X138013983Y-99534548D01*
X138193238Y-99514351D01*
X138363505Y-99454772D01*
X138516245Y-99358799D01*
X138643799Y-99231245D01*
X138739772Y-99078505D01*
X138799351Y-98908238D01*
X138819548Y-98728983D01*
X138799351Y-98549728D01*
X138739772Y-98379461D01*
X138643799Y-98226721D01*
X138643798Y-98226720D01*
X138643797Y-98226718D01*
X138516247Y-98099168D01*
X138453850Y-98059961D01*
X138363505Y-98003194D01*
X138193238Y-97943615D01*
X138193236Y-97943614D01*
X138193234Y-97943614D01*
X138013983Y-97923417D01*
X137834731Y-97943614D01*
X137834728Y-97943614D01*
X137834728Y-97943615D01*
X137664461Y-98003194D01*
X137664459Y-98003194D01*
X137664459Y-98003195D01*
X137511718Y-98099168D01*
X137384168Y-98226718D01*
X137288195Y-98379459D01*
X137228614Y-98549731D01*
X137208417Y-98728983D01*
X128245500Y-98728983D01*
X128245499Y-97217128D01*
X128239091Y-97157517D01*
X128188796Y-97022669D01*
X128102546Y-96907454D01*
X127987331Y-96821204D01*
X127852483Y-96770909D01*
X127792873Y-96764500D01*
X127789550Y-96764500D01*
X126000439Y-96764500D01*
X126000420Y-96764500D01*
X125997128Y-96764501D01*
X125993848Y-96764853D01*
X125993840Y-96764854D01*
X125937515Y-96770909D01*
X125802669Y-96821204D01*
X125687454Y-96907454D01*
X125601204Y-97022668D01*
X125550910Y-97157515D01*
X125550909Y-97157517D01*
X125544500Y-97217127D01*
X125544500Y-97220448D01*
X125544500Y-97220449D01*
X125544500Y-99009560D01*
X125544500Y-99009578D01*
X125544501Y-99012872D01*
X125550909Y-99072483D01*
X125601204Y-99207331D01*
X125687454Y-99322546D01*
X125802669Y-99408796D01*
X125934598Y-99458002D01*
X125990532Y-99499873D01*
X126014949Y-99565337D01*
X126000097Y-99633610D01*
X125978947Y-99661865D01*
X125856888Y-99783924D01*
X125721400Y-99977421D01*
X125621569Y-100191507D01*
X125564364Y-100404999D01*
X125564364Y-100405000D01*
X126461314Y-100405000D01*
X126435507Y-100445156D01*
X126395000Y-100583111D01*
X126395000Y-100726889D01*
X126435507Y-100864844D01*
X126461314Y-100905000D01*
X125564364Y-100905000D01*
X125621569Y-101118492D01*
X125721399Y-101332576D01*
X125856893Y-101526081D01*
X126023918Y-101693106D01*
X126209595Y-101823119D01*
X126253219Y-101877696D01*
X126260412Y-101947195D01*
X126228890Y-102009549D01*
X126209595Y-102026269D01*
X126023595Y-102156508D01*
X125856505Y-102323598D01*
X125720965Y-102517170D01*
X125621097Y-102731336D01*
X125559936Y-102959592D01*
X125539340Y-103194999D01*
X125559936Y-103430407D01*
X125594619Y-103559844D01*
X125621097Y-103658663D01*
X125720965Y-103872830D01*
X125856505Y-104066401D01*
X126023599Y-104233495D01*
X126209160Y-104363426D01*
X126252783Y-104418002D01*
X126259976Y-104487501D01*
X126228454Y-104549855D01*
X126209158Y-104566575D01*
X126095440Y-104646202D01*
X126023595Y-104696508D01*
X125856505Y-104863598D01*
X125720965Y-105057170D01*
X125621097Y-105271336D01*
X125559936Y-105499592D01*
X125539340Y-105734999D01*
X125010500Y-105734999D01*
X125010500Y-93735000D01*
X125539340Y-93735000D01*
X125559936Y-93970407D01*
X125604709Y-94137501D01*
X125621097Y-94198663D01*
X125720965Y-94412830D01*
X125856505Y-94606401D01*
X126023599Y-94773495D01*
X126217170Y-94909035D01*
X126431337Y-95008903D01*
X126659592Y-95070063D01*
X126895000Y-95090659D01*
X127130408Y-95070063D01*
X127358663Y-95008903D01*
X127572830Y-94909035D01*
X127766401Y-94773495D01*
X127933495Y-94606401D01*
X128069035Y-94412830D01*
X128168903Y-94198663D01*
X128230063Y-93970408D01*
X128250659Y-93735000D01*
X128230063Y-93499592D01*
X128170157Y-93276016D01*
X143010451Y-93276016D01*
X143030648Y-93455268D01*
X143030648Y-93455270D01*
X143030649Y-93455272D01*
X143090228Y-93625539D01*
X143090229Y-93625540D01*
X143186202Y-93778281D01*
X143313752Y-93905831D01*
X143313754Y-93905832D01*
X143313755Y-93905833D01*
X143466495Y-94001806D01*
X143636762Y-94061385D01*
X143816017Y-94081582D01*
X143995272Y-94061385D01*
X144165539Y-94001806D01*
X144318279Y-93905833D01*
X144445833Y-93778279D01*
X144541806Y-93625539D01*
X144601385Y-93455272D01*
X144621582Y-93276017D01*
X144601385Y-93096762D01*
X144541806Y-92926495D01*
X144445833Y-92773755D01*
X144445832Y-92773754D01*
X144445831Y-92773752D01*
X144318281Y-92646202D01*
X144191555Y-92566575D01*
X144165539Y-92550228D01*
X143995272Y-92490649D01*
X143995270Y-92490648D01*
X143995268Y-92490648D01*
X143816017Y-92470451D01*
X143636765Y-92490648D01*
X143636762Y-92490648D01*
X143636762Y-92490649D01*
X143466495Y-92550228D01*
X143466493Y-92550228D01*
X143466493Y-92550229D01*
X143313752Y-92646202D01*
X143186202Y-92773752D01*
X143129748Y-92863599D01*
X143090228Y-92926495D01*
X143030649Y-93096762D01*
X143030648Y-93096765D01*
X143010451Y-93276016D01*
X128170157Y-93276016D01*
X128168903Y-93271337D01*
X128069035Y-93057171D01*
X127933495Y-92863599D01*
X127766401Y-92696505D01*
X127580839Y-92566573D01*
X127537216Y-92511998D01*
X127530022Y-92442500D01*
X127561545Y-92380145D01*
X127580837Y-92363428D01*
X127766401Y-92233495D01*
X127933495Y-92066401D01*
X128069035Y-91872830D01*
X128168903Y-91658663D01*
X128230063Y-91430408D01*
X128250659Y-91195000D01*
X128242545Y-91102264D01*
X128230063Y-90959592D01*
X128181741Y-90779251D01*
X128168903Y-90731337D01*
X128107659Y-90599999D01*
X137194434Y-90599999D01*
X137214631Y-90779251D01*
X137214631Y-90779253D01*
X137214632Y-90779255D01*
X137274211Y-90949522D01*
X137317994Y-91019202D01*
X137370185Y-91102264D01*
X137497735Y-91229814D01*
X137497737Y-91229815D01*
X137497738Y-91229816D01*
X137650478Y-91325789D01*
X137820745Y-91385368D01*
X138000000Y-91405565D01*
X138179255Y-91385368D01*
X138349522Y-91325789D01*
X138502262Y-91229816D01*
X138629816Y-91102262D01*
X138725789Y-90949522D01*
X138785368Y-90779255D01*
X138805565Y-90600000D01*
X138785368Y-90420745D01*
X138725789Y-90250478D01*
X138629816Y-90097738D01*
X138629815Y-90097737D01*
X138629814Y-90097735D01*
X138502264Y-89970185D01*
X138439867Y-89930979D01*
X138349522Y-89874211D01*
X138179255Y-89814632D01*
X138179253Y-89814631D01*
X138179251Y-89814631D01*
X138000000Y-89794434D01*
X137820748Y-89814631D01*
X137820745Y-89814631D01*
X137820745Y-89814632D01*
X137650478Y-89874211D01*
X137650476Y-89874211D01*
X137650476Y-89874212D01*
X137497735Y-89970185D01*
X137370185Y-90097735D01*
X137299290Y-90210565D01*
X137274211Y-90250478D01*
X137252721Y-90311893D01*
X137214631Y-90420748D01*
X137194434Y-90599999D01*
X128107659Y-90599999D01*
X128069035Y-90517171D01*
X127933495Y-90323599D01*
X127766401Y-90156505D01*
X127580402Y-90026267D01*
X127536780Y-89971692D01*
X127529587Y-89902193D01*
X127561109Y-89839839D01*
X127580405Y-89823119D01*
X127766078Y-89693109D01*
X127933106Y-89526081D01*
X128017888Y-89405000D01*
X143024434Y-89405000D01*
X143044631Y-89584251D01*
X143044631Y-89584253D01*
X143044632Y-89584255D01*
X143104211Y-89754522D01*
X143129290Y-89794435D01*
X143200185Y-89907264D01*
X143327735Y-90034814D01*
X143327737Y-90034815D01*
X143327738Y-90034816D01*
X143480478Y-90130789D01*
X143650745Y-90190368D01*
X143830000Y-90210565D01*
X144009255Y-90190368D01*
X144179522Y-90130789D01*
X144332262Y-90034816D01*
X144459816Y-89907262D01*
X144555789Y-89754522D01*
X144615368Y-89584255D01*
X144635565Y-89405000D01*
X144615368Y-89225745D01*
X144555789Y-89055478D01*
X144459816Y-88902738D01*
X144459815Y-88902737D01*
X144459814Y-88902735D01*
X144367078Y-88809999D01*
X153579340Y-88809999D01*
X153599936Y-89045407D01*
X153644709Y-89212501D01*
X153661097Y-89273663D01*
X153760965Y-89487830D01*
X153896505Y-89681401D01*
X154063599Y-89848495D01*
X154249596Y-89978732D01*
X154293219Y-90033307D01*
X154300412Y-90102806D01*
X154268890Y-90165160D01*
X154249595Y-90181880D01*
X154063919Y-90311892D01*
X153896890Y-90478921D01*
X153761400Y-90672421D01*
X153661569Y-90886507D01*
X153604364Y-91099999D01*
X153604364Y-91100000D01*
X154501314Y-91100000D01*
X154475507Y-91140156D01*
X154435000Y-91278111D01*
X154435000Y-91421889D01*
X154475507Y-91559844D01*
X154501314Y-91600000D01*
X153604364Y-91600000D01*
X153661569Y-91813492D01*
X153761399Y-92027576D01*
X153896893Y-92221081D01*
X154018946Y-92343134D01*
X154052431Y-92404457D01*
X154047447Y-92474149D01*
X154005575Y-92530082D01*
X153974599Y-92546997D01*
X153842669Y-92596204D01*
X153727454Y-92682454D01*
X153641204Y-92797668D01*
X153590910Y-92932515D01*
X153590909Y-92932517D01*
X153584500Y-92992127D01*
X153584500Y-92995448D01*
X153584500Y-92995449D01*
X153584500Y-94784560D01*
X153584500Y-94784578D01*
X153584501Y-94787872D01*
X153590909Y-94847483D01*
X153641204Y-94982331D01*
X153727454Y-95097546D01*
X153842669Y-95183796D01*
X153977517Y-95234091D01*
X154037127Y-95240500D01*
X155832872Y-95240499D01*
X155892483Y-95234091D01*
X156027331Y-95183796D01*
X156142546Y-95097546D01*
X156228796Y-94982331D01*
X156279091Y-94847483D01*
X156285500Y-94787873D01*
X156285499Y-92992128D01*
X156279091Y-92932517D01*
X156228796Y-92797669D01*
X156142546Y-92682454D01*
X156027331Y-92596204D01*
X155895399Y-92546996D01*
X155839467Y-92505125D01*
X155815050Y-92439661D01*
X155829902Y-92371388D01*
X155851053Y-92343133D01*
X155973109Y-92221077D01*
X156108600Y-92027576D01*
X156208430Y-91813492D01*
X156265636Y-91600000D01*
X155368686Y-91600000D01*
X155394493Y-91559844D01*
X155435000Y-91421889D01*
X155435000Y-91278111D01*
X155394493Y-91140156D01*
X155368686Y-91100000D01*
X156265636Y-91100000D01*
X156265635Y-91099999D01*
X156208430Y-90886507D01*
X156108599Y-90672421D01*
X155973109Y-90478921D01*
X155806081Y-90311893D01*
X155620404Y-90181880D01*
X155576780Y-90127303D01*
X155569587Y-90057804D01*
X155601109Y-89995450D01*
X155620399Y-89978734D01*
X155806401Y-89848495D01*
X155973495Y-89681401D01*
X156109035Y-89487830D01*
X156208903Y-89273663D01*
X156270063Y-89045408D01*
X156290659Y-88810000D01*
X156274003Y-88619631D01*
X156270063Y-88574592D01*
X156235381Y-88445156D01*
X156208903Y-88346337D01*
X156109035Y-88132171D01*
X155973495Y-87938599D01*
X155806401Y-87771505D01*
X155620839Y-87641573D01*
X155577216Y-87586998D01*
X155570022Y-87517500D01*
X155601545Y-87455145D01*
X155620837Y-87438428D01*
X155806401Y-87308495D01*
X155973495Y-87141401D01*
X156109035Y-86947830D01*
X156208903Y-86733663D01*
X156270063Y-86505408D01*
X156290659Y-86270000D01*
X156270063Y-86034592D01*
X156208903Y-85806337D01*
X156109035Y-85592171D01*
X155973495Y-85398599D01*
X155806401Y-85231505D01*
X155612830Y-85095965D01*
X155398663Y-84996097D01*
X155337502Y-84979709D01*
X155170407Y-84934936D01*
X154934999Y-84914340D01*
X154699592Y-84934936D01*
X154471336Y-84996097D01*
X154257170Y-85095965D01*
X154063598Y-85231505D01*
X153896505Y-85398598D01*
X153760965Y-85592170D01*
X153661097Y-85806336D01*
X153599936Y-86034592D01*
X153579340Y-86270000D01*
X153599936Y-86505407D01*
X153611812Y-86549728D01*
X153661097Y-86733663D01*
X153760965Y-86947830D01*
X153896505Y-87141401D01*
X154063599Y-87308495D01*
X154249160Y-87438426D01*
X154292783Y-87493002D01*
X154299976Y-87562501D01*
X154268454Y-87624855D01*
X154249159Y-87641575D01*
X154063595Y-87771508D01*
X153896505Y-87938598D01*
X153760965Y-88132170D01*
X153661097Y-88346336D01*
X153599936Y-88574592D01*
X153579340Y-88809999D01*
X144367078Y-88809999D01*
X144332264Y-88775185D01*
X144255401Y-88726889D01*
X144179522Y-88679211D01*
X144009255Y-88619632D01*
X144009253Y-88619631D01*
X144009251Y-88619631D01*
X143830000Y-88599434D01*
X143650748Y-88619631D01*
X143650745Y-88619631D01*
X143650745Y-88619632D01*
X143480478Y-88679211D01*
X143480476Y-88679211D01*
X143480476Y-88679212D01*
X143327735Y-88775185D01*
X143200185Y-88902735D01*
X143110539Y-89045407D01*
X143104211Y-89055478D01*
X143069387Y-89155000D01*
X143044631Y-89225748D01*
X143024434Y-89405000D01*
X128017888Y-89405000D01*
X128068600Y-89332576D01*
X128168430Y-89118492D01*
X128225636Y-88905000D01*
X127328686Y-88905000D01*
X127354493Y-88864844D01*
X127395000Y-88726889D01*
X127395000Y-88583111D01*
X127354493Y-88445156D01*
X127328686Y-88405000D01*
X128225636Y-88405000D01*
X128225635Y-88404999D01*
X128168430Y-88191507D01*
X128068599Y-87977421D01*
X127933109Y-87783921D01*
X127811053Y-87661865D01*
X127777568Y-87600542D01*
X127782552Y-87530850D01*
X127824424Y-87474917D01*
X127855397Y-87458004D01*
X127987331Y-87408796D01*
X128102546Y-87322546D01*
X128188796Y-87207331D01*
X128239091Y-87072483D01*
X128245500Y-87012873D01*
X128245500Y-86728983D01*
X137208417Y-86728983D01*
X137228614Y-86908234D01*
X137228614Y-86908236D01*
X137228615Y-86908238D01*
X137288194Y-87078505D01*
X137288195Y-87078506D01*
X137384168Y-87231247D01*
X137511718Y-87358797D01*
X137511720Y-87358798D01*
X137511721Y-87358799D01*
X137664461Y-87454772D01*
X137834728Y-87514351D01*
X138013983Y-87534548D01*
X138193238Y-87514351D01*
X138363505Y-87454772D01*
X138516245Y-87358799D01*
X138643799Y-87231245D01*
X138739772Y-87078505D01*
X138799351Y-86908238D01*
X138819548Y-86728983D01*
X138799351Y-86549728D01*
X138739772Y-86379461D01*
X138643799Y-86226721D01*
X138643798Y-86226720D01*
X138643797Y-86226718D01*
X138516247Y-86099168D01*
X138453850Y-86059961D01*
X138363505Y-86003194D01*
X138193238Y-85943615D01*
X138193236Y-85943614D01*
X138193234Y-85943614D01*
X138013983Y-85923417D01*
X137834731Y-85943614D01*
X137834728Y-85943614D01*
X137834728Y-85943615D01*
X137664461Y-86003194D01*
X137664459Y-86003194D01*
X137664459Y-86003195D01*
X137511718Y-86099168D01*
X137384168Y-86226718D01*
X137288195Y-86379459D01*
X137228614Y-86549731D01*
X137208417Y-86728983D01*
X128245500Y-86728983D01*
X128245499Y-85217128D01*
X128239091Y-85157517D01*
X128188796Y-85022669D01*
X128102546Y-84907454D01*
X127987331Y-84821204D01*
X127852483Y-84770909D01*
X127792873Y-84764500D01*
X127789550Y-84764500D01*
X126000439Y-84764500D01*
X126000420Y-84764500D01*
X125997128Y-84764501D01*
X125993848Y-84764853D01*
X125993840Y-84764854D01*
X125937515Y-84770909D01*
X125802669Y-84821204D01*
X125687454Y-84907454D01*
X125601204Y-85022668D01*
X125550910Y-85157515D01*
X125550909Y-85157517D01*
X125544500Y-85217127D01*
X125544500Y-85220448D01*
X125544500Y-85220449D01*
X125544500Y-87009560D01*
X125544500Y-87009578D01*
X125544501Y-87012872D01*
X125550909Y-87072483D01*
X125601204Y-87207331D01*
X125687454Y-87322546D01*
X125802669Y-87408796D01*
X125934598Y-87458002D01*
X125990532Y-87499873D01*
X126014949Y-87565337D01*
X126000097Y-87633610D01*
X125978947Y-87661865D01*
X125856888Y-87783924D01*
X125721400Y-87977421D01*
X125621569Y-88191507D01*
X125564364Y-88404999D01*
X125564364Y-88405000D01*
X126461314Y-88405000D01*
X126435507Y-88445156D01*
X126395000Y-88583111D01*
X126395000Y-88726889D01*
X126435507Y-88864844D01*
X126461314Y-88905000D01*
X125564364Y-88905000D01*
X125621569Y-89118492D01*
X125721399Y-89332576D01*
X125856893Y-89526081D01*
X126023918Y-89693106D01*
X126209595Y-89823119D01*
X126253219Y-89877696D01*
X126260412Y-89947195D01*
X126228890Y-90009549D01*
X126209595Y-90026269D01*
X126023595Y-90156508D01*
X125856505Y-90323598D01*
X125720965Y-90517170D01*
X125621097Y-90731336D01*
X125559936Y-90959592D01*
X125539340Y-91194999D01*
X125559936Y-91430407D01*
X125594619Y-91559844D01*
X125621097Y-91658663D01*
X125720965Y-91872830D01*
X125856505Y-92066401D01*
X126023599Y-92233495D01*
X126209160Y-92363426D01*
X126252783Y-92418002D01*
X126259976Y-92487501D01*
X126228454Y-92549855D01*
X126209158Y-92566575D01*
X126095440Y-92646202D01*
X126023595Y-92696508D01*
X125856505Y-92863598D01*
X125720965Y-93057170D01*
X125621097Y-93271336D01*
X125559936Y-93499592D01*
X125539340Y-93735000D01*
X125010500Y-93735000D01*
X125010500Y-81735000D01*
X125539340Y-81735000D01*
X125559936Y-81970407D01*
X125604709Y-82137502D01*
X125621097Y-82198663D01*
X125720965Y-82412830D01*
X125856505Y-82606401D01*
X126023599Y-82773495D01*
X126217170Y-82909035D01*
X126431337Y-83008903D01*
X126659591Y-83070063D01*
X126659592Y-83070063D01*
X126894999Y-83090659D01*
X126894999Y-83090658D01*
X126895000Y-83090659D01*
X127130408Y-83070063D01*
X127358663Y-83008903D01*
X127572830Y-82909035D01*
X127766401Y-82773495D01*
X127933495Y-82606401D01*
X128069035Y-82412830D01*
X128168903Y-82198663D01*
X128230063Y-81970408D01*
X128250659Y-81735000D01*
X128230063Y-81499592D01*
X128170157Y-81276016D01*
X143010451Y-81276016D01*
X143030648Y-81455268D01*
X143030648Y-81455270D01*
X143030649Y-81455272D01*
X143090228Y-81625539D01*
X143090229Y-81625540D01*
X143186202Y-81778281D01*
X143313752Y-81905831D01*
X143313754Y-81905832D01*
X143313755Y-81905833D01*
X143466495Y-82001806D01*
X143636762Y-82061385D01*
X143816017Y-82081582D01*
X143995272Y-82061385D01*
X144165539Y-82001806D01*
X144318279Y-81905833D01*
X144445833Y-81778279D01*
X144541806Y-81625539D01*
X144601385Y-81455272D01*
X144621582Y-81276017D01*
X144601385Y-81096762D01*
X144541806Y-80926495D01*
X144445833Y-80773755D01*
X144445832Y-80773754D01*
X144445831Y-80773752D01*
X144318281Y-80646202D01*
X144191555Y-80566575D01*
X144165539Y-80550228D01*
X143995272Y-80490649D01*
X143995270Y-80490648D01*
X143995268Y-80490648D01*
X143816017Y-80470451D01*
X143636765Y-80490648D01*
X143636762Y-80490648D01*
X143636762Y-80490649D01*
X143466495Y-80550228D01*
X143466493Y-80550228D01*
X143466493Y-80550229D01*
X143313752Y-80646202D01*
X143186202Y-80773752D01*
X143129748Y-80863599D01*
X143090228Y-80926495D01*
X143030649Y-81096762D01*
X143030648Y-81096765D01*
X143010451Y-81276016D01*
X128170157Y-81276016D01*
X128168903Y-81271337D01*
X128069035Y-81057171D01*
X127933495Y-80863599D01*
X127766401Y-80696505D01*
X127580839Y-80566573D01*
X127537216Y-80511998D01*
X127530022Y-80442500D01*
X127561545Y-80380145D01*
X127580837Y-80363428D01*
X127766401Y-80233495D01*
X127933495Y-80066401D01*
X128069035Y-79872830D01*
X128168903Y-79658663D01*
X128230063Y-79430408D01*
X128250659Y-79195000D01*
X128230063Y-78959592D01*
X128168903Y-78731337D01*
X128107659Y-78599999D01*
X137194434Y-78599999D01*
X137214631Y-78779251D01*
X137214631Y-78779253D01*
X137214632Y-78779255D01*
X137274211Y-78949522D01*
X137317994Y-79019202D01*
X137370185Y-79102264D01*
X137497735Y-79229814D01*
X137497737Y-79229815D01*
X137497738Y-79229816D01*
X137650478Y-79325789D01*
X137820745Y-79385368D01*
X138000000Y-79405565D01*
X138179255Y-79385368D01*
X138349522Y-79325789D01*
X138502262Y-79229816D01*
X138629816Y-79102262D01*
X138725789Y-78949522D01*
X138785368Y-78779255D01*
X138805565Y-78600000D01*
X138785368Y-78420745D01*
X138725789Y-78250478D01*
X138629816Y-78097738D01*
X138629815Y-78097737D01*
X138629814Y-78097735D01*
X138502264Y-77970185D01*
X138439867Y-77930979D01*
X138349522Y-77874211D01*
X138179255Y-77814632D01*
X138179253Y-77814631D01*
X138179251Y-77814631D01*
X138000000Y-77794434D01*
X137820748Y-77814631D01*
X137820745Y-77814631D01*
X137820745Y-77814632D01*
X137650478Y-77874211D01*
X137650476Y-77874211D01*
X137650476Y-77874212D01*
X137497735Y-77970185D01*
X137370185Y-78097735D01*
X137299290Y-78210565D01*
X137274211Y-78250478D01*
X137252721Y-78311893D01*
X137214631Y-78420748D01*
X137194434Y-78599999D01*
X128107659Y-78599999D01*
X128069035Y-78517171D01*
X127933495Y-78323599D01*
X127766401Y-78156505D01*
X127580402Y-78026267D01*
X127536780Y-77971692D01*
X127529587Y-77902193D01*
X127561109Y-77839839D01*
X127580405Y-77823119D01*
X127766078Y-77693109D01*
X127933106Y-77526081D01*
X128017888Y-77405000D01*
X143024434Y-77405000D01*
X143044631Y-77584251D01*
X143044631Y-77584253D01*
X143044632Y-77584255D01*
X143104211Y-77754522D01*
X143129290Y-77794435D01*
X143200185Y-77907264D01*
X143327735Y-78034814D01*
X143327737Y-78034815D01*
X143327738Y-78034816D01*
X143480478Y-78130789D01*
X143650745Y-78190368D01*
X143830000Y-78210565D01*
X144009255Y-78190368D01*
X144179522Y-78130789D01*
X144332262Y-78034816D01*
X144459816Y-77907262D01*
X144555789Y-77754522D01*
X144615368Y-77584255D01*
X144635565Y-77405000D01*
X144615368Y-77225745D01*
X144592017Y-77159014D01*
X144588457Y-77089237D01*
X144623186Y-77028609D01*
X144685179Y-76996382D01*
X144695171Y-76994841D01*
X144779255Y-76985368D01*
X144949522Y-76925789D01*
X145102262Y-76829816D01*
X145122079Y-76809999D01*
X153579340Y-76809999D01*
X153599936Y-77045407D01*
X153644709Y-77212501D01*
X153661097Y-77273663D01*
X153760965Y-77487830D01*
X153896505Y-77681401D01*
X154063599Y-77848495D01*
X154249596Y-77978732D01*
X154293219Y-78033307D01*
X154300412Y-78102806D01*
X154268890Y-78165160D01*
X154249595Y-78181880D01*
X154063919Y-78311892D01*
X153896890Y-78478921D01*
X153761400Y-78672421D01*
X153661569Y-78886507D01*
X153604364Y-79099999D01*
X153604364Y-79100000D01*
X154501314Y-79100000D01*
X154475507Y-79140156D01*
X154435000Y-79278111D01*
X154435000Y-79421889D01*
X154475507Y-79559844D01*
X154501314Y-79600000D01*
X153604364Y-79600000D01*
X153661569Y-79813492D01*
X153761399Y-80027576D01*
X153896893Y-80221081D01*
X154018946Y-80343134D01*
X154052431Y-80404457D01*
X154047447Y-80474149D01*
X154005575Y-80530082D01*
X153974599Y-80546997D01*
X153842669Y-80596204D01*
X153727454Y-80682454D01*
X153641204Y-80797668D01*
X153590910Y-80932515D01*
X153590909Y-80932517D01*
X153584500Y-80992127D01*
X153584500Y-80995448D01*
X153584500Y-80995449D01*
X153584500Y-82784560D01*
X153584500Y-82784578D01*
X153584501Y-82787872D01*
X153590909Y-82847483D01*
X153641204Y-82982331D01*
X153727454Y-83097546D01*
X153842669Y-83183796D01*
X153977517Y-83234091D01*
X154037127Y-83240500D01*
X155832872Y-83240499D01*
X155892483Y-83234091D01*
X156027331Y-83183796D01*
X156142546Y-83097546D01*
X156228796Y-82982331D01*
X156279091Y-82847483D01*
X156285500Y-82787873D01*
X156285499Y-80992128D01*
X156279091Y-80932517D01*
X156228796Y-80797669D01*
X156142546Y-80682454D01*
X156027331Y-80596204D01*
X155895399Y-80546996D01*
X155839467Y-80505125D01*
X155815050Y-80439661D01*
X155829902Y-80371388D01*
X155851053Y-80343133D01*
X155973109Y-80221077D01*
X156108600Y-80027576D01*
X156208430Y-79813492D01*
X156265636Y-79600000D01*
X155368686Y-79600000D01*
X155394493Y-79559844D01*
X155435000Y-79421889D01*
X155435000Y-79278111D01*
X155394493Y-79140156D01*
X155368686Y-79100000D01*
X156265636Y-79100000D01*
X156265635Y-79099999D01*
X156208430Y-78886507D01*
X156108599Y-78672421D01*
X155973109Y-78478921D01*
X155806081Y-78311893D01*
X155620404Y-78181880D01*
X155576780Y-78127303D01*
X155569587Y-78057804D01*
X155601109Y-77995450D01*
X155620399Y-77978734D01*
X155806401Y-77848495D01*
X155973495Y-77681401D01*
X156109035Y-77487830D01*
X156208903Y-77273663D01*
X156270063Y-77045408D01*
X156290659Y-76810000D01*
X156274003Y-76619631D01*
X156270063Y-76574592D01*
X156235381Y-76445156D01*
X156208903Y-76346337D01*
X156109035Y-76132171D01*
X155973495Y-75938599D01*
X155806401Y-75771505D01*
X155620839Y-75641573D01*
X155577216Y-75586998D01*
X155570022Y-75517500D01*
X155601545Y-75455145D01*
X155620837Y-75438428D01*
X155806401Y-75308495D01*
X155973495Y-75141401D01*
X156109035Y-74947830D01*
X156208903Y-74733663D01*
X156270063Y-74505408D01*
X156290659Y-74270000D01*
X156286872Y-74226721D01*
X156270063Y-74034592D01*
X156240274Y-73923417D01*
X156208903Y-73806337D01*
X156109035Y-73592171D01*
X155973495Y-73398599D01*
X155806401Y-73231505D01*
X155612830Y-73095965D01*
X155398663Y-72996097D01*
X155337502Y-72979709D01*
X155170407Y-72934936D01*
X154934999Y-72914340D01*
X154699592Y-72934936D01*
X154471336Y-72996097D01*
X154257170Y-73095965D01*
X154063598Y-73231505D01*
X153896505Y-73398598D01*
X153760965Y-73592170D01*
X153661097Y-73806336D01*
X153599936Y-74034592D01*
X153579340Y-74269999D01*
X153599936Y-74505407D01*
X153611812Y-74549728D01*
X153661097Y-74733663D01*
X153760965Y-74947830D01*
X153896505Y-75141401D01*
X154063599Y-75308495D01*
X154249160Y-75438426D01*
X154292783Y-75493002D01*
X154299976Y-75562501D01*
X154268454Y-75624855D01*
X154249159Y-75641575D01*
X154063595Y-75771508D01*
X153896505Y-75938598D01*
X153760965Y-76132170D01*
X153661097Y-76346336D01*
X153599936Y-76574592D01*
X153579340Y-76809999D01*
X145122079Y-76809999D01*
X145229816Y-76702262D01*
X145325789Y-76549522D01*
X145385368Y-76379255D01*
X145405565Y-76200000D01*
X145385368Y-76020745D01*
X145325789Y-75850478D01*
X145229816Y-75697738D01*
X145229815Y-75697737D01*
X145229814Y-75697735D01*
X145102264Y-75570185D01*
X145013404Y-75514351D01*
X144949522Y-75474211D01*
X144779255Y-75414632D01*
X144779253Y-75414631D01*
X144779251Y-75414631D01*
X144600000Y-75394434D01*
X144420748Y-75414631D01*
X144420745Y-75414631D01*
X144420745Y-75414632D01*
X144250478Y-75474211D01*
X144250476Y-75474211D01*
X144250476Y-75474212D01*
X144097735Y-75570185D01*
X143970185Y-75697735D01*
X143874212Y-75850476D01*
X143874211Y-75850478D01*
X143843376Y-75938599D01*
X143814631Y-76020748D01*
X143794434Y-76199999D01*
X143814631Y-76379253D01*
X143837981Y-76445984D01*
X143841542Y-76515763D01*
X143806813Y-76576390D01*
X143744819Y-76608617D01*
X143734823Y-76610158D01*
X143650749Y-76619631D01*
X143650746Y-76619631D01*
X143650745Y-76619632D01*
X143480478Y-76679211D01*
X143480476Y-76679211D01*
X143480476Y-76679212D01*
X143327735Y-76775185D01*
X143200185Y-76902735D01*
X143135573Y-77005565D01*
X143104211Y-77055478D01*
X143069387Y-77155000D01*
X143044631Y-77225748D01*
X143024434Y-77405000D01*
X128017888Y-77405000D01*
X128068600Y-77332576D01*
X128168430Y-77118492D01*
X128225636Y-76905000D01*
X127328686Y-76905000D01*
X127354493Y-76864844D01*
X127395000Y-76726889D01*
X127395000Y-76583111D01*
X127354493Y-76445156D01*
X127328686Y-76405000D01*
X128225636Y-76405000D01*
X128225635Y-76404999D01*
X128168430Y-76191507D01*
X128068599Y-75977421D01*
X127933109Y-75783921D01*
X127811053Y-75661865D01*
X127777568Y-75600542D01*
X127782552Y-75530850D01*
X127824424Y-75474917D01*
X127855397Y-75458004D01*
X127987331Y-75408796D01*
X128102546Y-75322546D01*
X128188796Y-75207331D01*
X128239091Y-75072483D01*
X128245500Y-75012873D01*
X128245500Y-74728983D01*
X137208417Y-74728983D01*
X137228614Y-74908234D01*
X137228614Y-74908236D01*
X137228615Y-74908238D01*
X137288194Y-75078505D01*
X137288195Y-75078506D01*
X137384168Y-75231247D01*
X137511718Y-75358797D01*
X137511720Y-75358798D01*
X137511721Y-75358799D01*
X137664461Y-75454772D01*
X137834728Y-75514351D01*
X138013983Y-75534548D01*
X138193238Y-75514351D01*
X138363505Y-75454772D01*
X138516245Y-75358799D01*
X138643799Y-75231245D01*
X138739772Y-75078505D01*
X138799351Y-74908238D01*
X138819548Y-74728983D01*
X138799351Y-74549728D01*
X138739772Y-74379461D01*
X138643799Y-74226721D01*
X138643798Y-74226720D01*
X138643797Y-74226718D01*
X138516247Y-74099168D01*
X138453850Y-74059961D01*
X138363505Y-74003194D01*
X138193238Y-73943615D01*
X138193236Y-73943614D01*
X138193234Y-73943614D01*
X138013983Y-73923417D01*
X137834731Y-73943614D01*
X137834728Y-73943614D01*
X137834728Y-73943615D01*
X137664461Y-74003194D01*
X137664459Y-74003194D01*
X137664459Y-74003195D01*
X137511718Y-74099168D01*
X137384168Y-74226718D01*
X137288195Y-74379459D01*
X137228614Y-74549731D01*
X137208417Y-74728983D01*
X128245500Y-74728983D01*
X128245499Y-73217128D01*
X128239091Y-73157517D01*
X128188796Y-73022669D01*
X128102546Y-72907454D01*
X127987331Y-72821204D01*
X127852483Y-72770909D01*
X127792873Y-72764500D01*
X127789550Y-72764500D01*
X126000439Y-72764500D01*
X126000420Y-72764500D01*
X125997128Y-72764501D01*
X125993848Y-72764853D01*
X125993840Y-72764854D01*
X125937515Y-72770909D01*
X125802669Y-72821204D01*
X125687454Y-72907454D01*
X125601204Y-73022668D01*
X125550910Y-73157515D01*
X125550909Y-73157517D01*
X125544500Y-73217127D01*
X125544500Y-73220448D01*
X125544500Y-73220449D01*
X125544500Y-75009560D01*
X125544500Y-75009578D01*
X125544501Y-75012872D01*
X125550909Y-75072483D01*
X125601204Y-75207331D01*
X125687454Y-75322546D01*
X125802669Y-75408796D01*
X125934598Y-75458002D01*
X125990532Y-75499873D01*
X126014949Y-75565337D01*
X126000097Y-75633610D01*
X125978947Y-75661865D01*
X125856888Y-75783924D01*
X125721400Y-75977421D01*
X125621569Y-76191507D01*
X125564364Y-76404999D01*
X125564364Y-76405000D01*
X126461314Y-76405000D01*
X126435507Y-76445156D01*
X126395000Y-76583111D01*
X126395000Y-76726889D01*
X126435507Y-76864844D01*
X126461314Y-76905000D01*
X125564364Y-76905000D01*
X125621569Y-77118492D01*
X125721399Y-77332576D01*
X125856893Y-77526081D01*
X126023918Y-77693106D01*
X126209595Y-77823119D01*
X126253219Y-77877696D01*
X126260412Y-77947195D01*
X126228890Y-78009549D01*
X126209595Y-78026269D01*
X126023595Y-78156508D01*
X125856505Y-78323598D01*
X125720965Y-78517170D01*
X125621097Y-78731336D01*
X125559936Y-78959592D01*
X125539340Y-79194999D01*
X125559936Y-79430407D01*
X125594619Y-79559844D01*
X125621097Y-79658663D01*
X125720965Y-79872830D01*
X125856505Y-80066401D01*
X126023599Y-80233495D01*
X126209160Y-80363426D01*
X126252783Y-80418002D01*
X126259976Y-80487501D01*
X126228454Y-80549855D01*
X126209158Y-80566575D01*
X126095440Y-80646202D01*
X126023595Y-80696508D01*
X125856505Y-80863598D01*
X125720965Y-81057170D01*
X125621097Y-81271336D01*
X125559936Y-81499592D01*
X125539340Y-81735000D01*
X125010500Y-81735000D01*
X125010500Y-70894578D01*
X130649500Y-70894578D01*
X130649501Y-70897872D01*
X130649853Y-70901152D01*
X130649854Y-70901159D01*
X130655909Y-70957484D01*
X130681056Y-71024906D01*
X130706204Y-71092331D01*
X130792454Y-71207546D01*
X130907669Y-71293796D01*
X131042517Y-71344091D01*
X131102127Y-71350500D01*
X132897872Y-71350499D01*
X132957483Y-71344091D01*
X133092331Y-71293796D01*
X133207546Y-71207546D01*
X133293796Y-71092331D01*
X133342810Y-70960916D01*
X133384681Y-70904983D01*
X133450146Y-70880566D01*
X133518419Y-70895418D01*
X133546673Y-70916569D01*
X133668599Y-71038495D01*
X133862170Y-71174035D01*
X134076337Y-71273903D01*
X134304592Y-71335063D01*
X134540000Y-71355659D01*
X134775408Y-71335063D01*
X135003663Y-71273903D01*
X135217830Y-71174035D01*
X135411401Y-71038495D01*
X135578495Y-70871401D01*
X135708426Y-70685839D01*
X135763002Y-70642216D01*
X135832500Y-70635022D01*
X135894855Y-70666545D01*
X135911571Y-70685837D01*
X136041505Y-70871401D01*
X136208599Y-71038495D01*
X136402170Y-71174035D01*
X136616337Y-71273903D01*
X136844591Y-71335062D01*
X136844592Y-71335063D01*
X137079999Y-71355659D01*
X137079999Y-71355658D01*
X137080000Y-71355659D01*
X137315408Y-71335063D01*
X137543663Y-71273903D01*
X137757830Y-71174035D01*
X137951401Y-71038495D01*
X138118495Y-70871401D01*
X138248426Y-70685839D01*
X138303002Y-70642216D01*
X138372500Y-70635022D01*
X138434855Y-70666545D01*
X138451571Y-70685837D01*
X138581505Y-70871401D01*
X138748599Y-71038495D01*
X138942170Y-71174035D01*
X139156337Y-71273903D01*
X139384592Y-71335062D01*
X139384592Y-71335063D01*
X139619999Y-71355659D01*
X139619999Y-71355658D01*
X139620000Y-71355659D01*
X139855408Y-71335063D01*
X140083663Y-71273903D01*
X140297830Y-71174035D01*
X140491401Y-71038495D01*
X140658495Y-70871401D01*
X140788426Y-70685839D01*
X140843002Y-70642216D01*
X140912500Y-70635022D01*
X140974855Y-70666545D01*
X140991571Y-70685837D01*
X141121505Y-70871401D01*
X141288599Y-71038495D01*
X141482170Y-71174035D01*
X141696337Y-71273903D01*
X141924592Y-71335063D01*
X142160000Y-71355659D01*
X142395408Y-71335063D01*
X142623663Y-71273903D01*
X142837830Y-71174035D01*
X143031401Y-71038495D01*
X143198495Y-70871401D01*
X143328426Y-70685839D01*
X143383002Y-70642216D01*
X143452500Y-70635022D01*
X143514855Y-70666545D01*
X143531571Y-70685837D01*
X143661505Y-70871401D01*
X143828599Y-71038495D01*
X144022170Y-71174035D01*
X144236337Y-71273903D01*
X144464592Y-71335063D01*
X144700000Y-71355659D01*
X144935408Y-71335063D01*
X145163663Y-71273903D01*
X145377830Y-71174035D01*
X145571401Y-71038495D01*
X145738495Y-70871401D01*
X145868426Y-70685839D01*
X145923002Y-70642217D01*
X145992501Y-70635024D01*
X146054855Y-70666546D01*
X146071571Y-70685837D01*
X146201505Y-70871401D01*
X146368599Y-71038495D01*
X146562170Y-71174035D01*
X146776337Y-71273903D01*
X147004592Y-71335063D01*
X147240000Y-71355659D01*
X147475408Y-71335063D01*
X147703663Y-71273903D01*
X147917830Y-71174035D01*
X148111401Y-71038495D01*
X148278495Y-70871401D01*
X148408426Y-70685839D01*
X148463002Y-70642216D01*
X148532500Y-70635022D01*
X148594855Y-70666545D01*
X148611571Y-70685837D01*
X148741505Y-70871401D01*
X148908599Y-71038495D01*
X149102170Y-71174035D01*
X149316337Y-71273903D01*
X149544592Y-71335063D01*
X149780000Y-71355659D01*
X150015408Y-71335063D01*
X150243663Y-71273903D01*
X150457830Y-71174035D01*
X150651401Y-71038495D01*
X150818495Y-70871401D01*
X150954035Y-70677830D01*
X151053903Y-70463663D01*
X151115063Y-70235408D01*
X151135659Y-70000000D01*
X151115063Y-69764592D01*
X151053903Y-69536337D01*
X150954035Y-69322171D01*
X150818495Y-69128599D01*
X150651401Y-68961505D01*
X150457830Y-68825965D01*
X150243663Y-68726097D01*
X150169540Y-68706236D01*
X150015407Y-68664936D01*
X149780000Y-68644340D01*
X149544592Y-68664936D01*
X149316336Y-68726097D01*
X149102170Y-68825965D01*
X148908598Y-68961505D01*
X148741505Y-69128598D01*
X148611575Y-69314159D01*
X148556998Y-69357784D01*
X148487500Y-69364978D01*
X148425145Y-69333455D01*
X148408425Y-69314159D01*
X148278494Y-69128598D01*
X148111404Y-68961508D01*
X148111403Y-68961507D01*
X148111401Y-68961505D01*
X147917830Y-68825965D01*
X147703663Y-68726097D01*
X147629540Y-68706236D01*
X147475407Y-68664936D01*
X147240000Y-68644340D01*
X147004592Y-68664936D01*
X146776336Y-68726097D01*
X146562170Y-68825965D01*
X146368598Y-68961505D01*
X146201505Y-69128598D01*
X146071575Y-69314159D01*
X146016998Y-69357784D01*
X145947500Y-69364978D01*
X145885145Y-69333455D01*
X145868425Y-69314159D01*
X145738494Y-69128598D01*
X145571404Y-68961508D01*
X145571404Y-68961507D01*
X145571401Y-68961505D01*
X145377830Y-68825965D01*
X145377826Y-68825963D01*
X145377825Y-68825962D01*
X145351693Y-68813777D01*
X145299253Y-68767605D01*
X145280101Y-68700412D01*
X145300317Y-68633530D01*
X145344181Y-68595521D01*
X145343692Y-68594822D01*
X145350448Y-68590090D01*
X145351695Y-68589011D01*
X145352580Y-68588597D01*
X145546081Y-68453106D01*
X145713106Y-68286081D01*
X145848600Y-68092576D01*
X145948430Y-67878492D01*
X146005636Y-67665000D01*
X145108686Y-67665000D01*
X145134493Y-67624844D01*
X145175000Y-67486889D01*
X145175000Y-67343111D01*
X145134493Y-67205156D01*
X145108686Y-67165000D01*
X146005636Y-67165000D01*
X146005635Y-67164999D01*
X145948430Y-66951507D01*
X145848599Y-66737421D01*
X145713109Y-66543921D01*
X145546081Y-66376893D01*
X145352576Y-66241399D01*
X145138492Y-66141569D01*
X144925000Y-66084364D01*
X144925000Y-66979498D01*
X144817315Y-66930320D01*
X144710763Y-66915000D01*
X144639237Y-66915000D01*
X144532685Y-66930320D01*
X144425000Y-66979498D01*
X144425000Y-66084364D01*
X144424999Y-66084364D01*
X144211507Y-66141569D01*
X143997421Y-66241400D01*
X143803924Y-66376888D01*
X143681865Y-66498947D01*
X143620542Y-66532431D01*
X143550850Y-66527447D01*
X143494917Y-66485575D01*
X143478002Y-66454598D01*
X143475612Y-66448189D01*
X143428796Y-66322669D01*
X143342546Y-66207454D01*
X143227331Y-66121204D01*
X143092483Y-66070909D01*
X143032873Y-66064500D01*
X143029550Y-66064500D01*
X141240439Y-66064500D01*
X141240420Y-66064500D01*
X141237128Y-66064501D01*
X141233848Y-66064853D01*
X141233840Y-66064854D01*
X141177515Y-66070909D01*
X141042669Y-66121204D01*
X140927454Y-66207454D01*
X140841204Y-66322668D01*
X140790909Y-66457516D01*
X140786455Y-66498947D01*
X140784500Y-66517127D01*
X140784500Y-66520448D01*
X140784500Y-66520449D01*
X140784500Y-68309560D01*
X140784500Y-68309578D01*
X140784501Y-68312872D01*
X140784853Y-68316152D01*
X140784854Y-68316159D01*
X140790909Y-68372484D01*
X140816056Y-68439906D01*
X140841204Y-68507331D01*
X140927454Y-68622546D01*
X141042669Y-68708796D01*
X141177517Y-68759091D01*
X141202887Y-68761818D01*
X141267438Y-68788555D01*
X141307287Y-68845947D01*
X141309782Y-68915772D01*
X141277315Y-68972789D01*
X141121503Y-69128601D01*
X140991575Y-69314159D01*
X140936998Y-69357784D01*
X140867500Y-69364978D01*
X140805145Y-69333455D01*
X140788425Y-69314159D01*
X140658494Y-69128598D01*
X140491404Y-68961508D01*
X140491403Y-68961507D01*
X140491401Y-68961505D01*
X140297830Y-68825965D01*
X140083663Y-68726097D01*
X140009540Y-68706236D01*
X139855407Y-68664936D01*
X139619999Y-68644340D01*
X139384592Y-68664936D01*
X139156336Y-68726097D01*
X138942170Y-68825965D01*
X138748598Y-68961505D01*
X138581505Y-69128598D01*
X138451575Y-69314159D01*
X138396998Y-69357784D01*
X138327500Y-69364978D01*
X138265145Y-69333455D01*
X138248425Y-69314159D01*
X138118494Y-69128598D01*
X137951404Y-68961508D01*
X137951404Y-68961507D01*
X137951401Y-68961505D01*
X137757830Y-68825965D01*
X137744189Y-68819604D01*
X137691751Y-68773430D01*
X137672601Y-68706236D01*
X137692818Y-68639355D01*
X137744197Y-68594839D01*
X137757577Y-68588600D01*
X137951081Y-68453106D01*
X138118106Y-68286081D01*
X138253600Y-68092576D01*
X138353430Y-67878492D01*
X138410636Y-67665000D01*
X137513686Y-67665000D01*
X137539493Y-67624844D01*
X137580000Y-67486889D01*
X137580000Y-67343111D01*
X137539493Y-67205156D01*
X137513686Y-67165000D01*
X138410636Y-67165000D01*
X138410635Y-67164999D01*
X138353430Y-66951507D01*
X138253599Y-66737421D01*
X138118109Y-66543921D01*
X137951081Y-66376893D01*
X137757576Y-66241399D01*
X137543492Y-66141569D01*
X137330000Y-66084364D01*
X137330000Y-66979498D01*
X137222315Y-66930320D01*
X137115763Y-66915000D01*
X137044237Y-66915000D01*
X136937685Y-66930320D01*
X136830000Y-66979498D01*
X136830000Y-66084364D01*
X136829999Y-66084364D01*
X136616507Y-66141569D01*
X136402421Y-66241400D01*
X136208921Y-66376890D01*
X136041893Y-66543918D01*
X135911880Y-66729596D01*
X135857303Y-66773220D01*
X135787804Y-66780413D01*
X135725450Y-66748891D01*
X135708730Y-66729595D01*
X135578494Y-66543598D01*
X135411404Y-66376508D01*
X135411404Y-66376507D01*
X135411401Y-66376505D01*
X135217830Y-66240965D01*
X135003663Y-66141097D01*
X134942502Y-66124709D01*
X134775407Y-66079936D01*
X134539999Y-66059340D01*
X134304592Y-66079936D01*
X134076336Y-66141097D01*
X133862170Y-66240965D01*
X133668601Y-66376503D01*
X133546673Y-66498431D01*
X133485350Y-66531915D01*
X133415658Y-66526931D01*
X133359725Y-66485059D01*
X133342810Y-66454082D01*
X133314018Y-66376888D01*
X133293796Y-66322669D01*
X133207546Y-66207454D01*
X133092331Y-66121204D01*
X132957483Y-66070909D01*
X132897873Y-66064500D01*
X132894550Y-66064500D01*
X131105439Y-66064500D01*
X131105420Y-66064500D01*
X131102128Y-66064501D01*
X131098848Y-66064853D01*
X131098840Y-66064854D01*
X131042515Y-66070909D01*
X130907669Y-66121204D01*
X130792454Y-66207454D01*
X130706204Y-66322668D01*
X130655909Y-66457516D01*
X130651455Y-66498947D01*
X130649500Y-66517127D01*
X130649500Y-66520448D01*
X130649500Y-66520449D01*
X130649500Y-68309560D01*
X130649500Y-68309578D01*
X130649501Y-68312872D01*
X130649853Y-68316152D01*
X130649854Y-68316159D01*
X130655909Y-68372484D01*
X130681056Y-68439906D01*
X130706204Y-68507331D01*
X130767040Y-68588597D01*
X130800421Y-68633189D01*
X130824838Y-68698654D01*
X130809986Y-68766927D01*
X130800421Y-68781811D01*
X130706204Y-68907668D01*
X130681916Y-68972789D01*
X130655909Y-69042517D01*
X130649500Y-69102127D01*
X130649500Y-69105448D01*
X130649500Y-69105449D01*
X130649500Y-70894560D01*
X130649500Y-70894578D01*
X125010500Y-70894578D01*
X125010500Y-67111147D01*
X125030185Y-67044108D01*
X125082989Y-66998353D01*
X125152147Y-66988409D01*
X125215703Y-67017434D01*
X125245438Y-67055750D01*
X125324207Y-67213500D01*
X125457026Y-67396535D01*
X125618043Y-67555331D01*
X125802907Y-67685593D01*
X126006617Y-67783801D01*
X126223668Y-67847298D01*
X126448189Y-67874368D01*
X126674112Y-67864279D01*
X126895327Y-67817303D01*
X127105853Y-67734712D01*
X127299999Y-67618737D01*
X127472515Y-67472515D01*
X127618737Y-67299999D01*
X127734712Y-67105853D01*
X127817303Y-66895327D01*
X127864279Y-66674112D01*
X127874368Y-66448189D01*
X127847298Y-66223668D01*
X127783801Y-66006617D01*
X127685593Y-65802907D01*
X127555331Y-65618043D01*
X127396535Y-65457026D01*
X127213500Y-65324207D01*
X127055751Y-65245438D01*
X127004568Y-65197879D01*
X126987222Y-65130197D01*
X127009221Y-65063881D01*
X127063581Y-65019986D01*
X127111147Y-65010500D01*
X154888853Y-65010500D01*
X154955892Y-65030185D01*
G37*
%TD.AperFunction*%
%TD*%
M02*
