%TF.GenerationSoftware,KiCad,Pcbnew,7.0.2-6a45011f42~172~ubuntu22.04.1*%
%TF.CreationDate,2023-05-07T18:17:42+01:00*%
%TF.ProjectId,octoHX711,6f63746f-4858-4373-9131-2e6b69636164,rev?*%
%TF.SameCoordinates,Original*%
%TF.FileFunction,Drillmap*%
%TF.FilePolarity,Positive*%
%FSLAX45Y45*%
G04 Gerber Fmt 4.5, Leading zero omitted, Abs format (unit mm)*
G04 Created by KiCad (PCBNEW 7.0.2-6a45011f42~172~ubuntu22.04.1) date 2023-05-07 18:17:42*
%MOMM*%
%LPD*%
G01*
G04 APERTURE LIST*
%ADD10C,0.100000*%
%ADD11C,0.200000*%
G04 APERTURE END LIST*
D10*
X12690000Y-12480000D02*
G75*
G03*
X12690000Y-12500000I0J-10000D01*
G01*
X12500000Y-12310000D02*
G75*
G03*
X12520000Y-12310000I10000J0D01*
G01*
X12690000Y-12480000D02*
G75*
G03*
X12520000Y-12310000I-40000J130000D01*
G01*
X15680000Y-12310000D02*
G75*
G03*
X15700000Y-12310000I10000J0D01*
G01*
X15510000Y-12500000D02*
G75*
G03*
X15510000Y-12480000I0J10000D01*
G01*
X15680000Y-12310000D02*
G75*
G03*
X15510000Y-12480000I-130000J-40000D01*
G01*
X15510000Y-6520000D02*
G75*
G03*
X15510000Y-6500000I0J10000D01*
G01*
X15700000Y-6690000D02*
G75*
G03*
X15680000Y-6690000I-10000J0D01*
G01*
X15510000Y-6520000D02*
G75*
G03*
X15680000Y-6690000I40000J-130000D01*
G01*
X12520000Y-6690000D02*
G75*
G03*
X12500000Y-6690000I-10000J0D01*
G01*
X12690000Y-6500000D02*
G75*
G03*
X12690000Y-6520000I0J-10000D01*
G01*
X12520000Y-6690000D02*
G75*
G03*
X12690000Y-6520000I130000J40000D01*
G01*
X12690000Y-6500000D02*
X15510000Y-6500000D01*
X12500000Y-12310000D02*
X12500000Y-6690000D01*
X15510000Y-12500000D02*
X12690000Y-12500000D01*
X15700000Y-6690000D02*
X15700000Y-12310000D01*
D11*
X12742619Y-12817524D02*
X12742619Y-12617524D01*
X12742619Y-12617524D02*
X12790238Y-12617524D01*
X12790238Y-12617524D02*
X12818809Y-12627048D01*
X12818809Y-12627048D02*
X12837857Y-12646095D01*
X12837857Y-12646095D02*
X12847381Y-12665143D01*
X12847381Y-12665143D02*
X12856905Y-12703238D01*
X12856905Y-12703238D02*
X12856905Y-12731809D01*
X12856905Y-12731809D02*
X12847381Y-12769905D01*
X12847381Y-12769905D02*
X12837857Y-12788952D01*
X12837857Y-12788952D02*
X12818809Y-12808000D01*
X12818809Y-12808000D02*
X12790238Y-12817524D01*
X12790238Y-12817524D02*
X12742619Y-12817524D01*
X12942619Y-12817524D02*
X12942619Y-12684190D01*
X12942619Y-12722286D02*
X12952143Y-12703238D01*
X12952143Y-12703238D02*
X12961667Y-12693714D01*
X12961667Y-12693714D02*
X12980714Y-12684190D01*
X12980714Y-12684190D02*
X12999762Y-12684190D01*
X13066428Y-12817524D02*
X13066428Y-12684190D01*
X13066428Y-12617524D02*
X13056905Y-12627048D01*
X13056905Y-12627048D02*
X13066428Y-12636571D01*
X13066428Y-12636571D02*
X13075952Y-12627048D01*
X13075952Y-12627048D02*
X13066428Y-12617524D01*
X13066428Y-12617524D02*
X13066428Y-12636571D01*
X13190238Y-12817524D02*
X13171190Y-12808000D01*
X13171190Y-12808000D02*
X13161667Y-12788952D01*
X13161667Y-12788952D02*
X13161667Y-12617524D01*
X13295000Y-12817524D02*
X13275952Y-12808000D01*
X13275952Y-12808000D02*
X13266428Y-12788952D01*
X13266428Y-12788952D02*
X13266428Y-12617524D01*
X13523571Y-12817524D02*
X13523571Y-12617524D01*
X13523571Y-12617524D02*
X13590238Y-12760381D01*
X13590238Y-12760381D02*
X13656905Y-12617524D01*
X13656905Y-12617524D02*
X13656905Y-12817524D01*
X13837857Y-12817524D02*
X13837857Y-12712762D01*
X13837857Y-12712762D02*
X13828333Y-12693714D01*
X13828333Y-12693714D02*
X13809286Y-12684190D01*
X13809286Y-12684190D02*
X13771190Y-12684190D01*
X13771190Y-12684190D02*
X13752143Y-12693714D01*
X13837857Y-12808000D02*
X13818809Y-12817524D01*
X13818809Y-12817524D02*
X13771190Y-12817524D01*
X13771190Y-12817524D02*
X13752143Y-12808000D01*
X13752143Y-12808000D02*
X13742619Y-12788952D01*
X13742619Y-12788952D02*
X13742619Y-12769905D01*
X13742619Y-12769905D02*
X13752143Y-12750857D01*
X13752143Y-12750857D02*
X13771190Y-12741333D01*
X13771190Y-12741333D02*
X13818809Y-12741333D01*
X13818809Y-12741333D02*
X13837857Y-12731809D01*
X13933095Y-12684190D02*
X13933095Y-12884190D01*
X13933095Y-12693714D02*
X13952143Y-12684190D01*
X13952143Y-12684190D02*
X13990238Y-12684190D01*
X13990238Y-12684190D02*
X14009286Y-12693714D01*
X14009286Y-12693714D02*
X14018809Y-12703238D01*
X14018809Y-12703238D02*
X14028333Y-12722286D01*
X14028333Y-12722286D02*
X14028333Y-12779428D01*
X14028333Y-12779428D02*
X14018809Y-12798476D01*
X14018809Y-12798476D02*
X14009286Y-12808000D01*
X14009286Y-12808000D02*
X13990238Y-12817524D01*
X13990238Y-12817524D02*
X13952143Y-12817524D01*
X13952143Y-12817524D02*
X13933095Y-12808000D01*
X14114048Y-12798476D02*
X14123571Y-12808000D01*
X14123571Y-12808000D02*
X14114048Y-12817524D01*
X14114048Y-12817524D02*
X14104524Y-12808000D01*
X14104524Y-12808000D02*
X14114048Y-12798476D01*
X14114048Y-12798476D02*
X14114048Y-12817524D01*
X14114048Y-12693714D02*
X14123571Y-12703238D01*
X14123571Y-12703238D02*
X14114048Y-12712762D01*
X14114048Y-12712762D02*
X14104524Y-12703238D01*
X14104524Y-12703238D02*
X14114048Y-12693714D01*
X14114048Y-12693714D02*
X14114048Y-12712762D01*
M02*
