%TF.GenerationSoftware,KiCad,Pcbnew,7.0.2-6a45011f42~172~ubuntu22.04.1*%
%TF.CreationDate,2023-05-07T18:17:42+01:00*%
%TF.ProjectId,octoHX711,6f63746f-4858-4373-9131-2e6b69636164,rev?*%
%TF.SameCoordinates,Original*%
%TF.FileFunction,Drillmap*%
%TF.FilePolarity,Positive*%
%FSLAX45Y45*%
G04 Gerber Fmt 4.5, Leading zero omitted, Abs format (unit mm)*
G04 Created by KiCad (PCBNEW 7.0.2-6a45011f42~172~ubuntu22.04.1) date 2023-05-07 18:17:42*
%MOMM*%
%LPD*%
G01*
G04 APERTURE LIST*
%ADD10C,0.100000*%
%ADD11C,0.200000*%
%ADD12C,0.030000*%
G04 APERTURE END LIST*
D10*
X12690000Y-12480000D02*
G75*
G03*
X12690000Y-12500000I0J-10000D01*
G01*
X12500000Y-12310000D02*
G75*
G03*
X12520000Y-12310000I10000J0D01*
G01*
X12690000Y-12480000D02*
G75*
G03*
X12520000Y-12310000I-40000J130000D01*
G01*
X15680000Y-12310000D02*
G75*
G03*
X15700000Y-12310000I10000J0D01*
G01*
X15510000Y-12500000D02*
G75*
G03*
X15510000Y-12480000I0J10000D01*
G01*
X15680000Y-12310000D02*
G75*
G03*
X15510000Y-12480000I-130000J-40000D01*
G01*
X15510000Y-6520000D02*
G75*
G03*
X15510000Y-6500000I0J10000D01*
G01*
X15700000Y-6690000D02*
G75*
G03*
X15680000Y-6690000I-10000J0D01*
G01*
X15510000Y-6520000D02*
G75*
G03*
X15680000Y-6690000I40000J-130000D01*
G01*
X12520000Y-6690000D02*
G75*
G03*
X12500000Y-6690000I-10000J0D01*
G01*
X12690000Y-6500000D02*
G75*
G03*
X12690000Y-6520000I0J-10000D01*
G01*
X12520000Y-6690000D02*
G75*
G03*
X12690000Y-6520000I130000J40000D01*
G01*
X12690000Y-6500000D02*
X15510000Y-6500000D01*
X12500000Y-12310000D02*
X12500000Y-6690000D01*
X15510000Y-12500000D02*
X12690000Y-12500000D01*
X15700000Y-6690000D02*
X15700000Y-12310000D01*
D11*
D12*
X12885000Y-7235000D02*
X12915000Y-7265000D01*
X12915000Y-7235000D02*
X12885000Y-7265000D01*
X13554500Y-7810500D02*
X13584500Y-7840500D01*
X13584500Y-7810500D02*
X13554500Y-7840500D01*
X13554500Y-9010500D02*
X13584500Y-9040500D01*
X13584500Y-9010500D02*
X13554500Y-9040500D01*
X13554500Y-9010500D02*
X13584500Y-9040500D01*
X13584500Y-9010500D02*
X13554500Y-9040500D01*
X13554500Y-9010500D02*
X13584500Y-9040500D01*
X13584500Y-9010500D02*
X13554500Y-9040500D01*
X13554500Y-9010500D02*
X13584500Y-9040500D01*
X13584500Y-9010500D02*
X13554500Y-9040500D01*
X13554500Y-9010500D02*
X13584500Y-9040500D01*
X13584500Y-9010500D02*
X13554500Y-9040500D01*
X13554500Y-10210500D02*
X13584500Y-10240500D01*
X13584500Y-10210500D02*
X13554500Y-10240500D01*
X13554500Y-10210500D02*
X13584500Y-10240500D01*
X13584500Y-10210500D02*
X13554500Y-10240500D01*
X13554500Y-10210500D02*
X13584500Y-10240500D01*
X13584500Y-10210500D02*
X13554500Y-10240500D01*
X13554500Y-10210500D02*
X13584500Y-10240500D01*
X13584500Y-10210500D02*
X13554500Y-10240500D01*
X13554500Y-10210500D02*
X13584500Y-10240500D01*
X13584500Y-10210500D02*
X13554500Y-10240500D01*
X13554500Y-11410500D02*
X13584500Y-11440500D01*
X13584500Y-11410500D02*
X13554500Y-11440500D01*
X13554500Y-11410500D02*
X13584500Y-11440500D01*
X13584500Y-11410500D02*
X13554500Y-11440500D01*
X13554500Y-11410500D02*
X13584500Y-11440500D01*
X13584500Y-11410500D02*
X13554500Y-11440500D01*
X13554500Y-11410500D02*
X13584500Y-11440500D01*
X13584500Y-11410500D02*
X13554500Y-11440500D01*
X13554500Y-11410500D02*
X13584500Y-11440500D01*
X13584500Y-11410500D02*
X13554500Y-11440500D01*
X13665000Y-11635000D02*
X13695000Y-11665000D01*
X13695000Y-11635000D02*
X13665000Y-11665000D01*
X13783500Y-8655000D02*
X13813500Y-8685000D01*
X13813500Y-8655000D02*
X13783500Y-8685000D01*
X13784450Y-9035000D02*
X13814450Y-9065000D01*
X13814450Y-9035000D02*
X13784450Y-9065000D01*
X13784450Y-9855000D02*
X13814450Y-9885000D01*
X13814450Y-9855000D02*
X13784450Y-9885000D01*
X13784450Y-10235000D02*
X13814450Y-10265000D01*
X13814450Y-10235000D02*
X13784450Y-10265000D01*
X13784450Y-11065000D02*
X13814450Y-11095000D01*
X13814450Y-11065000D02*
X13784450Y-11095000D01*
X13784500Y-7590500D02*
X13814500Y-7620500D01*
X13814500Y-7590500D02*
X13784500Y-7620500D01*
X13784500Y-8790500D02*
X13814500Y-8820500D01*
X13814500Y-8790500D02*
X13784500Y-8820500D01*
X13784500Y-8790500D02*
X13814500Y-8820500D01*
X13814500Y-8790500D02*
X13784500Y-8820500D01*
X13784500Y-8790500D02*
X13814500Y-8820500D01*
X13814500Y-8790500D02*
X13784500Y-8820500D01*
X13784500Y-8790500D02*
X13814500Y-8820500D01*
X13814500Y-8790500D02*
X13784500Y-8820500D01*
X13784500Y-8790500D02*
X13814500Y-8820500D01*
X13814500Y-8790500D02*
X13784500Y-8820500D01*
X13784500Y-9990500D02*
X13814500Y-10020500D01*
X13814500Y-9990500D02*
X13784500Y-10020500D01*
X13784500Y-9990500D02*
X13814500Y-10020500D01*
X13814500Y-9990500D02*
X13784500Y-10020500D01*
X13784500Y-9990500D02*
X13814500Y-10020500D01*
X13814500Y-9990500D02*
X13784500Y-10020500D01*
X13784500Y-9990500D02*
X13814500Y-10020500D01*
X13814500Y-9990500D02*
X13784500Y-10020500D01*
X13784500Y-9990500D02*
X13814500Y-10020500D01*
X13814500Y-9990500D02*
X13784500Y-10020500D01*
X13784500Y-11190500D02*
X13814500Y-11220500D01*
X13814500Y-11190500D02*
X13784500Y-11220500D01*
X13784500Y-11190500D02*
X13814500Y-11220500D01*
X13814500Y-11190500D02*
X13784500Y-11220500D01*
X13784500Y-11190500D02*
X13814500Y-11220500D01*
X13814500Y-11190500D02*
X13784500Y-11220500D01*
X13784500Y-11190500D02*
X13814500Y-11220500D01*
X13814500Y-11190500D02*
X13784500Y-11220500D01*
X13784500Y-11190500D02*
X13814500Y-11220500D01*
X13814500Y-11190500D02*
X13784500Y-11220500D01*
X13785000Y-7845000D02*
X13815000Y-7875000D01*
X13815000Y-7845000D02*
X13785000Y-7875000D01*
X13785000Y-11435000D02*
X13815000Y-11465000D01*
X13815000Y-11435000D02*
X13785000Y-11465000D01*
X13786398Y-7457898D02*
X13816398Y-7487898D01*
X13816398Y-7457898D02*
X13786398Y-7487898D01*
X14368500Y-7980000D02*
X14398500Y-8010000D01*
X14398500Y-7980000D02*
X14368500Y-8010000D01*
X14368500Y-7980000D02*
X14398500Y-8010000D01*
X14398500Y-7980000D02*
X14368500Y-8010000D01*
X14368500Y-7980000D02*
X14398500Y-8010000D01*
X14398500Y-7980000D02*
X14368500Y-8010000D01*
X14368500Y-7980000D02*
X14398500Y-8010000D01*
X14398500Y-7980000D02*
X14368500Y-8010000D01*
X14368500Y-7980000D02*
X14398500Y-8010000D01*
X14398500Y-7980000D02*
X14368500Y-8010000D01*
X14368500Y-9180000D02*
X14398500Y-9210000D01*
X14398500Y-9180000D02*
X14368500Y-9210000D01*
X14368500Y-9180000D02*
X14398500Y-9210000D01*
X14398500Y-9180000D02*
X14368500Y-9210000D01*
X14368500Y-9180000D02*
X14398500Y-9210000D01*
X14398500Y-9180000D02*
X14368500Y-9210000D01*
X14368500Y-9180000D02*
X14398500Y-9210000D01*
X14398500Y-9180000D02*
X14368500Y-9210000D01*
X14368500Y-9180000D02*
X14398500Y-9210000D01*
X14398500Y-9180000D02*
X14368500Y-9210000D01*
X14368500Y-10380000D02*
X14398500Y-10410000D01*
X14398500Y-10380000D02*
X14368500Y-10410000D01*
X14368500Y-10380000D02*
X14398500Y-10410000D01*
X14398500Y-10380000D02*
X14368500Y-10410000D01*
X14368500Y-10380000D02*
X14398500Y-10410000D01*
X14398500Y-10380000D02*
X14368500Y-10410000D01*
X14368500Y-10380000D02*
X14398500Y-10410000D01*
X14398500Y-10380000D02*
X14368500Y-10410000D01*
X14368500Y-10380000D02*
X14398500Y-10410000D01*
X14398500Y-10380000D02*
X14368500Y-10410000D01*
X14368500Y-11580000D02*
X14398500Y-11610000D01*
X14398500Y-11580000D02*
X14368500Y-11610000D01*
X14368500Y-11580000D02*
X14398500Y-11610000D01*
X14398500Y-11580000D02*
X14368500Y-11610000D01*
X14368500Y-11580000D02*
X14398500Y-11610000D01*
X14398500Y-11580000D02*
X14368500Y-11610000D01*
X14368500Y-11580000D02*
X14398500Y-11610000D01*
X14398500Y-11580000D02*
X14368500Y-11610000D01*
X14368500Y-11580000D02*
X14398500Y-11610000D01*
X14398500Y-11580000D02*
X14368500Y-11610000D01*
X14368550Y-8935000D02*
X14398550Y-8965000D01*
X14398550Y-8935000D02*
X14368550Y-8965000D01*
X14368550Y-9305000D02*
X14398550Y-9335000D01*
X14398550Y-9305000D02*
X14368550Y-9335000D01*
X14368550Y-10125000D02*
X14398550Y-10155000D01*
X14398550Y-10125000D02*
X14368550Y-10155000D01*
X14368550Y-10505000D02*
X14398550Y-10535000D01*
X14398550Y-10505000D02*
X14368550Y-10535000D01*
X14368550Y-11325000D02*
X14398550Y-11355000D01*
X14398550Y-11325000D02*
X14368550Y-11355000D01*
X14368550Y-11705000D02*
X14398550Y-11735000D01*
X14398550Y-11705000D02*
X14368550Y-11735000D01*
X14375000Y-7735000D02*
X14405000Y-7765000D01*
X14405000Y-7735000D02*
X14375000Y-7765000D01*
X14375000Y-8105000D02*
X14405000Y-8135000D01*
X14405000Y-8105000D02*
X14375000Y-8135000D01*
X14485000Y-7485000D02*
X14515000Y-7515000D01*
X14515000Y-7485000D02*
X14485000Y-7515000D01*
X14598500Y-7760000D02*
X14628500Y-7790000D01*
X14628500Y-7760000D02*
X14598500Y-7790000D01*
X14598500Y-7760000D02*
X14628500Y-7790000D01*
X14628500Y-7760000D02*
X14598500Y-7790000D01*
X14598500Y-7760000D02*
X14628500Y-7790000D01*
X14628500Y-7760000D02*
X14598500Y-7790000D01*
X14598500Y-7760000D02*
X14628500Y-7790000D01*
X14628500Y-7760000D02*
X14598500Y-7790000D01*
X14598500Y-7760000D02*
X14628500Y-7790000D01*
X14628500Y-7760000D02*
X14598500Y-7790000D01*
X14598500Y-8960000D02*
X14628500Y-8990000D01*
X14628500Y-8960000D02*
X14598500Y-8990000D01*
X14598500Y-8960000D02*
X14628500Y-8990000D01*
X14628500Y-8960000D02*
X14598500Y-8990000D01*
X14598500Y-8960000D02*
X14628500Y-8990000D01*
X14628500Y-8960000D02*
X14598500Y-8990000D01*
X14598500Y-8960000D02*
X14628500Y-8990000D01*
X14628500Y-8960000D02*
X14598500Y-8990000D01*
X14598500Y-8960000D02*
X14628500Y-8990000D01*
X14628500Y-8960000D02*
X14598500Y-8990000D01*
X14598500Y-10160000D02*
X14628500Y-10190000D01*
X14628500Y-10160000D02*
X14598500Y-10190000D01*
X14598500Y-10160000D02*
X14628500Y-10190000D01*
X14628500Y-10160000D02*
X14598500Y-10190000D01*
X14598500Y-10160000D02*
X14628500Y-10190000D01*
X14628500Y-10160000D02*
X14598500Y-10190000D01*
X14598500Y-10160000D02*
X14628500Y-10190000D01*
X14628500Y-10160000D02*
X14598500Y-10190000D01*
X14598500Y-10160000D02*
X14628500Y-10190000D01*
X14628500Y-10160000D02*
X14598500Y-10190000D01*
X14598500Y-11360000D02*
X14628500Y-11390000D01*
X14628500Y-11360000D02*
X14598500Y-11390000D01*
X14598500Y-11360000D02*
X14628500Y-11390000D01*
X14628500Y-11360000D02*
X14598500Y-11390000D01*
X14598500Y-11360000D02*
X14628500Y-11390000D01*
X14628500Y-11360000D02*
X14598500Y-11390000D01*
X14598500Y-11360000D02*
X14628500Y-11390000D01*
X14628500Y-11360000D02*
X14598500Y-11390000D01*
X14598500Y-11360000D02*
X14628500Y-11390000D01*
X14628500Y-11360000D02*
X14598500Y-11390000D01*
D10*
X12739500Y-7411500D02*
G75*
G03*
X12739500Y-7411500I-50000J0D01*
G01*
X12739500Y-7665500D02*
G75*
G03*
X12739500Y-7665500I-50000J0D01*
G01*
X12739500Y-7919500D02*
G75*
G03*
X12739500Y-7919500I-50000J0D01*
G01*
X12739500Y-8173500D02*
G75*
G03*
X12739500Y-8173500I-50000J0D01*
G01*
X12739500Y-8611500D02*
G75*
G03*
X12739500Y-8611500I-50000J0D01*
G01*
X12739500Y-8865500D02*
G75*
G03*
X12739500Y-8865500I-50000J0D01*
G01*
X12739500Y-9119500D02*
G75*
G03*
X12739500Y-9119500I-50000J0D01*
G01*
X12739500Y-9373500D02*
G75*
G03*
X12739500Y-9373500I-50000J0D01*
G01*
X12739500Y-9811500D02*
G75*
G03*
X12739500Y-9811500I-50000J0D01*
G01*
X12739500Y-10065500D02*
G75*
G03*
X12739500Y-10065500I-50000J0D01*
G01*
X12739500Y-10319500D02*
G75*
G03*
X12739500Y-10319500I-50000J0D01*
G01*
X12739500Y-10573500D02*
G75*
G03*
X12739500Y-10573500I-50000J0D01*
G01*
X12739500Y-11011500D02*
G75*
G03*
X12739500Y-11011500I-50000J0D01*
G01*
X12739500Y-11265500D02*
G75*
G03*
X12739500Y-11265500I-50000J0D01*
G01*
X12739500Y-11519500D02*
G75*
G03*
X12739500Y-11519500I-50000J0D01*
G01*
X12739500Y-11773500D02*
G75*
G03*
X12739500Y-11773500I-50000J0D01*
G01*
X13250000Y-6741500D02*
G75*
G03*
X13250000Y-6741500I-50000J0D01*
G01*
X13250000Y-7000000D02*
G75*
G03*
X13250000Y-7000000I-50000J0D01*
G01*
X13504000Y-6741500D02*
G75*
G03*
X13504000Y-6741500I-50000J0D01*
G01*
X13504000Y-7000000D02*
G75*
G03*
X13504000Y-7000000I-50000J0D01*
G01*
X13758000Y-6741500D02*
G75*
G03*
X13758000Y-6741500I-50000J0D01*
G01*
X13758000Y-7000000D02*
G75*
G03*
X13758000Y-7000000I-50000J0D01*
G01*
X13896000Y-12200000D02*
G75*
G03*
X13896000Y-12200000I-50000J0D01*
G01*
X14012000Y-7000000D02*
G75*
G03*
X14012000Y-7000000I-50000J0D01*
G01*
X14150000Y-12200000D02*
G75*
G03*
X14150000Y-12200000I-50000J0D01*
G01*
X14263500Y-6741500D02*
G75*
G03*
X14263500Y-6741500I-50000J0D01*
G01*
X14266000Y-7000000D02*
G75*
G03*
X14266000Y-7000000I-50000J0D01*
G01*
X14404000Y-12200000D02*
G75*
G03*
X14404000Y-12200000I-50000J0D01*
G01*
X14517500Y-6741500D02*
G75*
G03*
X14517500Y-6741500I-50000J0D01*
G01*
X14520000Y-7000000D02*
G75*
G03*
X14520000Y-7000000I-50000J0D01*
G01*
X14774000Y-7000000D02*
G75*
G03*
X14774000Y-7000000I-50000J0D01*
G01*
X15028000Y-7000000D02*
G75*
G03*
X15028000Y-7000000I-50000J0D01*
G01*
X15543500Y-7427000D02*
G75*
G03*
X15543500Y-7427000I-50000J0D01*
G01*
X15543500Y-7681000D02*
G75*
G03*
X15543500Y-7681000I-50000J0D01*
G01*
X15543500Y-7935000D02*
G75*
G03*
X15543500Y-7935000I-50000J0D01*
G01*
X15543500Y-8189000D02*
G75*
G03*
X15543500Y-8189000I-50000J0D01*
G01*
X15543500Y-8627000D02*
G75*
G03*
X15543500Y-8627000I-50000J0D01*
G01*
X15543500Y-8881000D02*
G75*
G03*
X15543500Y-8881000I-50000J0D01*
G01*
X15543500Y-9135000D02*
G75*
G03*
X15543500Y-9135000I-50000J0D01*
G01*
X15543500Y-9389000D02*
G75*
G03*
X15543500Y-9389000I-50000J0D01*
G01*
X15543500Y-9827000D02*
G75*
G03*
X15543500Y-9827000I-50000J0D01*
G01*
X15543500Y-10081000D02*
G75*
G03*
X15543500Y-10081000I-50000J0D01*
G01*
X15543500Y-10335000D02*
G75*
G03*
X15543500Y-10335000I-50000J0D01*
G01*
X15543500Y-10589000D02*
G75*
G03*
X15543500Y-10589000I-50000J0D01*
G01*
X15543500Y-11027000D02*
G75*
G03*
X15543500Y-11027000I-50000J0D01*
G01*
X15543500Y-11281000D02*
G75*
G03*
X15543500Y-11281000I-50000J0D01*
G01*
X15543500Y-11535000D02*
G75*
G03*
X15543500Y-11535000I-50000J0D01*
G01*
X15543500Y-11789000D02*
G75*
G03*
X15543500Y-11789000I-50000J0D01*
G01*
D11*
X12742619Y-12817524D02*
X12742619Y-12617524D01*
X12742619Y-12617524D02*
X12790238Y-12617524D01*
X12790238Y-12617524D02*
X12818809Y-12627048D01*
X12818809Y-12627048D02*
X12837857Y-12646095D01*
X12837857Y-12646095D02*
X12847381Y-12665143D01*
X12847381Y-12665143D02*
X12856905Y-12703238D01*
X12856905Y-12703238D02*
X12856905Y-12731809D01*
X12856905Y-12731809D02*
X12847381Y-12769905D01*
X12847381Y-12769905D02*
X12837857Y-12788952D01*
X12837857Y-12788952D02*
X12818809Y-12808000D01*
X12818809Y-12808000D02*
X12790238Y-12817524D01*
X12790238Y-12817524D02*
X12742619Y-12817524D01*
X12942619Y-12817524D02*
X12942619Y-12684190D01*
X12942619Y-12722286D02*
X12952143Y-12703238D01*
X12952143Y-12703238D02*
X12961667Y-12693714D01*
X12961667Y-12693714D02*
X12980714Y-12684190D01*
X12980714Y-12684190D02*
X12999762Y-12684190D01*
X13066428Y-12817524D02*
X13066428Y-12684190D01*
X13066428Y-12617524D02*
X13056905Y-12627048D01*
X13056905Y-12627048D02*
X13066428Y-12636571D01*
X13066428Y-12636571D02*
X13075952Y-12627048D01*
X13075952Y-12627048D02*
X13066428Y-12617524D01*
X13066428Y-12617524D02*
X13066428Y-12636571D01*
X13190238Y-12817524D02*
X13171190Y-12808000D01*
X13171190Y-12808000D02*
X13161667Y-12788952D01*
X13161667Y-12788952D02*
X13161667Y-12617524D01*
X13295000Y-12817524D02*
X13275952Y-12808000D01*
X13275952Y-12808000D02*
X13266428Y-12788952D01*
X13266428Y-12788952D02*
X13266428Y-12617524D01*
X13523571Y-12817524D02*
X13523571Y-12617524D01*
X13523571Y-12617524D02*
X13590238Y-12760381D01*
X13590238Y-12760381D02*
X13656905Y-12617524D01*
X13656905Y-12617524D02*
X13656905Y-12817524D01*
X13837857Y-12817524D02*
X13837857Y-12712762D01*
X13837857Y-12712762D02*
X13828333Y-12693714D01*
X13828333Y-12693714D02*
X13809286Y-12684190D01*
X13809286Y-12684190D02*
X13771190Y-12684190D01*
X13771190Y-12684190D02*
X13752143Y-12693714D01*
X13837857Y-12808000D02*
X13818809Y-12817524D01*
X13818809Y-12817524D02*
X13771190Y-12817524D01*
X13771190Y-12817524D02*
X13752143Y-12808000D01*
X13752143Y-12808000D02*
X13742619Y-12788952D01*
X13742619Y-12788952D02*
X13742619Y-12769905D01*
X13742619Y-12769905D02*
X13752143Y-12750857D01*
X13752143Y-12750857D02*
X13771190Y-12741333D01*
X13771190Y-12741333D02*
X13818809Y-12741333D01*
X13818809Y-12741333D02*
X13837857Y-12731809D01*
X13933095Y-12684190D02*
X13933095Y-12884190D01*
X13933095Y-12693714D02*
X13952143Y-12684190D01*
X13952143Y-12684190D02*
X13990238Y-12684190D01*
X13990238Y-12684190D02*
X14009286Y-12693714D01*
X14009286Y-12693714D02*
X14018809Y-12703238D01*
X14018809Y-12703238D02*
X14028333Y-12722286D01*
X14028333Y-12722286D02*
X14028333Y-12779428D01*
X14028333Y-12779428D02*
X14018809Y-12798476D01*
X14018809Y-12798476D02*
X14009286Y-12808000D01*
X14009286Y-12808000D02*
X13990238Y-12817524D01*
X13990238Y-12817524D02*
X13952143Y-12817524D01*
X13952143Y-12817524D02*
X13933095Y-12808000D01*
X14114048Y-12798476D02*
X14123571Y-12808000D01*
X14123571Y-12808000D02*
X14114048Y-12817524D01*
X14114048Y-12817524D02*
X14104524Y-12808000D01*
X14104524Y-12808000D02*
X14114048Y-12798476D01*
X14114048Y-12798476D02*
X14114048Y-12817524D01*
X14114048Y-12693714D02*
X14123571Y-12703238D01*
X14123571Y-12703238D02*
X14114048Y-12712762D01*
X14114048Y-12712762D02*
X14104524Y-12703238D01*
X14104524Y-12703238D02*
X14114048Y-12693714D01*
X14114048Y-12693714D02*
X14114048Y-12712762D01*
D12*
X12465000Y-13130000D02*
X12495000Y-13160000D01*
X12495000Y-13130000D02*
X12465000Y-13160000D01*
D11*
X12780714Y-13037524D02*
X12799762Y-13037524D01*
X12799762Y-13037524D02*
X12818809Y-13047048D01*
X12818809Y-13047048D02*
X12828333Y-13056571D01*
X12828333Y-13056571D02*
X12837857Y-13075619D01*
X12837857Y-13075619D02*
X12847381Y-13113714D01*
X12847381Y-13113714D02*
X12847381Y-13161333D01*
X12847381Y-13161333D02*
X12837857Y-13199428D01*
X12837857Y-13199428D02*
X12828333Y-13218476D01*
X12828333Y-13218476D02*
X12818809Y-13228000D01*
X12818809Y-13228000D02*
X12799762Y-13237524D01*
X12799762Y-13237524D02*
X12780714Y-13237524D01*
X12780714Y-13237524D02*
X12761667Y-13228000D01*
X12761667Y-13228000D02*
X12752143Y-13218476D01*
X12752143Y-13218476D02*
X12742619Y-13199428D01*
X12742619Y-13199428D02*
X12733095Y-13161333D01*
X12733095Y-13161333D02*
X12733095Y-13113714D01*
X12733095Y-13113714D02*
X12742619Y-13075619D01*
X12742619Y-13075619D02*
X12752143Y-13056571D01*
X12752143Y-13056571D02*
X12761667Y-13047048D01*
X12761667Y-13047048D02*
X12780714Y-13037524D01*
X12933095Y-13218476D02*
X12942619Y-13228000D01*
X12942619Y-13228000D02*
X12933095Y-13237524D01*
X12933095Y-13237524D02*
X12923571Y-13228000D01*
X12923571Y-13228000D02*
X12933095Y-13218476D01*
X12933095Y-13218476D02*
X12933095Y-13237524D01*
X13009286Y-13037524D02*
X13133095Y-13037524D01*
X13133095Y-13037524D02*
X13066428Y-13113714D01*
X13066428Y-13113714D02*
X13095000Y-13113714D01*
X13095000Y-13113714D02*
X13114048Y-13123238D01*
X13114048Y-13123238D02*
X13123571Y-13132762D01*
X13123571Y-13132762D02*
X13133095Y-13151809D01*
X13133095Y-13151809D02*
X13133095Y-13199428D01*
X13133095Y-13199428D02*
X13123571Y-13218476D01*
X13123571Y-13218476D02*
X13114048Y-13228000D01*
X13114048Y-13228000D02*
X13095000Y-13237524D01*
X13095000Y-13237524D02*
X13037857Y-13237524D01*
X13037857Y-13237524D02*
X13018809Y-13228000D01*
X13018809Y-13228000D02*
X13009286Y-13218476D01*
X13256905Y-13037524D02*
X13275952Y-13037524D01*
X13275952Y-13037524D02*
X13295000Y-13047048D01*
X13295000Y-13047048D02*
X13304524Y-13056571D01*
X13304524Y-13056571D02*
X13314048Y-13075619D01*
X13314048Y-13075619D02*
X13323571Y-13113714D01*
X13323571Y-13113714D02*
X13323571Y-13161333D01*
X13323571Y-13161333D02*
X13314048Y-13199428D01*
X13314048Y-13199428D02*
X13304524Y-13218476D01*
X13304524Y-13218476D02*
X13295000Y-13228000D01*
X13295000Y-13228000D02*
X13275952Y-13237524D01*
X13275952Y-13237524D02*
X13256905Y-13237524D01*
X13256905Y-13237524D02*
X13237857Y-13228000D01*
X13237857Y-13228000D02*
X13228333Y-13218476D01*
X13228333Y-13218476D02*
X13218809Y-13199428D01*
X13218809Y-13199428D02*
X13209286Y-13161333D01*
X13209286Y-13161333D02*
X13209286Y-13113714D01*
X13209286Y-13113714D02*
X13218809Y-13075619D01*
X13218809Y-13075619D02*
X13228333Y-13056571D01*
X13228333Y-13056571D02*
X13237857Y-13047048D01*
X13237857Y-13047048D02*
X13256905Y-13037524D01*
X13447381Y-13037524D02*
X13466429Y-13037524D01*
X13466429Y-13037524D02*
X13485476Y-13047048D01*
X13485476Y-13047048D02*
X13495000Y-13056571D01*
X13495000Y-13056571D02*
X13504524Y-13075619D01*
X13504524Y-13075619D02*
X13514048Y-13113714D01*
X13514048Y-13113714D02*
X13514048Y-13161333D01*
X13514048Y-13161333D02*
X13504524Y-13199428D01*
X13504524Y-13199428D02*
X13495000Y-13218476D01*
X13495000Y-13218476D02*
X13485476Y-13228000D01*
X13485476Y-13228000D02*
X13466429Y-13237524D01*
X13466429Y-13237524D02*
X13447381Y-13237524D01*
X13447381Y-13237524D02*
X13428333Y-13228000D01*
X13428333Y-13228000D02*
X13418809Y-13218476D01*
X13418809Y-13218476D02*
X13409286Y-13199428D01*
X13409286Y-13199428D02*
X13399762Y-13161333D01*
X13399762Y-13161333D02*
X13399762Y-13113714D01*
X13399762Y-13113714D02*
X13409286Y-13075619D01*
X13409286Y-13075619D02*
X13418809Y-13056571D01*
X13418809Y-13056571D02*
X13428333Y-13047048D01*
X13428333Y-13047048D02*
X13447381Y-13037524D01*
X13599762Y-13237524D02*
X13599762Y-13104190D01*
X13599762Y-13123238D02*
X13609286Y-13113714D01*
X13609286Y-13113714D02*
X13628333Y-13104190D01*
X13628333Y-13104190D02*
X13656905Y-13104190D01*
X13656905Y-13104190D02*
X13675952Y-13113714D01*
X13675952Y-13113714D02*
X13685476Y-13132762D01*
X13685476Y-13132762D02*
X13685476Y-13237524D01*
X13685476Y-13132762D02*
X13695000Y-13113714D01*
X13695000Y-13113714D02*
X13714048Y-13104190D01*
X13714048Y-13104190D02*
X13742619Y-13104190D01*
X13742619Y-13104190D02*
X13761667Y-13113714D01*
X13761667Y-13113714D02*
X13771190Y-13132762D01*
X13771190Y-13132762D02*
X13771190Y-13237524D01*
X13866429Y-13237524D02*
X13866429Y-13104190D01*
X13866429Y-13123238D02*
X13875952Y-13113714D01*
X13875952Y-13113714D02*
X13895000Y-13104190D01*
X13895000Y-13104190D02*
X13923571Y-13104190D01*
X13923571Y-13104190D02*
X13942619Y-13113714D01*
X13942619Y-13113714D02*
X13952143Y-13132762D01*
X13952143Y-13132762D02*
X13952143Y-13237524D01*
X13952143Y-13132762D02*
X13961667Y-13113714D01*
X13961667Y-13113714D02*
X13980714Y-13104190D01*
X13980714Y-13104190D02*
X14009286Y-13104190D01*
X14009286Y-13104190D02*
X14028333Y-13113714D01*
X14028333Y-13113714D02*
X14037857Y-13132762D01*
X14037857Y-13132762D02*
X14037857Y-13237524D01*
X14428333Y-13028000D02*
X14256905Y-13285143D01*
X14685476Y-13037524D02*
X14704524Y-13037524D01*
X14704524Y-13037524D02*
X14723572Y-13047048D01*
X14723572Y-13047048D02*
X14733095Y-13056571D01*
X14733095Y-13056571D02*
X14742619Y-13075619D01*
X14742619Y-13075619D02*
X14752143Y-13113714D01*
X14752143Y-13113714D02*
X14752143Y-13161333D01*
X14752143Y-13161333D02*
X14742619Y-13199428D01*
X14742619Y-13199428D02*
X14733095Y-13218476D01*
X14733095Y-13218476D02*
X14723572Y-13228000D01*
X14723572Y-13228000D02*
X14704524Y-13237524D01*
X14704524Y-13237524D02*
X14685476Y-13237524D01*
X14685476Y-13237524D02*
X14666429Y-13228000D01*
X14666429Y-13228000D02*
X14656905Y-13218476D01*
X14656905Y-13218476D02*
X14647381Y-13199428D01*
X14647381Y-13199428D02*
X14637857Y-13161333D01*
X14637857Y-13161333D02*
X14637857Y-13113714D01*
X14637857Y-13113714D02*
X14647381Y-13075619D01*
X14647381Y-13075619D02*
X14656905Y-13056571D01*
X14656905Y-13056571D02*
X14666429Y-13047048D01*
X14666429Y-13047048D02*
X14685476Y-13037524D01*
X14837857Y-13218476D02*
X14847381Y-13228000D01*
X14847381Y-13228000D02*
X14837857Y-13237524D01*
X14837857Y-13237524D02*
X14828333Y-13228000D01*
X14828333Y-13228000D02*
X14837857Y-13218476D01*
X14837857Y-13218476D02*
X14837857Y-13237524D01*
X14971191Y-13037524D02*
X14990238Y-13037524D01*
X14990238Y-13037524D02*
X15009286Y-13047048D01*
X15009286Y-13047048D02*
X15018810Y-13056571D01*
X15018810Y-13056571D02*
X15028333Y-13075619D01*
X15028333Y-13075619D02*
X15037857Y-13113714D01*
X15037857Y-13113714D02*
X15037857Y-13161333D01*
X15037857Y-13161333D02*
X15028333Y-13199428D01*
X15028333Y-13199428D02*
X15018810Y-13218476D01*
X15018810Y-13218476D02*
X15009286Y-13228000D01*
X15009286Y-13228000D02*
X14990238Y-13237524D01*
X14990238Y-13237524D02*
X14971191Y-13237524D01*
X14971191Y-13237524D02*
X14952143Y-13228000D01*
X14952143Y-13228000D02*
X14942619Y-13218476D01*
X14942619Y-13218476D02*
X14933095Y-13199428D01*
X14933095Y-13199428D02*
X14923572Y-13161333D01*
X14923572Y-13161333D02*
X14923572Y-13113714D01*
X14923572Y-13113714D02*
X14933095Y-13075619D01*
X14933095Y-13075619D02*
X14942619Y-13056571D01*
X14942619Y-13056571D02*
X14952143Y-13047048D01*
X14952143Y-13047048D02*
X14971191Y-13037524D01*
X15228333Y-13237524D02*
X15114048Y-13237524D01*
X15171191Y-13237524D02*
X15171191Y-13037524D01*
X15171191Y-13037524D02*
X15152143Y-13066095D01*
X15152143Y-13066095D02*
X15133095Y-13085143D01*
X15133095Y-13085143D02*
X15114048Y-13094667D01*
X15418810Y-13237524D02*
X15304524Y-13237524D01*
X15361667Y-13237524D02*
X15361667Y-13037524D01*
X15361667Y-13037524D02*
X15342619Y-13066095D01*
X15342619Y-13066095D02*
X15323572Y-13085143D01*
X15323572Y-13085143D02*
X15304524Y-13094667D01*
X15533095Y-13123238D02*
X15514048Y-13113714D01*
X15514048Y-13113714D02*
X15504524Y-13104190D01*
X15504524Y-13104190D02*
X15495000Y-13085143D01*
X15495000Y-13085143D02*
X15495000Y-13075619D01*
X15495000Y-13075619D02*
X15504524Y-13056571D01*
X15504524Y-13056571D02*
X15514048Y-13047048D01*
X15514048Y-13047048D02*
X15533095Y-13037524D01*
X15533095Y-13037524D02*
X15571191Y-13037524D01*
X15571191Y-13037524D02*
X15590238Y-13047048D01*
X15590238Y-13047048D02*
X15599762Y-13056571D01*
X15599762Y-13056571D02*
X15609286Y-13075619D01*
X15609286Y-13075619D02*
X15609286Y-13085143D01*
X15609286Y-13085143D02*
X15599762Y-13104190D01*
X15599762Y-13104190D02*
X15590238Y-13113714D01*
X15590238Y-13113714D02*
X15571191Y-13123238D01*
X15571191Y-13123238D02*
X15533095Y-13123238D01*
X15533095Y-13123238D02*
X15514048Y-13132762D01*
X15514048Y-13132762D02*
X15504524Y-13142286D01*
X15504524Y-13142286D02*
X15495000Y-13161333D01*
X15495000Y-13161333D02*
X15495000Y-13199428D01*
X15495000Y-13199428D02*
X15504524Y-13218476D01*
X15504524Y-13218476D02*
X15514048Y-13228000D01*
X15514048Y-13228000D02*
X15533095Y-13237524D01*
X15533095Y-13237524D02*
X15571191Y-13237524D01*
X15571191Y-13237524D02*
X15590238Y-13228000D01*
X15590238Y-13228000D02*
X15599762Y-13218476D01*
X15599762Y-13218476D02*
X15609286Y-13199428D01*
X15609286Y-13199428D02*
X15609286Y-13161333D01*
X15609286Y-13161333D02*
X15599762Y-13142286D01*
X15599762Y-13142286D02*
X15590238Y-13132762D01*
X15590238Y-13132762D02*
X15571191Y-13123238D01*
X15685476Y-13037524D02*
X15685476Y-13075619D01*
X15761667Y-13037524D02*
X15761667Y-13075619D01*
X16056905Y-13313714D02*
X16047381Y-13304190D01*
X16047381Y-13304190D02*
X16028334Y-13275619D01*
X16028334Y-13275619D02*
X16018810Y-13256571D01*
X16018810Y-13256571D02*
X16009286Y-13228000D01*
X16009286Y-13228000D02*
X15999762Y-13180381D01*
X15999762Y-13180381D02*
X15999762Y-13142286D01*
X15999762Y-13142286D02*
X16009286Y-13094667D01*
X16009286Y-13094667D02*
X16018810Y-13066095D01*
X16018810Y-13066095D02*
X16028334Y-13047048D01*
X16028334Y-13047048D02*
X16047381Y-13018476D01*
X16047381Y-13018476D02*
X16056905Y-13008952D01*
X16142619Y-13237524D02*
X16180714Y-13237524D01*
X16180714Y-13237524D02*
X16199762Y-13228000D01*
X16199762Y-13228000D02*
X16209286Y-13218476D01*
X16209286Y-13218476D02*
X16228334Y-13189905D01*
X16228334Y-13189905D02*
X16237857Y-13151809D01*
X16237857Y-13151809D02*
X16237857Y-13075619D01*
X16237857Y-13075619D02*
X16228334Y-13056571D01*
X16228334Y-13056571D02*
X16218810Y-13047048D01*
X16218810Y-13047048D02*
X16199762Y-13037524D01*
X16199762Y-13037524D02*
X16161667Y-13037524D01*
X16161667Y-13037524D02*
X16142619Y-13047048D01*
X16142619Y-13047048D02*
X16133095Y-13056571D01*
X16133095Y-13056571D02*
X16123572Y-13075619D01*
X16123572Y-13075619D02*
X16123572Y-13123238D01*
X16123572Y-13123238D02*
X16133095Y-13142286D01*
X16133095Y-13142286D02*
X16142619Y-13151809D01*
X16142619Y-13151809D02*
X16161667Y-13161333D01*
X16161667Y-13161333D02*
X16199762Y-13161333D01*
X16199762Y-13161333D02*
X16218810Y-13151809D01*
X16218810Y-13151809D02*
X16228334Y-13142286D01*
X16228334Y-13142286D02*
X16237857Y-13123238D01*
X16428334Y-13237524D02*
X16314048Y-13237524D01*
X16371191Y-13237524D02*
X16371191Y-13037524D01*
X16371191Y-13037524D02*
X16352143Y-13066095D01*
X16352143Y-13066095D02*
X16333095Y-13085143D01*
X16333095Y-13085143D02*
X16314048Y-13094667D01*
X16666429Y-13237524D02*
X16666429Y-13037524D01*
X16752143Y-13237524D02*
X16752143Y-13132762D01*
X16752143Y-13132762D02*
X16742619Y-13113714D01*
X16742619Y-13113714D02*
X16723572Y-13104190D01*
X16723572Y-13104190D02*
X16695000Y-13104190D01*
X16695000Y-13104190D02*
X16675953Y-13113714D01*
X16675953Y-13113714D02*
X16666429Y-13123238D01*
X16875953Y-13237524D02*
X16856905Y-13228000D01*
X16856905Y-13228000D02*
X16847381Y-13218476D01*
X16847381Y-13218476D02*
X16837858Y-13199428D01*
X16837858Y-13199428D02*
X16837858Y-13142286D01*
X16837858Y-13142286D02*
X16847381Y-13123238D01*
X16847381Y-13123238D02*
X16856905Y-13113714D01*
X16856905Y-13113714D02*
X16875953Y-13104190D01*
X16875953Y-13104190D02*
X16904524Y-13104190D01*
X16904524Y-13104190D02*
X16923572Y-13113714D01*
X16923572Y-13113714D02*
X16933096Y-13123238D01*
X16933096Y-13123238D02*
X16942619Y-13142286D01*
X16942619Y-13142286D02*
X16942619Y-13199428D01*
X16942619Y-13199428D02*
X16933096Y-13218476D01*
X16933096Y-13218476D02*
X16923572Y-13228000D01*
X16923572Y-13228000D02*
X16904524Y-13237524D01*
X16904524Y-13237524D02*
X16875953Y-13237524D01*
X17056905Y-13237524D02*
X17037858Y-13228000D01*
X17037858Y-13228000D02*
X17028334Y-13208952D01*
X17028334Y-13208952D02*
X17028334Y-13037524D01*
X17209286Y-13228000D02*
X17190239Y-13237524D01*
X17190239Y-13237524D02*
X17152143Y-13237524D01*
X17152143Y-13237524D02*
X17133096Y-13228000D01*
X17133096Y-13228000D02*
X17123572Y-13208952D01*
X17123572Y-13208952D02*
X17123572Y-13132762D01*
X17123572Y-13132762D02*
X17133096Y-13113714D01*
X17133096Y-13113714D02*
X17152143Y-13104190D01*
X17152143Y-13104190D02*
X17190239Y-13104190D01*
X17190239Y-13104190D02*
X17209286Y-13113714D01*
X17209286Y-13113714D02*
X17218810Y-13132762D01*
X17218810Y-13132762D02*
X17218810Y-13151809D01*
X17218810Y-13151809D02*
X17123572Y-13170857D01*
X17295000Y-13228000D02*
X17314048Y-13237524D01*
X17314048Y-13237524D02*
X17352143Y-13237524D01*
X17352143Y-13237524D02*
X17371191Y-13228000D01*
X17371191Y-13228000D02*
X17380715Y-13208952D01*
X17380715Y-13208952D02*
X17380715Y-13199428D01*
X17380715Y-13199428D02*
X17371191Y-13180381D01*
X17371191Y-13180381D02*
X17352143Y-13170857D01*
X17352143Y-13170857D02*
X17323572Y-13170857D01*
X17323572Y-13170857D02*
X17304524Y-13161333D01*
X17304524Y-13161333D02*
X17295000Y-13142286D01*
X17295000Y-13142286D02*
X17295000Y-13132762D01*
X17295000Y-13132762D02*
X17304524Y-13113714D01*
X17304524Y-13113714D02*
X17323572Y-13104190D01*
X17323572Y-13104190D02*
X17352143Y-13104190D01*
X17352143Y-13104190D02*
X17371191Y-13113714D01*
X17447381Y-13313714D02*
X17456905Y-13304190D01*
X17456905Y-13304190D02*
X17475953Y-13275619D01*
X17475953Y-13275619D02*
X17485477Y-13256571D01*
X17485477Y-13256571D02*
X17495000Y-13228000D01*
X17495000Y-13228000D02*
X17504524Y-13180381D01*
X17504524Y-13180381D02*
X17504524Y-13142286D01*
X17504524Y-13142286D02*
X17495000Y-13094667D01*
X17495000Y-13094667D02*
X17485477Y-13066095D01*
X17485477Y-13066095D02*
X17475953Y-13047048D01*
X17475953Y-13047048D02*
X17456905Y-13018476D01*
X17456905Y-13018476D02*
X17447381Y-13008952D01*
D10*
X12495000Y-13409000D02*
G75*
G03*
X12495000Y-13409000I-50000J0D01*
G01*
D11*
X12847381Y-13501524D02*
X12733095Y-13501524D01*
X12790238Y-13501524D02*
X12790238Y-13301524D01*
X12790238Y-13301524D02*
X12771190Y-13330095D01*
X12771190Y-13330095D02*
X12752143Y-13349143D01*
X12752143Y-13349143D02*
X12733095Y-13358667D01*
X12933095Y-13482476D02*
X12942619Y-13492000D01*
X12942619Y-13492000D02*
X12933095Y-13501524D01*
X12933095Y-13501524D02*
X12923571Y-13492000D01*
X12923571Y-13492000D02*
X12933095Y-13482476D01*
X12933095Y-13482476D02*
X12933095Y-13501524D01*
X13066428Y-13301524D02*
X13085476Y-13301524D01*
X13085476Y-13301524D02*
X13104524Y-13311048D01*
X13104524Y-13311048D02*
X13114048Y-13320571D01*
X13114048Y-13320571D02*
X13123571Y-13339619D01*
X13123571Y-13339619D02*
X13133095Y-13377714D01*
X13133095Y-13377714D02*
X13133095Y-13425333D01*
X13133095Y-13425333D02*
X13123571Y-13463428D01*
X13123571Y-13463428D02*
X13114048Y-13482476D01*
X13114048Y-13482476D02*
X13104524Y-13492000D01*
X13104524Y-13492000D02*
X13085476Y-13501524D01*
X13085476Y-13501524D02*
X13066428Y-13501524D01*
X13066428Y-13501524D02*
X13047381Y-13492000D01*
X13047381Y-13492000D02*
X13037857Y-13482476D01*
X13037857Y-13482476D02*
X13028333Y-13463428D01*
X13028333Y-13463428D02*
X13018809Y-13425333D01*
X13018809Y-13425333D02*
X13018809Y-13377714D01*
X13018809Y-13377714D02*
X13028333Y-13339619D01*
X13028333Y-13339619D02*
X13037857Y-13320571D01*
X13037857Y-13320571D02*
X13047381Y-13311048D01*
X13047381Y-13311048D02*
X13066428Y-13301524D01*
X13256905Y-13301524D02*
X13275952Y-13301524D01*
X13275952Y-13301524D02*
X13295000Y-13311048D01*
X13295000Y-13311048D02*
X13304524Y-13320571D01*
X13304524Y-13320571D02*
X13314048Y-13339619D01*
X13314048Y-13339619D02*
X13323571Y-13377714D01*
X13323571Y-13377714D02*
X13323571Y-13425333D01*
X13323571Y-13425333D02*
X13314048Y-13463428D01*
X13314048Y-13463428D02*
X13304524Y-13482476D01*
X13304524Y-13482476D02*
X13295000Y-13492000D01*
X13295000Y-13492000D02*
X13275952Y-13501524D01*
X13275952Y-13501524D02*
X13256905Y-13501524D01*
X13256905Y-13501524D02*
X13237857Y-13492000D01*
X13237857Y-13492000D02*
X13228333Y-13482476D01*
X13228333Y-13482476D02*
X13218809Y-13463428D01*
X13218809Y-13463428D02*
X13209286Y-13425333D01*
X13209286Y-13425333D02*
X13209286Y-13377714D01*
X13209286Y-13377714D02*
X13218809Y-13339619D01*
X13218809Y-13339619D02*
X13228333Y-13320571D01*
X13228333Y-13320571D02*
X13237857Y-13311048D01*
X13237857Y-13311048D02*
X13256905Y-13301524D01*
X13447381Y-13301524D02*
X13466429Y-13301524D01*
X13466429Y-13301524D02*
X13485476Y-13311048D01*
X13485476Y-13311048D02*
X13495000Y-13320571D01*
X13495000Y-13320571D02*
X13504524Y-13339619D01*
X13504524Y-13339619D02*
X13514048Y-13377714D01*
X13514048Y-13377714D02*
X13514048Y-13425333D01*
X13514048Y-13425333D02*
X13504524Y-13463428D01*
X13504524Y-13463428D02*
X13495000Y-13482476D01*
X13495000Y-13482476D02*
X13485476Y-13492000D01*
X13485476Y-13492000D02*
X13466429Y-13501524D01*
X13466429Y-13501524D02*
X13447381Y-13501524D01*
X13447381Y-13501524D02*
X13428333Y-13492000D01*
X13428333Y-13492000D02*
X13418809Y-13482476D01*
X13418809Y-13482476D02*
X13409286Y-13463428D01*
X13409286Y-13463428D02*
X13399762Y-13425333D01*
X13399762Y-13425333D02*
X13399762Y-13377714D01*
X13399762Y-13377714D02*
X13409286Y-13339619D01*
X13409286Y-13339619D02*
X13418809Y-13320571D01*
X13418809Y-13320571D02*
X13428333Y-13311048D01*
X13428333Y-13311048D02*
X13447381Y-13301524D01*
X13599762Y-13501524D02*
X13599762Y-13368190D01*
X13599762Y-13387238D02*
X13609286Y-13377714D01*
X13609286Y-13377714D02*
X13628333Y-13368190D01*
X13628333Y-13368190D02*
X13656905Y-13368190D01*
X13656905Y-13368190D02*
X13675952Y-13377714D01*
X13675952Y-13377714D02*
X13685476Y-13396762D01*
X13685476Y-13396762D02*
X13685476Y-13501524D01*
X13685476Y-13396762D02*
X13695000Y-13377714D01*
X13695000Y-13377714D02*
X13714048Y-13368190D01*
X13714048Y-13368190D02*
X13742619Y-13368190D01*
X13742619Y-13368190D02*
X13761667Y-13377714D01*
X13761667Y-13377714D02*
X13771190Y-13396762D01*
X13771190Y-13396762D02*
X13771190Y-13501524D01*
X13866429Y-13501524D02*
X13866429Y-13368190D01*
X13866429Y-13387238D02*
X13875952Y-13377714D01*
X13875952Y-13377714D02*
X13895000Y-13368190D01*
X13895000Y-13368190D02*
X13923571Y-13368190D01*
X13923571Y-13368190D02*
X13942619Y-13377714D01*
X13942619Y-13377714D02*
X13952143Y-13396762D01*
X13952143Y-13396762D02*
X13952143Y-13501524D01*
X13952143Y-13396762D02*
X13961667Y-13377714D01*
X13961667Y-13377714D02*
X13980714Y-13368190D01*
X13980714Y-13368190D02*
X14009286Y-13368190D01*
X14009286Y-13368190D02*
X14028333Y-13377714D01*
X14028333Y-13377714D02*
X14037857Y-13396762D01*
X14037857Y-13396762D02*
X14037857Y-13501524D01*
X14428333Y-13292000D02*
X14256905Y-13549143D01*
X14685476Y-13301524D02*
X14704524Y-13301524D01*
X14704524Y-13301524D02*
X14723572Y-13311048D01*
X14723572Y-13311048D02*
X14733095Y-13320571D01*
X14733095Y-13320571D02*
X14742619Y-13339619D01*
X14742619Y-13339619D02*
X14752143Y-13377714D01*
X14752143Y-13377714D02*
X14752143Y-13425333D01*
X14752143Y-13425333D02*
X14742619Y-13463428D01*
X14742619Y-13463428D02*
X14733095Y-13482476D01*
X14733095Y-13482476D02*
X14723572Y-13492000D01*
X14723572Y-13492000D02*
X14704524Y-13501524D01*
X14704524Y-13501524D02*
X14685476Y-13501524D01*
X14685476Y-13501524D02*
X14666429Y-13492000D01*
X14666429Y-13492000D02*
X14656905Y-13482476D01*
X14656905Y-13482476D02*
X14647381Y-13463428D01*
X14647381Y-13463428D02*
X14637857Y-13425333D01*
X14637857Y-13425333D02*
X14637857Y-13377714D01*
X14637857Y-13377714D02*
X14647381Y-13339619D01*
X14647381Y-13339619D02*
X14656905Y-13320571D01*
X14656905Y-13320571D02*
X14666429Y-13311048D01*
X14666429Y-13311048D02*
X14685476Y-13301524D01*
X14837857Y-13482476D02*
X14847381Y-13492000D01*
X14847381Y-13492000D02*
X14837857Y-13501524D01*
X14837857Y-13501524D02*
X14828333Y-13492000D01*
X14828333Y-13492000D02*
X14837857Y-13482476D01*
X14837857Y-13482476D02*
X14837857Y-13501524D01*
X14971191Y-13301524D02*
X14990238Y-13301524D01*
X14990238Y-13301524D02*
X15009286Y-13311048D01*
X15009286Y-13311048D02*
X15018810Y-13320571D01*
X15018810Y-13320571D02*
X15028333Y-13339619D01*
X15028333Y-13339619D02*
X15037857Y-13377714D01*
X15037857Y-13377714D02*
X15037857Y-13425333D01*
X15037857Y-13425333D02*
X15028333Y-13463428D01*
X15028333Y-13463428D02*
X15018810Y-13482476D01*
X15018810Y-13482476D02*
X15009286Y-13492000D01*
X15009286Y-13492000D02*
X14990238Y-13501524D01*
X14990238Y-13501524D02*
X14971191Y-13501524D01*
X14971191Y-13501524D02*
X14952143Y-13492000D01*
X14952143Y-13492000D02*
X14942619Y-13482476D01*
X14942619Y-13482476D02*
X14933095Y-13463428D01*
X14933095Y-13463428D02*
X14923572Y-13425333D01*
X14923572Y-13425333D02*
X14923572Y-13377714D01*
X14923572Y-13377714D02*
X14933095Y-13339619D01*
X14933095Y-13339619D02*
X14942619Y-13320571D01*
X14942619Y-13320571D02*
X14952143Y-13311048D01*
X14952143Y-13311048D02*
X14971191Y-13301524D01*
X15104524Y-13301524D02*
X15228333Y-13301524D01*
X15228333Y-13301524D02*
X15161667Y-13377714D01*
X15161667Y-13377714D02*
X15190238Y-13377714D01*
X15190238Y-13377714D02*
X15209286Y-13387238D01*
X15209286Y-13387238D02*
X15218810Y-13396762D01*
X15218810Y-13396762D02*
X15228333Y-13415809D01*
X15228333Y-13415809D02*
X15228333Y-13463428D01*
X15228333Y-13463428D02*
X15218810Y-13482476D01*
X15218810Y-13482476D02*
X15209286Y-13492000D01*
X15209286Y-13492000D02*
X15190238Y-13501524D01*
X15190238Y-13501524D02*
X15133095Y-13501524D01*
X15133095Y-13501524D02*
X15114048Y-13492000D01*
X15114048Y-13492000D02*
X15104524Y-13482476D01*
X15323572Y-13501524D02*
X15361667Y-13501524D01*
X15361667Y-13501524D02*
X15380714Y-13492000D01*
X15380714Y-13492000D02*
X15390238Y-13482476D01*
X15390238Y-13482476D02*
X15409286Y-13453905D01*
X15409286Y-13453905D02*
X15418810Y-13415809D01*
X15418810Y-13415809D02*
X15418810Y-13339619D01*
X15418810Y-13339619D02*
X15409286Y-13320571D01*
X15409286Y-13320571D02*
X15399762Y-13311048D01*
X15399762Y-13311048D02*
X15380714Y-13301524D01*
X15380714Y-13301524D02*
X15342619Y-13301524D01*
X15342619Y-13301524D02*
X15323572Y-13311048D01*
X15323572Y-13311048D02*
X15314048Y-13320571D01*
X15314048Y-13320571D02*
X15304524Y-13339619D01*
X15304524Y-13339619D02*
X15304524Y-13387238D01*
X15304524Y-13387238D02*
X15314048Y-13406286D01*
X15314048Y-13406286D02*
X15323572Y-13415809D01*
X15323572Y-13415809D02*
X15342619Y-13425333D01*
X15342619Y-13425333D02*
X15380714Y-13425333D01*
X15380714Y-13425333D02*
X15399762Y-13415809D01*
X15399762Y-13415809D02*
X15409286Y-13406286D01*
X15409286Y-13406286D02*
X15418810Y-13387238D01*
X15590238Y-13368190D02*
X15590238Y-13501524D01*
X15542619Y-13292000D02*
X15495000Y-13434857D01*
X15495000Y-13434857D02*
X15618810Y-13434857D01*
X15685476Y-13301524D02*
X15685476Y-13339619D01*
X15761667Y-13301524D02*
X15761667Y-13339619D01*
X16056905Y-13577714D02*
X16047381Y-13568190D01*
X16047381Y-13568190D02*
X16028334Y-13539619D01*
X16028334Y-13539619D02*
X16018810Y-13520571D01*
X16018810Y-13520571D02*
X16009286Y-13492000D01*
X16009286Y-13492000D02*
X15999762Y-13444381D01*
X15999762Y-13444381D02*
X15999762Y-13406286D01*
X15999762Y-13406286D02*
X16009286Y-13358667D01*
X16009286Y-13358667D02*
X16018810Y-13330095D01*
X16018810Y-13330095D02*
X16028334Y-13311048D01*
X16028334Y-13311048D02*
X16047381Y-13282476D01*
X16047381Y-13282476D02*
X16056905Y-13272952D01*
X16218810Y-13368190D02*
X16218810Y-13501524D01*
X16171191Y-13292000D02*
X16123572Y-13434857D01*
X16123572Y-13434857D02*
X16247381Y-13434857D01*
X16352143Y-13387238D02*
X16333095Y-13377714D01*
X16333095Y-13377714D02*
X16323572Y-13368190D01*
X16323572Y-13368190D02*
X16314048Y-13349143D01*
X16314048Y-13349143D02*
X16314048Y-13339619D01*
X16314048Y-13339619D02*
X16323572Y-13320571D01*
X16323572Y-13320571D02*
X16333095Y-13311048D01*
X16333095Y-13311048D02*
X16352143Y-13301524D01*
X16352143Y-13301524D02*
X16390238Y-13301524D01*
X16390238Y-13301524D02*
X16409286Y-13311048D01*
X16409286Y-13311048D02*
X16418810Y-13320571D01*
X16418810Y-13320571D02*
X16428334Y-13339619D01*
X16428334Y-13339619D02*
X16428334Y-13349143D01*
X16428334Y-13349143D02*
X16418810Y-13368190D01*
X16418810Y-13368190D02*
X16409286Y-13377714D01*
X16409286Y-13377714D02*
X16390238Y-13387238D01*
X16390238Y-13387238D02*
X16352143Y-13387238D01*
X16352143Y-13387238D02*
X16333095Y-13396762D01*
X16333095Y-13396762D02*
X16323572Y-13406286D01*
X16323572Y-13406286D02*
X16314048Y-13425333D01*
X16314048Y-13425333D02*
X16314048Y-13463428D01*
X16314048Y-13463428D02*
X16323572Y-13482476D01*
X16323572Y-13482476D02*
X16333095Y-13492000D01*
X16333095Y-13492000D02*
X16352143Y-13501524D01*
X16352143Y-13501524D02*
X16390238Y-13501524D01*
X16390238Y-13501524D02*
X16409286Y-13492000D01*
X16409286Y-13492000D02*
X16418810Y-13482476D01*
X16418810Y-13482476D02*
X16428334Y-13463428D01*
X16428334Y-13463428D02*
X16428334Y-13425333D01*
X16428334Y-13425333D02*
X16418810Y-13406286D01*
X16418810Y-13406286D02*
X16409286Y-13396762D01*
X16409286Y-13396762D02*
X16390238Y-13387238D01*
X16666429Y-13501524D02*
X16666429Y-13301524D01*
X16752143Y-13501524D02*
X16752143Y-13396762D01*
X16752143Y-13396762D02*
X16742619Y-13377714D01*
X16742619Y-13377714D02*
X16723572Y-13368190D01*
X16723572Y-13368190D02*
X16695000Y-13368190D01*
X16695000Y-13368190D02*
X16675953Y-13377714D01*
X16675953Y-13377714D02*
X16666429Y-13387238D01*
X16875953Y-13501524D02*
X16856905Y-13492000D01*
X16856905Y-13492000D02*
X16847381Y-13482476D01*
X16847381Y-13482476D02*
X16837858Y-13463428D01*
X16837858Y-13463428D02*
X16837858Y-13406286D01*
X16837858Y-13406286D02*
X16847381Y-13387238D01*
X16847381Y-13387238D02*
X16856905Y-13377714D01*
X16856905Y-13377714D02*
X16875953Y-13368190D01*
X16875953Y-13368190D02*
X16904524Y-13368190D01*
X16904524Y-13368190D02*
X16923572Y-13377714D01*
X16923572Y-13377714D02*
X16933096Y-13387238D01*
X16933096Y-13387238D02*
X16942619Y-13406286D01*
X16942619Y-13406286D02*
X16942619Y-13463428D01*
X16942619Y-13463428D02*
X16933096Y-13482476D01*
X16933096Y-13482476D02*
X16923572Y-13492000D01*
X16923572Y-13492000D02*
X16904524Y-13501524D01*
X16904524Y-13501524D02*
X16875953Y-13501524D01*
X17056905Y-13501524D02*
X17037858Y-13492000D01*
X17037858Y-13492000D02*
X17028334Y-13472952D01*
X17028334Y-13472952D02*
X17028334Y-13301524D01*
X17209286Y-13492000D02*
X17190239Y-13501524D01*
X17190239Y-13501524D02*
X17152143Y-13501524D01*
X17152143Y-13501524D02*
X17133096Y-13492000D01*
X17133096Y-13492000D02*
X17123572Y-13472952D01*
X17123572Y-13472952D02*
X17123572Y-13396762D01*
X17123572Y-13396762D02*
X17133096Y-13377714D01*
X17133096Y-13377714D02*
X17152143Y-13368190D01*
X17152143Y-13368190D02*
X17190239Y-13368190D01*
X17190239Y-13368190D02*
X17209286Y-13377714D01*
X17209286Y-13377714D02*
X17218810Y-13396762D01*
X17218810Y-13396762D02*
X17218810Y-13415809D01*
X17218810Y-13415809D02*
X17123572Y-13434857D01*
X17295000Y-13492000D02*
X17314048Y-13501524D01*
X17314048Y-13501524D02*
X17352143Y-13501524D01*
X17352143Y-13501524D02*
X17371191Y-13492000D01*
X17371191Y-13492000D02*
X17380715Y-13472952D01*
X17380715Y-13472952D02*
X17380715Y-13463428D01*
X17380715Y-13463428D02*
X17371191Y-13444381D01*
X17371191Y-13444381D02*
X17352143Y-13434857D01*
X17352143Y-13434857D02*
X17323572Y-13434857D01*
X17323572Y-13434857D02*
X17304524Y-13425333D01*
X17304524Y-13425333D02*
X17295000Y-13406286D01*
X17295000Y-13406286D02*
X17295000Y-13396762D01*
X17295000Y-13396762D02*
X17304524Y-13377714D01*
X17304524Y-13377714D02*
X17323572Y-13368190D01*
X17323572Y-13368190D02*
X17352143Y-13368190D01*
X17352143Y-13368190D02*
X17371191Y-13377714D01*
X17447381Y-13577714D02*
X17456905Y-13568190D01*
X17456905Y-13568190D02*
X17475953Y-13539619D01*
X17475953Y-13539619D02*
X17485477Y-13520571D01*
X17485477Y-13520571D02*
X17495000Y-13492000D01*
X17495000Y-13492000D02*
X17504524Y-13444381D01*
X17504524Y-13444381D02*
X17504524Y-13406286D01*
X17504524Y-13406286D02*
X17495000Y-13358667D01*
X17495000Y-13358667D02*
X17485477Y-13330095D01*
X17485477Y-13330095D02*
X17475953Y-13311048D01*
X17475953Y-13311048D02*
X17456905Y-13282476D01*
X17456905Y-13282476D02*
X17447381Y-13272952D01*
M02*
