%TF.GenerationSoftware,KiCad,Pcbnew,7.0.2-6a45011f42~172~ubuntu22.04.1*%
%TF.CreationDate,2023-05-07T18:17:33+01:00*%
%TF.ProjectId,octoHX711,6f63746f-4858-4373-9131-2e6b69636164,rev?*%
%TF.SameCoordinates,Original*%
%TF.FileFunction,Copper,L4,Bot*%
%TF.FilePolarity,Positive*%
%FSLAX46Y46*%
G04 Gerber Fmt 4.6, Leading zero omitted, Abs format (unit mm)*
G04 Created by KiCad (PCBNEW 7.0.2-6a45011f42~172~ubuntu22.04.1) date 2023-05-07 18:17:33*
%MOMM*%
%LPD*%
G01*
G04 APERTURE LIST*
%TA.AperFunction,ComponentPad*%
%ADD10O,1.700000X1.700000*%
%TD*%
%TA.AperFunction,ComponentPad*%
%ADD11R,1.700000X1.700000*%
%TD*%
%TA.AperFunction,ViaPad*%
%ADD12C,0.600000*%
%TD*%
%TA.AperFunction,Conductor*%
%ADD13C,0.127000*%
%TD*%
G04 APERTURE END LIST*
D10*
%TO.P,J12,3,Pin_3*%
%TO.N,GND*%
X143540000Y-122000000D03*
%TO.P,J12,2,Pin_2*%
%TO.N,rate*%
X141000000Y-122000000D03*
D11*
%TO.P,J12,1,Pin_1*%
%TO.N,VDD*%
X138460000Y-122000000D03*
%TD*%
D10*
%TO.P,J8,4,Pin_4*%
%TO.N,/HX711_unit7/a+*%
X154935000Y-74270000D03*
%TO.P,J8,3,Pin_3*%
%TO.N,/HX711_unit7/a-*%
X154935000Y-76810000D03*
%TO.P,J8,2,Pin_2*%
%TO.N,GND*%
X154935000Y-79350000D03*
D11*
%TO.P,J8,1,Pin_1*%
%TO.N,/HX711_unit7/e+*%
X154935000Y-81890000D03*
%TD*%
D10*
%TO.P,J7,4,Pin_4*%
%TO.N,/HX711_unit6/a+*%
X154935000Y-86270000D03*
%TO.P,J7,3,Pin_3*%
%TO.N,/HX711_unit6/a-*%
X154935000Y-88810000D03*
%TO.P,J7,2,Pin_2*%
%TO.N,GND*%
X154935000Y-91350000D03*
D11*
%TO.P,J7,1,Pin_1*%
%TO.N,/HX711_unit6/e+*%
X154935000Y-93890000D03*
%TD*%
D10*
%TO.P,J6,4,Pin_4*%
%TO.N,/HX711_unit8/a+*%
X154935000Y-98270000D03*
%TO.P,J6,3,Pin_3*%
%TO.N,/HX711_unit8/a-*%
X154935000Y-100810000D03*
%TO.P,J6,2,Pin_2*%
%TO.N,GND*%
X154935000Y-103350000D03*
D11*
%TO.P,J6,1,Pin_1*%
%TO.N,/HX711_unit8/e+*%
X154935000Y-105890000D03*
%TD*%
D10*
%TO.P,J5,4,Pin_4*%
%TO.N,/HX711_unit5/a+*%
X154935000Y-110270000D03*
%TO.P,J5,3,Pin_3*%
%TO.N,/HX711_unit5/a-*%
X154935000Y-112810000D03*
%TO.P,J5,2,Pin_2*%
%TO.N,GND*%
X154935000Y-115350000D03*
D11*
%TO.P,J5,1,Pin_1*%
%TO.N,/HX711_unit5/e+*%
X154935000Y-117890000D03*
%TD*%
D10*
%TO.P,J4,4,Pin_4*%
%TO.N,/HX711_unit4/a+*%
X126895000Y-117735000D03*
%TO.P,J4,3,Pin_3*%
%TO.N,/HX711_unit4/a-*%
X126895000Y-115195000D03*
%TO.P,J4,2,Pin_2*%
%TO.N,GND*%
X126895000Y-112655000D03*
D11*
%TO.P,J4,1,Pin_1*%
%TO.N,/HX711_unit4/e+*%
X126895000Y-110115000D03*
%TD*%
D10*
%TO.P,J3,4,Pin_4*%
%TO.N,/HX711_unit3/a+*%
X126895000Y-105735000D03*
%TO.P,J3,3,Pin_3*%
%TO.N,/HX711_unit3/a-*%
X126895000Y-103195000D03*
%TO.P,J3,2,Pin_2*%
%TO.N,GND*%
X126895000Y-100655000D03*
D11*
%TO.P,J3,1,Pin_1*%
%TO.N,/HX711_unit3/e+*%
X126895000Y-98115000D03*
%TD*%
%TO.P,J2,1,Pin_1*%
%TO.N,/HX711_unit2/e+*%
X126895000Y-86115000D03*
D10*
%TO.P,J2,2,Pin_2*%
%TO.N,GND*%
X126895000Y-88655000D03*
%TO.P,J2,3,Pin_3*%
%TO.N,/HX711_unit2/a-*%
X126895000Y-91195000D03*
%TO.P,J2,4,Pin_4*%
%TO.N,/HX711_unit2/a+*%
X126895000Y-93735000D03*
%TD*%
%TO.P,J1,4,Pin_4*%
%TO.N,/HX711_unit1/a+*%
X126895000Y-81735000D03*
%TO.P,J1,3,Pin_3*%
%TO.N,/HX711_unit1/a-*%
X126895000Y-79195000D03*
%TO.P,J1,2,Pin_2*%
%TO.N,GND*%
X126895000Y-76655000D03*
D11*
%TO.P,J1,1,Pin_1*%
%TO.N,/HX711_unit1/e+*%
X126895000Y-74115000D03*
%TD*%
%TO.P,J9,1,Pin_1*%
%TO.N,/HX711_unit1/Sdat*%
X132000000Y-70000000D03*
D10*
%TO.P,J9,2,Pin_2*%
%TO.N,/HX711_unit2/Sdat*%
X134540000Y-70000000D03*
%TO.P,J9,3,Pin_3*%
%TO.N,/HX711_unit3/Sdat*%
X137080000Y-70000000D03*
%TO.P,J9,4,Pin_4*%
%TO.N,/HX711_unit4/Sdat*%
X139620000Y-70000000D03*
%TO.P,J9,5,Pin_5*%
%TO.N,/HX711_unit5/Sdat*%
X142160000Y-70000000D03*
%TO.P,J9,6,Pin_6*%
%TO.N,/HX711_unit8/Sdat*%
X144700000Y-70000000D03*
%TO.P,J9,7,Pin_7*%
%TO.N,/HX711_unit6/Sdat*%
X147240000Y-70000000D03*
%TO.P,J9,8,Pin_8*%
%TO.N,/HX711_unit7/Sdat*%
X149780000Y-70000000D03*
%TD*%
D11*
%TO.P,J10,1,Pin_1*%
%TO.N,VDD*%
X132000000Y-67415000D03*
D10*
%TO.P,J10,2,Pin_2*%
%TO.N,Sclk*%
X134540000Y-67415000D03*
%TO.P,J10,3,Pin_3*%
%TO.N,GND*%
X137080000Y-67415000D03*
%TD*%
%TO.P,J11,2,Pin_2*%
%TO.N,GND*%
X144675000Y-67415000D03*
D11*
%TO.P,J11,1,Pin_1*%
%TO.N,VCC*%
X142135000Y-67415000D03*
%TD*%
D12*
%TO.N,GND*%
X129000000Y-72500000D03*
%TO.N,VDD*%
X136800000Y-116500000D03*
%TO.N,rate*%
X138013983Y-74728983D03*
X137985000Y-86700000D03*
X137994500Y-98700000D03*
X143900000Y-81200000D03*
X143835500Y-93200000D03*
X143835500Y-105200000D03*
X137994500Y-110800000D03*
X143835500Y-117200000D03*
%TO.N,/HX711_unit7/Sdat*%
X143900000Y-77500000D03*
%TO.N,/HX711_unit6/Sdat*%
X143835500Y-89500000D03*
%TO.N,/HX711_unit8/Sdat*%
X143835500Y-101400000D03*
%TO.N,/HX711_unit5/Sdat*%
X143835500Y-113400000D03*
%TO.N,Sclk*%
X145000000Y-75000000D03*
%TO.N,/HX711_unit1/Sdat*%
X138000000Y-78600000D03*
%TO.N,/HX711_unit2/Sdat*%
X137994500Y-90500000D03*
%TO.N,/HX711_unit3/Sdat*%
X137994500Y-102500000D03*
%TO.N,/HX711_unit4/Sdat*%
X138000000Y-114500000D03*
%TO.N,GND*%
X143835000Y-91950000D03*
X146135000Y-89750000D03*
X143835000Y-79950000D03*
X146135000Y-77750000D03*
X143835000Y-115950000D03*
X146135000Y-113750000D03*
X143835000Y-103950000D03*
X146135000Y-101750000D03*
X137995000Y-112055000D03*
X135695000Y-114255000D03*
X137995000Y-100055000D03*
X135695000Y-102255000D03*
X137995000Y-88055000D03*
X135695000Y-90255000D03*
X143835000Y-91950000D03*
X146135000Y-89750000D03*
X143835000Y-79950000D03*
X146135000Y-77750000D03*
X143835000Y-115950000D03*
X146135000Y-113750000D03*
X143835000Y-103950000D03*
X146135000Y-101750000D03*
X137995000Y-112055000D03*
X135695000Y-114255000D03*
X137995000Y-100055000D03*
X135695000Y-102255000D03*
X137995000Y-88055000D03*
X135695000Y-90255000D03*
X143835000Y-91950000D03*
X146135000Y-89750000D03*
X143835000Y-79950000D03*
X146135000Y-77750000D03*
X143835000Y-115950000D03*
X146135000Y-113750000D03*
X143835000Y-103950000D03*
X146135000Y-101750000D03*
X137995000Y-112055000D03*
X135695000Y-114255000D03*
X137995000Y-100055000D03*
X135695000Y-102255000D03*
X137995000Y-88055000D03*
X135695000Y-90255000D03*
X143835000Y-91950000D03*
X146135000Y-89750000D03*
X143835000Y-79950000D03*
X146135000Y-77750000D03*
X143835000Y-115950000D03*
X146135000Y-113750000D03*
X143835000Y-103950000D03*
X146135000Y-101750000D03*
X137995000Y-112055000D03*
X135695000Y-114255000D03*
X137995000Y-100055000D03*
X135695000Y-102255000D03*
X137995000Y-88055000D03*
X135695000Y-90255000D03*
X143835000Y-91950000D03*
X146135000Y-89750000D03*
X143835000Y-79950000D03*
X146135000Y-77750000D03*
X143835000Y-115950000D03*
X146135000Y-113750000D03*
X143835000Y-103950000D03*
X146135000Y-101750000D03*
X137995000Y-112055000D03*
X135695000Y-114255000D03*
X137995000Y-100055000D03*
X135695000Y-102255000D03*
X137995000Y-88055000D03*
X135695000Y-90255000D03*
X135695000Y-78255000D03*
X137995000Y-76055000D03*
%TD*%
D13*
%TO.N,rate*%
X137994500Y-110800000D02*
X137504000Y-111290500D01*
X137504000Y-111290500D02*
X137504000Y-116404000D01*
X137504000Y-116404000D02*
X141000000Y-119900000D01*
X143835500Y-117200000D02*
X143700000Y-117200000D01*
X143700000Y-117200000D02*
X141000000Y-119900000D01*
X141000000Y-119900000D02*
X141000000Y-122000000D01*
%TO.N,/HX711_unit5/Sdat*%
X142160000Y-70000000D02*
X141000000Y-71160000D01*
X141000000Y-71160000D02*
X141000000Y-110600000D01*
X143800000Y-113400000D02*
X143835500Y-113400000D01*
X141000000Y-110600000D02*
X143800000Y-113400000D01*
%TO.N,/HX711_unit8/Sdat*%
X144700000Y-70000000D02*
X141254000Y-73446000D01*
X141254000Y-73446000D02*
X141254000Y-98818500D01*
X141254000Y-98818500D02*
X143835500Y-101400000D01*
%TO.N,/HX711_unit6/Sdat*%
X147240000Y-70000000D02*
X147240000Y-70060000D01*
X147240000Y-70060000D02*
X141508000Y-75792000D01*
X141508000Y-75792000D02*
X141508000Y-87172500D01*
X141508000Y-87172500D02*
X143835500Y-89500000D01*
%TO.N,Sclk*%
X145000000Y-75000000D02*
X147200000Y-75000000D01*
X147200000Y-75000000D02*
X151100000Y-71100000D01*
X151100000Y-71100000D02*
X151100000Y-68600000D01*
X135955000Y-66000000D02*
X134540000Y-67415000D01*
X151100000Y-68600000D02*
X148500000Y-66000000D01*
X148500000Y-66000000D02*
X135955000Y-66000000D01*
%TO.N,rate*%
X137985000Y-86700000D02*
X138000000Y-86700000D01*
X138000000Y-86700000D02*
X138490500Y-86209500D01*
X138490500Y-86209500D02*
X138490500Y-75205500D01*
X138490500Y-75205500D02*
X138013983Y-74728983D01*
%TO.N,/HX711_unit1/Sdat*%
X138000000Y-78600000D02*
X132000000Y-72600000D01*
X132000000Y-72600000D02*
X132000000Y-70000000D01*
%TO.N,/HX711_unit2/Sdat*%
X137994500Y-90500000D02*
X140238000Y-88256500D01*
X140238000Y-88256500D02*
X140238000Y-75438000D01*
X140238000Y-75438000D02*
X134800000Y-70000000D01*
X134800000Y-70000000D02*
X134540000Y-70000000D01*
%TO.N,/HX711_unit3/Sdat*%
X137994500Y-102500000D02*
X140492000Y-100002500D01*
X140492000Y-100002500D02*
X140492000Y-74051210D01*
X140492000Y-74051210D02*
X137080000Y-70639210D01*
X137080000Y-70639210D02*
X137080000Y-70000000D01*
%TO.N,/HX711_unit4/Sdat*%
X138000000Y-114500000D02*
X140746000Y-111754000D01*
X140746000Y-111754000D02*
X140746000Y-71126000D01*
X140746000Y-71126000D02*
X139620000Y-70000000D01*
%TO.N,/HX711_unit7/Sdat*%
X149780000Y-70000000D02*
X149100000Y-70000000D01*
X149100000Y-70000000D02*
X143900000Y-75200000D01*
X143900000Y-75200000D02*
X143900000Y-77500000D01*
%TO.N,VDD*%
X136800000Y-116500000D02*
X136800000Y-120340000D01*
X136800000Y-120340000D02*
X138460000Y-122000000D01*
%TO.N,rate*%
X137985000Y-86700000D02*
X137504000Y-87181000D01*
X137504000Y-98209500D02*
X137994500Y-98700000D01*
X137504000Y-87181000D02*
X137504000Y-98209500D01*
X137994500Y-98700000D02*
X137504000Y-99190500D01*
X137504000Y-99190500D02*
X137504000Y-110309500D01*
X137504000Y-110309500D02*
X137994500Y-110800000D01*
X144326000Y-81626000D02*
X144326000Y-92709500D01*
X143900000Y-81200000D02*
X144326000Y-81626000D01*
X144326000Y-92709500D02*
X143835500Y-93200000D01*
X143835500Y-93200000D02*
X144326000Y-93690500D01*
X144326000Y-93690500D02*
X144326000Y-104709500D01*
X144326000Y-104709500D02*
X143835500Y-105200000D01*
X143835500Y-105200000D02*
X144326000Y-105690500D01*
X144326000Y-105690500D02*
X144326000Y-116709500D01*
X144326000Y-116709500D02*
X143835500Y-117200000D01*
%TD*%
M02*
