M48
; DRILL file {KiCad 7.0.2-6a45011f42~172~ubuntu22.04.1} date Sun 07 May 2023 18:17:41 BST
; FORMAT={-:-/ absolute / metric / decimal}
; #@! TF.CreationDate,2023-05-07T18:17:41+01:00
; #@! TF.GenerationSoftware,Kicad,Pcbnew,7.0.2-6a45011f42~172~ubuntu22.04.1
; #@! TF.FileFunction,Plated,1,4,PTH
FMAT,2
METRIC
; #@! TA.AperFunction,Plated,PTH,ViaDrill
T1C0.300
; #@! TA.AperFunction,Plated,PTH,ComponentDrill
T2C1.000
%
G90
G05
T1
X129.0Y-72.5
X135.695Y-78.255
X135.695Y-90.255
X135.695Y-90.255
X135.695Y-90.255
X135.695Y-90.255
X135.695Y-90.255
X135.695Y-102.255
X135.695Y-102.255
X135.695Y-102.255
X135.695Y-102.255
X135.695Y-102.255
X135.695Y-114.255
X135.695Y-114.255
X135.695Y-114.255
X135.695Y-114.255
X135.695Y-114.255
X136.8Y-116.5
X137.985Y-86.7
X137.994Y-90.5
X137.994Y-98.7
X137.994Y-102.5
X137.994Y-110.8
X137.995Y-76.055
X137.995Y-88.055
X137.995Y-88.055
X137.995Y-88.055
X137.995Y-88.055
X137.995Y-88.055
X137.995Y-100.055
X137.995Y-100.055
X137.995Y-100.055
X137.995Y-100.055
X137.995Y-100.055
X137.995Y-112.055
X137.995Y-112.055
X137.995Y-112.055
X137.995Y-112.055
X137.995Y-112.055
X138.0Y-78.6
X138.0Y-114.5
X138.014Y-74.729
X143.835Y-79.95
X143.835Y-79.95
X143.835Y-79.95
X143.835Y-79.95
X143.835Y-79.95
X143.835Y-91.95
X143.835Y-91.95
X143.835Y-91.95
X143.835Y-91.95
X143.835Y-91.95
X143.835Y-103.95
X143.835Y-103.95
X143.835Y-103.95
X143.835Y-103.95
X143.835Y-103.95
X143.835Y-115.95
X143.835Y-115.95
X143.835Y-115.95
X143.835Y-115.95
X143.835Y-115.95
X143.835Y-89.5
X143.835Y-93.2
X143.835Y-101.4
X143.835Y-105.2
X143.835Y-113.4
X143.835Y-117.2
X143.9Y-77.5
X143.9Y-81.2
X145.0Y-75.0
X146.135Y-77.75
X146.135Y-77.75
X146.135Y-77.75
X146.135Y-77.75
X146.135Y-77.75
X146.135Y-89.75
X146.135Y-89.75
X146.135Y-89.75
X146.135Y-89.75
X146.135Y-89.75
X146.135Y-101.75
X146.135Y-101.75
X146.135Y-101.75
X146.135Y-101.75
X146.135Y-101.75
X146.135Y-113.75
X146.135Y-113.75
X146.135Y-113.75
X146.135Y-113.75
X146.135Y-113.75
T2
X126.895Y-74.115
X126.895Y-76.655
X126.895Y-79.195
X126.895Y-81.735
X126.895Y-86.115
X126.895Y-88.655
X126.895Y-91.195
X126.895Y-93.735
X126.895Y-98.115
X126.895Y-100.655
X126.895Y-103.195
X126.895Y-105.735
X126.895Y-110.115
X126.895Y-112.655
X126.895Y-115.195
X126.895Y-117.735
X132.0Y-67.415
X132.0Y-70.0
X134.54Y-67.415
X134.54Y-70.0
X137.08Y-67.415
X137.08Y-70.0
X138.46Y-122.0
X139.62Y-70.0
X141.0Y-122.0
X142.135Y-67.415
X142.16Y-70.0
X143.54Y-122.0
X144.675Y-67.415
X144.7Y-70.0
X147.24Y-70.0
X149.78Y-70.0
X154.935Y-74.27
X154.935Y-76.81
X154.935Y-79.35
X154.935Y-81.89
X154.935Y-86.27
X154.935Y-88.81
X154.935Y-91.35
X154.935Y-93.89
X154.935Y-98.27
X154.935Y-100.81
X154.935Y-103.35
X154.935Y-105.89
X154.935Y-110.27
X154.935Y-112.81
X154.935Y-115.35
X154.935Y-117.89
T0
M30
