%TF.GenerationSoftware,KiCad,Pcbnew,7.0.2-6a45011f42~172~ubuntu22.04.1*%
%TF.CreationDate,2023-05-07T18:17:35+01:00*%
%TF.ProjectId,octoHX711,6f63746f-4858-4373-9131-2e6b69636164,rev?*%
%TF.SameCoordinates,Original*%
%TF.FileFunction,Soldermask,Bot*%
%TF.FilePolarity,Negative*%
%FSLAX46Y46*%
G04 Gerber Fmt 4.6, Leading zero omitted, Abs format (unit mm)*
G04 Created by KiCad (PCBNEW 7.0.2-6a45011f42~172~ubuntu22.04.1) date 2023-05-07 18:17:35*
%MOMM*%
%LPD*%
G01*
G04 APERTURE LIST*
%ADD10O,1.700000X1.700000*%
%ADD11R,1.700000X1.700000*%
G04 APERTURE END LIST*
D10*
%TO.C,J12*%
X143540000Y-122000000D03*
X141000000Y-122000000D03*
D11*
X138460000Y-122000000D03*
%TD*%
D10*
%TO.C,J8*%
X154935000Y-74270000D03*
X154935000Y-76810000D03*
X154935000Y-79350000D03*
D11*
X154935000Y-81890000D03*
%TD*%
D10*
%TO.C,J7*%
X154935000Y-86270000D03*
X154935000Y-88810000D03*
X154935000Y-91350000D03*
D11*
X154935000Y-93890000D03*
%TD*%
D10*
%TO.C,J6*%
X154935000Y-98270000D03*
X154935000Y-100810000D03*
X154935000Y-103350000D03*
D11*
X154935000Y-105890000D03*
%TD*%
D10*
%TO.C,J5*%
X154935000Y-110270000D03*
X154935000Y-112810000D03*
X154935000Y-115350000D03*
D11*
X154935000Y-117890000D03*
%TD*%
D10*
%TO.C,J4*%
X126895000Y-117735000D03*
X126895000Y-115195000D03*
X126895000Y-112655000D03*
D11*
X126895000Y-110115000D03*
%TD*%
D10*
%TO.C,J3*%
X126895000Y-105735000D03*
X126895000Y-103195000D03*
X126895000Y-100655000D03*
D11*
X126895000Y-98115000D03*
%TD*%
%TO.C,J2*%
X126895000Y-86115000D03*
D10*
X126895000Y-88655000D03*
X126895000Y-91195000D03*
X126895000Y-93735000D03*
%TD*%
%TO.C,J1*%
X126895000Y-81735000D03*
X126895000Y-79195000D03*
X126895000Y-76655000D03*
D11*
X126895000Y-74115000D03*
%TD*%
%TO.C,J9*%
X132000000Y-70000000D03*
D10*
X134540000Y-70000000D03*
X137080000Y-70000000D03*
X139620000Y-70000000D03*
X142160000Y-70000000D03*
X144700000Y-70000000D03*
X147240000Y-70000000D03*
X149780000Y-70000000D03*
%TD*%
D11*
%TO.C,J10*%
X132000000Y-67415000D03*
D10*
X134540000Y-67415000D03*
X137080000Y-67415000D03*
%TD*%
%TO.C,J11*%
X144675000Y-67415000D03*
D11*
X142135000Y-67415000D03*
%TD*%
M02*
